<svg id="Layer_1" data-name="Layer 1" xmlns="http://www.w3.org/2000/svg" viewBox="0 0 186 126"><defs><style>.cls-1{fill:#fafafa;}.cls-1,.cls-10,.cls-11,.cls-12,.cls-2,.cls-3,.cls-4,.cls-5,.cls-7,.cls-8,.cls-9{fill-rule:evenodd;}.cls-2,.cls-6{fill:#fff;}.cls-3{fill:#5acaef;}.cls-4{fill:#f5fcff;}.cls-5{fill:#127ef8;}.cls-7{fill:#e6e6e6;}.cls-8{fill:#ab65f4;}.cls-9{fill:#fbae7a;}.cls-10{fill:#ff7088;}.cls-11{fill:#66db82;}.cls-12,.cls-13{fill:#f6f4ef;}</style></defs><title>icon-advantage-09-186x126</title><path class="cls-1" d="M95.359,125.046A62.523,62.523,0,1,0,32.835,62.524,62.644,62.644,0,0,0,95.359,125.046Z"/><path class="cls-2" d="M95.359,105.039A42.514,42.514,0,1,0,52.845,62.524,42.6,42.6,0,0,0,95.359,105.039Z"/><path class="cls-3" d="M95.359,104.037A41.513,41.513,0,1,0,66,91.877a41.386,41.386,0,0,0,29.355,12.16Zm30.767-10.743a43.506,43.506,0,1,1,12.749-30.769A43.372,43.372,0,0,1,126.126,93.294Z"/><path class="cls-4" d="M95.359,97.537A35.013,35.013,0,1,0,60.346,62.524,35.081,35.081,0,0,0,95.359,97.537Z"/><path class="cls-5" d="M95.359,96.536a34.015,34.015,0,1,0-24.048-9.962,33.9,33.9,0,0,0,24.048,9.962Zm25.464-8.547a36.006,36.006,0,1,1,10.55-25.464A35.894,35.894,0,0,1,120.823,87.988Z"/><rect class="cls-6" x="17.913" y="13.108" width="23.896" height="4.889"/><path class="cls-7" d="M17.913,12.107h23.9a1,1,0,0,1,1,1V18a1,1,0,0,1-1,1h-23.9a1,1,0,0,1-1-1V13.108a1,1,0,0,1,1-1Zm22.9,2H18.914V17H40.809Z"/><rect class="cls-6" x="17.913" y="23.111" width="32.29" height="4.891"/><path class="cls-7" d="M17.913,22.112H50.2a1,1,0,0,1,1,1V28a1,1,0,0,1-1,1H17.913a1,1,0,0,1-1-1V23.111a1,1,0,0,1,1-1Zm31.288,2H18.914V27H49.2Z"/><rect class="cls-6" x="17.913" y="33.116" width="16.469" height="4.888"/><path class="cls-7" d="M18.914,37H33.38V34.117H18.914V37Zm15.468,2H17.913a1,1,0,0,1-1-1V33.116a1,1,0,0,1,1-1H34.382a1,1,0,0,1,1,1V38A1,1,0,0,1,34.382,39.006Z"/><rect class="cls-6" x="148.127" y="76.774" width="33.905" height="4.891"/><path class="cls-7" d="M148.127,75.773h33.905a1,1,0,0,1,1,1v4.891a1,1,0,0,1-1,1H148.127a1,1,0,0,1-1-1V76.774a1,1,0,0,1,1-1Zm32.9,2h-31.9v2.888h31.9Z"/><rect class="cls-6" x="148.127" y="86.779" width="20.286" height="4.888"/><path class="cls-7" d="M148.127,85.778h20.286a1,1,0,0,1,1,1v4.888a1,1,0,0,1-1,1H148.127a1,1,0,0,1-1-1V86.779a1,1,0,0,1,1-1Zm19.285,2H149.128v2.888h18.284Z"/><rect class="cls-6" x="148.127" y="96.782" width="26.481" height="4.888"/><path class="cls-7" d="M149.128,100.671h24.478V97.783H149.128v2.888Zm25.48,2H148.127a1,1,0,0,1-1-1V96.782a1,1,0,0,1,1-1h26.481a1,1,0,0,1,1,1v4.888A1,1,0,0,1,174.608,102.672Z"/><path class="cls-2" d="M128.6,115.638h0a4.011,4.011,0,0,1-4-4v0a4.013,4.013,0,0,1,4-4h0a4.013,4.013,0,0,1,4,4v0A4.011,4.011,0,0,1,128.6,115.638Z"/><path class="cls-3" d="M128.6,116.639h0a4.991,4.991,0,0,1-3.528-1.467l0,0a4.992,4.992,0,0,1-1.47-3.529v0a4.994,4.994,0,0,1,1.47-3.529l0,0a4.99,4.99,0,0,1,3.528-1.467h0a4.991,4.991,0,0,1,3.529,1.467l0,0a4.994,4.994,0,0,1,1.47,3.529v0a4.992,4.992,0,0,1-1.47,3.529l0,0a4.991,4.991,0,0,1-3.529,1.467Zm0-2h0a3,3,0,0,0,3-3v0a3,3,0,0,0-3-3h0a3,3,0,0,0-3,3v0a3,3,0,0,0,3,3Z"/><path class="cls-2" d="M23.876,63.841h0a4.012,4.012,0,0,1-4-4v0a4.012,4.012,0,0,1,4-4h0a4.012,4.012,0,0,1,4,4v0A4.012,4.012,0,0,1,23.876,63.841Z"/><path class="cls-5" d="M23.876,64.84h0a4.993,4.993,0,0,1-3.529-1.467l-.008,0a4.994,4.994,0,0,1-1.466-3.529v0a5,5,0,0,1,1.466-3.529l.008,0a4.991,4.991,0,0,1,3.529-1.467h0A5,5,0,0,1,27.405,56.3l0,0a5,5,0,0,1,1.469,3.529v0a5,5,0,0,1-1.469,3.529l0,0a5,5,0,0,1-3.529,1.467Zm0-2h0a3,3,0,0,0,3-3v0a3,3,0,0,0-3-3h0a3,3,0,0,0-3,3v0a3,3,0,0,0,3,3Z"/><path class="cls-2" d="M114.356,4.127h0a4.013,4.013,0,0,1,4,4h0a4.011,4.011,0,0,1-4,4h0a4.011,4.011,0,0,1-4-4h0A4.013,4.013,0,0,1,114.356,4.127Z"/><path class="cls-8" d="M114.356,3.128h0A4.983,4.983,0,0,1,117.884,4.6l0,0a4.988,4.988,0,0,1,1.47,3.529h0a5,5,0,0,1-1.47,3.531l0,0a4.984,4.984,0,0,1-3.528,1.467h0a5,5,0,0,1-3.529-1.467l0,0a5,5,0,0,1-1.47-3.531h0a4.989,4.989,0,0,1,1.47-3.529l0,0a5,5,0,0,1,3.529-1.467Zm0,2h0a3,3,0,0,0-3,3h0a3,3,0,0,0,3,3h0a3,3,0,0,0,3-3h0a3,3,0,0,0-3-3Z"/><rect class="cls-6" x="65.52" y="4.6" width="5.002" height="5" rx="2.499" ry="2.499"/><path class="cls-9" d="M68.019,3.6h0a3.494,3.494,0,0,1,2.467,1.028l0,0A3.491,3.491,0,0,1,71.523,7.1v0a3.513,3.513,0,0,1-3.5,3.5h0a3.5,3.5,0,0,1-2.467-1.028l0,0A3.49,3.49,0,0,1,64.518,7.1v0a3.513,3.513,0,0,1,3.5-3.5Zm0,2h0a1.5,1.5,0,0,0-1.5,1.5v0a1.5,1.5,0,0,0,.435,1.059l0,0a1.5,1.5,0,0,0,1.059.437h0a1.5,1.5,0,0,0,1.5-1.5v0a1.505,1.505,0,0,0-.436-1.058l0,0A1.506,1.506,0,0,0,68.022,5.6Z"/><path class="cls-2" d="M160.981,58.9h0a2.506,2.506,0,0,1-2.5-2.5h0a2.507,2.507,0,0,1,2.5-2.5h0a2.51,2.51,0,0,1,2.5,2.5h0A2.51,2.51,0,0,1,160.981,58.9Z"/><path class="cls-10" d="M160.981,59.9h0a3.489,3.489,0,0,1-2.467-1.028l0,0a3.49,3.49,0,0,1-1.029-2.469h0a3.508,3.508,0,0,1,3.5-3.5h0a3.5,3.5,0,0,1,2.471,1.026l0,.006a3.479,3.479,0,0,1,1.026,2.469h0a3.507,3.507,0,0,1-3.5,3.5Zm0-2h0a1.511,1.511,0,0,0,1.5-1.5h0a1.517,1.517,0,0,0-.435-1.059l-.008-.006a1.493,1.493,0,0,0-1.059-.435h0a1.5,1.5,0,0,0-1.5,1.5h0a1.492,1.492,0,0,0,.436,1.058l0,0A1.5,1.5,0,0,0,160.981,57.9Z"/><rect class="cls-6" x="69.382" y="114.484" width="5.003" height="5.001" rx="2.499" ry="2.499"/><path class="cls-11" d="M71.886,120.485h0a3.493,3.493,0,0,1-2.466-1.027l0-.006a3.481,3.481,0,0,1-1.029-2.467v0a3.508,3.508,0,0,1,3.5-3.5h0a3.5,3.5,0,0,1,2.466,1.026l.009.006a3.5,3.5,0,0,1,1.025,2.469v0a3.5,3.5,0,0,1-3.5,3.5Zm0-2h0a1.5,1.5,0,0,0,1.5-1.5v0a1.5,1.5,0,0,0-.436-1.058l0,0a1.5,1.5,0,0,0-1.058-.438h0a1.511,1.511,0,0,0-1.5,1.5v0a1.508,1.508,0,0,0,.435,1.057l.008.006A1.5,1.5,0,0,0,71.881,118.483Z"/><path class="cls-5" d="M102.592,43.76a1,1,0,0,1-1.416,1.415A8.222,8.222,0,0,0,98.5,43.386l-.044-.02a8.334,8.334,0,0,0-6.248.018v0a8.292,8.292,0,0,0-4.461,4.459l-.02.047a8.269,8.269,0,0,0-.6,3.1,8.181,8.181,0,0,0,.619,3.146h0a8.195,8.195,0,0,0,7.607,5.079,12.514,12.514,0,0,1,4.79.953h0a12.559,12.559,0,0,1,6.786,6.787l.023.061a12.524,12.524,0,0,1-.023,9.523v0h0a12.556,12.556,0,0,1-6.786,6.787l-.064.023a12.507,12.507,0,0,1-9.521-.023l0,0v0A12.527,12.527,0,0,1,82.826,71.75a1,1,0,0,1,2,0,10.553,10.553,0,0,0,6.5,9.738h0a10.624,10.624,0,0,0,8.022.014l.037-.014a10.6,10.6,0,0,0,5.706-5.708h0a10.663,10.663,0,0,0,.012-8.022l-.017-.035a10.6,10.6,0,0,0-5.706-5.711h0a10.553,10.553,0,0,0-4.029-.793,10.254,10.254,0,0,1-7.233-2.994A10.312,10.312,0,0,1,85.907,54.9h0l0,0a10.206,10.206,0,0,1-.02-7.766l.02-.055a10.234,10.234,0,0,1,5.54-5.537v0l0,0a10.2,10.2,0,0,1,7.763-.02l.057.02A10.3,10.3,0,0,1,102.592,43.76Z"/><path class="cls-5" d="M94.357,37.547a1,1,0,0,1,2,0V87.5a1,1,0,0,1-2,0Z"/><path class="cls-4" d="M92.356,37.547a1,1,0,1,1,2,0V87.5a1,1,0,1,1-2,0Z"/><polygon class="cls-2" points="128.719 23.461 130.958 29.19 136.689 31.427 130.958 33.664 128.719 39.395 126.484 33.664 120.754 31.427 126.484 29.19 128.719 23.461"/><path class="cls-5" d="M129.651,23.1l2.076,5.322,5.323,2.078a1,1,0,0,1,.566,1.294.989.989,0,0,1-.566.564v0l-5.323,2.078-2.076,5.324a1,1,0,0,1-1.86,0h0l-2.08-5.324-5.323-2.078a1,1,0,0,1,0-1.858v0l5.323-2.078,2.08-5.322a1,1,0,0,1,1.295-.566.985.985,0,0,1,.561.566Zm.374,6.457-1.307-3.348-1.306,3.348h0a1,1,0,0,1-.566.565L123.5,31.427l3.346,1.307v0a.991.991,0,0,1,.566.564l1.306,3.35,1.307-3.35h0a.991.991,0,0,1,.562-.566l3.35-1.307-3.35-1.307h0A1.013,1.013,0,0,1,130.025,29.555Z"/><path class="cls-2" d="M72.573,65.182h0a2.665,2.665,0,0,1-2.658-2.656v0a2.665,2.665,0,0,1,2.658-2.656h0a2.663,2.663,0,0,1,2.658,2.656v0A2.663,2.663,0,0,1,72.573,65.182Z"/><path class="cls-3" d="M72.573,66.181h0a3.655,3.655,0,0,1-2.581-1.072l0,0a3.655,3.655,0,0,1-1.07-2.578v0a3.648,3.648,0,0,1,1.07-2.582l.065-.061a3.647,3.647,0,0,1,2.519-1.011h0a3.664,3.664,0,0,1,3.659,3.655v0A3.642,3.642,0,0,1,75.158,65.1v0a3.642,3.642,0,0,1-2.585,1.072Zm0-2h0a1.668,1.668,0,0,0,1.172-.486v0a1.664,1.664,0,0,0,.484-1.17v0a1.657,1.657,0,0,0-1.656-1.654h0a1.651,1.651,0,0,0-1.128.443l-.04.043a1.644,1.644,0,0,0-.488,1.168v0a1.664,1.664,0,0,0,.484,1.168l0,0A1.655,1.655,0,0,0,72.573,64.181Z"/><path class="cls-2" d="M118.145,65.182h0a2.665,2.665,0,0,1-2.658-2.656v0a2.665,2.665,0,0,1,2.658-2.656h0a2.665,2.665,0,0,1,2.658,2.656v0A2.665,2.665,0,0,1,118.145,65.182Z"/><path class="cls-3" d="M118.145,66.184h0a3.649,3.649,0,0,1-2.581-1.073l0-.006a3.639,3.639,0,0,1-1.074-2.578v0a3.64,3.64,0,0,1,1.074-2.579l0-.006a3.651,3.651,0,0,1,2.581-1.072h0a3.664,3.664,0,0,1,3.659,3.657v0A3.639,3.639,0,0,1,120.73,65.1v.006a3.651,3.651,0,0,1-2.585,1.073Zm0-2h0a1.644,1.644,0,0,0,1.168-.486l0,0a1.657,1.657,0,0,0,.484-1.17v0a1.667,1.667,0,0,0-1.656-1.657h0a1.675,1.675,0,0,0-1.172.482l0,.006a1.657,1.657,0,0,0-.48,1.168v0a1.657,1.657,0,0,0,.48,1.168l0,0A1.665,1.665,0,0,0,118.145,64.181Z"/><path class="cls-12" d="M163.272,40.886A17.506,17.506,0,1,0,145.766,23.38,17.536,17.536,0,0,0,163.272,40.886Z"/><path class="cls-11" d="M167.273,35.882a16.449,16.449,0,0,0,11.67-4.833L179,31a16.51,16.51,0,0,0-.049-23.29l0-.006a16.514,16.514,0,0,0-23.34,0l0,0,0,0a16.5,16.5,0,0,0,11.67,28.175Zm13.086-3.419A18.506,18.506,0,1,1,154.188,6.291l0,0a18.5,18.5,0,0,1,26.164,0h0v0l0,0a18.491,18.491,0,0,1,.061,26.1Z"/><path class="cls-2" d="M167.273,30.3c-3.346,0-7.909-1.227-9.472-5.114.687-2.371,2.088-3.244,4.4-4.013a7.461,7.461,0,0,0,10.143,0c2.312.769,3.712,1.642,4.4,4.013C175.178,29.072,170.619,30.3,167.273,30.3Z"/><path class="cls-11" d="M167.273,31.3a14.05,14.05,0,0,1-6.5-1.535,8.286,8.286,0,0,1-3.894-4.21,1,1,0,0,1-.02-.678,6,6,0,0,1,1.9-3.061l0,0a9.218,9.218,0,0,1,3.143-1.587.994.994,0,0,1,1.013.238,6.5,6.5,0,0,0,6.728,1.252,6.393,6.393,0,0,0,2.039-1.276,1,1,0,0,1,.989-.213h0a9.244,9.244,0,0,1,3.139,1.587l.057.051a6.065,6.065,0,0,1,1.848,3.04,1.028,1.028,0,0,1-.032.647v0a8.26,8.26,0,0,1-3.892,4.21,14.056,14.056,0,0,1-6.5,1.535Zm-5.56-3.291a12.623,12.623,0,0,0,11.12,0,6.384,6.384,0,0,0,2.846-2.884,3.905,3.905,0,0,0-1.119-1.744l-.054-.042a6.371,6.371,0,0,0-1.945-1.04,8.437,8.437,0,0,1-10.574,0,6.461,6.461,0,0,0-1.95,1.04v0l0,0a3.911,3.911,0,0,0-1.168,1.787A6.426,6.426,0,0,0,161.713,28.01Z"/><path class="cls-2" d="M167.273,18.314c-2.564,0-3.5-2.078-3.5-4.644s.937-4.644,3.5-4.644,3.5,2.078,3.5,4.644S169.838,18.314,167.273,18.314Z"/><path class="cls-11" d="M167.273,19.315a4.011,4.011,0,0,1-3.391-1.589l-.037-.051a6.783,6.783,0,0,1-1.074-4.005,6.732,6.732,0,0,1,1.111-4.052v0a4.415,4.415,0,0,1,6.781,0l.036.053a6.77,6.77,0,0,1,1.075,4,6.739,6.739,0,0,1-1.111,4.054v0h0a4.011,4.011,0,0,1-3.391,1.589Zm-1.795-2.792a2.431,2.431,0,0,0,3.59,0v0a4.84,4.84,0,0,0,.7-2.855,4.927,4.927,0,0,0-.668-2.808l-.036-.045a2.435,2.435,0,0,0-3.59,0h0a4.859,4.859,0,0,0-.7,2.853,4.931,4.931,0,0,0,.667,2.809Z"/><path class="cls-13" d="M5.836,85.745H35.244a5.617,5.617,0,0,1,5.617,5.617v14.822a5.617,5.617,0,0,1-5.617,5.617H5.838a5.619,5.619,0,0,1-5.619-5.619V91.362a5.617,5.617,0,0,1,5.617-5.617Z"/><path class="cls-10" d="M10.208,108.429a6.607,6.607,0,0,1-4.673-1.941l0-.006a6.6,6.6,0,0,1-1.941-4.67V86.993A6.592,6.592,0,0,1,5.535,82.32v0a6.585,6.585,0,0,1,4.673-1.946H39.616a6.643,6.643,0,0,1,6.618,6.621v14.818a6.6,6.6,0,0,1-1.945,4.672v0a6.6,6.6,0,0,1-4.673,1.943Zm-3.265-3.358,0,0a4.605,4.605,0,0,0,3.261,1.354H39.616a4.606,4.606,0,0,0,3.26-1.359v0l0,0a4.593,4.593,0,0,0,1.351-3.258V86.993a4.638,4.638,0,0,0-4.615-4.618H10.208a4.614,4.614,0,0,0-3.261,1.357v0l0,0a4.6,4.6,0,0,0-1.351,3.261v14.818A4.613,4.613,0,0,0,6.943,105.071Z"/><path class="cls-10" d="M38.191,95.815a1,1,0,1,1,0,2h-9.72a1,1,0,1,1,0-2Z"/><path class="cls-10" d="M33.909,90.815a1,1,0,0,1,0,2H28.48a1,1,0,0,1,0-2Z"/><path class="cls-10" d="M10.948,95.1a1,1,0,0,1,1.413-1.414l2.967,2.963,6.793-6.792a1,1,0,1,1,1.4,1.417l-7.44,7.438-.053.057a1,1,0,0,1-1.416,0Z"/></svg>