<svg id="Layer_1" data-name="Layer 1" xmlns="http://www.w3.org/2000/svg" viewBox="0 0 186 127"><defs><style>.cls-1{fill:#fafafa;}.cls-1,.cls-10,.cls-11,.cls-12,.cls-3,.cls-4,.cls-5,.cls-6,.cls-7,.cls-8,.cls-9{fill-rule:evenodd;}.cls-10,.cls-2{fill:#fff;}.cls-3{fill:#e6e6e6;}.cls-4{fill:#f6f4ef;}.cls-5{fill:#5acaef;}.cls-6{fill:#ab65f4;}.cls-7{fill:#fbae7a;}.cls-8{fill:#ff7088;}.cls-9{fill:#66db82;}.cls-11{fill:#127ef8;}.cls-12{fill:#f5fcff;}</style></defs><title>icon-advantage-10-186x127</title><path class="cls-1" d="M92.056,126.369A62.523,62.523,0,1,0,29.532,63.847,62.645,62.645,0,0,0,92.056,126.369Z"/><rect class="cls-2" x="11.606" y="87.428" width="21.316" height="4.889"/><path class="cls-3" d="M11.606,86.427H32.922a1,1,0,0,1,1,1v4.889a1,1,0,0,1-1,1H11.606a1,1,0,0,1-1-1V87.428a1,1,0,0,1,1-1Zm20.315,2H12.607v2.888H31.921Z"/><rect class="cls-2" x="11.606" y="97.431" width="32.294" height="4.889"/><path class="cls-3" d="M11.606,96.43H43.9a1,1,0,0,1,1,1v4.889a1,1,0,0,1-1,1H11.606a1,1,0,0,1-1-1V97.431a1,1,0,0,1,1-1Zm31.293,2H12.607v2.888H42.9Z"/><rect class="cls-2" x="144.824" y="29.766" width="30.381" height="4.889"/><path class="cls-3" d="M144.824,28.765H175.2a1,1,0,0,1,1,1v4.889a1,1,0,0,1-1,1H144.824a1,1,0,0,1-1-1V29.766a1,1,0,0,1,1-1Zm29.38,2H145.825v2.886H174.2Z"/><rect class="cls-2" x="144.824" y="39.769" width="19.561" height="4.888"/><path class="cls-3" d="M144.824,38.77h19.561a1,1,0,0,1,1,1v4.888a1,1,0,0,1-1,1H144.824a1,1,0,0,1-1-1V39.769a1,1,0,0,1,1-1Zm18.56,2h-17.56v2.888h17.56Z"/><path class="cls-4" d="M158.276,122.1a17.507,17.507,0,1,0-17.506-17.507A17.54,17.54,0,0,0,158.276,122.1Z"/><path class="cls-5" d="M111.223,120.609a1,1,0,0,1-1.9.6l-3.818-11.96a.995.995,0,1,1,1.9-.6Z"/><path class="cls-6" d="M132.78,86.278a.995.995,0,1,1,.92-1.764l9.561,5a1,1,0,0,1-.924,1.764Z"/><path class="cls-7" d="M163.046,64.177a1,1,0,1,1-.032,1.992l-24.471-.455a1,1,0,1,1,.032-1.993Z"/><path class="cls-8" d="M127.834,12.293a1,1,0,0,1,1.615,1.166l-9.491,13.222a1,1,0,1,1-1.616-1.164Z"/><path class="cls-6" d="M23.907,63.605a1,1,0,1,1,.032-1.991l21.626.391A1,1,0,0,1,45.537,64Z"/><path class="cls-9" d="M73.173,3.779a1,1,0,0,1,1.913-.562L93.012,63.566a1,1,0,0,1-1.913.562Z"/><path class="cls-7" d="M44.266,33.338a1,1,0,0,1,1.1-1.665l8.519,5.652a1,1,0,1,1-1.1,1.663Z"/><path class="cls-8" d="M58.382,115.469a1,1,0,1,1-1.656-1.117l8.486-12.559a1,1,0,0,1,1.656,1.117Z"/><path class="cls-10" d="M110.966,116.971h0a4.011,4.011,0,0,0-4.636,3.244v0a4.012,4.012,0,0,0,3.244,4.634h0a4.01,4.01,0,0,0,4.632-3.244v0A4.007,4.007,0,0,0,110.966,116.971Z"/><path class="cls-5" d="M110.849,117.964l-.1-.016a3,3,0,0,0-2.2.507l-.045.028a2.983,2.983,0,0,0-1.184,1.85l-.017.1a3,3,0,0,0,2.39,3.427l.094.016a3,3,0,0,0,3.427-2.385l.017-.1a3,3,0,0,0-.5-2.2h0a3.014,3.014,0,0,0-1.88-1.227ZM107.4,116.82a5,5,0,0,1,3.721-.836l.012,0a5,5,0,0,1,3.225,2.058v0a5,5,0,0,1,.838,3.718l0,.012a5.01,5.01,0,0,1-5.784,4.058H109.4a5.016,5.016,0,0,1-4.059-5.78v-.015a4.992,4.992,0,0,1,2-3.175Z"/><path class="cls-10" d="M163.03,62.672h0a2.511,2.511,0,0,0-2.5,2.5h0a2.51,2.51,0,0,0,2.5,2.5h0a2.507,2.507,0,0,0,2.5-2.5h0A2.508,2.508,0,0,0,163.03,62.672Z"/><path class="cls-7" d="M163.03,63.674h0a1.513,1.513,0,0,0-1.5,1.5h0a1.492,1.492,0,0,0,.44,1.058l0,0a1.492,1.492,0,0,0,1.058.437h0a1.5,1.5,0,0,0,1.5-1.5h0a1.5,1.5,0,0,0-.436-1.058l0-.006a1.507,1.507,0,0,0-1.059-.436Zm0-2h0A3.5,3.5,0,0,1,165.5,62.7l0,.006a3.5,3.5,0,0,1,1.025,2.469h0a3.508,3.508,0,0,1-3.5,3.5h0a3.491,3.491,0,0,1-2.471-1.03l0,0a3.487,3.487,0,0,1-1.025-2.469h0a3.5,3.5,0,0,1,3.5-3.5Z"/><path class="cls-10" d="M23.923,66.611h0a4.011,4.011,0,0,0,4-4v0a4.012,4.012,0,0,0-4-4h0a4.012,4.012,0,0,0-4,4v0A4.011,4.011,0,0,0,23.923,66.611Z"/><path class="cls-6" d="M23.923,65.611h0a3,3,0,0,0,3-3v0a3,3,0,0,0-3-3h0a3,3,0,0,0-3,3v0a3,3,0,0,0,3,3Zm0,2h0a4.989,4.989,0,0,1-3.529-1.467l0,0a4.98,4.98,0,0,1-1.47-3.529v0a4.973,4.973,0,0,1,1.47-3.529l0,0a4.989,4.989,0,0,1,3.529-1.468h0a5,5,0,0,1,3.528,1.468l0,0a4.989,4.989,0,0,1,1.47,3.529v0a5,5,0,0,1-1.47,3.529l0,0A5,5,0,0,1,23.923,67.612Z"/><path class="cls-10" d="M57.552,112.41h0a2.51,2.51,0,0,1,2.5,2.5h0a2.51,2.51,0,0,1-2.5,2.5h0a2.507,2.507,0,0,1-2.5-2.5h0A2.507,2.507,0,0,1,57.552,112.41Z"/><path class="cls-8" d="M57.552,111.409h0a3.5,3.5,0,0,1,2.471,1.028l0,0a3.492,3.492,0,0,1,1.029,2.471h0a3.512,3.512,0,0,1-3.5,3.5h0a3.494,3.494,0,0,1-2.467-1.028l0,0a3.487,3.487,0,0,1-1.03-2.469h0a3.513,3.513,0,0,1,3.5-3.5Zm0,2h0a1.5,1.5,0,0,0-1.5,1.5h0a1.5,1.5,0,0,0,.436,1.058l0,0a1.5,1.5,0,0,0,1.059.438h0a1.506,1.506,0,0,0,1.5-1.5h0a1.506,1.506,0,0,0-.435-1.06l0,0A1.507,1.507,0,0,0,57.552,113.411Z"/><path class="cls-10" d="M74.562,1.036h0a2.51,2.51,0,0,0-2.9,2.029h0a2.512,2.512,0,0,0,2.031,2.9h0a2.51,2.51,0,0,0,2.9-2.027v0A2.513,2.513,0,0,0,74.562,1.036Z"/><path class="cls-9" d="M74.44,2.031l-.094-.016a1.509,1.509,0,0,0-1.083.256,1.485,1.485,0,0,0-.6.916l-.016.094a1.493,1.493,0,0,0,1.172,1.687l.094.018a1.5,1.5,0,0,0,1.078-.256,1.481,1.481,0,0,0,.606-.914l.017-.1a1.508,1.508,0,0,0-.252-1.079L75.331,2.6a1.507,1.507,0,0,0-.891-.568ZM72.124.637A3.5,3.5,0,0,1,74.729.051l0,0a3.489,3.489,0,0,1,2.214,1.38l.045.059a3.486,3.486,0,0,1,.586,2.6l0,.017a3.511,3.511,0,0,1-4.046,2.841l-.008,0A3.516,3.516,0,0,1,70.678,2.9l0-.006A3.5,3.5,0,0,1,72.124.637Z"/><path class="cls-4" d="M22.722,42.334A17.507,17.507,0,1,0,5.215,24.827,17.54,17.54,0,0,0,22.722,42.334Z"/><path class="cls-7" d="M26.723,37.329A16.463,16.463,0,0,0,38.4,32.5l.053-.051A16.52,16.52,0,0,0,38.4,9.154l0-.006a16.519,16.519,0,0,0-23.344,0l0,0,0,0a16.5,16.5,0,0,0,11.67,28.175ZM39.809,33.91A18.506,18.506,0,1,1,13.637,7.738l0,0a18.5,18.5,0,0,1,26.164,0h0l0,0v0a18.492,18.492,0,0,1,.061,26.1Z"/><path class="cls-10" d="M92.056,21.333h0a42.638,42.638,0,0,1,42.515,42.515h0a42.637,42.637,0,0,1-42.515,42.512h0A42.637,42.637,0,0,1,49.541,63.847h0A42.638,42.638,0,0,1,92.056,21.333Z"/><path class="cls-11" d="M92.056,20.331A43.636,43.636,0,1,1,61.321,33.112,43.38,43.38,0,0,1,92.056,20.331Zm29.318,14.2a41.34,41.34,0,1,0,12.194,29.319A41.4,41.4,0,0,0,121.374,34.528Z"/><path class="cls-12" d="M92.056,28.834h0a35.116,35.116,0,0,1,35.013,35.013h0A35.116,35.116,0,0,1,92.056,98.86h0A35.116,35.116,0,0,1,57.043,63.847h0A35.116,35.116,0,0,1,92.056,28.834Z"/><path class="cls-11" d="M99.211,92.567c6.122-1.262,9.744-2.727,11.779-5.13,1.913-2.255,2.512-5.483,2.564-10.286l-16.7-4.738.537-1.921,17.434,4.945.732.21V76.4c0,5.7-.663,9.514-3.049,12.329-2.356,2.786-6.317,4.437-12.9,5.794Z"/><path class="cls-11" d="M83.325,48.929l-.04.437a10.1,10.1,0,0,0-.053,1.109,1,1,0,0,1-.432.824,3.2,3.2,0,0,0-1.425,2.719A6.122,6.122,0,0,0,83,57.267a.962.962,0,0,1,.232.641h0A8.813,8.813,0,0,0,98.288,64.14l.053-.047a8.8,8.8,0,0,0,2.54-6.185.992.992,0,0,1,.281-.694,6.059,6.059,0,0,0,1.575-3.2,3.228,3.228,0,0,0-1.477-2.762.991.991,0,0,1-.375-.84l0-.739c.017-2.424.037-5.464-1.277-6.779a8.51,8.51,0,0,0-3.126-1.691,14.986,14.986,0,0,0-4.429-.834,16.721,16.721,0,0,0-6.436,1.38c-1.221.578-2.112,1.306-2.112,2.133,0,1.565,4.718,1.864,8.625,1.864,1.889,0,3.517-.08,4.53-.128l.032,0,.766-.035.021.4a1.022,1.022,0,0,1,.227.588,1,1,0,0,1-.179.615l.016.392-.757.035h-.032c-1.087.053-2.829.139-4.624.139-4.811,0-10.628-.619-10.628-3.865,0-1.746,1.372-3.045,3.265-3.938a18.894,18.894,0,0,1,7.286-1.578,17.077,17.077,0,0,1,5.067.946,10.454,10.454,0,0,1,3.9,2.167c1.9,1.9,1.872,5.4,1.852,8.2v.328a4.934,4.934,0,0,1,1.848,4.14,7.7,7.7,0,0,1-1.853,4.117,10.789,10.789,0,0,1-3.113,7.223l-.057.063a10.826,10.826,0,0,1-18.468-7.286,7.7,7.7,0,0,1-1.851-4.117,4.931,4.931,0,0,1,1.851-4.142c.009-.27.028-.476.058-.816l.036-.437Z"/><path class="cls-11" d="M89.907,62.058a1,1,0,0,1,0-2h4.3a1,1,0,0,1,0,2Z"/><polygon class="cls-10" points="95.659 76.854 92.056 80.619 88.454 76.854 92.056 73.088 95.659 76.854"/><path class="cls-5" d="M96.378,77.545l-3.606,3.763-.716.751-.721-.751-3.6-3.763-.663-.692.663-.692,3.6-3.763.721-.751.716.751,3.606,3.763.659.692-.659.692Zm-4.322,1.63,2.223-2.322-2.223-2.322-2.223,2.322Z"/><polygon class="cls-10" points="95.915 95.543 92.056 80.189 88.193 95.543 92.056 98.878 95.915 95.543"/><path class="cls-5" d="M94.8,95.19,92.056,84.284,89.313,95.19l2.743,2.371L94.8,95.19ZM93.025,79.947,96.887,95.3h0a1,1,0,0,1-.313,1l-3.847,3.321a1,1,0,0,1-1.318.017L87.6,96.34a1.007,1.007,0,0,1-.371-1.04l3.863-15.353h0a1,1,0,0,1,1.938,0Z"/><path class="cls-11" d="M84.5,94.521c-6.586-1.357-10.542-3.008-12.9-5.794C69.213,85.912,68.55,82.094,68.55,76.4v-.751l.728-.21,17.433-4.945.537,1.921-16.7,4.738c.058,4.8.655,8.031,2.568,10.286,2.031,2.4,5.654,3.869,11.775,5.13Z"/><path class="cls-5" d="M122.022,84.054a1,1,0,0,1-1.657-1.118,33.029,33.029,0,0,0,1.718-2.823c.525-.969,1.006-1.962,1.433-2.975s.814-2.066,1.152-3.155l.012-.039a32.9,32.9,0,0,0,.822-3.215,32.534,32.534,0,0,0,.522-3.417A34.131,34.131,0,0,0,67.915,39.706c-.793.8-1.534,1.605-2.206,2.421s-1.339,1.708-1.966,2.632c-.61.908-1.185,1.854-1.714,2.829l-.044.071q-.763,1.416-1.389,2.9-.647,1.529-1.155,3.157c-.33,1.062-.606,2.151-.835,3.252-.228,1.12-.4,2.259-.52,3.413-.11,1.117-.167,2.277-.167,3.47s.057,2.352.167,3.47c.117,1.154.293,2.293.52,3.413.228,1.1.5,2.189.835,3.252q.507,1.624,1.155,3.157c.424,1.009.9,2,1.429,2.967h0c.529.975,1.1,1.919,1.714,2.829a1,1,0,1,1-1.652,1.118q-.983-1.453-1.819-3h0c-.55-1.016-1.055-2.067-1.51-3.146a34.771,34.771,0,0,1-1.226-3.341c-.346-1.12-.644-2.271-.884-3.439a36.505,36.505,0,0,1-.549-3.617c-.122-1.225-.187-2.45-.187-3.665s.066-2.442.187-3.667a36.557,36.557,0,0,1,.549-3.615c.24-1.17.538-2.32.884-3.439a35.045,35.045,0,0,1,1.226-3.344q.665-1.581,1.473-3.075l.037-.071q.836-1.539,1.819-2.994c.635-.944,1.335-1.875,2.08-2.78s1.534-1.777,2.328-2.57a36.143,36.143,0,0,1,61.7,25.556c0,1.215-.065,2.438-.187,3.663a35.275,35.275,0,0,1-.554,3.619c-.236,1.156-.525,2.293-.867,3.4l-.016.043c-.347,1.121-.758,2.237-1.222,3.336q-.684,1.624-1.519,3.154C123.267,82.108,122.665,83.108,122.022,84.054Z"/><path class="cls-6" d="M162.277,117.1a16.447,16.447,0,0,0,11.67-4.833l.057-.051a16.52,16.52,0,0,0-.049-23.292l-.008,0a16.513,16.513,0,0,0-23.339,0l0,0,0,0A16.505,16.505,0,0,0,162.277,117.1Zm13.086-3.419a18.506,18.506,0,0,1-26.172-26.172l0,0a18.5,18.5,0,0,1,26.164,0h0l0,0v0a18.494,18.494,0,0,1,.062,26.1Z"/><polygon class="cls-10" points="24.688 23.075 33.003 14.759 35.503 17.26 24.688 28.077 18.684 22.071 21.183 19.572 24.688 23.075"/><path class="cls-7" d="M24.684,21.662,32.3,14.053a1,1,0,0,1,1.417,0l.049.055,2.45,2.451a1,1,0,0,1,0,1.408l0,0L25.4,28.783a1,1,0,0,1-1.416,0l-6-6a1,1,0,0,1,0-1.416l2.5-2.5a1.007,1.007,0,0,1,1.417,0l.049.057,2.743,2.741ZM33,16.173,25.4,23.783l0,0a1,1,0,0,1-1.408,0l-2.8-2.8L20.1,22.071l4.591,4.589,9.4-9.4Z"/><path class="cls-10" d="M128.64,16.877h0a4.012,4.012,0,0,1-4-4v0a4.011,4.011,0,0,1,4-4h0a4.011,4.011,0,0,1,4,4v0A4.012,4.012,0,0,1,128.64,16.877Z"/><path class="cls-8" d="M128.64,17.877h0a5,5,0,0,1-3.529-1.467l0,0a5,5,0,0,1-1.47-3.529v0a5,5,0,0,1,1.47-3.529l0,0a5,5,0,0,1,3.529-1.467h0a4.984,4.984,0,0,1,3.529,1.467l.008,0a5,5,0,0,1,1.465,3.529v0a4.993,4.993,0,0,1-1.465,3.529l-.008,0a4.984,4.984,0,0,1-3.529,1.467Zm0-2h0a3,3,0,0,0,3-3v0a3,3,0,0,0-3-3h0a3,3,0,0,0-3,3v0a3,3,0,0,0,3,3Z"/><polygon class="cls-10" points="167.438 92.934 169.937 95.435 164.776 100.594 169.937 105.751 169.937 105.751 167.438 108.252 162.277 103.093 157.12 108.252 154.621 105.751 154.617 105.751 159.778 100.594 154.621 95.435 157.12 92.934 162.277 98.093 167.438 92.934"/><path class="cls-6" d="M168.2,92.282l2.45,2.45a1,1,0,0,1,0,1.409l0,0-4.453,4.453,4.4,4.394.058.053v0l0,0a1,1,0,0,1,0,1.408l-.045.042-2.459,2.457a.994.994,0,0,1-1.408,0l0,0v0l-4.453-4.449-4.448,4.449a1,1,0,0,1-1.417,0l-.053-.055-2.446-2.45a1,1,0,0,1,0-1.406v0l4.453-4.453-4.453-4.453a1,1,0,0,1,0-1.4l2.5-2.5a1,1,0,0,1,1.412-.006v0l0,0,4.448,4.451,4.453-4.451a1,1,0,0,1,1.412,0l.054.057Zm.329,3.15-1.087-1.087L162.986,98.8a1,1,0,0,1-1.417,0l-4.453-4.453-1.087,1.089,4.4,4.4.057.053a1.007,1.007,0,0,1,0,1.414l-4.452,4.453,1.082,1.084,4.453-4.453a1.007,1.007,0,0,1,1.417,0l4.452,4.453,1.087-1.086-4.4-4.4-.058-.053a1,1,0,0,1,0-1.414Z"/></svg>