<svg id="Layer_1" data-name="Layer 1" xmlns="http://www.w3.org/2000/svg" viewBox="0 0 186 140"><defs><style>.cls-1{fill:#fafafa;}.cls-1,.cls-10,.cls-11,.cls-12,.cls-2,.cls-3,.cls-4,.cls-5,.cls-6,.cls-7,.cls-8{fill-rule:evenodd;}.cls-2{fill:#f6f4ef;}.cls-3{fill:#fbae7a;}.cls-4{fill:#ab65f4;}.cls-5{fill:#ff7088;}.cls-6{fill:#5acaef;}.cls-7{fill:#66db82;}.cls-8,.cls-9{fill:#fff;}.cls-10{fill:#e6e6e6;}.cls-11{fill:#127ef8;}.cls-12{fill:#f5fcff;}</style></defs><title>icon-advantage-11-186x140</title><path class="cls-1" d="M94.089,129.941A62.522,62.522,0,1,0,31.566,67.417,62.645,62.645,0,0,0,94.089,129.941Z"/><path class="cls-2" d="M151.525,116.411h16.049a4.511,4.511,0,0,0,4.5-4.5V100.041a4.513,4.513,0,0,0-4.5-4.5H144.023a4.515,4.515,0,0,0-4.5,4.5V111.91a4.513,4.513,0,0,0,4.5,4.5v6Z"/><path class="cls-2" d="M29.973,49.117H13.922a4.514,4.514,0,0,1-4.5-4.5V32.746a4.517,4.517,0,0,1,4.5-4.5H37.473a4.519,4.519,0,0,1,4.5,4.5V44.615a4.514,4.514,0,0,1-4.5,4.5v6Z"/><path class="cls-3" d="M33.134,46.613H17.424A5.49,5.49,0,0,1,13.541,45l0-.009a5.471,5.471,0,0,1-1.614-3.879V29.241a5.492,5.492,0,0,1,1.614-3.883l.071-.065a5.482,5.482,0,0,1,3.816-1.551H40.975a5.486,5.486,0,0,1,3.879,1.616l0,0,0,0h0a5.489,5.489,0,0,1,1.616,3.875V41.114A5.5,5.5,0,0,1,44.858,45h0a5.5,5.5,0,0,1-2.884,1.522v5.092a1,1,0,0,1-1.7.712l-7.139-5.711Zm-15.709-2H33.476v.008a.989.989,0,0,1,.621.216l5.877,4.7V45.612a1,1,0,0,1,1-1,3.492,3.492,0,0,0,2.471-1.03l0,0,0,0a3.485,3.485,0,0,0,1.024-2.467V29.241a3.49,3.49,0,0,0-1.026-2.467l0,0a3.488,3.488,0,0,0-2.469-1.025H17.424a3.491,3.491,0,0,0-2.424.98l-.047.049a3.493,3.493,0,0,0-1.03,2.467V41.114a3.492,3.492,0,0,0,1.023,2.471l0,0a3.5,3.5,0,0,0,2.473,1.021ZM44.86,25.366l-.006,1.408A1,1,0,0,0,44.86,25.366Z"/><path class="cls-3" d="M35.832,37.109a1,1,0,0,1,0,2H20.052a1,1,0,1,1,0-2Z"/><path class="cls-3" d="M31.4,31.105a1,1,0,0,1,0,2H20.052a1,1,0,1,1,0-2Z"/><path class="cls-4" d="M155.025,111.91h16.054a3.489,3.489,0,0,0,2.471-1.026l0,0a3.5,3.5,0,0,0,1.025-2.471V96.54a3.506,3.506,0,0,0-1.029-2.471l-.049-.049a3.49,3.49,0,0,0-2.422-.98H147.528a3.488,3.488,0,0,0-2.471,1.025l0,0a3.5,3.5,0,0,0-1.025,2.471v11.869a3.5,3.5,0,0,0,1.025,2.471h0a3.506,3.506,0,0,0,2.471,1.03,1,1,0,0,1,1,1v3.928l5.877-4.705a1.033,1.033,0,0,1,.623-.216v0Zm16.054,2H155.367l-7.14,5.715a.987.987,0,0,1-.7.289,1,1,0,0,1-1-1v-5.093a5.509,5.509,0,0,1-2.886-1.522l0,0a5.471,5.471,0,0,1-1.62-3.883V96.54a5.473,5.473,0,0,1,1.616-3.875v0l0,0h0a5.48,5.48,0,0,1,3.879-1.616h23.551a5.481,5.481,0,0,1,3.813,1.551l.069.062a5.487,5.487,0,0,1,1.616,3.887v11.869a5.5,5.5,0,0,1-1.612,3.883l0,0A5.493,5.493,0,0,1,171.079,113.908Z"/><path class="cls-4" d="M158.44,104.547a1,1,0,0,1,0,2h-8.662a1,1,0,1,1,0-2Z"/><path class="cls-4" d="M166.048,98.543a1,1,0,0,1,0,2H149.778a1,1,0,0,1,0-2Z"/><path class="cls-2" d="M150.275,45.242a12.5,12.5,0,1,0-12.5-12.5A12.528,12.528,0,0,0,150.275,45.242Z"/><path class="cls-5" d="M153.275,41.241a11.455,11.455,0,0,0,8.132-3.366l0,0a11.506,11.506,0,0,0,0-16.265v0l0,0A11.5,11.5,0,1,0,145.143,37.87l.049.054a11.456,11.456,0,0,0,8.084,3.317Zm9.549-1.958h0v0a13.488,13.488,0,0,1-19.024.062l-.069-.062a13.5,13.5,0,1,1,19.1-19.1h0a13.493,13.493,0,0,1,.008,19.09Z"/><path class="cls-5" d="M149.274,26.661a4.037,4.037,0,0,1,.3-1.53,3.994,3.994,0,0,1,2.166-2.166,3.995,3.995,0,0,1,3.06,0,4,4,0,0,1,2.165,5.226,4.012,4.012,0,0,1-.866,1.3l-.061.057a4,4,0,0,1-1.237.81,3.835,3.835,0,0,1-.529.18V32.29h-2V29.665a1,1,0,0,1,1-1,1.941,1.941,0,0,0,.765-.15,2,2,0,0,0,.606-.391l.041-.049a1.925,1.925,0,0,0,.439-.648,2.026,2.026,0,0,0-.439-2.182,1.987,1.987,0,0,0-.647-.436,2.022,2.022,0,0,0-1.53,0,2.055,2.055,0,0,0-1.087,1.087,2.019,2.019,0,0,0-.147.766Zm5,7.945v2.148h-2V34.606Z"/><path class="cls-6" d="M114.135,139.242l-8.425-23.124a5.039,5.039,0,0,1,6.866-6.292l.069.036a5.049,5.049,0,0,1,2.544,2.809l8.43,23.128a1,1,0,0,1-.6,1.277l-7.607,2.764a1,1,0,0,1-1.278-.6Zm-6.553-23.8,8.088,22.188,5.73-2.084-8.088-22.191a3.04,3.04,0,0,0-1.534-1.693l-.041-.021a3.056,3.056,0,0,0-4.155,3.8Z"/><path class="cls-2" d="M28.435,121.316a12.5,12.5,0,1,0-12.5-12.5A12.528,12.528,0,0,0,28.435,121.316Z"/><path class="cls-7" d="M31.434,117.315a11.475,11.475,0,0,0,8.135-3.362l0,0,0,0A11.5,11.5,0,1,0,23.3,97.68l-.053.049a11.508,11.508,0,0,0,.049,16.217l0,.008a11.466,11.466,0,0,0,8.132,3.362Zm9.547-1.954a13.5,13.5,0,0,1-19.088,0l0,0h0l0,0a13.493,13.493,0,0,1-.061-19.024l.061-.069a13.5,13.5,0,1,1,19.1,19.1Z"/><path class="cls-7" d="M32.436,98.808v10.27h-2V98.808Zm0,12.272v1.853h-2v-1.853Z"/><path class="cls-8" d="M24.23,73.075h0a2.509,2.509,0,0,1-2.5-2.5h0a2.505,2.505,0,0,1,2.5-2.5h0a2.505,2.505,0,0,1,2.5,2.5h0A2.509,2.509,0,0,1,24.23,73.075Z"/><path class="cls-5" d="M24.23,74.072h0a3.5,3.5,0,0,1-2.468-1.026l-.006,0a3.5,3.5,0,0,1-1.025-2.471h0a3.508,3.508,0,0,1,3.5-3.5h0A3.483,3.483,0,0,1,26.7,68.1l.006,0a3.5,3.5,0,0,1,1.028,2.467h0a3.507,3.507,0,0,1-3.5,3.5Zm0-2h0a1.511,1.511,0,0,0,1.5-1.5h0a1.492,1.492,0,0,0-.437-1.058l0,0a1.487,1.487,0,0,0-1.056-.436h0a1.505,1.505,0,0,0-1.5,1.5h0a1.492,1.492,0,0,0,.437,1.059l0,.008A1.515,1.515,0,0,0,24.228,72.073Z"/><path class="cls-8" d="M67.931,14.942h0a4.01,4.01,0,0,0,4-4v0a4.011,4.011,0,0,0-4-4h0a4.011,4.011,0,0,0-4,4v0A4.01,4.01,0,0,0,67.931,14.942Z"/><path class="cls-4" d="M67.931,13.945h0a3,3,0,0,0,3-3v0a3,3,0,0,0-3-3h0a3,3,0,0,0-3,3v0a3,3,0,0,0,3,3Zm0,2h0A5,5,0,0,1,64.4,14.478l0,0a5,5,0,0,1-1.467-3.529v0A5,5,0,0,1,64.4,7.412l0,0a5,5,0,0,1,3.531-1.465h0A4.993,4.993,0,0,1,71.46,7.408l0,0a4.991,4.991,0,0,1,1.469,3.529v0a4.991,4.991,0,0,1-1.469,3.529l0,0A4.993,4.993,0,0,1,67.931,15.943Z"/><rect class="cls-9" x="95.935" y="11.002" width="27.831" height="4.889"/><path class="cls-10" d="M96.938,14.89h25.826V12H96.938V14.89Zm26.828,2H95.935a1,1,0,0,1-1-1V11a1,1,0,0,1,1-1h27.831a1,1,0,0,1,1,1v4.889A1,1,0,0,1,123.766,16.893Z"/><rect class="cls-9" x="95.935" y="0.997" width="18.6" height="4.893"/><path class="cls-10" d="M96.938,4.889h16.6V2h-16.6v2.89Zm17.6,2h-18.6a1,1,0,0,1-1-1V1a1,1,0,0,1,1-1h18.6a1,1,0,0,1,1,1V5.89A1,1,0,0,1,114.534,6.888Z"/><path class="cls-8" d="M163.113,69.92h0a2.508,2.508,0,0,0,2.5-2.5h0a2.511,2.511,0,0,0-2.5-2.5h0a2.508,2.508,0,0,0-2.5,2.5h0A2.5,2.5,0,0,0,163.113,69.92Z"/><path class="cls-6" d="M163.113,68.919h0a1.492,1.492,0,0,0,1.059-.436l.008,0a1.507,1.507,0,0,0,.436-1.059h0a1.516,1.516,0,0,0-1.5-1.5h0a1.5,1.5,0,0,0-1.059.439l0,0a1.491,1.491,0,0,0-.435,1.058h0a1.494,1.494,0,0,0,.439,1.059,1.51,1.51,0,0,0,1.059.439Zm0,2h0a3.511,3.511,0,0,1-3.5-3.5h0a3.492,3.492,0,0,1,1.03-2.471l0,0a3.5,3.5,0,0,1,2.467-1.025h0a3.5,3.5,0,0,1,3.5,3.5h0a3.486,3.486,0,0,1-1.025,2.471l0,0A3.5,3.5,0,0,1,163.113,70.922Z"/><rect class="cls-9" x="64.758" y="117.828" width="25.161" height="4.889"/><path class="cls-10" d="M64.758,116.827H89.918a1,1,0,0,1,1,1v4.889a1,1,0,0,1-1,1H64.758a1,1,0,0,1-1-1v-4.889a1,1,0,0,1,1-1Zm24.162,2H65.759v2.886h23.16Z"/><rect class="cls-9" x="64.758" y="127.833" width="17.348" height="4.889"/><path class="cls-10" d="M64.758,126.831H82.105a1,1,0,0,1,1,1v4.889a1,1,0,0,1-1,1H64.758a1,1,0,0,1-1-1v-4.889a1,1,0,0,1,1-1Zm16.347,2H65.759v2.89H81.1Z"/><path class="cls-6" d="M110.008,110.266a1,1,0,0,1-1.885.659l-2.625-7.469a1,1,0,1,1,1.885-.66Z"/><path class="cls-8" d="M94.089,105.2a37.512,37.512,0,1,0-37.51-37.513A37.584,37.584,0,0,0,94.089,105.2Z"/><path class="cls-11" d="M94.089,104.2a36.516,36.516,0,1,0-25.816-10.7,36.4,36.4,0,0,0,25.816,10.7Zm27.23-9.28A38.5,38.5,0,1,1,132.6,67.694,38.39,38.39,0,0,1,121.319,94.924Z"/><path class="cls-12" d="M94.089,98.583A30.892,30.892,0,1,0,63.2,67.689,30.949,30.949,0,0,0,94.089,98.583Z"/><path class="cls-8" d="M96.214,98.511a30.907,30.907,0,0,0,27.7-38.9,25.307,25.307,0,1,0-27.7,38.9Z"/><path class="cls-6" d="M94.089,97.582a29.892,29.892,0,1,0-21.135-8.755,29.8,29.8,0,0,0,21.135,8.755Zm22.55-7.339a31.893,31.893,0,1,1,9.341-22.549A31.8,31.8,0,0,1,116.639,90.243Z"/><path class="cls-8" d="M106.593,67.421a12.5,12.5,0,1,1-12.5-12.508V67.421Z"/><path class="cls-11" d="M110.179,67.421v.028a16.029,16.029,0,0,1-4.714,11.345v0h0a16.084,16.084,0,0,1-22.75,0l0,0a16.087,16.087,0,0,1,0-22.754l.061-.053a16.044,16.044,0,0,1,11.318-4.66,1,1,0,0,1,1,1V66.42h14.088a1,1,0,0,1,1,1Zm-6.126,9.965a14.046,14.046,0,0,0,4.091-8.968H94.089a1,1,0,0,1-1-1V53.366A14.074,14.074,0,0,0,84.173,57.4l-.049.053a14.09,14.09,0,1,0,19.928,19.924Z"/><path class="cls-8" d="M98.92,47.5A15.091,15.091,0,0,1,114.009,62.59H98.92Z"/><path class="cls-11" d="M99.746,54.575a1,1,0,1,1,.2-1.986c.2.02.367.045.5.06l.09.021c.158.024.3.049.415.073l.045.013.432.1c.19.049.357.1.484.139l.04.012c.159.049.306.1.428.143l.053.02.4.163c.179.073.325.142.447.2l.077.04.334.172.024.012.419.24.407.261c.139.094.272.187.4.28l.049.041c.122.09.231.179.329.261l.049.04.317.273.021.02.33.309c.085.086.2.2.325.351q.135.147.317.366v0c.094.113.191.24.3.382l.02.033c.086.114.176.236.261.362l.013.02h0l.24.366.008.02.017.024.016.024.212.37.008.024.2.391.008.021h0c.058.118.122.268.2.443h0c.068.167.13.321.183.46s.11.31.159.48l0,.008.122.432.008.033c.032.13.069.28.106.476h0c.024.13.057.306.085.5v0h0c.02.126.041.3.061.5a1,1,0,1,1-1.982.2l-.053-.4h0l-.069-.395h0v-.009l-.09-.378-.118-.4c-.032-.113-.073-.235-.117-.357-.049-.139-.1-.261-.143-.367h0v0c-.041-.094-.094-.212-.163-.353h0L106,58.735l-.183-.314-.228-.354h0l-.2-.285-.017-.02-.231-.3h0v0l-.257-.289,0,0-.261-.273-.268-.261-.012-.008-.253-.225-.04-.028-.257-.207-.045-.029-.317-.227-.33-.212-.321-.187-.338-.176-.024-.008c-.138-.069-.261-.126-.35-.163l-.347-.134-.024-.009-.351-.117-.024-.009-.383-.113-.346-.078-.045-.008-.338-.062-.049-.008C99.99,54.6,99.853,54.583,99.746,54.575Z"/><path class="cls-6" d="M98.92,46.5h.028a16.04,16.04,0,0,1,11.345,4.709l0,.008A16.04,16.04,0,0,1,115.01,62.59a1,1,0,0,1-1,1H98.92a1,1,0,0,1-1-1V47.5a1,1,0,0,1,1-1Zm9.965,6.126a14.04,14.04,0,0,0-8.963-4.091V61.589h13.053A14.04,14.04,0,0,0,108.885,52.626Z"/></svg>