<svg id="Layer_1" data-name="Layer 1" xmlns="http://www.w3.org/2000/svg" viewBox="0 0 16 16"><defs><style>.cls-1{fill:#bbb;fill-rule:evenodd;}</style></defs><title>icon-Artboard 1</title><path class="cls-1" d="M14.9,0H1.1A1.1,1.1,0,0,0,0,1.1V14.9A1.1,1.1,0,0,0,1.1,16H8.717c0-1.953,0-4.057,0-6.016H6.35V7.529H8.7c.072-1.766-.239-3.611.638-4.5.986-1,2.339-1.046,4.289-.656V4.711c-2.712,0-2.8-.11-2.8,2.818H13.55c-.2.938-.351,1.613-.5,2.424H10.815V16H14.9A1.1,1.1,0,0,0,16,14.9V1.1A1.1,1.1,0,0,0,14.9,0Z"/></svg>