<svg id="Layer_1" data-name="Layer 1" xmlns="http://www.w3.org/2000/svg" viewBox="0 0 121 12"><defs><style>.cls-1{fill:#fff;}</style></defs><title>icon-Artboard 1</title><path class="cls-1" d="M0,10.818V.182H6.153V2.461H2.431V4.71H5.7V6.989H2.431v3.829Z"/><path class="cls-1" d="M6.177,10.818,10.6.182h2.173l4.421,10.635h-2.6l-.881-2.233H9.5l-.881,2.233ZM11.616,3.3l-1.2,3.008H12.8Z"/><path class="cls-1" d="M26.45,9.769a3.411,3.411,0,0,1-1.443.9A5.936,5.936,0,0,1,22.986,11,5.529,5.529,0,0,1,18.96,9.5a5.345,5.345,0,0,1-1.55-4,5.542,5.542,0,0,1,1.459-3.95A5.361,5.361,0,0,1,22.971,0a4.806,4.806,0,0,1,3.251,1.109L25.143,2.932a4.1,4.1,0,0,0-2.173-.653,2.909,2.909,0,0,0-2.142.851,3.2,3.2,0,0,0-.836,2.37,3.2,3.2,0,0,0,.9,2.324,3.148,3.148,0,0,0,2.324.9,3.745,3.745,0,0,0,2.309-.775Z"/><path class="cls-1" d="M27.28,2.461V.182h8.812V2.461H32.9v8.356H30.47V2.461Z"/><path class="cls-1" d="M38.375,1.58A5.542,5.542,0,0,1,42.462,0a5.628,5.628,0,0,1,4.057,1.5,5.241,5.241,0,0,1,1.6,4A5.233,5.233,0,0,1,46.5,9.45,5.571,5.571,0,0,1,42.462,11,5.689,5.689,0,0,1,38.39,9.5a5.285,5.285,0,0,1-1.58-4A5.314,5.314,0,0,1,38.375,1.58Zm1.914,6.214a3.153,3.153,0,0,0,4.436.03A3.405,3.405,0,0,0,45.531,5.5a3.139,3.139,0,0,0-.881-2.325,2.98,2.98,0,0,0-2.188-.9,2.942,2.942,0,0,0-2.2.9A3.19,3.19,0,0,0,39.393,5.5,3.2,3.2,0,0,0,40.289,7.794Z"/><path class="cls-1" d="M52.531,10.818H50.1V.182c.228,0,.866,0,1.914-.015s1.626-.015,1.7-.015c2.75,0,3.935,1.291,3.935,3.4a3.146,3.146,0,0,1-1.793,3.069l3.1,4.193H56.011L53.428,7.1h-.9Zm0-8.356V4.816h.881c1.109,0,1.656-.41,1.656-1.231,0-.775-.486-1.155-1.474-1.155C53.549,2.431,53.2,2.446,52.531,2.461Z"/><path class="cls-1" d="M68.337.182,64.569,6.488v4.33H62.138V6.488L58.4.182h2.78L63.46,4.209,65.708.182Z"/><path class="cls-1" d="M69.6,10.818V.182h6V1.4h-4.71V5.166h4.254V6.381H70.891v4.437Z"/><path class="cls-1" d="M77.433,10.818V.182h1.291V10.818Z"/><path class="cls-1" d="M90.521,10.818H89.488l-6.64-8.356v8.356H81.633V.182h1.033l6.639,8.387V.182h1.216Z"/><path class="cls-1" d="M93.311,10.818V.182h.183c.228,0,.653,0,1.291-.015.653-.015,1.124-.03,1.428-.03,4.254,0,5.971,2.431,5.971,5.227a5.244,5.244,0,0,1-1.6,3.935,6.146,6.146,0,0,1-4.5,1.55c-.228,0-.638,0-1.246-.015-.592-.015-1.048-.015-1.367-.015ZM94.6,1.4V9.6c.927.015,1.444.03,1.534.03a4.838,4.838,0,0,0,3.449-1.17,4.109,4.109,0,0,0,1.231-3.1,3.75,3.75,0,0,0-1.2-2.9,4.863,4.863,0,0,0-3.434-1.109C95.666,1.352,95.013,1.4,94.6,1.4Z"/><path class="cls-1" d="M104.258,10.818V.182h6V1.4h-4.71V4.831H109.8V6.047h-4.254V9.6h4.862v1.215Z"/><path class="cls-1" d="M113.7,10.818h-1.291V.182c.228,0,.729,0,1.534-.015s1.246-.015,1.322-.015c2.522,0,3.783,1.048,3.783,3.16a2.948,2.948,0,0,1-.684,1.975,3.067,3.067,0,0,1-1.626,1.033l3.54,4.5H118.7L115.43,6.563H113.7Zm0-9.42v3.95h1.565a2.673,2.673,0,0,0,1.687-.547,1.779,1.779,0,0,0,.729-1.474c0-1.307-.836-1.96-2.492-1.96C114.867,1.367,114.366,1.383,113.7,1.4Z"/></svg>