<svg id="SOCIAL" xmlns="http://www.w3.org/2000/svg" viewBox="0 0 19 11"><defs><style>.cls-1{fill:#bbb;fill-rule:evenodd;}</style></defs><title>icon-2Artboard 1</title><path class="cls-1" d="M16.549,7.311a8.285,8.285,0,0,1,1.843,2.132c.615,1.019-.682,1.1-.682,1.1l-2.478.035A1.758,1.758,0,0,1,14,10.2c-.927-.636-1.8-2.291-2.482-2.075s-.669,1.708-.669,1.708a.812.812,0,0,1-.152.487.938.938,0,0,1-.506.221H9.08a6.367,6.367,0,0,1-4.6-2.1C2.126,6,.05,1.141.05,1.141S-.069.823.061.669C.207.5.6.485.6.485L3.256.467A1.154,1.154,0,0,1,3.685.64a.828.828,0,0,1,.23.311,17.821,17.821,0,0,0,1,2.064c1.108,1.914,1.624,2.333,2,2.128.548-.3.384-2.706.384-2.706a2.693,2.693,0,0,0-.276-1.263A1.253,1.253,0,0,0,6.2.761c-.149-.02.1-.366.413-.522A6.018,6.018,0,0,1,8.924,0a4.77,4.77,0,0,1,1.3.13c.914.221.6,1.073.6,3.118,0,.655-.118,1.576.354,1.881.2.131.7.02,1.943-2.09A16.19,16.19,0,0,0,14.158.865a.778.778,0,0,1,.246-.3A.633.633,0,0,1,14.764.5l2.79-.017s.838-.1.974.278c.143.4-.313,1.325-1.453,2.844C15.2,6.1,15,5.869,16.549,7.311Z"/></svg>