<svg id="Layer_1" data-name="Layer 1" xmlns="http://www.w3.org/2000/svg" viewBox="0 0 186 126"><defs><style>.cls-1{fill:#fafafa;}.cls-1,.cls-10,.cls-11,.cls-12,.cls-3,.cls-4,.cls-5,.cls-6,.cls-7,.cls-8,.cls-9{fill-rule:evenodd;}.cls-2,.cls-4{fill:#fff;}.cls-3{fill:#e6e6e6;}.cls-14,.cls-5{fill:#5acaef;}.cls-6{fill:#ff7088;}.cls-7{fill:#fbae7a;}.cls-8{fill:#ab65f4;}.cls-9{fill:#66db82;}.cls-10,.cls-13{fill:#127ef8;}.cls-11{fill:#f5fcff;}.cls-12{fill:#f6f4ef;}</style></defs><title>icon-advantage-08-186x126</title><path class="cls-1" d="M92.445,125.046A62.523,62.523,0,1,0,29.921,62.524,62.642,62.642,0,0,0,92.445,125.046Z"/><rect class="cls-2" x="11.994" y="96.11" width="21.318" height="4.889"/><path class="cls-3" d="M13,100H32.311V97.11H13V100Zm20.317,2H11.994a1,1,0,0,1-1-1V96.11a1,1,0,0,1,1-1H33.312a1,1,0,0,1,1,1V101A1,1,0,0,1,33.312,102Z"/><rect class="cls-2" x="11.994" y="86.105" width="32.294" height="4.891"/><path class="cls-3" d="M13,89.995H43.286V87.107H13v2.888Zm31.292,2H11.994a1,1,0,0,1-1-1V86.105a1,1,0,0,1,1-1H44.288a1,1,0,0,1,1,1V91A1,1,0,0,1,44.288,92Z"/><rect class="cls-2" x="145.213" y="38.448" width="30.378" height="4.889"/><path class="cls-3" d="M146.214,42.335h28.376V39.447H146.214v2.888Zm29.377,2H145.213a1,1,0,0,1-1-1V38.448a1,1,0,0,1,1-1h30.378a1,1,0,0,1,1,1v4.889A1,1,0,0,1,175.592,44.338Z"/><rect class="cls-2" x="145.213" y="28.443" width="19.56" height="4.891"/><path class="cls-3" d="M146.214,32.333h17.558V29.445H146.214v2.888Zm18.559,2h-19.56a1,1,0,0,1-1-1V28.443a1,1,0,0,1,1-1h19.56a1,1,0,0,1,1,1v4.891A1,1,0,0,1,164.773,34.333Z"/><path class="cls-4" d="M120.292,111.557h0a4.011,4.011,0,0,0-4,4h0a4.011,4.011,0,0,0,4,4h0a4.011,4.011,0,0,0,4-4h0A4.012,4.012,0,0,0,120.292,111.557Z"/><path class="cls-5" d="M120.292,112.559h0a3,3,0,0,0-3,3h0a3,3,0,0,0,3,3h0a3,3,0,0,0,3-3h0a3,3,0,0,0-3-3Zm0-2h0a4.987,4.987,0,0,1,3.529,1.469l0,0a4.99,4.99,0,0,1,1.467,3.529h0a5,5,0,0,1-1.467,3.531l0,0a5,5,0,0,1-3.529,1.467h0a5,5,0,0,1-3.529-1.467l0,0a5,5,0,0,1-1.468-3.531h0a4.99,4.99,0,0,1,1.468-3.529l0,0A4.99,4.99,0,0,1,120.29,110.556Z"/><path class="cls-4" d="M129.03,15.555h0a4.013,4.013,0,0,1-4-4v0a4.011,4.011,0,0,1,4-4h0a4.011,4.011,0,0,1,4,4v0A4.012,4.012,0,0,1,129.03,15.555Z"/><path class="cls-6" d="M129.03,16.554h0a4.99,4.99,0,0,1-3.529-1.467l-.006,0a4.993,4.993,0,0,1-1.467-3.529v0a5,5,0,0,1,1.467-3.529l.006,0a4.99,4.99,0,0,1,3.529-1.467h0a4.993,4.993,0,0,1,3.529,1.467l.006,0a5,5,0,0,1,1.465,3.529v0a4.991,4.991,0,0,1-1.465,3.529l-.006,0a4.993,4.993,0,0,1-3.529,1.467Zm0-2h0a3,3,0,0,0,3-3v0a3,3,0,0,0-3-3h0a3,3,0,0,0-3,3v0a3,3,0,0,0,3,3Z"/><path class="cls-4" d="M163.418,61.35h0a2.509,2.509,0,0,0-2.5,2.5h0a2.509,2.509,0,0,0,2.5,2.5h0a2.509,2.509,0,0,0,2.5-2.5h0A2.509,2.509,0,0,0,163.418,61.35Z"/><path class="cls-7" d="M163.418,62.351h0a1.507,1.507,0,0,0-1.061.436l0,.006a1.5,1.5,0,0,0-.436,1.058h0a1.5,1.5,0,0,0,1.5,1.5h0a1.5,1.5,0,0,0,1.058-.437l0,0a1.493,1.493,0,0,0,.438-1.058h0a1.508,1.508,0,0,0-1.5-1.5Zm0-2h0a3.505,3.505,0,0,1,3.5,3.5h0a3.5,3.5,0,0,1-1.027,2.469l0,0a3.486,3.486,0,0,1-2.468,1.03h0a3.509,3.509,0,0,1-3.5-3.5h0a3.488,3.488,0,0,1,1.026-2.469l0-.006A3.5,3.5,0,0,1,163.418,60.351Z"/><path class="cls-4" d="M24.311,65.288h0a4.011,4.011,0,0,0,4-4v0a4.011,4.011,0,0,0-4-4h0a4.011,4.011,0,0,0-4,4v0A4.011,4.011,0,0,0,24.311,65.288Z"/><path class="cls-8" d="M24.311,64.289h0a3,3,0,0,0,3-3v0a3,3,0,0,0-3-3h0a3,3,0,0,0-3,3v0a3,3,0,0,0,3,3Zm0,2h0a4.99,4.99,0,0,1-3.529-1.467l0,0a5,5,0,0,1-1.469-3.529v0a4.993,4.993,0,0,1,1.469-3.529l0,0a4.99,4.99,0,0,1,3.529-1.468h0a4.993,4.993,0,0,1,3.529,1.468l.006,0a4.991,4.991,0,0,1,1.467,3.529v0a5,5,0,0,1-1.467,3.529l-.006,0A4.993,4.993,0,0,1,24.311,66.289Z"/><path class="cls-4" d="M57.941,111.087h0a2.509,2.509,0,0,1,2.5,2.5h0a2.509,2.509,0,0,1-2.5,2.5h0a2.506,2.506,0,0,1-2.5-2.5h0A2.506,2.506,0,0,1,57.941,111.087Z"/><path class="cls-6" d="M57.941,110.086h0a3.513,3.513,0,0,1,3.5,3.5h0a3.489,3.489,0,0,1-1.03,2.469l0,0a3.5,3.5,0,0,1-2.469,1.028h0a3.506,3.506,0,0,1-3.5-3.5h0a3.5,3.5,0,0,1,1.026-2.471l.006,0a3.49,3.49,0,0,1,2.469-1.028Zm0,2h0a1.5,1.5,0,0,0-1.058.436l-.006,0a1.515,1.515,0,0,0-.436,1.06h0a1.509,1.509,0,0,0,1.5,1.5h0A1.5,1.5,0,0,0,59,114.651l0,0a1.5,1.5,0,0,0,.438-1.058h0a1.5,1.5,0,0,0-1.5-1.5Z"/><path class="cls-4" d="M64.31,3.706h0a2.508,2.508,0,0,0-2.5,2.5h0a2.508,2.508,0,0,0,2.5,2.5h0a2.507,2.507,0,0,0,2.5-2.5h0A2.507,2.507,0,0,0,64.31,3.706Z"/><path class="cls-9" d="M64.31,4.708h0a1.507,1.507,0,0,0-1.059.435l0,0a1.507,1.507,0,0,0-.435,1.06h0a1.5,1.5,0,0,0,1.5,1.5h0a1.489,1.489,0,0,0,1.056-.437l.006,0a1.5,1.5,0,0,0,.438-1.059h0a1.508,1.508,0,0,0-1.5-1.5Zm0-2h0a3.51,3.51,0,0,1,3.5,3.5h0a3.5,3.5,0,0,1-1.028,2.469l0,0A3.5,3.5,0,0,1,64.31,9.708h0a3.51,3.51,0,0,1-3.5-3.5h0a3.5,3.5,0,0,1,1.028-2.471l0,0A3.5,3.5,0,0,1,64.308,2.7Z"/><path class="cls-3" d="M96.445,24.013h-8a1,1,0,0,1-1-1v-5.5a1,1,0,0,1,1-1h8a1,1,0,0,1,1,1v5.5a1,1,0,0,1-1,1Zm-7-2h6v-3.5h-6Z"/><path class="cls-10" d="M85.792,10.51h13.3a4,4,0,0,1,2.823,1.174l0,0,0,0a4,4,0,0,1-2.829,6.83h-13.3a3.993,3.993,0,0,1-2.821-1.178l0,0a4,4,0,0,1,2.825-6.822Zm13.3,2h-13.3a2,2,0,0,0-1.415,3.409l0,0a2,2,0,0,0,1.41.586h13.3A2,2,0,0,0,100.5,13.1l0,0A2.009,2.009,0,0,0,99.092,12.512Z"/><path class="cls-4" d="M92.445,102.535A40.011,40.011,0,1,0,52.432,62.524,40.088,40.088,0,0,0,92.445,102.535Z"/><path class="cls-10" d="M92.443,101.536A39.012,39.012,0,1,0,64.859,90.109a38.9,38.9,0,0,0,27.584,11.427Zm29-10.011a41.016,41.016,0,1,1,12.012-29A40.889,40.889,0,0,1,121.444,91.525Z"/><path class="cls-11" d="M92.445,95.476A32.951,32.951,0,1,0,59.494,62.524,33.015,33.015,0,0,0,92.445,95.476Z"/><path class="cls-5" d="M92.443,94.474a31.949,31.949,0,1,0-22.592-9.358,31.854,31.854,0,0,0,22.592,9.358Zm24.009-7.943A33.953,33.953,0,1,1,126.4,62.524,33.852,33.852,0,0,1,116.452,86.531Z"/><path class="cls-5" d="M91.444,85.7a1,1,0,0,1,2,0v9.771a1,1,0,1,1-2,0Z"/><path class="cls-5" d="M125.394,61.523a1,1,0,1,1,0,2h-9.769a1,1,0,0,1,0-2Z"/><path class="cls-5" d="M69.263,61.523a1,1,0,0,1,0,2H59.492a1,1,0,0,1,0-2Z"/><path class="cls-5" d="M109.783,90.5a1,1,0,0,1-1.728,1l-2.061-3.567a1,1,0,0,1,1.728-1Z"/><path class="cls-5" d="M78.889,36.991a1,1,0,1,1-1.726,1L75.1,34.423a1,1,0,1,1,1.727-1Z"/><path class="cls-5" d="M76.83,91.495A1,1,0,0,1,75.1,90.5l2.06-3.567a1,1,0,1,1,1.728.991Z"/><path class="cls-5" d="M64.4,79.8a1,1,0,1,1-.993-1.726l3.568-2.06a1,1,0,0,1,.993,1.728Z"/><path class="cls-5" d="M117.907,48.907a1,1,0,0,1-.993-1.728l3.568-2.059a1,1,0,0,1,.993,1.727Z"/><path class="cls-5" d="M121.475,78.073a1,1,0,1,1-.991,1.726l-3.57-2.058a1,1,0,0,1,.993-1.728Z"/><path class="cls-5" d="M67.969,47.179a1,1,0,1,1-.991,1.728l-3.567-2.06A1,1,0,1,1,64.4,45.12Z"/><path class="cls-5" d="M91.444,29.573a1,1,0,1,1,2,0v9.771a1,1,0,0,1-2,0Z"/><path class="cls-5" d="M107.722,37.99a1,1,0,0,1-1.728-1l2.06-3.568a1,1,0,0,1,1.728,1Z"/><path class="cls-12" d="M143.575,85.049c10.019-3.513,13.7-4.455,20.006-.979s6.091,4.477,16.114.971v22.374c-10.019,3.511-9.807,2.505-16.114-.968s-9.982-2.532-20.006.975Z"/><path class="cls-9" d="M147.212,80.189c5.067-1.775,8.071-2.656,10.678-2.652,2.7,0,4.821.922,8.118,2.737,3.006,1.661,4.907,2.5,7.154,2.5,2.326,0,5.191-.851,10.1-2.566a1,1,0,0,1,1.269.613,1.026,1.026,0,0,1,.055.328h0V99.629a1,1,0,0,1-.747.969c-5.07,1.772-8.072,2.654-10.679,2.649-2.7,0-4.821-.92-8.118-2.737-3.006-1.661-4.907-2.5-7.156-2.5-2.326,0-5.189.851-10.094,2.566a1,1,0,0,1-1.27-.613.974.974,0,0,1-.057-.328h0V81.156a1,1,0,0,1,.745-.967Zm10.678-.66c-2.218,0-4.925.771-9.423,2.333V98.235c4.325-1.482,7.042-2.219,9.423-2.216,2.7,0,4.821.919,8.118,2.739,3.006,1.659,4.909,2.5,7.156,2.5,2.218,0,4.923-.772,9.423-2.335V82.552c-4.325,1.479-7.041,2.216-9.425,2.214-2.7,0-4.819-.92-8.116-2.739C162.04,80.369,160.137,79.532,157.89,79.53Z"/><path class="cls-9" d="M147.657,94.84a1,1,0,0,1-.382-1.962c.175-.035.368-.065.58-.085s.409-.032.586-.032a5.913,5.913,0,0,1,5.8,4.827,1,1,0,1,1-1.962.358,3.9,3.9,0,0,0-3.838-3.185c-.138,0-.26.006-.36.014l-.014,0-.008,0h0A3.9,3.9,0,0,0,147.657,94.84Z"/><path class="cls-9" d="M151.176,79.925a1,1,0,1,1,1.889-.627,5.817,5.817,0,0,1,.226.918,6.053,6.053,0,0,1,.079.94,5.9,5.9,0,0,1-5.9,5.9,1,1,0,0,1,0-2,3.9,3.9,0,0,0,3.9-3.9,4.185,4.185,0,0,0-.045-.627A4.052,4.052,0,0,0,151.176,79.925Z"/><path class="cls-9" d="M165.526,94.185c1.054,0,1.75-.867,2.074-1.97a6,6,0,0,0,0-3.173c-.324-1.105-1.02-1.97-2.074-1.97s-1.749.867-2.072,1.97a6,6,0,0,0,0,3.173c.324,1.1,1.02,1.97,2.072,1.97Zm3.987-1.414c-.56,1.915-1.883,3.415-3.987,3.415s-3.425-1.5-3.985-3.415a7.778,7.778,0,0,1,0-4.284c.56-1.917,1.885-3.415,3.985-3.415s3.427,1.5,3.987,3.415a7.763,7.763,0,0,1,0,4.284Z"/><path class="cls-9" d="M154.762,90.046a.995.995,0,1,1-.525-1.919l3.272-.9a1,1,0,1,1,.525,1.921Z"/><path class="cls-9" d="M176.292,91.212a1,1,0,1,1,.525,1.921l-3.275.9a1,1,0,0,1-.523-1.921Z"/><path class="cls-9" d="M183.393,85.937a1,1,0,1,1,.391,1.962,5.4,5.4,0,0,1-.582.084h0a5.619,5.619,0,0,1-.586.033,5.9,5.9,0,0,1-5.8-4.825,1,1,0,1,1,1.959-.358,3.891,3.891,0,0,0,3.84,3.183c.148,0,.279-.006.383-.017h.012C183.114,85.987,183.246,85.965,183.393,85.937Z"/><path class="cls-9" d="M179.882,100.853a1,1,0,1,1-1.9.626,5.824,5.824,0,0,1-.218-.916h0a5.767,5.767,0,0,1-.08-.942,5.9,5.9,0,0,1,5.9-5.9,1,1,0,0,1,0,2,3.9,3.9,0,0,0-3.9,3.9,4.147,4.147,0,0,0,.045.623h0v0A4.252,4.252,0,0,0,179.882,100.853Z"/><path class="cls-9" d="M183.261,102.58a1,1,0,0,1,.655,1.885c-5.112,1.791-8.133,2.68-10.752,2.676-2.7,0-4.821-.922-8.118-2.737-3.006-1.663-4.907-2.5-7.156-2.5-2.326,0-5.189.851-10.094,2.566a1,1,0,1,1-.657-1.882c5.112-1.789,8.134-2.678,10.751-2.676,2.7,0,4.821.918,8.118,2.739,3.006,1.657,4.909,2.5,7.156,2.5C175.49,105.153,178.353,104.3,183.261,102.58Z"/><path class="cls-12" d="M1.411,20.639c10.019-3.513,13.7-4.455,20.006-.979s6.091,4.477,16.114.971V43c-10.019,3.511-9.807,2.505-16.114-.969s-9.982-2.532-20.006.975Z"/><path class="cls-7" d="M5.048,15.776c5.067-1.772,8.071-2.654,10.678-2.649,2.7,0,4.821.92,8.118,2.737,3,1.661,4.907,2.5,7.154,2.5,2.326,0,5.191-.851,10.1-2.566a1,1,0,0,1,1.27.613,1.026,1.026,0,0,1,.055.328h0V35.218a1,1,0,0,1-.747.969C36.609,37.96,33.6,38.841,31,38.837c-2.7,0-4.821-.92-8.118-2.737-3.006-1.661-4.907-2.5-7.156-2.5-2.326,0-5.189.851-10.094,2.566a1,1,0,0,1-1.27-.613.979.979,0,0,1-.057-.328h0V16.745a1,1,0,0,1,.745-.969Zm10.678-.659c-2.22,0-4.925.771-9.423,2.334V33.824c4.325-1.481,7.04-2.218,9.423-2.216,2.7,0,4.821.92,8.118,2.739,3,1.659,4.909,2.5,7.156,2.5,2.218,0,4.923-.771,9.423-2.334V18.139C36.1,19.621,33.381,20.358,31,20.355c-2.7,0-4.819-.92-8.116-2.739C19.876,15.958,17.973,15.121,15.726,15.117Z"/><path class="cls-7" d="M5.493,30.43a1,1,0,0,1-.382-1.962c.175-.035.368-.065.58-.085s.409-.033.586-.033a5.918,5.918,0,0,1,5.8,4.828,1,1,0,1,1-1.962.358A3.9,3.9,0,0,0,6.277,30.35c-.138,0-.26.006-.36.015l-.014,0H5.89C5.772,30.379,5.638,30.4,5.493,30.43Z"/><path class="cls-7" d="M9.012,15.514a.995.995,0,1,1,1.889-.627,5.765,5.765,0,0,1,.226.918,5.992,5.992,0,0,1,.08.94,5.9,5.9,0,0,1-5.9,5.9,1,1,0,0,1,0-2,3.9,3.9,0,0,0,3.9-3.9,4.175,4.175,0,0,0-.045-.626A4.093,4.093,0,0,0,9.012,15.514Z"/><path class="cls-7" d="M23.362,29.772c1.054,0,1.75-.865,2.074-1.968a6.006,6.006,0,0,0,0-3.173c-.324-1.1-1.02-1.97-2.074-1.97s-1.749.867-2.072,1.97a6,6,0,0,0,0,3.173c.324,1.1,1.02,1.968,2.072,1.968Zm3.987-1.414c-.56,1.917-1.883,3.417-3.987,3.417s-3.425-1.5-3.985-3.417a7.77,7.77,0,0,1,0-4.282c.56-1.917,1.885-3.415,3.985-3.415s3.427,1.5,3.987,3.415a7.757,7.757,0,0,1,0,4.282Z"/><path class="cls-7" d="M12.6,25.635a1,1,0,1,1-.525-1.921l3.272-.9a1,1,0,1,1,.525,1.921Z"/><path class="cls-7" d="M34.128,26.8a1,1,0,0,1,.523,1.921l-3.272.9a1,1,0,1,1-.523-1.921Z"/><path class="cls-7" d="M41.228,21.526a1,1,0,1,1,.391,1.962,5.4,5.4,0,0,1-.582.083h0a5.585,5.585,0,0,1-.586.032,5.9,5.9,0,0,1-5.8-4.825,1,1,0,0,1,1.96-.36,3.889,3.889,0,0,0,3.84,3.185c.148,0,.279-.006.383-.016h.012C40.95,21.577,41.082,21.554,41.228,21.526Z"/><path class="cls-7" d="M37.718,36.441a1,1,0,0,1-1.9.627,6.045,6.045,0,0,1-.22-.916h0a5.738,5.738,0,0,1-.08-.942,5.9,5.9,0,0,1,5.9-5.9,1,1,0,1,1,0,2,3.9,3.9,0,0,0-3.9,3.9,4.1,4.1,0,0,0,.047.621h0v.006A4.224,4.224,0,0,0,37.718,36.441Z"/><path class="cls-7" d="M41.1,38.169a1,1,0,1,1,.655,1.884C36.64,41.845,33.619,42.734,31,42.73c-2.7,0-4.821-.922-8.118-2.739-3.006-1.661-4.909-2.5-7.156-2.5-2.326,0-5.189.851-10.094,2.566a1,1,0,1,1-.657-1.882c5.112-1.789,8.134-2.679,10.751-2.676,2.7,0,4.821.92,8.118,2.739,3.006,1.657,4.909,2.5,7.156,2.5C33.326,40.74,36.189,39.889,41.1,38.169Z"/><path class="cls-13" d="M84.066,71.9a1,1,0,0,1-.707-1.707l26.236-26.236a1,1,0,0,1,1.414,1.414L84.773,71.609A1,1,0,0,1,84.066,71.9Z"/><path class="cls-4" d="M97.1,67.189a6.429,6.429,0,0,0,1.445-2.179,6.592,6.592,0,1,0-12.7-2.479,6.608,6.608,0,0,0,.484,2.479,6.637,6.637,0,0,0,3.628,3.628A6.584,6.584,0,0,0,97.1,67.189Z"/><path class="cls-13" d="M92.436,70.123A7.568,7.568,0,0,1,87.072,67.9,7.472,7.472,0,0,1,85.4,65.382,7.591,7.591,0,0,1,95.3,55.5a7.591,7.591,0,0,1,2.5,12.4h0a7.582,7.582,0,0,1-5.369,2.226Zm0-13.187a5.594,5.594,0,0,0-5.591,5.6,5.652,5.652,0,0,0,.411,2.1,5.478,5.478,0,0,0,1.229,1.848,5.546,5.546,0,0,0,1.847,1.229,5.584,5.584,0,0,0,6.059-1.229l0,0a5.413,5.413,0,0,0,1.222-1.84,5.579,5.579,0,0,0,.417-2.108,5.606,5.606,0,0,0-5.6-5.6Z"/><path class="cls-4" d="M92.436,65.354h0a2.832,2.832,0,0,1-2.825-2.822h0a2.832,2.832,0,0,1,2.825-2.825h0a2.833,2.833,0,0,1,2.826,2.825h0A2.832,2.832,0,0,1,92.436,65.354Z"/><path class="cls-14" d="M92.436,66.354a3.824,3.824,0,1,1,3.826-3.822A3.828,3.828,0,0,1,92.436,66.354Zm0-5.647a1.824,1.824,0,1,0,1.826,1.825A1.827,1.827,0,0,0,92.436,60.706Z"/></svg>