<svg id="Layer_1" data-name="Layer 1" xmlns="http://www.w3.org/2000/svg" viewBox="0 0 186 129"><defs><style>.cls-1{fill:#fafafa;}.cls-1,.cls-10,.cls-11,.cls-2,.cls-3,.cls-4,.cls-5,.cls-7,.cls-8,.cls-9{fill-rule:evenodd;}.cls-2{fill:#f6f4ef;}.cls-3{fill:#66db82;}.cls-4,.cls-6{fill:#fff;}.cls-5{fill:#ff7088;}.cls-7{fill:#e6e6e6;}.cls-8{fill:#fbae7a;}.cls-9{fill:#ab65f4;}.cls-10{fill:#5acaef;}.cls-11{fill:#127ef8;}</style></defs><title>icon-advantage-12-186x129</title><path class="cls-1" d="M94.154,125.447A62.522,62.522,0,1,0,31.629,62.923,62.645,62.645,0,0,0,94.154,125.447Z"/><polygon class="cls-2" points="161.68 43.018 161.68 55.092 155.453 50.887 149.221 55.092 149.221 43.018 145.586 42.592 144.935 36.995 141.504 32.729 144.935 28.464 145.586 22.867 151.183 22.212 155.453 18.78 159.718 22.212 165.315 22.867 165.97 28.464 169.402 32.729 165.97 36.999 165.315 42.592 161.68 43.018"/><path class="cls-3" d="M165.682,40.015V52.088a1,1,0,0,1-1,1,.989.989,0,0,1-.6-.2l-5.63-3.8-5.67,3.826a1,1,0,0,1-1.388-.269,1.018,1.018,0,0,1-.171-.562h0V40.015a1,1,0,0,1,1-1,1.46,1.46,0,0,1,.184.017l1.893.224a.97.97,0,0,1,.545.24l3.606,2.9,3.643-2.931a1,1,0,0,1,.513-.212h0l1.962-.232a1,1,0,0,1,1.1.879l.009.113Zm-2,10.192V41.139l-.561.066L159.1,44.443a1,1,0,0,1-1.267.013L153.789,41.2l-.562-.066v9.068l4.661-3.147.008,0,5.788,3.15Zm-4.673-3.15,4.673,3.15Z"/><path class="cls-4" d="M158.453,37.149a7.422,7.422,0,1,0-7.42-7.424A7.44,7.44,0,0,0,158.453,37.149Z"/><path class="cls-3" d="M158.453,21.3a8.4,8.4,0,0,1,5.955,2.467l.061.065a8.416,8.416,0,0,1-.057,11.849l-.065.057a8.41,8.41,0,0,1-11.844-.057l0,0v0A8.424,8.424,0,0,1,158.453,21.3ZM163,25.186a6.423,6.423,0,1,0-9.085,9.081v0a6.436,6.436,0,0,0,9.031.054l.054-.058a6.428,6.428,0,0,0,.057-9.027Z"/><path class="cls-3" d="M148.476,18.87l5.312-.619L157.83,15a1,1,0,0,1,1.263.012l4.029,3.24,5.308.619a1,1,0,0,1,.879.879l.623,5.311,3.248,4.042a.994.994,0,0,1-.012,1.266l-3.236,4.025-.623,5.313a1,1,0,0,1-.879.879l-5.308.619-4.042,3.252a1,1,0,0,1-1.266-.013L153.789,41.2l-5.312-.623a1,1,0,0,1-.879-.879l-.618-5.309-3.253-4.041a1.007,1.007,0,0,1,.013-1.267l3.24-4.025.618-5.311a1.007,1.007,0,0,1,.879-.879ZM154.3,20.2l-4.811.558-.562,4.811h0a1.022,1.022,0,0,1-.216.514l-2.927,3.639,2.9,3.61a.954.954,0,0,1,.24.545l.562,4.808,4.811.566h0a1.013,1.013,0,0,1,.513.212l3.639,2.931,3.61-2.9a.973.973,0,0,1,.546-.24l4.807-.562.562-4.812h0a.99.99,0,0,1,.212-.509l2.931-3.643-2.9-3.61a.992.992,0,0,1-.244-.546l-.562-4.811-4.807-.558v0a1,1,0,0,1-.513-.212l-3.643-2.931-3.61,2.9A.993.993,0,0,1,154.3,20.2Z"/><path class="cls-2" d="M40.479,107.94l-19.525-4.88L1.428,107.94,12.451,110.7v10.75a13.1,13.1,0,0,0,17.006,0V110.7Z"/><path class="cls-5" d="M14.453,108.441a1,1,0,1,1,2,0v9.521a12.418,12.418,0,0,0,7.5,2.617,12.418,12.418,0,0,0,7.5-2.617v-9.521a1,1,0,1,1,2,0v10h0a1,1,0,0,1-.371.777,14.488,14.488,0,0,1-9.129,3.358,14.445,14.445,0,0,1-9.065-3.313.99.99,0,0,1-.435-.822Z"/><path class="cls-5" d="M39.364,104.94l-15.406-3.855L8.547,104.94l15.41,3.851,15.406-3.851ZM24.2,99.088l19.525,4.884h0a1,1,0,0,1,0,1.938L24.2,110.79h0a1.028,1.028,0,0,1-.484,0L4.188,105.909h0a1,1,0,0,1,0-1.937l19.525-4.884v0A.967.967,0,0,1,24.2,99.088Z"/><path class="cls-5" d="M8.8,110.073a1,1,0,0,1,2,0v11.983a1,1,0,0,1-2,0Z"/><rect class="cls-6" x="146.206" y="122.411" width="29.799" height="4.888"/><path class="cls-7" d="M147.207,126.3h27.8v-2.886h-27.8V126.3Zm28.8,2h-29.8a1,1,0,0,1-1-1v-4.888a1,1,0,0,1,1-1H176a1,1,0,0,1,1,1V127.3A1,1,0,0,1,176,128.3Z"/><rect class="cls-6" x="146.206" y="112.406" width="37.365" height="4.888"/><path class="cls-7" d="M146.206,111.4h37.365a1.006,1.006,0,0,1,1,1v4.888a1,1,0,0,1-1,1H146.206a1,1,0,0,1-1-1v-4.888a1.007,1.007,0,0,1,1-1Zm36.364,2H147.207v2.89H182.57Z"/><rect class="cls-6" x="146.206" y="102.405" width="23.555" height="4.889"/><path class="cls-7" d="M146.206,101.4H169.76a1,1,0,0,1,1,1v4.889a1,1,0,0,1-1,1H146.206a1.006,1.006,0,0,1-1-1v-4.889a1,1,0,0,1,1-1Zm22.554,2H147.207v2.89h21.553Z"/><rect class="cls-6" x="15.125" y="17.241" width="34.964" height="4.889"/><path class="cls-7" d="M15.125,16.24H50.088a1,1,0,0,1,1,1V22.13a1,1,0,0,1-1,1H15.125a1,1,0,0,1-1-1V17.241a1,1,0,0,1,1-1Zm33.963,2H16.126v2.886H49.087Z"/><rect class="cls-6" x="15.125" y="27.246" width="22.721" height="4.889"/><path class="cls-7" d="M15.125,26.245H37.845a1,1,0,0,1,1,1v4.889a1,1,0,0,1-1,1H15.125a1.006,1.006,0,0,1-1-1V27.246a1,1,0,0,1,1-1Zm21.72,2H16.126v2.886H36.844Z"/><rect class="cls-6" x="15.125" y="37.247" width="28.708" height="4.893"/><path class="cls-7" d="M16.126,41.139h26.71v-2.89H16.126v2.89Zm27.707,2H15.125a1,1,0,0,1-1-1V37.247a1,1,0,0,1,1-1H43.833a1,1,0,0,1,1,1V42.14A1,1,0,0,1,43.833,43.137Z"/><path class="cls-4" d="M164.143,86.017h0a2.508,2.508,0,0,0,2.5-2.5h0a2.5,2.5,0,0,0-2.5-2.5h0a2.507,2.507,0,0,0-2.5,2.5h0A2.51,2.51,0,0,0,164.143,86.017Z"/><path class="cls-8" d="M164.143,85.017h0a1.507,1.507,0,0,0,1.059-.436l0-.008a1.493,1.493,0,0,0,.435-1.059h0a1.5,1.5,0,0,0-1.5-1.5h0a1.488,1.488,0,0,0-1.054.435l-.009,0a1.509,1.509,0,0,0-.436,1.059h0a1.516,1.516,0,0,0,1.5,1.5Zm0,2h0a3.508,3.508,0,0,1-3.5-3.5h0a3.489,3.489,0,0,1,1.029-2.467l0,0a3.489,3.489,0,0,1,2.467-1.029h0a3.509,3.509,0,0,1,3.5,3.5h0a3.5,3.5,0,0,1-1.026,2.471l-.008,0A3.5,3.5,0,0,1,164.147,87.015Z"/><path class="cls-4" d="M69.236,127.86h0a4.011,4.011,0,0,0,4-4h0a4.011,4.011,0,0,0-4-4h0a4.012,4.012,0,0,0-4,4h0A4.011,4.011,0,0,0,69.236,127.86Z"/><path class="cls-9" d="M69.236,126.859h0a2.994,2.994,0,0,0,3-3h0a3,3,0,0,0-3-3h0a3,3,0,0,0-3,3h0a2.994,2.994,0,0,0,3,3Zm0,2h0a4.986,4.986,0,0,1-3.529-1.466l-.008,0a5,5,0,0,1-1.466-3.533h0a4.992,4.992,0,0,1,1.466-3.528l.008,0a4.989,4.989,0,0,1,3.529-1.47h0a5,5,0,0,1,3.528,1.47l0,0a5,5,0,0,1,1.47,3.528h0a5,5,0,0,1-1.47,3.533l0,0A4.992,4.992,0,0,1,69.236,128.862Z"/><path class="cls-4" d="M121.784,10.827h0a4.012,4.012,0,0,0,4-4h0a4.012,4.012,0,0,0-4-4h0a4.012,4.012,0,0,0-4,4h0A4.012,4.012,0,0,0,121.784,10.827Z"/><path class="cls-5" d="M121.784,9.825h0a3,3,0,0,0,3-3h0a3,3,0,0,0-3-3h0a3,3,0,0,0-3,3h0a3,3,0,0,0,3,3Zm0,2h0a4.989,4.989,0,0,1-3.529-1.47l-.008,0a4.985,4.985,0,0,1-1.466-3.528h0A4.986,4.986,0,0,1,118.247,3.3l.008,0a4.989,4.989,0,0,1,3.529-1.47h0a5,5,0,0,1,3.528,1.47l0,0a4.989,4.989,0,0,1,1.47,3.529h0a4.988,4.988,0,0,1-1.47,3.528l0,0A5,5,0,0,1,121.784,11.828Z"/><path class="cls-4" d="M22.533,69.785h0a2.508,2.508,0,0,0,2.5-2.5h0a2.5,2.5,0,0,0-2.5-2.5h0a2.508,2.508,0,0,0-2.5,2.5h0A2.511,2.511,0,0,0,22.533,69.785Z"/><path class="cls-10" d="M22.533,68.784h0a1.508,1.508,0,0,0,1.059-.436l0,0a1.509,1.509,0,0,0,.436-1.062h0a1.5,1.5,0,0,0-1.5-1.5h0a1.493,1.493,0,0,0-1.059.436l0,0a1.5,1.5,0,0,0-.439,1.059h0a1.507,1.507,0,0,0,1.5,1.5Zm0,2h0a3.5,3.5,0,0,1-3.5-3.5h0a3.485,3.485,0,0,1,1.026-2.467l0,0a3.489,3.489,0,0,1,2.471-1.029h0a3.508,3.508,0,0,1,3.5,3.5h0a3.5,3.5,0,0,1-1.025,2.471l0,0A3.486,3.486,0,0,1,22.533,70.782Z"/><path class="cls-4" d="M74.666,6h0a2.505,2.505,0,0,0,2.5-2.5h0a2.509,2.509,0,0,0-2.5-2.5h0a2.513,2.513,0,0,0-2.5,2.5h0A2.509,2.509,0,0,0,74.666,6Z"/><path class="cls-3" d="M74.666,5h0a1.5,1.5,0,0,0,1.058-.435l0,0A1.506,1.506,0,0,0,76.164,3.5h0a1.509,1.509,0,0,0-1.5-1.5h0a1.5,1.5,0,0,0-1.058.439l0,0A1.5,1.5,0,0,0,73.164,3.5h0a1.507,1.507,0,0,0,1.5,1.5Zm0,2h0a3.5,3.5,0,0,1-3.5-3.5h0a3.5,3.5,0,0,1,1.026-2.471l0,0A3.489,3.489,0,0,1,74.666,0h0a3.507,3.507,0,0,1,3.5,3.5h0a3.5,3.5,0,0,1-1.025,2.47l0,0A3.5,3.5,0,0,1,74.666,7Z"/><path class="cls-4" d="M112.006,124.556h0a2.5,2.5,0,0,0,2.5-2.5h0a2.5,2.5,0,0,0-2.5-2.5h0a2.507,2.507,0,0,0-2.5,2.5h0A2.507,2.507,0,0,0,112.006,124.556Z"/><path class="cls-10" d="M112.006,123.559h0a1.51,1.51,0,0,0,1.059-.439l0,0a1.5,1.5,0,0,0,.436-1.059h0a1.51,1.51,0,0,0-.439-1.059,1.494,1.494,0,0,0-1.059-.439h0a1.488,1.488,0,0,0-1.054.436l0,0a1.5,1.5,0,0,0-.439,1.059h0a1.516,1.516,0,0,0,1.5,1.5Zm0,2h0a3.508,3.508,0,0,1-3.5-3.5h0a3.473,3.473,0,0,1,1.029-2.467l0-.008a3.5,3.5,0,0,1,2.467-1.026h0a3.5,3.5,0,0,1,3.5,3.5h0a3.5,3.5,0,0,1-1.026,2.471l-.008,0A3.493,3.493,0,0,1,112.01,125.557Z"/><path class="cls-4" d="M118.258,100.443a17.5,17.5,0,1,0-17.507-17.507A17.54,17.54,0,0,0,118.258,100.443Z"/><path class="cls-11" d="M120.261,95.44a16.443,16.443,0,0,0,11.669-4.827l0,0a16.515,16.515,0,0,0,0-23.344h0a16.5,16.5,0,1,0-23.339,23.344l.049.053a16.45,16.45,0,0,0,11.621,4.778Zm13.086-3.423,0,0h0a18.495,18.495,0,0,1-26.1.062l-.064-.062A18.506,18.506,0,0,1,133.347,65.85l0,0a18.488,18.488,0,0,1,0,26.164Z"/><path class="cls-4" d="M120.261,89.86c-3.346,0-7.909-1.23-9.472-5.116.687-2.369,2.088-3.244,4.4-4.014a7.457,7.457,0,0,0,10.143,0c2.312.77,3.712,1.645,4.4,4.014C128.165,88.631,123.607,89.86,120.261,89.86Z"/><path class="cls-10" d="M120.261,90.861a14.1,14.1,0,0,1-6.509-1.534,8.3,8.3,0,0,1-3.891-4.213,1,1,0,0,1-.02-.68,6,6,0,0,1,1.9-3.057l0,0a9.267,9.267,0,0,1,3.142-1.588.991.991,0,0,1,1.014.24A6.485,6.485,0,0,0,124.657,80a.993.993,0,0,1,.989-.216h0a9.3,9.3,0,0,1,3.139,1.588l.057.053a6.052,6.052,0,0,1,1.848,3.04,1.03,1.03,0,0,1-.032.647h0a8.271,8.271,0,0,1-3.892,4.213,14.08,14.08,0,0,1-6.5,1.534ZM114.7,87.568a12.618,12.618,0,0,0,11.12,0,6.391,6.391,0,0,0,2.846-2.882,3.937,3.937,0,0,0-1.12-1.746l-.053-.04a6.38,6.38,0,0,0-1.945-1.042,8.3,8.3,0,0,1-2.2,1.277,8.4,8.4,0,0,1-6.171,0,8.293,8.293,0,0,1-2.2-1.277,6.41,6.41,0,0,0-1.95,1.042v0l0,0a3.923,3.923,0,0,0-1.168,1.786A6.416,6.416,0,0,0,114.7,87.568Z"/><path class="cls-4" d="M120.261,77.873c-2.564,0-3.5-2.075-3.5-4.644s.937-4.644,3.5-4.644,3.5,2.08,3.5,4.644S122.826,77.873,120.261,77.873Z"/><path class="cls-10" d="M120.261,78.874a4.014,4.014,0,0,1-3.391-1.587l-.037-.053a7.97,7.97,0,0,1,.037-8.056v0h0a4.407,4.407,0,0,1,6.781,0l.036.053a7.967,7.967,0,0,1-.036,8.056v0h0a4.016,4.016,0,0,1-3.391,1.587Zm-1.795-2.792a2.426,2.426,0,0,0,3.59,0v0a4.846,4.846,0,0,0,.7-2.857,4.928,4.928,0,0,0-.668-2.808l-.036-.045a2.434,2.434,0,0,0-3.59,0h0a4.862,4.862,0,0,0-.7,2.853,4.93,4.93,0,0,0,.667,2.809Z"/><path class="cls-4" d="M90.153,57.428A17.506,17.506,0,1,0,72.646,39.922,17.538,17.538,0,0,0,90.153,57.428Z"/><path class="cls-11" d="M94.154,52.426a16.445,16.445,0,0,0,11.67-4.827l0,0a16.514,16.514,0,0,0,0-23.343v0l0,0a16.5,16.5,0,1,0-23.34,23.343l.049.054a16.449,16.449,0,0,0,11.621,4.778ZM107.24,49l0,0h0a18.495,18.495,0,0,1-26.1.061l-.065-.061A18.507,18.507,0,1,1,107.24,22.834l0,0a18.489,18.489,0,0,1,0,26.164Z"/><path class="cls-4" d="M94.154,46.845c-3.346,0-7.908-1.229-9.472-5.116.688-2.369,2.084-3.244,4.4-4.013a7.456,7.456,0,0,0,10.143,0c2.312.768,3.713,1.643,4.4,4.013C102.058,45.616,97.5,46.845,94.154,46.845Z"/><path class="cls-10" d="M94.154,47.847a14.1,14.1,0,0,1-6.508-1.535A8.3,8.3,0,0,1,83.754,42.1a1,1,0,0,1-.021-.68,6.011,6.011,0,0,1,1.9-3.057l0,0a9.254,9.254,0,0,1,3.143-1.587.994.994,0,0,1,1.014.239,6.489,6.489,0,0,0,8.768-.023.989.989,0,0,1,.988-.216h0a9.261,9.261,0,0,1,3.139,1.587l.057.053a6.067,6.067,0,0,1,1.849,3.041,1.033,1.033,0,0,1-.033.646h0a8.265,8.265,0,0,1-3.891,4.213,14.085,14.085,0,0,1-6.5,1.535Zm-5.559-3.293a12.627,12.627,0,0,0,11.12,0,6.4,6.4,0,0,0,2.845-2.882,3.932,3.932,0,0,0-1.119-1.746l-.053-.041a6.409,6.409,0,0,0-1.946-1.042,8.335,8.335,0,0,1-2.2,1.278,8.416,8.416,0,0,1-6.171,0,8.325,8.325,0,0,1-2.2-1.278,6.434,6.434,0,0,0-1.95,1.042v0l0,0a3.913,3.913,0,0,0-1.168,1.787A6.423,6.423,0,0,0,88.594,44.554Z"/><path class="cls-4" d="M94.154,34.858c-2.564,0-3.5-2.076-3.5-4.645s.936-4.644,3.5-4.644,3.5,2.08,3.5,4.644S96.718,34.858,94.154,34.858Z"/><path class="cls-10" d="M94.154,35.859a4.015,4.015,0,0,1-3.391-1.588l-.036-.053a6.779,6.779,0,0,1-1.075-4,6.721,6.721,0,0,1,1.111-4.05v0h0a4.407,4.407,0,0,1,6.781,0l.037.053a6.764,6.764,0,0,1,1.074,4,6.741,6.741,0,0,1-1.111,4.054h0v0a4.015,4.015,0,0,1-3.391,1.588Zm-1.795-2.792a2.436,2.436,0,0,0,3.59,0h0a4.82,4.82,0,0,0,.7-2.854,4.941,4.941,0,0,0-.667-2.809l-.037-.045a2.436,2.436,0,0,0-3.59,0h0a4.872,4.872,0,0,0-.7,2.853,4.923,4.923,0,0,0,.668,2.809Z"/><path class="cls-4" d="M64.042,100.443a17.5,17.5,0,1,0-17.5-17.507A17.54,17.54,0,0,0,64.042,100.443Z"/><path class="cls-4" d="M68.047,89.86c-3.347,0-7.909-1.23-9.472-5.116.684-2.369,2.084-3.244,4.4-4.014a7.457,7.457,0,0,0,10.144,0c2.311.77,3.708,1.645,4.4,4.014C75.952,88.631,71.393,89.86,68.047,89.86Z"/><path class="cls-10" d="M68.047,90.861a14.1,14.1,0,0,1-6.509-1.534,8.307,8.307,0,0,1-3.892-4.213,1.011,1.011,0,0,1-.02-.68,6.009,6.009,0,0,1,1.9-3.057l0,0a9.267,9.267,0,0,1,3.142-1.588.992.992,0,0,1,1.014.24A6.485,6.485,0,0,0,72.443,80a.993.993,0,0,1,.989-.216h0a9.281,9.281,0,0,1,3.138,1.588l.058.053a6.053,6.053,0,0,1,1.848,3.04,1.03,1.03,0,0,1-.032.647h0a8.275,8.275,0,0,1-3.892,4.213,14.08,14.08,0,0,1-6.5,1.534Zm-5.561-3.293a12.619,12.619,0,0,0,11.12,0,6.385,6.385,0,0,0,2.845-2.882,3.936,3.936,0,0,0-1.119-1.746l-.053-.04a6.38,6.38,0,0,0-1.945-1.042,8.422,8.422,0,0,1-8.373,1.277,8.314,8.314,0,0,1-2.2-1.277A6.415,6.415,0,0,0,60.81,82.9l0,0v0a3.933,3.933,0,0,0-1.169,1.786A6.419,6.419,0,0,0,62.487,87.568Z"/><path class="cls-4" d="M68.047,77.873c-2.568,0-3.5-2.075-3.5-4.644s.933-4.644,3.5-4.644,3.5,2.08,3.5,4.644S70.611,77.873,68.047,77.873Z"/><path class="cls-10" d="M68.047,78.874a4.013,4.013,0,0,1-3.391-1.587l-.037-.053a6.789,6.789,0,0,1-1.074-4.006,6.716,6.716,0,0,1,1.111-4.05v0h0a4.407,4.407,0,0,1,6.781,0l.036.053a7.973,7.973,0,0,1-.036,8.056v0h0a4.015,4.015,0,0,1-3.391,1.587Zm-1.8-2.792a2.427,2.427,0,0,0,3.591,0v0a4.846,4.846,0,0,0,.7-2.857,4.928,4.928,0,0,0-.668-2.808l-.036-.045a2.435,2.435,0,0,0-3.591,0h0a4.869,4.869,0,0,0-.7,2.853,4.921,4.921,0,0,0,.668,2.809Z"/><path class="cls-10" d="M99.157,77.934a1,1,0,0,1,0,2h-10a1,1,0,1,1,0-2Z"/><path class="cls-10" d="M82.375,53.41a1,1,0,0,1,1.705,1.03l-2.129,3.5-2.124,3.5a.994.994,0,1,1-1.7-1.029l2.124-3.5Z"/><path class="cls-10" d="M104.228,54.44a1,1,0,0,1,1.705-1.03l2.125,3.5,2.125,3.5a.994.994,0,1,1-1.7,1.029l-2.125-3.5Z"/><path class="cls-10" d="M111.124,52.971a1,1,0,1,1-1.4-1.416A22.037,22.037,0,0,0,114.5,27.58h0a22.053,22.053,0,0,0-4.778-7.147h0a21.975,21.975,0,0,0-31.121,0l-.053.049a22.1,22.1,0,0,0-4.73,7.1l-.016.033a21.977,21.977,0,0,0,4.795,23.941,1,1,0,0,1-1.4,1.416,23.992,23.992,0,0,1-5.243-26.095l.024-.061a24.089,24.089,0,0,1,5.161-7.738l.049-.057a24.006,24.006,0,0,1,33.955,0h0a24.063,24.063,0,0,1,5.214,7.795h0v0a23.978,23.978,0,0,1-5.218,26.151Z"/><path class="cls-10" d="M114.449,57.294a1,1,0,1,1-.517-1.93,24.311,24.311,0,0,1,18.516,2.442l.049.028a24.375,24.375,0,0,1,8.881,33.3v0h0a24.381,24.381,0,0,1-33.331,8.93L108,100.04A24.306,24.306,0,0,1,96.673,85.253a1,1,0,1,1,1.934-.518A22.308,22.308,0,0,0,108.991,98.31l.053.032a22.39,22.39,0,0,0,30.608-8.2h0A22.4,22.4,0,0,0,131.5,59.56l-.053-.028a22.313,22.313,0,0,0-17-2.238Z"/><path class="cls-11" d="M68.047,97.443a18.449,18.449,0,0,1-13.082-5.422h0A18.507,18.507,0,0,1,81.133,65.85l.057.065a18.49,18.49,0,0,1-.057,26.1l0,0h0l0,0a18.432,18.432,0,0,1-13.077,5.418Zm-11.67-6.83a16.519,16.519,0,0,0,23.339,0l0,0a16.513,16.513,0,0,0,.049-23.295l-.053-.049A16.5,16.5,0,1,0,56.378,90.609h0Z"/><path class="cls-10" d="M74.377,55.364a1,1,0,1,1-.518,1.93,22.31,22.31,0,0,0-17,2.238l-.053.028a22.4,22.4,0,0,0-8.149,30.581h0a22.4,22.4,0,0,0,30.609,8.2l.053-.032A22.3,22.3,0,0,0,89.7,84.735a1,1,0,1,1,1.934.518A24.309,24.309,0,0,1,80.311,100.04l-.049.028a24.378,24.378,0,0,1-33.332-8.93h0v0a24.374,24.374,0,0,1,8.882-33.3l.049-.028a24.309,24.309,0,0,1,18.516-2.442Z"/></svg>