<svg id="Layer_1" data-name="Layer 1" xmlns="http://www.w3.org/2000/svg" viewBox="0 0 186 129"><defs><style>.cls-1{fill:#fafafa;}.cls-1,.cls-10,.cls-12,.cls-3,.cls-4,.cls-5,.cls-6,.cls-7,.cls-8,.cls-9{fill-rule:evenodd;}.cls-2,.cls-8{fill:#fff;}.cls-3{fill:#e6e6e6;}.cls-4{fill:#ff7088;}.cls-5{fill:#66db82;}.cls-6{fill:#ab65f4;}.cls-11,.cls-7{fill:#f6f4ef;}.cls-9{fill:#5acaef;}.cls-10{fill:#fbae7a;}.cls-12{fill:#127ef8;}.cls-13{fill:#f5fcff;}</style></defs><title>icon-advantage-07-186x129</title><path class="cls-1" d="M92.455,127.5A62.523,62.523,0,1,0,29.932,64.977,62.642,62.642,0,0,0,92.455,127.5Z"/><rect class="cls-2" x="142.241" y="87.135" width="32.672" height="4.89"/><path class="cls-3" d="M142.241,86.136h32.672a1,1,0,0,1,1,1v4.89a1,1,0,0,1-1,1H142.241a1,1,0,0,1-1-1v-4.89a1,1,0,0,1,1-1Zm31.671,2h-30.67v2.888h30.67Z"/><rect class="cls-2" x="142.241" y="97.14" width="12.192" height="4.888"/><path class="cls-3" d="M142.241,96.139h12.192a1,1,0,0,1,1,1v4.888a1,1,0,0,1-1,1H142.241a1,1,0,0,1-1-1V97.14a1,1,0,0,1,1-1Zm11.191,2h-10.19v2.888h10.19Z"/><rect class="cls-2" x="142.241" y="107.143" width="26.842" height="4.889"/><path class="cls-3" d="M143.242,111.032h24.839v-2.888H143.242v2.888Zm25.841,2H142.241a1,1,0,0,1-1-1v-4.889a1,1,0,0,1,1-1h26.842a1,1,0,0,1,1,1v4.889A1,1,0,0,1,169.083,113.033Z"/><rect class="cls-2" x="16.297" y="19.983" width="21.338" height="4.889"/><path class="cls-3" d="M16.3,18.981H37.636a1,1,0,0,1,1,1v4.889a1,1,0,0,1-1,1H16.3a1,1,0,0,1-1-1V19.983a1,1,0,0,1,1-1Zm20.337,2H17.3v2.888H36.635Z"/><rect class="cls-2" x="16.297" y="29.986" width="34.748" height="4.888"/><path class="cls-3" d="M16.3,28.986H51.045a1,1,0,0,1,1,1v4.888a1,1,0,0,1-1,1H16.3a1,1,0,0,1-1-1V29.986a1,1,0,0,1,1-1Zm33.747,2H17.3v2.888H50.044Z"/><rect class="cls-2" x="16.297" y="39.991" width="17.431" height="4.888"/><path class="cls-3" d="M17.3,43.878H32.727V40.99H17.3v2.888Zm16.43,2H16.3a1,1,0,0,1-1-1V39.991a1,1,0,0,1,1-1H33.728a1,1,0,0,1,1,1v4.888A1,1,0,0,1,33.728,45.88Z"/><path class="cls-2" d="M110.314,119.519h0a4,4,0,0,1,4,4v0a4,4,0,0,1-4,4h0a4,4,0,0,1-4-4v0a4,4,0,0,1,4-4Z"/><path class="cls-4" d="M110.317,128.52h0a4.989,4.989,0,0,1-3.529-1.467l0,0a4.985,4.985,0,0,1-1.467-3.529v0a4.988,4.988,0,0,1,1.467-3.529l0,0a4.989,4.989,0,0,1,3.529-1.467h0a5,5,0,0,1,3.529,1.467l0,0a5,5,0,0,1,1.467,3.529v0a4.993,4.993,0,0,1-1.467,3.529l0,0a5,5,0,0,1-3.529,1.467Zm0-2h0a3,3,0,0,0,3-3v0a3,3,0,0,0-3-3h0a3,3,0,0,0-3,3v0a3,3,0,0,0,3,3Z"/><path class="cls-2" d="M156.711,62.776h0a4,4,0,0,1,4,4v.006a4,4,0,0,1-4,4h0a4,4,0,0,1-4-4v0A4,4,0,0,1,156.711,62.776Z"/><path class="cls-5" d="M156.711,71.78h0a5,5,0,0,1-3.529-1.467l0,0a5,5,0,0,1-1.467-3.529v0a5,5,0,0,1,1.467-3.529l0,0a5,5,0,0,1,3.529-1.467h0a5,5,0,0,1,3.529,1.467l0,0a4.987,4.987,0,0,1,1.469,3.529v0a4.99,4.99,0,0,1-1.469,3.529l0,0a4.994,4.994,0,0,1-3.529,1.467Zm0-2h0a3,3,0,0,0,3-3v0a3,3,0,0,0-3-3h0a3,3,0,0,0-3,3v0a3,3,0,0,0,3,3Z"/><rect class="cls-2" x="61.107" y="116.858" width="5" height="5" rx="2.499" ry="2.499"/><path class="cls-6" d="M63.608,122.86h0a3.506,3.506,0,0,1-3.5-3.5v0a3.5,3.5,0,0,1,1.026-2.469l.006,0a3.493,3.493,0,0,1,2.468-1.028h0a3.509,3.509,0,0,1,3.5,3.5v0a3.5,3.5,0,0,1-1.028,2.469l0,0a3.5,3.5,0,0,1-2.469,1.028Zm0-2h0a1.489,1.489,0,0,0,1.057-.437l.006-.006a1.5,1.5,0,0,0,.436-1.056v0a1.5,1.5,0,0,0-1.5-1.5h0a1.5,1.5,0,0,0-1.058.436l0,0a1.505,1.505,0,0,0-.438,1.058v0a1.512,1.512,0,0,0,1.5,1.5Z"/><path class="cls-7" d="M20.475,107.833A17.506,17.506,0,1,0,2.969,90.326,17.54,17.54,0,0,0,20.475,107.833Z"/><path class="cls-4" d="M24.476,102.828A16.5,16.5,0,0,0,36.146,74.651L36.1,74.6a16.516,16.516,0,0,0-23.292.049l0,0a16.519,16.519,0,0,0,0,23.343l0,0,0,0a16.46,16.46,0,0,0,11.672,4.833Zm13.086-3.419a18.509,18.509,0,0,1-26.172,0l0,0a18.493,18.493,0,0,1,0-26.164l0,0,0,0,0,0a18.491,18.491,0,0,1,26.1-.059l.065.059a18.507,18.507,0,0,1,0,26.172Z"/><path class="cls-8" d="M24.476,97.246c-3.348,0-7.909-1.229-9.472-5.116.686-2.369,2.086-3.244,4.4-4.011a7.463,7.463,0,0,0,10.144,0c2.31.767,3.71,1.642,4.4,4.011C32.383,96.017,27.822,97.246,24.476,97.246Z"/><path class="cls-4" d="M24.476,98.247a14.065,14.065,0,0,1-6.506-1.535A8.279,8.279,0,0,1,14.077,92.5a.994.994,0,0,1-.023-.678,6,6,0,0,1,1.9-3.059l0,0a9.259,9.259,0,0,1,3.142-1.589,1,1,0,0,1,1.013.24,6.48,6.48,0,0,0,8.768-.024,1,1,0,0,1,.989-.214v0A9.258,9.258,0,0,1,33,88.761a6.023,6.023,0,0,1,1.9,3.091,1,1,0,0,1-.033.647h0a8.275,8.275,0,0,1-3.891,4.212,14.063,14.063,0,0,1-6.5,1.535Zm-5.562-3.293a12.045,12.045,0,0,0,5.562,1.29,12.044,12.044,0,0,0,5.56-1.29,6.393,6.393,0,0,0,2.845-2.882,3.925,3.925,0,0,0-1.172-1.787,6.353,6.353,0,0,0-1.948-1.04,8.39,8.39,0,0,1-2.2,1.278,8.437,8.437,0,0,1-8.373-1.278,6.411,6.411,0,0,0-1.95,1.04l0,0,0,0a3.9,3.9,0,0,0-1.168,1.787A6.4,6.4,0,0,0,18.914,94.954Z"/><path class="cls-8" d="M24.476,85.261c-2.566,0-3.5-2.078-3.5-4.644s.934-4.644,3.5-4.644,3.5,2.078,3.5,4.644S27.043,85.261,24.476,85.261Z"/><path class="cls-4" d="M24.476,86.262a4.01,4.01,0,0,1-3.391-1.589l-.037-.053a7.967,7.967,0,0,1,.037-8.055v0a4.008,4.008,0,0,1,3.391-1.589,4.011,4.011,0,0,1,3.391,1.589l.037.053a7.967,7.967,0,0,1-.037,8.055l0,0,0,0a4.013,4.013,0,0,1-3.391,1.589Zm-1.8-2.792a2.111,2.111,0,0,0,1.8.79,2.107,2.107,0,0,0,1.795-.79l0,0a4.855,4.855,0,0,0,.7-2.855,4.946,4.946,0,0,0-.668-2.809l-.037-.045a2.108,2.108,0,0,0-1.795-.79,2.112,2.112,0,0,0-1.8.79v0a4.84,4.84,0,0,0-.7,2.855,4.946,4.946,0,0,0,.668,2.808Z"/><path class="cls-2" d="M61.244,9.478h0a2.5,2.5,0,0,1,2.5,2.5v0a2.5,2.5,0,0,1-2.5,2.5h0a2.5,2.5,0,0,1-2.5-2.5v0a2.5,2.5,0,0,1,2.5-2.5Z"/><path class="cls-9" d="M61.245,15.479h0a3.506,3.506,0,0,1-3.5-3.5v0a3.5,3.5,0,0,1,1.026-2.469l.006-.006a3.5,3.5,0,0,1,2.468-1.026h0a3.505,3.505,0,0,1,3.5,3.5v0a3.5,3.5,0,0,1-1.027,2.469l-.006,0a3.485,3.485,0,0,1-2.467,1.028Zm0-2h0a1.5,1.5,0,0,0,1.057-.436l.006-.006a1.5,1.5,0,0,0,.436-1.057v0a1.5,1.5,0,0,0-1.5-1.5h0a1.5,1.5,0,0,0-1.058.435l0,0a1.5,1.5,0,0,0-.438,1.058v0a1.508,1.508,0,0,0,1.5,1.5Z"/><path class="cls-2" d="M106.579,1h0a4,4,0,0,1,4,4V5a4,4,0,0,1-4,4h0a4,4,0,0,1-4-4V5A4,4,0,0,1,106.579,1Z"/><path class="cls-10" d="M106.583,10h0a4.989,4.989,0,0,1-3.529-1.467l-.006,0A5,5,0,0,1,101.58,5V5a4.993,4.993,0,0,1,1.465-3.529l.006,0A4.989,4.989,0,0,1,106.581,0h0a5,5,0,0,1,3.529,1.467l0,0A5,5,0,0,1,111.583,5V5a5,5,0,0,1-1.467,3.529l0,0A5,5,0,0,1,106.583,10Zm0-2h0a3,3,0,0,0,3-3V5a3,3,0,0,0-3-3h0a3,3,0,0,0-3,3V5a3,3,0,0,0,3,3Z"/><path class="cls-11" d="M138.665,18.77h23.551a4.5,4.5,0,0,1,4.5,4.5V41.143a4.5,4.5,0,0,1-4.5,4.5H138.663a4.5,4.5,0,0,1-4.5-4.5V23.27A4.5,4.5,0,0,1,138.665,18.77Z"/><path class="cls-6" d="M172.221,19.767a1,1,0,1,1-2,0,3.487,3.487,0,0,0-1.032-2.464l-.047-.051a3.5,3.5,0,0,0-2.419-.983H143.169A3.491,3.491,0,0,0,140.7,17.3l-.049.044a3.49,3.49,0,0,0-.983,2.424V37.64a3.489,3.489,0,0,0,1.025,2.471l0,0,0,0a3.491,3.491,0,0,0,2.471,1.028H166.72a3.483,3.483,0,0,0,2.466-1.026l0,0,0,0a3.5,3.5,0,0,0,1.032-2.469V35.108a1,1,0,1,1,2,0V37.64a5.491,5.491,0,0,1-1.62,3.883l0,0a5.485,5.485,0,0,1-3.879,1.618H143.169a5.481,5.481,0,0,1-3.885-1.614l0,0a5.475,5.475,0,0,1-1.618-3.883V19.767a5.48,5.48,0,0,1,1.551-3.811l.065-.071a5.494,5.494,0,0,1,3.885-1.616H166.72a5.489,5.489,0,0,1,3.811,1.555l.069.063A5.487,5.487,0,0,1,172.221,19.767Z"/><polygon class="cls-8" points="171.22 26.105 179.535 17.789 182.034 20.291 171.22 31.105 165.216 25.102 167.715 22.6 171.22 26.105"/><path class="cls-6" d="M171.218,24.69l7.609-7.609a1,1,0,0,1,1.415,0l.053.057,2.448,2.448a1,1,0,0,1,0,1.409l0,0L171.928,31.814a1.006,1.006,0,0,1-1.416,0l-6-6.006a1,1,0,0,1,0-1.414l2.5-2.5a1,1,0,0,1,1.416,0l.051.055,2.743,2.742Zm8.32-5.489-7.609,7.609,0,0a1,1,0,0,1-1.408,0l-2.8-2.8L166.63,25.1l4.589,4.589,9.4-9.4Z"/><path class="cls-6" d="M158.948,22.7a1,1,0,1,1,0,2H145.512a1,1,0,1,1,0-2Zm3.272,10a1,1,0,1,1,0,2H145.495a1,1,0,0,1,0-2Zm-7.284-5a1,1,0,1,1,0,2H145.5a1,1,0,1,1,0-2Z"/><path class="cls-8" d="M69.946,102.211h45.016a8.028,8.028,0,0,0,8-8V33.743a8.032,8.032,0,0,0-8-8H69.946a8.037,8.037,0,0,0-8,8V94.21A8.033,8.033,0,0,0,69.946,102.211Z"/><path class="cls-12" d="M69.946,101.21h45.016a7.025,7.025,0,0,0,7-7V33.743a6.98,6.98,0,0,0-2.06-4.943l-.045-.047a6.989,6.989,0,0,0-4.9-2.011H69.946a7.035,7.035,0,0,0-7,7V94.21a7.032,7.032,0,0,0,7,7Zm45.016,2H69.946a9.033,9.033,0,0,1-9.006-9V33.743a9.04,9.04,0,0,1,9.006-9h45.016a8.972,8.972,0,0,1,6.295,2.589l.065.057a8.979,8.979,0,0,1,2.646,6.358V94.21a9.029,9.029,0,0,1-9.005,9Z"/><rect class="cls-13" x="68.448" y="32.941" width="48.016" height="62.062"/><path class="cls-9" d="M115.462,94V33.94H69.447V94Zm2-61.061V95a1,1,0,0,1-1,1H68.448a1,1,0,0,1-1-1V32.941a1,1,0,0,1,1-1h48.016A1,1,0,0,1,117.463,32.941Z"/><path class="cls-9" d="M104.131,82.434a1,1,0,0,1,0,2H93.588a1,1,0,0,1,0-2Z"/><path class="cls-8" d="M81.483,50.433h0a4.011,4.011,0,0,1-4-4h0a4.011,4.011,0,0,1,4-4h0a4.011,4.011,0,0,1,4,4h0A4.011,4.011,0,0,1,81.483,50.433Z"/><path class="cls-12" d="M81.483,51.435h0a4.99,4.99,0,0,1-3.529-1.468l-.006-.006a5,5,0,0,1-1.467-3.529h0A4.992,4.992,0,0,1,77.948,42.9l.006-.006a4.99,4.99,0,0,1,3.529-1.467h0A4.992,4.992,0,0,1,85.012,42.9l.006.006a4.99,4.99,0,0,1,1.467,3.529h0a4.993,4.993,0,0,1-1.467,3.529l-.006.006a4.992,4.992,0,0,1-3.529,1.468Zm0-2h0a3,3,0,0,0,3-3h0a3,3,0,0,0-3-3h0a3,3,0,0,0-3,3h0a3,3,0,0,0,3,3Z"/><path class="cls-9" d="M102.6,57.44a1,1,0,0,1,0,2H77.482a1,1,0,1,1,0-2Zm5.143,10a1,1,0,1,1,0,2H77.456a1,1,0,1,1,0-2Zm-11.446-5a1,1,0,0,1,0,2H77.47a1,1,0,1,1,0-2Zm8.006,10a1,1,0,0,1,0,2H77.47a1,1,0,1,1,0-2Z"/><path class="cls-9" d="M106.29,42.893a1,1,0,0,1,0,2h-12.7a1,1,0,0,1,0-2Z"/><path class="cls-9" d="M104.129,47.891a1,1,0,1,1,0,2H93.588a1,1,0,0,1,0-2Z"/><path class="cls-9" d="M136.75,62.974a1,1,0,1,1,0,2h-7.78a1,1,0,0,1,0-2Z"/><path class="cls-9" d="M55.938,62.974a1,1,0,0,1,0,2H48.156a1,1,0,0,1,0-2Z"/></svg>