<svg id="Layer_1" data-name="Layer 1" xmlns="http://www.w3.org/2000/svg" viewBox="0 0 174 129"><defs><style>.cls-1{fill:#fafafa;}.cls-1,.cls-2,.cls-4,.cls-6{fill-rule:evenodd;}.cls-2,.cls-9{fill:#fff;}.cls-3{fill:#127ef8;}.cls-4{fill:#f5fcff;}.cls-5{fill:#5acaef;}.cls-6{fill:#f6f4ef;}.cls-7{fill:#ab65f4;}.cls-8{fill:#66db82;}.cls-10{fill:#e6e6e6;}.cls-11{fill:#fbae7a;}.cls-12{fill:#ff7088;}</style></defs><title>advantage-05-174x129</title><path class="cls-1" d="M91.158,125.472A62.537,62.537,0,1,0,28.621,62.935,62.659,62.659,0,0,0,91.158,125.472Z"/><path class="cls-2" d="M89.53,20.412h0a42.649,42.649,0,0,1,42.525,42.522h0a42.651,42.651,0,0,1-42.525,42.53h0a42.65,42.65,0,0,1-42.522-42.53h0A42.648,42.648,0,0,1,89.53,20.412Z"/><path class="cls-3" d="M89.531,106.465a43.526,43.526,0,1,1,43.525-43.53A43.576,43.576,0,0,1,89.531,106.465Zm0-85.053a41.526,41.526,0,1,0,41.525,41.522A41.57,41.57,0,0,0,89.531,21.412Z"/><path class="cls-4" d="M89.53,27.912h0a35.128,35.128,0,0,1,35.021,35.022h0A35.123,35.123,0,0,1,89.53,97.957h0A35.126,35.126,0,0,1,54.508,62.935h0A35.131,35.131,0,0,1,89.53,27.912Z"/><path class="cls-3" d="M97.092,93.619l-.4-1.959c12.157-2.506,14.252-5.768,14.349-15.415l-16.7-4.735.545-1.924,18.161,5.148v.756C113.04,86.442,110.631,90.828,97.092,93.619Z"/><path class="cls-3" d="M89.531,67.827A10.841,10.841,0,0,1,78.711,57.36a6.946,6.946,0,0,1-1.842-4.931,5.16,5.16,0,0,1,1.843-3.336c.008-.252.023-.447.049-.745l.04-.5L80.8,48l-.041.512a9.937,9.937,0,0,0-.049,1.049,1,1,0,0,1-.379.783,3.416,3.416,0,0,0-1.468,2.288c-.108,1.056.435,2.309,1.614,3.723a1,1,0,0,1,.232.641,8.826,8.826,0,1,0,17.652,0,1,1,0,0,1,.232-.641c1.18-1.413,1.723-2.665,1.614-3.721a3.41,3.41,0,0,0-1.469-2.289,1,1,0,0,1-.378-.783l0-.806c.017-2.306.04-5.465-1.271-6.776-1.426-1.421-5.235-2.524-7.561-2.524-3.364,0-8.553,1.507-8.553,3.511a.6.6,0,0,0,.231.46c1.27,1.208,5.628,1.637,12.969,1.271.319-.016.579-.029.768-.036l.072,2-.74.034c-5.546.274-12.2.317-14.447-1.819a2.6,2.6,0,0,1-.853-1.91c0-3.894,6.873-5.511,10.553-5.511,2.394,0,6.966,1.107,8.974,3.109,1.9,1.9,1.878,5.4,1.857,8.206l0,.33a5.153,5.153,0,0,1,1.834,3.331,6.939,6.939,0,0,1-1.842,4.929A10.842,10.842,0,0,1,89.531,67.827Z"/><path class="cls-3" d="M91.683,61.149h-4.3a1,1,0,1,1,0-2h4.3a1,1,0,0,1,0,2Z"/><polygon class="cls-2" points="93.136 75.946 89.53 79.709 85.927 75.946 89.53 72.185 93.136 75.946"/><path class="cls-5" d="M89.531,81.155l-4.988-5.208,4.988-5.207,4.99,5.207Zm-2.219-5.208,2.219,2.317,2.221-2.317L89.531,73.63Z"/><polygon class="cls-2" points="93.393 94.643 89.53 79.285 85.67 94.643 89.53 97.981 93.393 94.643"/><path class="cls-5" d="M89.531,98.981a1,1,0,0,1-.654-.244L85.015,95.4a1,1,0,0,1-.315-1l3.861-15.357a1,1,0,0,1,1.939,0L94.364,94.4a1,1,0,0,1-.315,1l-3.863,3.339A1,1,0,0,1,89.531,98.981Zm-2.741-4.692,2.741,2.371,2.743-2.371-2.743-10.9Z"/><path class="cls-3" d="M81.971,93.619C68.429,90.827,66.019,86.441,66.019,75.49v-.756l18.166-5.148.545,1.924L68.023,76.245c.1,9.646,2.192,12.908,14.353,15.415Z"/><polygon class="cls-6" points="158.703 48.024 158.703 60.101 152.473 55.899 146.245 60.101 146.245 48.024 142.609 47.602 141.953 42.007 138.521 37.732 141.953 33.466 142.609 27.871 148.203 27.22 152.473 23.783 156.741 27.22 162.339 27.871 162.994 33.466 166.427 37.74 162.994 42.007 162.339 47.602 158.703 48.024"/><path class="cls-7" d="M149.244,58.1a1,1,0,0,1-1-1V45.028a1,1,0,0,1,1.115-.993l1.963.228a1,1,0,0,1,.511.213l3.645,2.926,3.641-2.925a.993.993,0,0,1,.511-.214l1.963-.228a1,1,0,0,1,1.115.993V57.1a1,1,0,0,1-1.56.829L155.474,54.1l-5.67,3.832A1,1,0,0,1,149.244,58.1Zm6.229-6.21a1,1,0,0,1,.56.171l4.674,3.156V46.151l-.562.065L156.1,49.464a1,1,0,0,1-1.252,0l-4.046-3.249-.562-.065v9.071l4.67-3.156A1,1,0,0,1,155.474,51.895Z"/><path class="cls-2" d="M155.474,42.153a7.422,7.422,0,1,0-7.422-7.418A7.435,7.435,0,0,0,155.474,42.153Z"/><path class="cls-7" d="M155.474,43.153a8.422,8.422,0,1,1,8.428-8.418A8.429,8.429,0,0,1,155.474,43.153Zm0-14.844a6.422,6.422,0,1,0,6.428,6.426A6.431,6.431,0,0,0,155.474,28.31Z"/><path class="cls-7" d="M155.478,49.685a1,1,0,0,1-.626-.22L150.8,46.215l-5.312-.625a1,1,0,0,1-.876-.877L144,39.405l-3.256-4.043a1,1,0,0,1,0-1.254l3.252-4.042.623-5.316a1,1,0,0,1,.878-.877l5.311-.618L154.847,20a1,1,0,0,1,1.254,0l4.046,3.256,5.309.618a1,1,0,0,1,.878.877l.621,5.316,3.253,4.042a1,1,0,0,1,0,1.254L166.954,39.4l-.617,5.308a1,1,0,0,1-.876.877l-5.314.625L156.1,49.464A1,1,0,0,1,155.478,49.685ZM146.511,43.7l4.813.567a1,1,0,0,1,.509.213l3.645,2.926,3.641-2.925a1,1,0,0,1,.509-.214l4.814-.567.56-4.809a1,1,0,0,1,.214-.511l2.93-3.641-2.93-3.64a1,1,0,0,1-.214-.511l-.562-4.817-4.81-.56a1,1,0,0,1-.512-.214l-3.644-2.932-3.64,2.932a1,1,0,0,1-.512.214l-4.812.56-.564,4.817a1,1,0,0,1-.214.511L142.8,34.735l2.933,3.641a.994.994,0,0,1,.214.511Zm-1.558-13.227h0Z"/><path class="cls-6" d="M41.47,96.955,21.944,92.069,2.409,96.955l11.025,2.752v10.757a13.092,13.092,0,0,0,17.011,0V99.707Z"/><path class="cls-8" d="M24.942,111.6a14.477,14.477,0,0,1-9.131-3.36,1,1,0,0,1-.371-.778V97.452a1,1,0,0,1,2,0v9.521a12.106,12.106,0,0,0,15.011,0v-9.52a1,1,0,0,1,2,0V107.46a1,1,0,0,1-.372.778A14.506,14.506,0,0,1,24.942,111.6Z"/><path class="cls-8" d="M24.945,99.836a1,1,0,0,1-.243-.03L5.171,94.92a1,1,0,0,1,0-1.94L24.7,88.1a.992.992,0,0,1,.484,0l19.53,4.877a1,1,0,0,1,0,1.94l-19.53,4.886A1,1,0,0,1,24.945,99.836ZM9.538,93.951l15.406,3.854,15.406-3.854L24.945,90.1Z"/><path class="cls-8" d="M10.787,112.075a1,1,0,0,1-1-1V99.089a1,1,0,1,1,2,0v11.986A1,1,0,0,1,10.787,112.075Z"/><rect class="cls-9" x="133.22" y="122.435" width="29.807" height="4.894"/><path class="cls-10" d="M163.028,128.328H133.22a1,1,0,0,1-1-1v-4.894a1,1,0,0,1,1-1h29.808a1,1,0,0,1,1,1v4.894A1,1,0,0,1,163.028,128.328Zm-28.808-2h27.808v-2.894H134.22Z"/><rect class="cls-9" x="133.22" y="112.435" width="37.371" height="4.886"/><path class="cls-10" d="M170.591,118.32H133.22a1,1,0,0,1-1-1v-4.886a1,1,0,0,1,1-1h37.371a1,1,0,0,1,1,1v4.886A1,1,0,0,1,170.591,118.32Zm-36.371-2h35.371v-2.886H134.22Z"/><rect class="cls-9" x="133.22" y="102.427" width="23.561" height="4.886"/><path class="cls-10" d="M156.781,108.313H133.22a1,1,0,0,1-1-1v-4.886a1,1,0,0,1,1-1h23.562a1,1,0,0,1,1,1v4.886A1,1,0,0,1,156.781,108.313Zm-22.562-2h21.562v-2.886H134.22Z"/><rect class="cls-9" x="12.107" y="17.236" width="34.974" height="4.895"/><path class="cls-10" d="M47.081,23.131H12.107a1,1,0,0,1-1-1V17.236a1,1,0,0,1,1-1H47.081a1,1,0,0,1,1,1v4.895A1,1,0,0,1,47.081,23.131Zm-33.975-2H46.081V18.236H13.107Z"/><rect class="cls-9" x="12.107" y="27.244" width="22.727" height="4.893"/><path class="cls-10" d="M34.833,33.138H12.107a1,1,0,0,1-1-1V27.244a1,1,0,0,1,1-1H34.833a1,1,0,0,1,1,1v4.894A1,1,0,0,1,34.833,33.138Zm-21.727-2H33.833V28.244H13.107Z"/><rect class="cls-9" x="12.107" y="37.252" width="28.72" height="4.894"/><path class="cls-10" d="M40.827,43.146H12.107a1,1,0,0,1-1-1V37.252a1,1,0,0,1,1-1H40.827a1,1,0,0,1,1,1v4.894A1,1,0,0,1,40.827,43.146Zm-27.721-2H39.827V38.252H13.107Z"/><path class="cls-2" d="M160.169,86.036h0a2.506,2.506,0,0,0,2.5-2.5v-.009a2.506,2.506,0,0,0-2.5-2.5h0a2.509,2.509,0,0,0-2.5,2.5v.009A2.509,2.509,0,0,0,160.169,86.036Z"/><path class="cls-11" d="M160.169,87.036a3.5,3.5,0,1,1,3.5-3.509A3.506,3.506,0,0,1,160.169,87.036Zm0-5.009a1.5,1.5,0,1,0,1.5,1.509A1.5,1.5,0,0,0,160.169,82.027Z"/><path class="cls-2" d="M66.233,127.89h0a4.012,4.012,0,0,0,4-4v-.008a4.011,4.011,0,0,0-4-4h0a4.01,4.01,0,0,0-4,4v.008A4.011,4.011,0,0,0,66.233,127.89Z"/><path class="cls-7" d="M66.233,128.89a5,5,0,1,1,5-5.006A5.005,5.005,0,0,1,66.233,128.89Zm0-8a3,3,0,1,0,3,3.006A3,3,0,0,0,66.233,120.886Z"/><path class="cls-5" d="M118.676,83.591a1,1,0,0,1-.827-1.561,33.856,33.856,0,0,0,5.137-12.211A34.166,34.166,0,0,0,89.531,28.79,34.2,34.2,0,0,0,58.066,49.644a34.3,34.3,0,0,0-1.992,6.408,34.542,34.542,0,0,0,0,13.768,34.091,34.091,0,0,0,5.141,12.212,1,1,0,1,1-1.658,1.118,36.11,36.11,0,0,1-5.442-12.93,36.564,36.564,0,0,1,0-14.568,36.265,36.265,0,0,1,2.11-6.786A36.183,36.183,0,0,1,89.531,26.79a36.131,36.131,0,0,1,29.975,56.361A1,1,0,0,1,118.676,83.591Z"/><path class="cls-2" d="M118.795,10.82h0a4.012,4.012,0,0,0,4-4h0a4.014,4.014,0,0,0-4-4.007h0a4.013,4.013,0,0,0-4,4.007h0A4.012,4.012,0,0,0,118.795,10.82Z"/><path class="cls-12" d="M118.794,11.82a5,5,0,1,1,5-5A5.005,5.005,0,0,1,118.794,11.82Zm0-8a3,3,0,1,0,3,3.007A3.007,3.007,0,0,0,118.794,3.815Z"/><path class="cls-2" d="M20.519,67.8h0a2.506,2.506,0,0,0,2.5-2.5h0a2.506,2.506,0,0,0-2.5-2.5h0a2.506,2.506,0,0,0-2.5,2.5h0A2.506,2.506,0,0,0,20.519,67.8Z"/><path class="cls-5" d="M20.52,68.8a3.5,3.5,0,1,1,3.5-3.5A3.5,3.5,0,0,1,20.52,68.8Zm0-5a1.5,1.5,0,1,0,1.5,1.5A1.5,1.5,0,0,0,20.52,63.8Z"/><path class="cls-2" d="M71.664,6h0a2.505,2.505,0,0,0,2.5-2.5h0a2.506,2.506,0,0,0-2.5-2.5h0a2.505,2.505,0,0,0-2.5,2.5h0A2.505,2.505,0,0,0,71.664,6Z"/><path class="cls-8" d="M71.664,7a3.5,3.5,0,1,1,3.5-3.5A3.5,3.5,0,0,1,71.664,7Zm0-5a1.5,1.5,0,1,0,1.5,1.5A1.5,1.5,0,0,0,71.664,2Z"/><path class="cls-2" d="M109.019,124.584h0a2.506,2.506,0,0,0,2.5-2.5h0a2.506,2.506,0,0,0-2.5-2.5h0a2.51,2.51,0,0,0-2.5,2.5h0A2.509,2.509,0,0,0,109.019,124.584Z"/><path class="cls-5" d="M109.02,125.584a3.5,3.5,0,1,1,3.5-3.5A3.507,3.507,0,0,1,109.02,125.584Zm0-5a1.5,1.5,0,1,0,1.5,1.5A1.5,1.5,0,0,0,109.02,120.584Z"/></svg>