<svg id="Layer_1" data-name="Layer 1" xmlns="http://www.w3.org/2000/svg" viewBox="0 0 174 126"><defs><style>.cls-1{fill:#fafafa;}.cls-1,.cls-4,.cls-5,.cls-6{fill-rule:evenodd;}.cls-2{fill:#e6e6e6;}.cls-3{fill:#127ef8;}.cls-4{fill:#f6f4ef;}.cls-5,.cls-9{fill:#fff;}.cls-6{fill:#f5fcff;}.cls-7{fill:#5acaef;}.cls-8{fill:#ab65f4;}.cls-10{fill:#fbae7a;}.cls-11{fill:#ff7088;}.cls-12{fill:#66db82;}</style></defs><title>advantage-01-174x126</title><path class="cls-1" d="M86.2,125.078A62.539,62.539,0,1,0,23.664,62.541,62.659,62.659,0,0,0,86.2,125.078Z"/><path class="cls-2" d="M90.2,24.016h-8a1,1,0,0,1-1-1v-5.5a1,1,0,0,1,1-1h8a1,1,0,0,1,1,1v5.5A1,1,0,0,1,90.2,24.016Zm-7-2h6v-3.5h-6Z"/><path class="cls-3" d="M92.854,18.52H79.548a4,4,0,0,1,0-8.006H92.854a4,4,0,0,1,0,8.006ZM79.548,12.514a2,2,0,0,0-2,2,2.029,2.029,0,0,0,2,2H92.854a2.029,2.029,0,0,0,2-2,2,2,0,0,0-2-2Z"/><path class="cls-4" d="M143.233,48.523h16.054a4.512,4.512,0,0,0,4.5-4.5V32.148a4.514,4.514,0,0,0-4.5-4.5H135.729a4.516,4.516,0,0,0-4.5,4.5V44.021a4.514,4.514,0,0,0,4.5,4.5v6Z"/><path class="cls-4" d="M20.659,96.929H4.6a4.508,4.508,0,0,1-4.5-4.5V80.558a4.511,4.511,0,0,1,4.5-4.5H28.163a4.516,4.516,0,0,1,4.5,4.5V92.43a4.513,4.513,0,0,1-4.5,4.5v6Z"/><path class="cls-5" d="M86.2,102.563A40.022,40.022,0,1,0,46.179,62.541,40.1,40.1,0,0,0,86.2,102.563Z"/><path class="cls-3" d="M86.2,103.563a41.022,41.022,0,1,1,41.022-41.022A41.069,41.069,0,0,1,86.2,103.563Zm0-80.044a39.022,39.022,0,1,0,39.022,39.021A39.066,39.066,0,0,0,86.2,23.52Z"/><path class="cls-6" d="M86.2,95.5A32.962,32.962,0,1,0,53.242,62.541,33.027,33.027,0,0,0,86.2,95.5Z"/><path class="cls-7" d="M86.2,96.5a33.962,33.962,0,1,1,33.963-33.963A34,34,0,0,1,86.2,96.5Zm0-65.925a31.962,31.962,0,1,0,31.963,31.962A32,32,0,0,0,86.2,30.579Z"/><path class="cls-7" d="M86.2,96.5a1,1,0,0,1-1-1V85.729a1,1,0,0,1,2,0V95.5A1,1,0,0,1,86.2,96.5Z"/><path class="cls-7" d="M119.163,63.541h-9.771a1,1,0,0,1,0-2h9.771a1,1,0,0,1,0,2Z"/><path class="cls-7" d="M63.014,63.541H53.238a1,1,0,0,1,0-2h9.775a1,1,0,0,1,0,2Z"/><path class="cls-7" d="M102.683,92.021a1,1,0,0,1-.867-.5l-2.06-3.57a1,1,0,1,1,1.732-1l2.06,3.57a1,1,0,0,1-.865,1.5Z"/><path class="cls-7" d="M71.78,38.5a1,1,0,0,1-.867-.5l-2.06-3.57a1,1,0,1,1,1.732-1L72.646,37a1,1,0,0,1-.865,1.5Z"/><path class="cls-7" d="M69.719,92.021a1,1,0,0,1-.865-1.5l2.06-3.57a1,1,0,1,1,1.732,1l-2.06,3.57A1,1,0,0,1,69.719,92.021Z"/><path class="cls-7" d="M57.652,79.957a1,1,0,0,1-.5-1.866l3.571-2.06a1,1,0,0,1,1,1.732l-3.571,2.06A1,1,0,0,1,57.652,79.957Z"/><path class="cls-7" d="M111.176,49.055a1,1,0,0,1-.5-1.866l3.566-2.06a1,1,0,0,1,1,1.732l-3.566,2.06A.994.994,0,0,1,111.176,49.055Z"/><path class="cls-7" d="M114.74,79.957a.994.994,0,0,1-.5-.134l-3.566-2.06a1,1,0,0,1,1-1.732l3.566,2.06a1,1,0,0,1-.5,1.866Z"/><path class="cls-7" d="M61.226,49.055a1,1,0,0,1-.5-.134l-3.57-2.06a1,1,0,0,1,1-1.732l3.57,2.06a1,1,0,0,1-.5,1.866Z"/><path class="cls-8" d="M31.664,100.429a1,1,0,0,1-.625-.219L23.81,94.427H8.106a5.507,5.507,0,0,1-5.5-5.5V77.052a5.505,5.505,0,0,1,5.5-5.5H31.664a5.505,5.505,0,0,1,5.5,5.5V88.924a5.51,5.51,0,0,1-4.5,5.412v5.093a1,1,0,0,1-1,1ZM8.106,73.553a3.5,3.5,0,0,0-3.5,3.5V88.924a3.5,3.5,0,0,0,3.5,3.5H24.16a1,1,0,0,1,.625.219l5.879,4.7V93.427a1,1,0,0,1,1-1,3.5,3.5,0,0,0,3.5-3.5V77.052a3.5,3.5,0,0,0-3.5-3.5Z"/><path class="cls-8" d="M29.412,86.924H10.732a1,1,0,0,1,0-2h18.68a1,1,0,0,1,0,2Z"/><path class="cls-8" d="M27.011,80.918H10.732a1,1,0,0,1,0-2H27.011a1,1,0,0,1,0,2Z"/><rect class="cls-9" x="9.731" y="17.112" width="23.907" height="4.894"/><path class="cls-2" d="M33.639,23.006H9.731a1,1,0,0,1-1-1V17.112a1,1,0,0,1,1-1H33.639a1,1,0,0,1,1,1v4.894A1,1,0,0,1,33.639,23.006Zm-22.907-2H32.639V18.112H10.731Z"/><rect class="cls-9" x="9.731" y="27.12" width="32.303" height="4.893"/><path class="cls-2" d="M42.034,33.014H9.731a1,1,0,0,1-1-1V27.12a1,1,0,0,1,1-1h32.3a1,1,0,0,1,1,1v4.894A1,1,0,0,1,42.034,33.014Zm-31.3-2h30.3V28.12h-30.3Z"/><rect class="cls-9" x="9.731" y="37.128" width="16.48" height="4.89"/><path class="cls-2" d="M26.212,43.018H9.731a1,1,0,0,1-1-1v-4.89a1,1,0,0,1,1-1h16.48a1,1,0,0,1,1,1v4.89A1,1,0,0,1,26.212,43.018Zm-15.48-2h14.48v-2.89H10.731Z"/><rect class="cls-9" x="138.982" y="72.793" width="33.915" height="4.886"/><path class="cls-2" d="M172.9,78.679H138.982a1,1,0,0,1-1-1V72.793a1,1,0,0,1,1-1H172.9a1,1,0,0,1,1,1v4.886A1,1,0,0,1,172.9,78.679Zm-32.915-2H171.9V73.793H139.982Z"/><rect class="cls-9" x="138.982" y="82.797" width="20.292" height="4.89"/><path class="cls-2" d="M159.274,88.687H138.982a1,1,0,0,1-1-1V82.8a1,1,0,0,1,1-1h20.292a1,1,0,0,1,1,1v4.89A1,1,0,0,1,159.274,88.687Zm-19.292-2h18.292V83.8H139.982Z"/><rect class="cls-9" x="138.982" y="92.805" width="26.489" height="4.89"/><path class="cls-2" d="M165.472,98.694H138.982a1,1,0,0,1-1-1V92.8a1,1,0,0,1,1-1h26.489a1,1,0,0,1,1,1v4.89A1,1,0,0,1,165.472,98.694Zm-25.489-2h24.489V93.8H139.982Z"/><path class="cls-9" d="M122.8,105.584h0a4,4,0,0,1,4,4v.009a4,4,0,0,1-4,4h0a4,4,0,0,1-4-4v0a4,4,0,0,1,4-4Z"/><path class="cls-7" d="M122.8,114.589h0a5,5,0,1,1,5.006-5A5,5,0,0,1,122.795,114.589Zm0-8a3,3,0,0,0,0,6h0a3,3,0,0,0,0-6Z"/><path class="cls-5" d="M18.049,61.775h0a4.01,4.01,0,0,1-4-4v0a4.012,4.012,0,0,1,4-4h0a4.013,4.013,0,0,1,4,4v0A4.011,4.011,0,0,1,18.049,61.775Z"/><path class="cls-10" d="M18.049,62.775h0a5,5,0,1,1,5.007-5A5,5,0,0,1,18.045,62.775Zm0-8a3,3,0,0,0,0,6h0a3,3,0,1,0,0-6Z"/><path class="cls-5" d="M53.694,12.031h0a2.513,2.513,0,0,1-2.5-2.5h0a2.513,2.513,0,0,1,2.5-2.5h0a2.509,2.509,0,0,1,2.5,2.5h0A2.509,2.509,0,0,1,53.694,12.031Z"/><path class="cls-11" d="M53.694,13.031a3.5,3.5,0,1,1,3.5-3.5A3.508,3.508,0,0,1,53.694,13.031Zm0-5.008a1.5,1.5,0,1,0,1.5,1.5A1.506,1.506,0,0,0,53.694,8.023Z"/><path class="cls-5" d="M120.063,14.56h0a4.011,4.011,0,0,1-4-4h0a4.012,4.012,0,0,1,4-4h0a4.012,4.012,0,0,1,4,4h0A4.012,4.012,0,0,1,120.063,14.56Z"/><path class="cls-10" d="M120.062,15.56h0a5,5,0,1,1,5.006-5A5.006,5.006,0,0,1,120.059,15.56Zm0-8a3,3,0,0,0,0,6h0a3,3,0,0,0,0-6Z"/><path class="cls-5" d="M157.194,62.843h0a2.509,2.509,0,0,1-2.5-2.5h0a2.509,2.509,0,0,1,2.5-2.5h0a2.512,2.512,0,0,1,2.5,2.5h0A2.512,2.512,0,0,1,157.194,62.843Z"/><path class="cls-11" d="M157.194,63.843h0a3.5,3.5,0,1,1,3.5-3.5A3.506,3.506,0,0,1,157.19,63.843Zm0-5.008a1.5,1.5,0,0,0,0,3.008h0a1.5,1.5,0,0,0,0-3.008Z"/><path class="cls-5" d="M52.054,110.43h0a2.506,2.506,0,0,1-2.5-2.5h0a2.506,2.506,0,0,1,2.5-2.5h0a2.506,2.506,0,0,1,2.5,2.5h0A2.506,2.506,0,0,1,52.054,110.43Z"/><path class="cls-12" d="M52.054,111.43h0a3.5,3.5,0,1,1,3.5-3.5A3.5,3.5,0,0,1,52.05,111.43Zm0-5a1.5,1.5,0,1,0,0,3h0a1.5,1.5,0,0,0,0-3Z"/><path class="cls-12" d="M139.235,52.023a1,1,0,0,1-1-1v-5.1a5.509,5.509,0,0,1-4.5-5.407V28.646a5.507,5.507,0,0,1,5.5-5.5h23.557a5.505,5.505,0,0,1,5.5,5.5V40.52a5.5,5.5,0,0,1-5.5,5.5H147.086L139.86,51.8A1,1,0,0,1,139.235,52.023Zm0-26.876a3.5,3.5,0,0,0-3.5,3.5V40.52a3.5,3.5,0,0,0,3.5,3.5,1,1,0,0,1,1,1v3.924l5.874-4.7a1,1,0,0,1,.625-.219h16.058a3.5,3.5,0,0,0,3.5-3.5V28.646a3.5,3.5,0,0,0-3.5-3.5Z"/><path class="cls-12" d="M150.146,32.647h-8.664a1,1,0,1,1,0-2h8.664a1,1,0,0,1,0,2Z"/><path class="cls-12" d="M157.76,38.657H141.482a1,1,0,0,1,0-2H157.76a1,1,0,0,1,0,2Z"/><path class="cls-7" d="M86.2,40.351a1,1,0,0,1-1-1V29.579a1,1,0,1,1,2,0v9.771A1,1,0,0,1,86.2,40.351Z"/><path class="cls-7" d="M100.616,38.5a1,1,0,0,1-.864-1.5l2.064-3.57a1,1,0,1,1,1.73,1L101.482,38A1,1,0,0,1,100.616,38.5Z"/><path class="cls-3" d="M77.83,71.912a1,1,0,0,1-.707-1.707l26.236-26.236a1,1,0,0,1,1.414,1.414L78.537,71.619A1,1,0,0,1,77.83,71.912Z"/><path class="cls-5" d="M90.862,67.2a6.429,6.429,0,0,0,1.445-2.179,6.592,6.592,0,1,0-12.7-2.48,6.608,6.608,0,0,0,.484,2.48,6.637,6.637,0,0,0,3.628,3.628A6.584,6.584,0,0,0,90.862,67.2Z"/><path class="cls-3" d="M86.2,70.133a7.568,7.568,0,0,1-5.364-2.226,7.472,7.472,0,0,1-1.671-2.515,7.591,7.591,0,0,1,9.9-9.882,7.591,7.591,0,0,1,2.5,12.4h0A7.582,7.582,0,0,1,86.2,70.133Zm0-13.187a5.594,5.594,0,0,0-5.591,5.6,5.652,5.652,0,0,0,.411,2.1,5.478,5.478,0,0,0,1.229,1.848A5.546,5.546,0,0,0,84.1,67.721a5.584,5.584,0,0,0,6.059-1.229l0,0a5.413,5.413,0,0,0,1.222-1.84,5.579,5.579,0,0,0,.417-2.108,5.606,5.606,0,0,0-5.6-5.6Z"/><path class="cls-5" d="M86.2,65.363h0a2.832,2.832,0,0,1-2.825-2.822h0A2.832,2.832,0,0,1,86.2,59.716h0a2.833,2.833,0,0,1,2.826,2.825h0A2.832,2.832,0,0,1,86.2,65.363Z"/><path class="cls-7" d="M86.2,66.363a3.824,3.824,0,1,1,3.826-3.822A3.828,3.828,0,0,1,86.2,66.363Zm0-5.647a1.824,1.824,0,1,0,1.826,1.825A1.827,1.827,0,0,0,86.2,60.716Z"/></svg>