<svg id="Layer_1" data-name="Layer 1" xmlns="http://www.w3.org/2000/svg" viewBox="0 0 370 225"><defs><style>.cls-1{fill:#f6f4ef;}.cls-1,.cls-2{fill-rule:evenodd;}.cls-11,.cls-2{fill:#fff;}.cls-3{fill:#f5fcff;}.cls-4{fill:#e6e6e6;}.cls-5{fill:#fafafa;}.cls-6{fill:#5acaef;}.cls-7{fill:#ff7088;}.cls-8{fill:#66db82;}.cls-9{fill:#ab65f4;}.cls-10{fill:#fbae7a;}.cls-12{fill:#127ef8;}</style></defs><title>offer-03-370x225</title><path class="cls-1" d="M323.6,116.023h-1.544v10.818H323.6V116.023Zm-1.544,12.365v1.545h10.817v-1.545H322.055Zm-1.547,2.317v-3.071h0V115.25a.773.773,0,0,1,.772-.772h15.458a.773.773,0,0,1,.772.772v15.456a.775.775,0,0,1-.772.774H321.28a.775.775,0,0,1-.772-.774Zm4.638-3.865h7.726v-7.727h-7.726v7.727Zm9.273-7.727v10.819h1.544V119.114Zm-9.273-1.545h10.817v-1.545H325.146Z"/><path class="cls-1" d="M269.949,30.152h-2.41l1.562,2.7,1.562,2.709,1.207-2.089a5.9,5.9,0,0,1-.442-.395l0,0a5.229,5.229,0,0,1-1.474-2.924Zm3.254,4.094L272,36.334h6.25l-1.2-2.087a5.229,5.229,0,0,1-3.845,0Zm5.179-.772,1.207,2.089,1.562-2.709,1.561-2.7H280.3a5.2,5.2,0,0,1-1.475,2.924l0,0a5.43,5.43,0,0,1-.442.395Zm1.92-4.87h2.41L281.15,25.9l-1.562-2.707-1.207,2.089a5.428,5.428,0,0,1,.442.395l0,0A5.229,5.229,0,0,1,280.3,28.6Zm-3.254-4.095,1.2-2.085H272l1.2,2.085a5.235,5.235,0,0,1,3.845,0Zm-5.178.772-1.207-2.089L269.1,25.9,267.54,28.6h2.41a5.25,5.25,0,0,1,1.474-2.924l0,0a5.9,5.9,0,0,1,.442-.395Zm5.866,1.487a3.7,3.7,0,0,1,0,5.216l0,.006a3.7,3.7,0,0,1-5.214,0l0-.006a3.7,3.7,0,0,1,0-5.216l0,0a3.7,3.7,0,0,1,5.214,0l0,0Zm-12.164,3.057-.01-.016a.781.781,0,0,1,0-.864l.01-.014,2.2-3.8,2.221-3.848.007-.015v0l.008-.011,0,0,0-.007.007-.009v0l.008-.011,0,0,0-.007,0-.007,0,0,.008-.009,0,0v0l0-.007.007-.005,0,0,.008-.011h0l.007-.009.007-.006v0l.011-.011.007-.009.008,0,0-.006.007-.009h0l.011-.007,0-.006,0-.005.01-.007.011-.009,0,0,0,0,.011-.009h0l.01-.007,0,0,0,0,.011-.007,0,0,.007-.005.008-.005,0,0,.011-.005,0,0,.007-.006.007-.005h0l.008-.007.007,0,.007,0,.008-.005v0l.014-.006.008,0,0,0,.01-.006v0l.011,0,.007,0h0l.011-.006,0,0,.007,0,.011-.005h0l.015,0,0,0,.007,0,.011-.005.01,0,.007,0,.008,0,.01,0h0l.011,0,.007,0h.007l.011,0h0l.01,0,.008,0h.007l.011,0h0l.007,0,.011,0h0l.011,0h0l.008,0h.014l.011,0h.015l.007,0h0l.01,0h.026v0h8.925a.77.77,0,0,1,.529.21l0,.006a.731.731,0,0,1,.163.219l2.2,3.816,2.2,3.8.007.014a.764.764,0,0,1,0,.864l-.007.016-2.2,3.8-2.218,3.837-.008.009,0,.013,0,.005,0,.006,0,.007,0,0,0,.007v0l-.007.009v0l-.007.007v0l-.008.009v0l-.007.009v0l-.007.009h0l-.008.01-.01.01-.007.009v0l-.008.009h0l-.007.009v0l-.011.007v0l-.007.009h0l-.007.009h0l-.011.007v0l-.007.007h0l-.008.009v0l-.01.007h0l-.007.009h0l-.011.007h0l-.01.009-.008.009-.01.006h0l-.008.009h0l-.01.006v0l-.011.006v0l-.01.005v0l-.007.006,0,0-.007,0,0,0-.007,0-.008,0,0,.005-.01.006h0l-.011.006-.007,0,0,0-.011.005h0l-.011.006-.007,0,0,0-.011.005,0,0-.007,0-.011.006h0l-.01,0-.007,0-.008,0-.011.005-.011,0-.007,0,0,0-.015,0h0l-.01,0-.008,0h0l-.015,0h0l-.01,0h-.011l-.014,0h0l-.011,0-.007,0h0l-.015,0h0l-.007,0-.011,0h-.029l-.008,0h-.039v0h-8.925a.768.768,0,0,1-.692-.435l-2.2-3.817Z"/><path class="cls-1" d="M90.344,36.02l0,.007.011.018.008.017.9,1.545a.762.762,0,0,0,.666.386v0h14.494a.776.776,0,0,0,.7-.433l.855-1.482.007-.018h0L108,36.02l0-.009.866-1.5a.767.767,0,0,0,0-.768l0,0-7.247-12.554a.773.773,0,0,0-.71-.384H97.431a.769.769,0,0,0-.71.384L89.474,33.745v0a.775.775,0,0,0,0,.768l.87,1.505Zm16.69-1.395-1.834-1.06-5.254-9.1V22.347h.565l6.8,11.785-.283.493ZM103.3,33.357H95.047l4.128-7.149,4.127,7.149Zm-10.153.208-.472.272-1.362.788-.283-.493,6.806-11.785H98.4v2.121l-5.21,9.021-.043.076Zm-1.062,2.394,1.83-1.055h10.515l1.83,1.055-.283.491H92.369Z"/><path class="cls-1" d="M52.206,10.608l0,0L51.113,11.7l7.648,7.649,1.094-1.093-5.983-5.983-.014-.014-.015-.014-1.638-1.64Zm7.649,9.836,1.094,1.092L68.6,13.888,67.5,12.8l-6,6-.015.014-1.638,1.638Zm.547,2.734-2.189-2.187-8.739-8.744a.768.768,0,0,1,0-1.093L51.66,8.969h0l.014-.014.015-.013L60.4.225a.773.773,0,0,1,1.091,0l2.185,2.187h0l.015.014.01.016,8.714,8.712v0a.769.769,0,0,1,0,1.089L70.277,14.39l-.011.016-.015.014-.014.015-8.744,8.743a.773.773,0,0,1-1.091,0Zm.547-6.013L55.486,11.7,60.95,6.239,66.41,11.7,60.95,17.165ZM62.044,5.146l0,0,1.094-1.091L70.784,11.7,69.693,12.8,62.044,5.146ZM60.4,4.6,62.041,2.96,60.95,1.867,53.3,9.516h0l1.094,1.092,5.983-5.982.015-.014Z"/><path class="cls-1" d="M24.6,62.47l-1.826-1.054.283-.491h13.61l.283.491-1.83,1.054H24.6Zm13.121.279.283.493L31.2,75.027h-.565V72.9l5.25-9.093,1.837-1.062Zm-3.732,1.268H25.733l4.127,7.149,4.128-7.149ZM29.9,76.565H31.6a.77.77,0,0,0,.706-.382L39.557,63.63h0a.763.763,0,0,0,0-.77l-.863-1.5-.007-.011-.022-.042h0l-.011-.016L37.8,59.812a.776.776,0,0,0-.7-.433H22.614v0a.78.78,0,0,0-.671.384l-.891,1.545-.011.018-.007.016,0,.007-.87,1.507a.769.769,0,0,0,0,.77h0l7.247,12.553a.771.771,0,0,0,.707.382h1.707l.017,0h.04l.018,0ZM23.835,63.81l5.25,9.093v2.124H28.52l-6.8-11.785L22,62.749Z"/><path class="cls-1" d="M18.812,30.522H16.4l1.562,2.705,1.562,2.708,1.207-2.089c-.152-.125-.3-.255-.442-.4l0,0a5.225,5.225,0,0,1-1.475-2.924Zm3.254,4.1-1.2,2.085h6.25l-1.2-2.085a5.25,5.25,0,0,1-3.844,0Zm5.178-.772,1.207,2.089,1.562-2.708,1.562-2.705H29.165a5.22,5.22,0,0,1-1.475,2.924l0,0a5.4,5.4,0,0,1-.442.4Zm1.921-4.87h2.409l-1.562-2.705-1.562-2.709-1.207,2.089a5.1,5.1,0,0,1,.442.4l0,0a5.251,5.251,0,0,1,1.475,2.926Zm-3.254-4.1,1.2-2.085h-6.25l1.2,2.085a5.256,5.256,0,0,1,3.844,0Zm-5.178.772-1.207-2.089-1.562,2.709L16.4,28.976h2.409a5.256,5.256,0,0,1,1.475-2.926l0,0a5.652,5.652,0,0,1,.442-.4ZM26.6,27.141a3.7,3.7,0,0,1,0,5.216l0,0a3.694,3.694,0,0,1-5.213,0l0,0a3.7,3.7,0,0,1,0-5.216l0,0a3.7,3.7,0,0,1,5.213,0l0,0ZM14.435,30.2l-.011-.016a.761.761,0,0,1,0-.863l.011-.014,2.2-3.805,2.221-3.848.008-.015h0l.007-.013,0,0,0-.007.008-.009h0l.007-.013v0l.007-.007,0-.007,0,0,.007-.009v0l0,0,0-.007.008,0,0-.006.007-.009h0l.007-.01,0-.006,0,0,.01-.009.008-.011,0,0,.007-.005.007-.007h0L19,21.463l0-.005,0,0,.011-.009.01-.007,0-.005,0,0,.01-.007h0l.007-.009.008,0,0,0,.01-.007,0,0,.007-.005.007,0,0,0,.011-.007,0,0,0-.005.011-.006h0l.01-.007.008,0,.007,0,.007-.005v0l.015-.006,0,0,.007,0,.008-.005h0l.01-.005.008,0h0l.01-.005,0,0,.008,0,.01,0h0l.015-.005,0,0,.007,0,.011,0,.011-.006.008,0h.007l.011-.005h0l.011,0,.007,0h0l.014,0v0l.011,0,.007,0h0l.015,0,0,0,.007,0,.008,0h.007l.011,0h.01l.011,0h.014l0,0h.011l.007,0h.04v0h8.925a.77.77,0,0,1,.529.21l0,0a.787.787,0,0,1,.164.219l2.2,3.816L33.542,29.3l.011.014a.761.761,0,0,1,0,.863l-.011.016L31.35,34l-2.217,3.836-.007.011,0,.011,0,.007,0,0,0,.007,0,0,0,.009v0L29.1,37.9v0l-.007.007v0l-.007.011v0l-.008.007v0l-.007.009v0l-.007.009-.011.011-.007.007v0l-.007.009v0l-.008.007v0l-.01.009h0l-.008.009h0L29,38.017h0l-.007.009h0l-.008.009h0l-.007.009h0l-.011.007h0l-.007.009h0l-.01.009h0l-.011.007-.007.009-.011.007h0L28.9,38.1h0l-.011.005v0l-.01.005v0l-.011.006v0l-.01.005v0l-.008.005,0,0-.007.006-.007,0-.008,0-.007.006v0l-.011,0-.007,0-.007,0-.008.005,0,0-.01.006-.008,0h0l-.011.006,0,0-.008,0-.01.005h0l-.011,0-.007,0-.007,0-.011,0-.01,0-.008,0h0l-.015,0h0l-.01,0-.007,0h0l-.014,0v0l-.011,0H28.6l-.015,0v0h-.01l-.008,0H28.56l-.01,0,0,0h-.007l-.01,0H28.5l-.007,0h0l-.011,0h-.025v0H19.526a.78.78,0,0,1-.7-.433L16.631,34Z"/><path class="cls-1" d="M39.691,151.066v2.41l2.7-1.562L45.1,150.35l-2.087-1.207a5.7,5.7,0,0,1-.395.444l0,0a5.225,5.225,0,0,1-2.924,1.475Zm4.094-3.256,2.088,1.2v-6.252l-2.088,1.2a5.223,5.223,0,0,1,0,3.843Zm-.772-5.176,2.087-1.207-2.706-1.564-2.7-1.562v2.41a5.237,5.237,0,0,1,2.924,1.475l0,.006a5.4,5.4,0,0,1,.395.442Zm-4.87-1.92V138.3l-2.7,1.562-2.711,1.564,2.091,1.207a4.7,4.7,0,0,1,.395-.442l0-.006a5.22,5.22,0,0,1,2.924-1.473Zm-4.095,3.254-2.087-1.2v6.252l2.087-1.2a5.235,5.235,0,0,1,0-3.843Zm.773,5.176L32.73,150.35l2.711,1.564,2.7,1.562v-2.41a5.225,5.225,0,0,1-2.924-1.475l0,0a4.926,4.926,0,0,1-.395-.444Zm1.488-5.865a3.7,3.7,0,0,1,5.214,0l0,0a3.7,3.7,0,0,1,0,5.216l0,0a3.7,3.7,0,0,1-5.214,0l0,0a3.7,3.7,0,0,1,0-5.216l0,0Zm3.055,12.166-.018.009a.768.768,0,0,1-.862,0l-.015-.009-3.805-2.2-3.844-2.223-.018-.007v0l-.01-.006,0,0-.008,0L30.77,151v0l-.011-.007,0,0-.007-.006-.008-.005,0,0-.011-.009h0v0l-.008-.006-.007-.005,0,0-.007-.006v0l-.011-.007,0-.005-.007,0-.008-.01-.01-.007,0-.005-.008,0-.007-.011h0l-.007-.009,0,0-.007,0-.007-.01-.008-.009-.007-.006,0-.005-.007-.009v0l-.008-.007,0-.005,0-.006-.007-.009v0l-.008-.009-.007-.007v0l-.007-.011v0l-.008-.007-.007-.009v0l-.007-.011v0l0-.007-.007-.011h0l-.007-.01V150.7l0,0,0-.01,0,0,0-.011,0-.007v0l-.007-.011v0l0-.009,0-.009v0l-.007-.011v-.005l0-.007,0-.011,0-.013,0-.005v-.006l0-.013v0l0-.009,0-.009v-.017h0v-.013l0-.007v-.016l0,0v-.011l0-.007v-.02l0-.009v-.049l0-.013v-.025h0v-8.923a.769.769,0,0,1,.431-.694l3.816-2.205,3.805-2.194.015-.009a.765.765,0,0,1,.431-.134.747.747,0,0,1,.432.134l.018.009,3.8,2.194,3.849,2.223.017.009h0l.011.005,0,0,.007,0,.011.007h0l.01.007,0,0,.007,0,.007.006,0,0,.011.007v0h0l.007.006,0,.005.007,0,.007.007v0l.011.006,0,.007,0,0,.011.009.01.007,0,.005,0,.006.011.009h0l.007.009,0,0,0,.005.011.011.007.007,0,.006,0,.005.01.009v0l.008.007,0,.005,0,.006.007.011v0l.008.007,0,.007,0,0,.007.01v0l.008.01,0,.007v0l.007.009,0,.006,0,.007,0,.006,0,.006,0,0v.005l0,.007,0,.006,0,.005v0l0,.009,0,0,0,.007v0l0,.009,0,0v.009l0,0,0,.009v0l0,.011h0l0,.011v0l.007.009v0l0,.009v0l0,.011h0l0,.013h0v.013l0,.011,0,.013,0,.013v.011h0v.012l0,.013v.013l0,.011v.013l0,.011v.076h0v8.923a.776.776,0,0,1-.435.7l-3.816,2.2Z"/><path class="cls-1" d="M11.8,104.888H10.254v10.818H11.8V104.888Zm-1.544,12.365V118.8H21.069v-1.544H10.254Zm-1.547,2.317V116.5h0V104.115a.773.773,0,0,1,.772-.772H24.936a.774.774,0,0,1,.772.772v15.456a.775.775,0,0,1-.772.774H9.479a.775.775,0,0,1-.772-.774Zm4.638-3.864h7.725v-7.727H13.344v7.727Zm9.273-7.727V118.8h1.548V107.979Zm-9.273-1.545h10.82v-1.545H13.344Z"/><path class="cls-1" d="M266.235,203.723v2.409l2.706-1.562,2.707-1.565-2.088-1.207a5.232,5.232,0,0,1-.4.444l0,0a5.231,5.231,0,0,1-2.924,1.477Zm4.1-3.258,2.084,1.2v-6.25l-2.084,1.2a5.277,5.277,0,0,1,0,3.841Zm-.773-5.174,2.088-1.207-2.707-1.565-2.706-1.562v2.41a5.226,5.226,0,0,1,2.924,1.477l0,0a5.232,5.232,0,0,1,.4.444Zm-4.87-1.923v-2.412l-2.706,1.562-2.707,1.565,2.088,1.207a4.7,4.7,0,0,1,.4-.444v0a5.234,5.234,0,0,1,2.927-1.475Zm-4.1,3.256-2.083-1.2v6.25l2.083-1.2a5.277,5.277,0,0,1,0-3.841Zm.773,5.174-2.088,1.207,2.707,1.565,2.706,1.562V203.72a5.233,5.233,0,0,1-2.927-1.475v0a4.7,4.7,0,0,1-.4-.444Zm1.489-5.865a3.7,3.7,0,0,1,5.217,0l0,0a3.7,3.7,0,0,1,0,5.214l0,0a3.7,3.7,0,0,1-5.217,0l0,0a3.7,3.7,0,0,1,0-5.214l0,0Zm3.054,12.166-.015.01a.768.768,0,0,1-.862,0l-.015-.01-3.8-2.2-3.849-2.221-.015-.01v0l-.01,0-.007-.005,0,0-.011-.006v0l-.015-.007v0l-.01-.005,0-.006,0,0-.011-.007,0,0v0l-.007-.005-.008,0,0,0-.01-.007v0l-.011-.008,0-.005,0,0-.011-.009-.007-.008-.007-.005,0,0-.007-.01h0l-.01-.01,0,0,0,0-.007-.011-.011-.009,0-.005,0,0-.007-.01h0l-.011-.009v-.006l-.007-.005-.007-.009v0l-.008-.009,0-.007,0,0-.007-.011v0l-.008-.007,0-.01v0l-.007-.01,0,0,0-.008,0-.01h0l0-.011,0-.005v-.005l-.008-.011v0l-.007-.01,0-.008v0l0-.009,0-.005,0-.008,0-.01v0l0-.011,0-.005v-.007l0-.011,0-.011,0-.007v-.005l0-.013h0l0-.01,0-.008v0l0-.012v0l0-.013v-.01l0-.011v-.012l0-.01V203.1l0,0v-.034l0,0v-.06h0v-8.921a.775.775,0,0,1,.435-.7l3.816-2.2,3.8-2.2.015-.01a.764.764,0,0,1,.432-.132.751.751,0,0,1,.431.132l.015.01,3.8,2.2,3.849,2.221.015.009v0l.01,0,0,.005.008,0,.011.005v0l.011.007.007,0,.007.005.007.005v0l.011.008,0,0v0l.007,0,.008.005,0,0,.01.007v0l.011.007,0,.005,0,0,.011.009.01.008,0,.005,0,0,.007.009h0l.011.011,0,0,0,0,.007.011.011.009,0,.005,0,0,.007.011h0l.008.009.007.006v.005l.007.009,0,0,.008.01,0,.007,0,0,0,.011,0,0,0,.009.007.009v0l.007.01,0,.005,0,.006v.005l0,.005,0,.005,0,.006,0,.005v.005l0,.008,0,0,0,.007v.005l.007.005v.006l0,.007v0l0,.011v0l.008.009v0l0,.01h0l0,.011v0l0,.01v0l0,.01h0l0,.013h0l0,.01v0l0,.009v0l0,.01,0,.013,0,.013v.012h0l0,.011,0,.012v.025l0,.011v.013h0v.012l0,.013v.051h0v8.921a.775.775,0,0,1-.435.7l-3.816,2.2Z"/><path class="cls-1" d="M45.214,211.644h0l-1.09,1.093,7.648,7.648,1.094-1.092L46.88,213.31l-.015-.015-.015-.012-1.637-1.64Zm7.648,9.834,1.094,1.093,7.649-7.649-1.094-1.092-6,6-.015.015-1.638,1.637Zm.547,2.734-2.188-2.187-8.74-8.744a.767.767,0,0,1,0-1.092L44.666,210v0l.014-.013.015-.014,8.714-8.715a.772.772,0,0,1,1.091,0l2.189,2.185h0l.015.016.01.014,8.714,8.715h0v0a.772.772,0,0,1,0,1.091l-2.141,2.141-.011.015-.014.015-.015.014L54.5,224.212a.772.772,0,0,1-1.091,0Zm.547-6.013-5.464-5.462,5.464-5.463,5.461,5.463L53.956,218.2Zm1.094-12.019,0,0,1.094-1.09,7.649,7.651L62.7,213.831l-7.649-7.651Zm-1.642-.549,1.638-1.638L53.956,202.9l-7.649,7.649,0,0,1.094,1.091,5.983-5.981.015-.015Z"/><path class="cls-1" d="M139.174,205.2l-1.83-1.054.283-.492h13.61l.283.492-1.826,1.054H139.174Zm13.117.281.286.491-6.808,11.785-.565,0v-2.124l5.254-9.1,1.834-1.06Zm-3.732,1.266H140.3l4.128,7.149,4.127-7.149Zm-4.088,12.551h1.7a.778.778,0,0,0,.71-.385l7.247-12.551v0a.775.775,0,0,0,0-.768l-.866-1.5,0-.009-.022-.043h0l-.007-.016-.855-1.482a.775.775,0,0,0-.7-.433H137.185v0a.768.768,0,0,0-.666.384l-.892,1.544-.01.018-.011.018,0,.007-.87,1.508a.767.767,0,0,0,0,.768l0,0,7.247,12.551a.779.779,0,0,0,.71.385h1.783Zm-6.062-12.757,5.25,9.1v2.124l-.565,0-6.805-11.785.283-.491Z"/><path class="cls-1" d="M297.521,215.162v.008l.01.018.011.016.891,1.546a.773.773,0,0,0,.667.385v0h14.5a.765.765,0,0,0,.692-.432l.855-1.482.011-.018h0l.022-.042.007-.009.862-1.5a.778.778,0,0,0,0-.771h0L308.8,200.333a.771.771,0,0,0-.706-.384H304.6a.771.771,0,0,0-.707.384l-7.25,12.553h0a.77.77,0,0,0,0,.771l.873,1.5Zm16.686-1.394-1.834-1.06-5.251-9.1v-2.122h.565l6.806,11.785-.286.493Zm-3.733-1.268H302.22l4.127-7.149,4.127,7.149Zm-10.149.208-.471.272-1.366.788-.283-.493,6.8-11.785h.565v2.122l-5.207,9.02-.043.076Zm-1.061,2.394,1.826-1.055h10.519l1.826,1.055-.283.489H299.546Z"/><path class="cls-1" d="M220.127,207.91h-1.544v10.818h1.544V207.91Zm-1.544,12.365v1.543H229.4v-1.543H218.582Zm-1.547,2.317v-3.071h0V207.136a.776.776,0,0,1,.775-.773h15.454a.772.772,0,0,1,.772.773v15.456a.772.772,0,0,1-.772.773H217.811a.776.776,0,0,1-.775-.773Zm4.638-3.864H229.4V211h-7.726v7.728ZM230.946,211v10.819h1.548V211Zm-9.273-1.545h10.82V207.91h-10.82Z"/><path class="cls-1" d="M94.877,200.629h-2.41l1.562,2.7,1.565,2.708,1.207-2.089a4.912,4.912,0,0,1-.442-.395l0,0a5.258,5.258,0,0,1-1.478-2.924Zm3.257,4.094-1.2,2.087h6.25l-1.207-2.087a5.218,5.218,0,0,1-3.841,0Zm5.174-.772,1.207,2.089,1.566-2.708,1.562-2.7h-2.41a5.259,5.259,0,0,1-1.475,2.924l0,0a5.5,5.5,0,0,1-.445.395Zm1.924-4.87h2.41l-1.562-2.7-1.566-2.707-1.207,2.089a5.519,5.519,0,0,1,.445.395l0,0a5.248,5.248,0,0,1,1.475,2.924Zm-3.258-4.095,1.207-2.087h-6.25l1.2,2.087a5.229,5.229,0,0,1,3.841,0Zm-5.174.772-1.207-2.089-1.565,2.707-1.562,2.7h2.413a5.22,5.22,0,0,1,1.475-2.924l0,0a4.925,4.925,0,0,1,.442-.395Zm5.867,1.488a3.7,3.7,0,0,1,0,5.216l0,0a3.7,3.7,0,0,1-5.218,0v0a3.7,3.7,0,0,1,0-5.216v0a3.7,3.7,0,0,1,5.218,0l0,0ZM90.5,200.3l-.007-.016a.771.771,0,0,1-.135-.432.75.75,0,0,1,.135-.433l.007-.014,2.2-3.8,2.225-3.848.007-.015v0l.007-.01,0-.006,0-.005,0-.009v0l.01-.011v0l.008-.007,0-.008,0,0,.007-.01v0l0,0,0-.007,0-.005,0,0,.01-.011h0l.008-.009,0-.006,0,0,.01-.01.008-.009,0,0,0-.005.011-.009h0l.007-.008.007-.005,0-.005.011-.007.007-.01,0,0,.008,0,.01-.01h0l.008-.007.007,0,0,0,.011-.008v0l.01-.007.007,0v0l.011-.006,0,0,.007-.005.011-.005v0l.01-.006,0,0,.007,0,.011,0v0l.011-.005.007,0,0,0,.011-.005,0,0,.011,0,.007,0h0l.011-.005,0,0,.007,0,.011-.005h0l.01,0,.007,0,.008,0,.01-.006.011,0,.007,0,0,0,.015,0h0l.01,0,.008,0h0l.01,0h0l.011,0,.007,0h0l.015,0h0l.011,0,.007,0h0l.015,0h0l.007,0h.011l.014,0h.011l.01,0h0l.01,0h.025v0h8.921a.777.777,0,0,1,.532.211v.005a.668.668,0,0,1,.164.219l2.2,3.816,2.2,3.8.011.014a.781.781,0,0,1,0,.865l-.011.016-2.2,3.8L105.2,207.94l-.007.009,0,.013,0,.005,0,.005,0,.008,0,0,0,.007,0,0,0,.01,0,0,0,.007v0l-.007.01v0l-.007.009h0l-.011.011h0l-.007.01-.007.01-.008.009v0l-.007.01h0l-.011.009h0l-.007.009v0l-.007.008v0l-.011.009h0l-.007.008v0l-.011.007h0l-.007.009v0l-.01.008h0l-.011.007h0l-.007.01h0l-.011.009-.011.007-.011.008h0l-.007.007h0l-.011.007,0,0-.007.006,0,0-.008.005v0l-.01.005,0,0-.008,0,0,0-.007,0,0,0-.008.005-.01.006h0l-.011.005,0,0-.007,0-.011.005h0l-.01.005-.007,0,0,0-.011.005,0,0-.011,0-.007.005h0l-.011,0,0,0-.007,0-.011.005-.01,0-.007,0-.008,0-.01,0h0l-.011,0-.007,0H104.7l-.011,0h0l-.011,0h-.015l-.011,0h0l-.007,0h-.015l-.01,0h0l-.011,0-.007,0h-.03l-.007,0h-.044v0H95.594a.775.775,0,0,1-.7-.435L92.7,204.1Z"/><path class="cls-2" d="M186.533,189.4H51.6a4.474,4.474,0,0,1-4.453-4.451V37.81A4.466,4.466,0,0,1,51.6,33.357h269.74a4.471,4.471,0,0,1,4.453,4.454V184.947a4.47,4.47,0,0,1-4.453,4.451Z"/><rect class="cls-3" x="42.245" y="37.814" width="278.646" height="156.036"/><path class="cls-4" d="M321.338,190.648H51.6a5.709,5.709,0,0,1-5.7-5.7V37.811a5.71,5.71,0,0,1,5.7-5.7h269.74a5.71,5.71,0,0,1,5.7,5.7V184.947A5.709,5.709,0,0,1,321.338,190.648ZM51.6,34.607a3.207,3.207,0,0,0-3.2,3.2V184.947a3.245,3.245,0,0,0,3.2,3.2h269.74a3.206,3.206,0,0,0,3.2-3.2V37.811a3.207,3.207,0,0,0-3.2-3.2Z"/><path class="cls-5" d="M42.272,184.457H329.508a2.671,2.671,0,0,1,2.671,2.671v3.366a2.671,2.671,0,0,1-2.671,2.671H42.271a2.67,2.67,0,0,1-2.67-2.67v-3.367A2.671,2.671,0,0,1,42.272,184.457Z"/><path class="cls-4" d="M329.508,194.414H42.271a3.925,3.925,0,0,1-3.92-3.921v-3.366a3.925,3.925,0,0,1,3.92-3.92H329.508a3.925,3.925,0,0,1,3.921,3.92v3.366A3.925,3.925,0,0,1,329.508,194.414ZM42.271,185.707a1.421,1.421,0,0,0-1.42,1.42v3.366a1.422,1.422,0,0,0,1.42,1.421H329.508a1.423,1.423,0,0,0,1.421-1.421v-3.366a1.422,1.422,0,0,0-1.421-1.42Z"/><path class="cls-1" d="M12.348,188.169l0,.008.01.017.011.016.891,1.546a.771.771,0,0,0,.667.384v0H28.426a.773.773,0,0,0,.7-.433l.855-1.48.007-.018h0l.022-.042,0-.009.866-1.5a.775.775,0,0,0,0-.768v0L23.631,173.34a.775.775,0,0,0-.71-.385h-1.7l-.018,0h-.039l-.022,0h-1.7a.777.777,0,0,0-.711.385l-7.247,12.551,0,0a.767.767,0,0,0,0,.768l.87,1.508Zm16.69-1.4L27.2,185.712l-5.253-9.1v-2.123h.565l6.809,11.787-.286.492Zm-3.732-1.267H17.051l4.127-7.151,4.128,7.151Zm-10.15.206-.475.274-1.362.786-.283-.492,6.8-11.787h.565v2.123L15.2,185.636l-.043.076Zm-1.066,2.393,1.83-1.054H26.44l1.827,1.054-.283.491H14.374Z"/><path class="cls-4" d="M255.941,157.8c-.03,0-.062,0-.093,0-1.385-.128-2.731-.276-4-.442a1,1,0,0,1,.26-1.982c1.245.162,2.565.308,3.926.433a1,1,0,0,1-.091,2Zm-9.856-1.443a1,1,0,0,1-.215-.023c-1.415-.311-2.74-.661-3.937-1.043a1,1,0,0,1,.607-1.906c1.139.363,2.4.7,3.757,1a1,1,0,0,1-.213,1.977Zm-9.261-3.476a1,1,0,0,1-.546-.163,12.716,12.716,0,0,1-3.175-2.87,1,1,0,0,1,1.582-1.225,10.741,10.741,0,0,0,2.687,2.421,1,1,0,0,1-.548,1.837Zm-5.165-8.116a1,1,0,0,1-.982-.82c-.155-.848-.268-1.705-.381-2.566-.062-.475-.124-.95-.194-1.426a1,1,0,1,1,1.979-.291c.071.485.136.972.2,1.458.108.826.216,1.651.364,2.466a1,1,0,0,1-.8,1.163A.95.95,0,0,1,231.659,144.764Zm-2.315-9.641a1,1,0,0,1-.866-.5,10.355,10.355,0,0,0-2.333-2.749,1,1,0,0,1,1.291-1.527,12.329,12.329,0,0,1,2.772,3.274,1,1,0,0,1-.864,1.5Zm-7.687-5.987a.983.983,0,0,1-.38-.075,35.121,35.121,0,0,0-3.657-1.25,1,1,0,1,1,.549-1.924,36.951,36.951,0,0,1,3.868,1.324,1,1,0,0,1-.38,1.925Z"/><path class="cls-2" d="M189.2,202.713a15.584,15.584,0,1,0-15.584-15.584A15.614,15.614,0,0,0,189.2,202.713Z"/><path class="cls-6" d="M185.638,207.277a1,1,0,0,1,0-2,14.534,14.534,0,0,0,3.7-.477,1,1,0,1,1,.51,1.934A16.534,16.534,0,0,1,185.638,207.277Zm-3.875-.488a1.01,1.01,0,0,1-.251-.031,16.577,16.577,0,0,1-3.939-1.58,1,1,0,0,1,.977-1.746,14.484,14.484,0,0,0,3.463,1.389,1,1,0,0,1-.249,1.969Zm13.2-2.619a1,1,0,0,1-.6-1.8,14.725,14.725,0,0,0,2.68-2.6,1,1,0,0,1,1.564,1.247,16.738,16.738,0,0,1-3.045,2.953A1,1,0,0,1,194.959,204.17Zm-21.452-2.714a1,1,0,0,1-.779-.372,16.614,16.614,0,0,1-2.224-3.616,1,1,0,0,1,1.824-.82,14.644,14.644,0,0,0,1.956,3.181,1,1,0,0,1-.777,1.628Zm27.077-5.347a.99.99,0,0,1-.284-.041,1,1,0,0,1-.675-1.243,14.518,14.518,0,0,0,.591-3.684,1.035,1.035,0,0,1,1.031-.969,1,1,0,0,1,.969,1.031,16.545,16.545,0,0,1-.673,4.189A1,1,0,0,1,200.584,196.109Zm-30.522-3.856a1,1,0,0,1-1-.963c-.008-.2-.011-.4-.011-.6a16.554,16.554,0,0,1,.4-3.63,1,1,0,1,1,1.951.439,14.533,14.533,0,0,0-.353,3.19c0,.175,0,.35.009.523a1,1,0,0,1-.962,1.036Zm30.192-5.965a1,1,0,0,1-.937-.651,14.593,14.593,0,0,0-1.739-3.3,1,1,0,1,1,1.637-1.15,16.621,16.621,0,0,1,1.978,3.756,1,1,0,0,1-.937,1.349Zm-27.422-3.462a1,1,0,0,1-.82-1.571,16.766,16.766,0,0,1,2.843-3.146,1,1,0,0,1,1.3,1.518,14.734,14.734,0,0,0-2.5,2.771A1,1,0,0,1,172.832,182.826Zm21.271-4.208a.994.994,0,0,1-.544-.161,14.608,14.608,0,0,0-3.362-1.617,1,1,0,0,1,.629-1.9,16.629,16.629,0,0,1,3.823,1.838,1,1,0,0,1-.546,1.839Zm-13.418-1.7a1,1,0,0,1-.319-1.948,16.5,16.5,0,0,1,4.165-.823,1.012,1.012,0,0,1,1.064.932,1,1,0,0,1-.932,1.064,14.407,14.407,0,0,0-3.659.724A1.016,1.016,0,0,1,180.686,176.917Z"/><path class="cls-2" d="M186.468,84.664h0a26.794,26.794,0,0,1,26.716,26.714h0a26.794,26.794,0,0,1-26.716,26.716h0a26.8,26.8,0,0,1-26.716-26.716h0A26.794,26.794,0,0,1,186.468,84.664Z"/><path class="cls-4" d="M186.468,139.344a27.965,27.965,0,1,1,27.966-27.966A28,28,0,0,1,186.468,139.344Zm0-53.43a25.465,25.465,0,1,0,25.466,25.464A25.494,25.494,0,0,0,186.468,85.914Z"/><path class="cls-2" d="M278.265,165.585A15.584,15.584,0,1,0,262.681,150,15.614,15.614,0,0,0,278.265,165.585Z"/><path class="cls-7" d="M274.7,170.149a1,1,0,0,1,0-2,14.534,14.534,0,0,0,3.7-.477,1,1,0,1,1,.51,1.934A16.534,16.534,0,0,1,274.7,170.149Zm-3.877-.49a1.01,1.01,0,0,1-.251-.031,16.577,16.577,0,0,1-3.939-1.58,1,1,0,0,1,.977-1.746,14.484,14.484,0,0,0,3.463,1.389,1,1,0,0,1-.249,1.969Zm13.2-2.617a1,1,0,0,1-.6-1.8,14.752,14.752,0,0,0,2.68-2.6,1,1,0,1,1,1.564,1.247,16.765,16.765,0,0,1-3.045,2.952A1,1,0,0,1,284.024,167.042Zm-21.454-2.715a1,1,0,0,1-.779-.372,16.679,16.679,0,0,1-2.223-3.616,1,1,0,0,1,1.824-.82,14.625,14.625,0,0,0,1.955,3.181,1,1,0,0,1-.777,1.628Zm27.079-5.346a.99.99,0,0,1-.284-.041,1,1,0,0,1-.675-1.243,14.518,14.518,0,0,0,.591-3.684,1,1,0,0,1,2,.063,16.545,16.545,0,0,1-.673,4.189A1,1,0,0,1,289.649,158.981Zm-30.522-3.857a1,1,0,0,1-1-.963c-.008-.2-.011-.4-.011-.6a16.565,16.565,0,0,1,.4-3.632,1,1,0,1,1,1.951.439,14.544,14.544,0,0,0-.353,3.192c0,.175,0,.35.009.522a1,1,0,0,1-.962,1.036Zm30.192-5.964a1,1,0,0,1-.937-.651,14.593,14.593,0,0,0-1.739-3.3,1,1,0,0,1,1.637-1.15,16.621,16.621,0,0,1,1.978,3.756,1,1,0,0,1-.937,1.349ZM261.9,145.7a1,1,0,0,1-.82-1.571,16.766,16.766,0,0,1,2.843-3.146,1,1,0,0,1,1.3,1.518,14.734,14.734,0,0,0-2.5,2.771A1,1,0,0,1,261.9,145.7Zm21.272-4.205a1,1,0,0,1-.545-.162,14.537,14.537,0,0,0-3.36-1.617,1,1,0,1,1,.629-1.9,16.518,16.518,0,0,1,3.823,1.84,1,1,0,0,1-.547,1.838Zm-13.418-1.7a1,1,0,0,1-.319-1.948,16.5,16.5,0,0,1,4.165-.823,1.018,1.018,0,0,1,1.064.932,1,1,0,0,1-.932,1.064,14.407,14.407,0,0,0-3.659.724A1.016,1.016,0,0,1,269.752,139.788Z"/><path class="cls-2" d="M325.791,102.02a15.584,15.584,0,1,0-15.585-15.583A15.614,15.614,0,0,0,325.791,102.02Z"/><path class="cls-8" d="M322.226,106.584a1,1,0,0,1,0-2,14.57,14.57,0,0,0,3.7-.477,1,1,0,0,1,.508,1.935A16.565,16.565,0,0,1,322.226,106.584Zm-3.866-.487a.989.989,0,0,1-.249-.031,16.471,16.471,0,0,1-3.942-1.579,1,1,0,1,1,.977-1.745,14.466,14.466,0,0,0,3.462,1.386,1,1,0,0,1-.247,1.969Zm13.188-2.62a1,1,0,0,1-.6-1.8,14.689,14.689,0,0,0,2.68-2.6,1,1,0,0,1,1.564,1.247,16.693,16.693,0,0,1-3.045,2.954A1,1,0,0,1,331.547,103.477ZM310.1,100.768a1,1,0,0,1-.779-.372,16.636,16.636,0,0,1-2.224-3.614,1,1,0,1,1,1.822-.822,14.634,14.634,0,0,0,1.958,3.18,1,1,0,0,1-.777,1.628Zm27.07-5.352a1,1,0,0,1-.959-1.285,14.529,14.529,0,0,0,.591-3.685.988.988,0,0,1,1.031-.969,1,1,0,0,1,.969,1.03,16.553,16.553,0,0,1-.673,4.191A1,1,0,0,1,337.172,95.417Zm-30.519-3.851a1,1,0,0,1-1-.963c-.008-.2-.011-.4-.011-.6a16.54,16.54,0,0,1,.4-3.625,1,1,0,0,1,1.951.438A14.531,14.531,0,0,0,307.645,90q0,.267.009.529a1,1,0,0,1-.963,1.036Zm30.188-5.97a1,1,0,0,1-.937-.652,14.586,14.586,0,0,0-1.739-3.3,1,1,0,1,1,1.637-1.149,16.607,16.607,0,0,1,1.978,3.755,1,1,0,0,1-.937,1.349ZM309.42,82.138a1,1,0,0,1-.82-1.57,16.72,16.72,0,0,1,2.842-3.149,1,1,0,1,1,1.3,1.518,14.711,14.711,0,0,0-2.5,2.772A1,1,0,0,1,309.42,82.138Zm21.27-4.212a1,1,0,0,1-.544-.162,14.589,14.589,0,0,0-3.362-1.617,1,1,0,0,1,.629-1.9,16.593,16.593,0,0,1,3.823,1.839,1,1,0,0,1-.546,1.838Zm-13.417-1.7a1,1,0,0,1-.319-1.948,16.454,16.454,0,0,1,4.165-.825,1,1,0,1,1,.133,2,14.456,14.456,0,0,0-3.659.725A1,1,0,0,1,317.272,76.226Z"/><path class="cls-2" d="M250.05,59.337a15.585,15.585,0,1,0-15.585-15.584A15.616,15.616,0,0,0,250.05,59.337Z"/><path class="cls-9" d="M246.483,63.9a1,1,0,0,1,0-2,14.57,14.57,0,0,0,3.7-.477,1,1,0,0,1,.508,1.935A16.565,16.565,0,0,1,246.483,63.9Zm-3.875-.489a1,1,0,0,1-.25-.032,16.47,16.47,0,0,1-3.94-1.58,1,1,0,1,1,.977-1.745,14.513,14.513,0,0,0,3.462,1.389,1,1,0,0,1-.248,1.968Zm13.2-2.618a1,1,0,0,1-.6-1.8,14.689,14.689,0,0,0,2.68-2.6,1,1,0,0,1,1.564,1.247,16.693,16.693,0,0,1-3.045,2.954A1,1,0,0,1,255.8,60.794ZM234.353,58.08a1,1,0,0,1-.778-.371,16.577,16.577,0,0,1-2.225-3.617,1,1,0,1,1,1.824-.82,14.552,14.552,0,0,0,1.955,3.179,1,1,0,0,1-.776,1.629Zm27.076-5.346a1,1,0,0,1-.959-1.285,14.518,14.518,0,0,0,.591-3.684.99.99,0,0,1,1.031-.969,1,1,0,0,1,.969,1.03,16.542,16.542,0,0,1-.673,4.191A1,1,0,0,1,261.429,52.734Zm-30.521-3.858a1,1,0,0,1-1-.963c-.008-.2-.011-.4-.011-.6a16.551,16.551,0,0,1,.4-3.63,1,1,0,0,1,1.951.439,14.531,14.531,0,0,0-.353,3.191q0,.263.009.523a1,1,0,0,1-.962,1.036ZM261.1,42.913a1,1,0,0,1-.937-.652,14.61,14.61,0,0,0-1.739-3.3,1,1,0,1,1,1.637-1.149,16.6,16.6,0,0,1,1.978,3.756,1,1,0,0,1-.937,1.349ZM233.678,39.45a1,1,0,0,1-.82-1.571,16.723,16.723,0,0,1,2.843-3.147,1,1,0,1,1,1.3,1.518,14.7,14.7,0,0,0-2.5,2.771A1,1,0,0,1,233.678,39.45Zm21.271-4.207a1,1,0,0,1-.544-.162,14.563,14.563,0,0,0-3.361-1.617,1,1,0,0,1,.629-1.9A16.529,16.529,0,0,1,255.5,33.4a1,1,0,0,1-.546,1.838Zm-13.418-1.7a1,1,0,0,1-.319-1.948,16.508,16.508,0,0,1,4.165-.824,1,1,0,1,1,.133,2,14.492,14.492,0,0,0-3.659.724A1,1,0,0,1,241.531,33.541Z"/><path class="cls-2" d="M136.731,70.883A15.584,15.584,0,1,0,121.147,55.3,15.614,15.614,0,0,0,136.731,70.883Z"/><path class="cls-6" d="M133.166,75.448a1,1,0,0,1,0-2,14.57,14.57,0,0,0,3.7-.477,1,1,0,0,1,.508,1.935A16.565,16.565,0,0,1,133.166,75.448Zm-3.875-.489a1.01,1.01,0,0,1-.251-.032,16.526,16.526,0,0,1-3.939-1.58,1,1,0,1,1,.977-1.745,14.551,14.551,0,0,0,3.463,1.388,1,1,0,0,1-.249,1.968Zm13.2-2.618a1,1,0,0,1-.6-1.8,14.689,14.689,0,0,0,2.68-2.6,1,1,0,0,1,1.564,1.247,16.693,16.693,0,0,1-3.045,2.954A1,1,0,0,1,142.487,72.34Zm-21.452-2.713a1,1,0,0,1-.779-.372,16.622,16.622,0,0,1-2.224-3.616,1,1,0,1,1,1.824-.82A14.574,14.574,0,0,0,121.813,68a1,1,0,0,1-.777,1.628Zm27.077-5.347A1,1,0,0,1,147.153,63a14.518,14.518,0,0,0,.591-3.684.978.978,0,0,1,1.031-.969,1,1,0,0,1,.969,1.03,16.542,16.542,0,0,1-.673,4.191A1,1,0,0,1,148.112,64.281ZM117.59,60.424a1,1,0,0,1-1-.963c-.008-.2-.011-.4-.011-.6a16.535,16.535,0,0,1,.4-3.629,1,1,0,0,1,1.951.439,14.518,14.518,0,0,0-.353,3.189q0,.264.009.525a1,1,0,0,1-.962,1.036Zm30.192-5.965a1,1,0,0,1-.937-.652,14.61,14.61,0,0,0-1.739-3.3,1,1,0,1,1,1.637-1.149,16.6,16.6,0,0,1,1.978,3.756,1,1,0,0,1-.937,1.349ZM120.359,51a1,1,0,0,1-.82-1.57,16.7,16.7,0,0,1,2.843-3.148,1,1,0,1,1,1.3,1.518,14.731,14.731,0,0,0-2.5,2.771A1,1,0,0,1,120.359,51Zm21.271-4.208a1,1,0,0,1-.544-.162,14.58,14.58,0,0,0-3.361-1.617,1,1,0,1,1,.627-1.9,16.539,16.539,0,0,1,3.824,1.838,1,1,0,0,1-.546,1.838Zm-13.417-1.7a1,1,0,0,1-.319-1.948,16.508,16.508,0,0,1,4.165-.824,1,1,0,1,1,.133,2,14.492,14.492,0,0,0-3.659.724A1,1,0,0,1,128.214,45.088Z"/><path class="cls-2" d="M56.051,109.929A15.585,15.585,0,1,0,40.47,94.344,15.615,15.615,0,0,0,56.051,109.929Z"/><path class="cls-2" d="M93.7,165.67a15.585,15.585,0,1,0-15.585-15.584A15.615,15.615,0,0,0,93.7,165.67Z"/><path class="cls-10" d="M90.134,170.234a1,1,0,0,1,0-2,14.534,14.534,0,0,0,3.7-.477,1,1,0,1,1,.51,1.934A16.534,16.534,0,0,1,90.134,170.234Zm-3.875-.488a1.01,1.01,0,0,1-.251-.031,16.577,16.577,0,0,1-3.939-1.58,1,1,0,1,1,.977-1.746,14.484,14.484,0,0,0,3.463,1.389,1,1,0,0,1-.249,1.969Zm13.2-2.619a1,1,0,0,1-.6-1.8,14.759,14.759,0,0,0,2.681-2.6,1,1,0,1,1,1.563,1.248,16.757,16.757,0,0,1-3.044,2.952A1,1,0,0,1,99.455,167.127ZM78,164.413a1,1,0,0,1-.779-.372A16.614,16.614,0,0,1,75,160.425a1,1,0,0,1,1.824-.82,14.644,14.644,0,0,0,1.956,3.181A1,1,0,0,1,78,164.413Zm27.075-5.347a.99.99,0,0,1-.284-.041,1,1,0,0,1-.675-1.243,14.444,14.444,0,0,0,.59-3.683,1.039,1.039,0,0,1,1.03-.97,1,1,0,0,1,.97,1.03,16.522,16.522,0,0,1-.672,4.19A1,1,0,0,1,105.078,159.066ZM74.558,155.21a1,1,0,0,1-1-.963c-.008-.2-.011-.4-.011-.6a16.554,16.554,0,0,1,.4-3.63,1,1,0,0,1,1.951.439,14.533,14.533,0,0,0-.353,3.19c0,.175,0,.35.009.523a1,1,0,0,1-.962,1.036Zm30.191-5.965a1,1,0,0,1-.937-.651,14.593,14.593,0,0,0-1.739-3.3,1,1,0,1,1,1.637-1.15,16.621,16.621,0,0,1,1.978,3.756,1,1,0,0,1-.937,1.349Zm-27.422-3.461a1,1,0,0,1-.82-1.57,16.711,16.711,0,0,1,2.843-3.148,1,1,0,0,1,1.3,1.518,14.731,14.731,0,0,0-2.5,2.771A1,1,0,0,1,77.327,145.784ZM98.6,141.575a1,1,0,0,1-.545-.162,14.537,14.537,0,0,0-3.36-1.617,1,1,0,0,1,.629-1.9,16.518,16.518,0,0,1,3.823,1.84,1,1,0,0,1-.547,1.838Zm-13.417-1.7a1,1,0,0,1-.319-1.948,16.5,16.5,0,0,1,4.165-.823,1.012,1.012,0,0,1,1.064.932,1,1,0,0,1-.932,1.064,14.407,14.407,0,0,0-3.659.724A1.016,1.016,0,0,1,85.182,139.873Z"/><path class="cls-4" d="M112.186,155.225l-.641,0a1,1,0,0,1-.986-1.014.988.988,0,0,1,1.014-.986l.613,0c1.147,0,2.249-.044,3.272-.13a1,1,0,0,1,.168,1.992C114.547,155.179,113.39,155.225,112.186,155.225Zm9.206-1.272a1,1,0,0,1-.317-1.948,16.177,16.177,0,0,0,3.4-1.575,1,1,0,1,1,1.049,1.7,18.173,18.173,0,0,1-3.811,1.769A1,1,0,0,1,121.392,153.952Zm8.1-5.583a1,1,0,0,1-.751-1.661c.868-.985,1.693-2.05,2.464-3.057a1,1,0,1,1,1.588,1.217c-.792,1.033-1.641,2.129-2.55,3.162A1,1,0,0,1,129.491,148.369Zm6.256-7.782a1,1,0,0,1-.748-1.663A36.78,36.78,0,0,1,137.877,136a1,1,0,0,1,1.342,1.482,35.178,35.178,0,0,0-2.724,2.766A1,1,0,0,1,135.747,140.587Zm7.58-6.432a1,1,0,0,1-.527-1.851,38.832,38.832,0,0,1,3.593-1.961,1,1,0,0,1,.865,1.8,36.676,36.676,0,0,0-3.405,1.859A.994.994,0,0,1,143.327,134.155Zm9.05-4.14a1,1,0,0,1-.315-1.949c1.235-.411,2.543-.8,3.888-1.149a1,1,0,1,1,.506,1.936c-1.3.34-2.568.715-3.763,1.112A1.014,1.014,0,0,1,152.377,130.016Z"/><path class="cls-4" d="M183.623,170.785a1,1,0,0,1-.922-.611,21.384,21.384,0,0,1-1.276-3.989,1,1,0,0,1,1.959-.4,19.54,19.54,0,0,0,1.161,3.616,1,1,0,0,1-.533,1.311A1.012,1.012,0,0,1,183.623,170.785Zm-1.067-9.738a.984.984,0,0,1-.264-.035,1,1,0,0,1-.7-1.228,26.758,26.758,0,0,1,1.479-3.875,1,1,0,1,1,1.826.814,24.821,24.821,0,0,0-1.375,3.586A1,1,0,0,1,182.556,161.047ZM186,151.685a1.041,1.041,0,0,1-.2-.021,1,1,0,0,1-.776-1.183,15.8,15.8,0,0,0,.328-3.246c0-.163,0-.328-.007-.5a1,1,0,0,1,.973-1.027h.028a1,1,0,0,1,1,.973c0,.186.007.37.007.551a17.824,17.824,0,0,1-.369,3.652A1,1,0,0,1,186,151.685Z"/><path class="cls-4" d="M132.666,112.387c-.341,0-.674,0-1-.01a1,1,0,0,1,.019-2h.019c1.237.022,2.567,0,3.928-.068a1,1,0,1,1,.1,2C134.684,112.359,133.653,112.387,132.666,112.387Zm-6.94-.542a1.018,1.018,0,0,1-.171-.015,29.969,29.969,0,0,1-4.01-.97,1,1,0,0,1,.609-1.905,27.888,27.888,0,0,0,3.74.9,1,1,0,0,1-.169,1.985Zm-9.316-3.4a.994.994,0,0,1-.51-.14c-1.039-.617-2.087-1.317-3.4-2.268a1,1,0,0,1,1.176-1.618c1.257.914,2.257,1.582,3.241,2.167a1,1,0,0,1-.512,1.86Zm-8.163-5.736a1,1,0,0,1-.558-.17,32.834,32.834,0,0,0-3.325-1.984,1,1,0,0,1,.916-1.778,34.809,34.809,0,0,1,3.526,2.1,1,1,0,0,1-.56,1.83Zm-8.989-4.215a1,1,0,0,1-.27-.037,34.429,34.429,0,0,0-3.788-.82,1,1,0,1,1,.316-1.975,36.425,36.425,0,0,1,4.009.868,1,1,0,0,1-.268,1.964Zm-23.817-.619a1,1,0,0,1-.124-1.992c1.377-.173,2.727-.321,4.011-.438a1,1,0,1,1,.182,1.991c-1.262.116-2.588.261-3.942.432A1,1,0,0,1,75.439,97.875ZM89.4,97.1h-.036q-1.852-.064-3.936-.015a1,1,0,1,1-.049-2q2.145-.054,4.055.015a1,1,0,0,1-.034,2Z"/><path class="cls-4" d="M169.656,80.96a1,1,0,0,1-.809-.41c-.777-1.064-1.529-2.154-2.3-3.331a1,1,0,1,1,1.674-1.094c.749,1.147,1.481,2.208,2.238,3.245a1,1,0,0,1-.807,1.59Zm-5.506-8.327a1,1,0,0,1-.82-.426,11.721,11.721,0,0,0-2.467-2.715,1,1,0,1,1,1.219-1.585,13.743,13.743,0,0,1,2.887,3.153,1,1,0,0,1-.818,1.574Zm-8.137-5.252a1,1,0,0,1-.224-.025c-1.093-.25-2.348-.462-3.836-.651a1,1,0,1,1,.252-1.984c1.554.2,2.871.421,4.029.686a1,1,0,0,1-.222,1.975Z"/><path class="cls-4" d="M208.9,85.959a1,1,0,0,1-.577-1.817c1-.708,2.156-1.45,3.423-2.207a1,1,0,1,1,1.025,1.717c-1.224.731-2.333,1.447-3.3,2.125A1,1,0,0,1,208.9,85.959Zm8.615-5.055a1,1,0,0,1-.454-1.891q1.1-.562,2.344-1.162.609-.294,1.182-.622a1,1,0,0,1,.99,1.738q-.631.359-1.3.684-1.22.59-2.307,1.143A.988.988,0,0,1,217.513,80.9Zm8.3-5.461a1,1,0,0,1-.712-1.7,24.481,24.481,0,0,0,2.47-2.94,1,1,0,1,1,1.625,1.165,26.453,26.453,0,0,1-2.671,3.181A1,1,0,0,1,225.813,75.443Zm5.534-8.271a1,1,0,0,1-.913-1.406,24.063,24.063,0,0,0,1.3-3.6,1,1,0,0,1,1.943.473,25.5,25.5,0,0,1-1.417,3.939A1,1,0,0,1,231.347,67.173Z"/><path class="cls-4" d="M234.792,109.811q-.7,0-1.417-.021a1,1,0,0,1,.028-2h.03c1.334.039,2.641.02,3.91-.054a1,1,0,0,1,.115,2C236.587,109.784,235.689,109.81,234.792,109.811Zm8.547-.842a1,1,0,0,1-.2-1.98c1.264-.257,2.534-.58,3.776-.96a1,1,0,0,1,.586,1.912c-1.3.4-2.638.738-3.964,1.008A1,1,0,0,1,243.339,108.968Zm9.467-3.12a1,1,0,0,1-.417-1.91c1.157-.53,2.3-1.107,3.506-1.765a1,1,0,0,1,.961,1.754c-1.245.681-2.434,1.279-3.635,1.829A.992.992,0,0,1,252.806,105.848Zm8.71-4.888a1,1,0,0,1-.544-1.84c1.125-.727,2.227-1.466,3.315-2.2a1,1,0,0,1,1.119,1.657c-1.1.743-2.212,1.489-3.349,2.224A1,1,0,0,1,261.516,100.96Zm8.316-5.556a1,1,0,0,1-.546-1.839c1.271-.825,2.4-1.521,3.444-2.129a1,1,0,1,1,1,1.729c-1.018.591-2.116,1.27-3.358,2.077A1,1,0,0,1,269.832,95.4Zm32.014-3.659a1,1,0,0,1-.4-.085c-1.234-.544-2.46-1.021-3.641-1.416a1,1,0,1,1,.635-1.9c1.239.415,2.521.913,3.813,1.482a1,1,0,0,1-.4,1.916ZM278.6,90.635a1,1,0,0,1-.374-1.928,30.1,30.1,0,0,1,3.922-1.287,1,1,0,1,1,.486,1.939,27.912,27.912,0,0,0-3.66,1.2A.988.988,0,0,1,278.6,90.635Zm13.7-1.742a1,1,0,0,1-.142-.01,25.741,25.741,0,0,0-3.6-.26h-.244a1,1,0,0,1-.006-2h.251a27.827,27.827,0,0,1,3.882.279,1,1,0,0,1-.14,1.99Z"/><path class="cls-7" d="M52.489,114.492a1,1,0,0,1,0-2,14.534,14.534,0,0,0,3.7-.477,1,1,0,0,1,.51,1.934A16.534,16.534,0,0,1,52.489,114.492ZM48.616,114a.994.994,0,0,1-.249-.031,16.471,16.471,0,0,1-3.941-1.578,1,1,0,1,1,.977-1.746,14.467,14.467,0,0,0,3.461,1.386A1,1,0,0,1,48.616,114Zm13.194-2.617a1,1,0,0,1-.6-1.8,14.689,14.689,0,0,0,2.68-2.6,1,1,0,0,1,1.564,1.247,16.693,16.693,0,0,1-3.045,2.954A1,1,0,0,1,61.811,111.385Zm-21.45-2.711a1,1,0,0,1-.779-.372,16.6,16.6,0,0,1-2.224-3.616,1,1,0,1,1,1.824-.82,14.605,14.605,0,0,0,1.956,3.179,1,1,0,0,1-.777,1.628Zm27.074-5.349a1,1,0,0,1-.959-1.285,14.452,14.452,0,0,0,.59-3.684,1,1,0,0,1,2,.061,16.53,16.53,0,0,1-.672,4.192A1,1,0,0,1,67.435,103.324ZM36.914,99.47a1,1,0,0,1-1-.963c-.008-.2-.011-.4-.011-.6a16.6,16.6,0,0,1,.4-3.627,1,1,0,0,1,1.951.438,14.6,14.6,0,0,0-.352,3.189q0,.264.009.526a1,1,0,0,1-.962,1.036ZM67.1,93.5a1,1,0,0,1-.937-.652,14.61,14.61,0,0,0-1.739-3.3A1,1,0,1,1,66.064,88.4a16.6,16.6,0,0,1,1.978,3.756A1,1,0,0,1,67.1,93.5ZM39.684,90.043a1,1,0,0,1-.82-1.57,16.717,16.717,0,0,1,2.842-3.148,1,1,0,1,1,1.3,1.518,14.756,14.756,0,0,0-2.5,2.771A1,1,0,0,1,39.684,90.043Zm21.27-4.21a1,1,0,0,1-.544-.162,14.58,14.58,0,0,0-3.361-1.617,1,1,0,1,1,.627-1.9A16.539,16.539,0,0,1,61.5,83.995a1,1,0,0,1-.546,1.838Zm-13.418-1.7a1,1,0,0,1-.319-1.948,16.47,16.47,0,0,1,4.165-.824,1,1,0,1,1,.133,2,14.463,14.463,0,0,0-3.659.725A1,1,0,0,1,47.535,84.132Z"/><path class="cls-1" d="M138.957,19.888V22.3l2.7-1.562,2.707-1.563-2.088-1.207a5.239,5.239,0,0,1-.395.442l0,0a5.223,5.223,0,0,1-2.924,1.477Zm4.095-3.256,2.087,1.2v-6.25l-2.087,1.2a5.234,5.234,0,0,1,0,3.843Zm-.773-5.176,2.088-1.207-2.707-1.564-2.7-1.562v2.41a5.223,5.223,0,0,1,2.924,1.475l0,0a5.563,5.563,0,0,1,.395.444Zm-4.87-1.923V7.124l-2.7,1.562L132,10.25l2.091,1.207a4.944,4.944,0,0,1,.395-.444l0,0a5.226,5.226,0,0,1,2.924-1.475Zm-4.094,3.256-2.088-1.2v6.25l2.088-1.2a5.224,5.224,0,0,1,0-3.843Zm.772,5.176L132,19.173l2.711,1.563,2.7,1.562V19.887a5.215,5.215,0,0,1-2.924-1.475l0,0a4.684,4.684,0,0,1-.395-.442Zm1.489-5.867a3.7,3.7,0,0,1,5.214,0l0,0a3.7,3.7,0,0,1,0,5.216l0,0a3.7,3.7,0,0,1-5.214,0l0,0a3.7,3.7,0,0,1,0-5.216l0,0Zm3.054,12.166-.018.009a.768.768,0,0,1-.431.134.753.753,0,0,1-.432-.134l-.015-.009-3.8-2.194-3.849-2.223-.014-.009h0l-.011-.005,0-.005-.007,0-.011-.007h0l-.01-.007,0,0-.007-.007-.007,0,0,0-.011-.009,0,0h0l-.007-.006-.008-.006,0,0-.007-.007h0l-.011-.009-.007,0,0,0-.011-.009-.007-.009,0,0-.008-.005-.007-.009h0L129.9,19.7l-.008-.005,0,0-.007-.011-.007-.007-.008-.006,0-.006-.007-.009v0l-.008-.009,0,0,0-.005-.007-.011v0l-.008-.007-.007-.009v0l-.007-.011v0l-.008-.009-.007-.009v0l-.007-.009v-.005l0-.007-.008-.011h0l-.007-.011,0-.005v-.006l-.008-.011v0l0-.011,0-.007v0l-.007-.009,0,0v-.009l-.008-.009v0l0-.009v-.007l0-.005,0-.013,0-.011,0-.007v0l0-.013v0l0-.01,0-.007v0l0-.013v-.013l0-.007v-.006l0-.011V19.3l0-.007v-.02l0-.009v-.049l0-.013v-.025h0V10.25a.775.775,0,0,1,.435-.7l3.816-2.2,3.8-2.2.015-.009a.769.769,0,0,1,.862,0l.018.009,3.8,2.2,3.849,2.223.015.007,0,0,.011.005,0,0,0,0,.011.005,0,0,.011.007,0,0,.007.005.008.005,0,0,.01.009h0v0l.011.005,0,.006,0,0,.01.009h0l.011.007,0,.006,0,0,.011.009.011.007,0,.006,0,0,.007.009h0l.007.011,0,0,0,0,.01.011.008.009,0,.005,0,.006.01.009h0l.008.009,0,.006,0,.005.007.009v0l.008.009,0,.007,0,0,0,.011,0,0,.008.007,0,.009v0l.007.011,0,.005,0,.006,0,.006,0,.005v.005l0,.006,0,.006,0,.005,0,.007v0l0,.007,0,.005,0,.007v0l0,.007,0,0v.009l0,0,0,.007v0l0,.009v0l0,.011v0l.007.009v.014l.008.011h0l0,.011v.013h0l0,.013,0,.013,0,.013V10.1h0v.011l0,.013v.013l0,.012h0v.038l0,.013v.049h0v8.923a.772.772,0,0,1-.435.694l-3.816,2.2Z"/><path class="cls-1" d="M179.467,12.227h-1.543V23.045h1.543V12.227Zm-1.543,12.365v1.544h10.816V24.592H177.923Zm-1.548,2.317V23.838h0V11.453a.775.775,0,0,1,.773-.774h15.458a.775.775,0,0,1,.772.774V26.909a.775.775,0,0,1-.772.774H177.148a.775.775,0,0,1-.773-.774Zm4.638-3.864h7.725V15.317h-7.725v7.727Zm9.273-7.727V26.135h1.547V15.317Zm-9.273-1.545h10.819V12.227H181.014Z"/><path class="cls-1" d="M226.34,8.154,224.511,7.1l.286-.491H238.4l.283.491L236.86,8.154H226.34Zm13.117.279.287.493-6.805,11.785-.565,0V18.589l5.251-9.1,1.833-1.06ZM235.725,9.7h-8.254L231.6,16.85,235.725,9.7Zm-4.087,12.548h1.707a.77.77,0,0,0,.706-.382L241.3,9.313h0a.776.776,0,0,0,0-.77l-.862-1.5-.007-.011-.022-.041h0l-.011-.017L239.541,5.5a.764.764,0,0,0-.692-.433h-14.5v0a.778.778,0,0,0-.667.384l-.892,1.545-.01.018-.011.017,0,.007L221.9,8.543a.768.768,0,0,0,0,.77h0l7.25,12.554a.767.767,0,0,0,.707.382h1.706l.018,0h.04l.018,0ZM225.576,9.492l5.251,9.1v2.124l-.565,0-6.8-11.785.283-.493Z"/><path class="cls-1" d="M306.931,13.355h0l-1.091,1.092,7.649,7.649L314.584,21,308.6,15.022l-.015-.014-.014-.013-1.642-1.639Zm7.653,9.834,1.09,1.093,7.649-7.649-1.09-1.093-6,6-.015.014-1.637,1.638Zm.544,2.734-2.185-2.187L304.2,14.993a.773.773,0,0,1,0-1.092l2.189-2.185v0l.015-.014.014-.013,8.712-8.715a.775.775,0,0,1,1.093,0l2.185,2.187h0l.015.015.014.014L327.15,13.9v0a.772.772,0,0,1,0,1.091L325,17.136l-.015.014-.011.014-.015.015-8.744,8.743a.775.775,0,0,1-1.093,0Zm.546-6.013-5.461-5.463,5.461-5.464,5.465,5.464-5.465,5.463Zm1.094-12.019v0l1.094-1.09,7.649,7.651-1.094,1.092-7.649-7.651Zm-1.641-.549L316.768,5.7l-1.094-1.092-7.648,7.649h0l1.094,1.093L315.1,7.373l.015-.016Z"/><path class="cls-1" d="M336.759,48.9l0,.007.011.016.01.018.892,1.546a.764.764,0,0,0,.666.384v0h14.494a.776.776,0,0,0,.7-.433l.855-1.48.007-.018h0l.022-.041,0-.011.866-1.5a.764.764,0,0,0,0-.768l0,0-7.246-12.552a.775.775,0,0,0-.711-.384h-1.7l-.022,0h-.04l-.018,0h-1.7a.77.77,0,0,0-.71.384l-7.247,12.552v0a.775.775,0,0,0,0,.768l.87,1.508Zm16.69-1.4-1.833-1.06-5.254-9.1V35.221h.565l6.8,11.787-.283.491Zm-3.732-1.266h-8.254l4.127-7.151,4.127,7.151Zm-10.15.207-.474.272-1.363.788-.282-.491,6.8-11.787h.565v2.123l-5.211,9.019-.04.076ZM338.5,48.833l1.829-1.054h10.519l1.826,1.054-.283.491h-13.61Z"/><path class="cls-1" d="M352.674,89.762v2.41l2.7-1.562,2.711-1.566L356,87.838a4.716,4.716,0,0,1-.395.444l0,0a5.236,5.236,0,0,1-2.924,1.476Zm4.095-3.257,2.087,1.2v-6.25l-2.087,1.2a5.229,5.229,0,0,1,0,3.841ZM356,81.33l2.091-1.207-2.711-1.565L352.674,77v2.41a5.236,5.236,0,0,1,2.924,1.476l0,0a4.716,4.716,0,0,1,.395.444Zm-4.87-1.922V77l-2.7,1.562-2.711,1.565L347.8,81.33a4.716,4.716,0,0,1,.395-.444l0,0a5.225,5.225,0,0,1,2.924-1.474Zm-4.094,3.256-2.088-1.2v6.25l2.088-1.2a5.218,5.218,0,0,1,0-3.841Zm.772,5.174-2.091,1.207,2.711,1.566,2.7,1.562V89.76a5.225,5.225,0,0,1-2.924-1.474l0,0a4.716,4.716,0,0,1-.395-.444Zm1.489-5.865a3.7,3.7,0,0,1,5.214,0l0,0a3.7,3.7,0,0,1,0,5.216l0,0a3.692,3.692,0,0,1-5.214,0l0,0a3.7,3.7,0,0,1,0-5.216l0,0Zm3.054,12.166-.018.009a.744.744,0,0,1-.427.132.778.778,0,0,1-.435-.132l-.015-.009-3.8-2.2L343.8,89.722l-.017-.009v0l-.011,0,0-.005-.007,0-.011-.005v0l-.011-.007,0,0-.007-.006-.007-.005,0,0-.011-.007v0l0,0-.007-.006,0,0-.007,0-.007-.007v0l-.011-.007,0-.005-.007,0-.008-.01-.01-.007,0-.005-.008,0-.007-.009h0l-.007-.011,0,0-.008,0-.007-.011-.007-.009-.008-.006v0l-.011-.011h0l-.008-.009,0-.005,0-.006-.007-.009v0l-.008-.009,0-.007,0,0-.007-.01v0l-.008-.009,0-.009,0,0-.007-.011v0l0-.007-.008-.011h0l0-.01,0-.006,0-.006,0-.011,0,0,0-.011,0-.007v0l-.007-.011v0l0-.007,0-.011v0l0-.011,0-.005,0-.007,0-.011,0-.011,0-.007v-.006l0-.013h0l0-.011v-.007l0,0v-.013l0,0v-.024l0-.01,0,0v-.009l0-.009v-.029l0-.009v-.04l0-.013v-.025h0V80.123a.771.771,0,0,1,.432-.7l3.819-2.2,3.8-2.2.015-.009a.778.778,0,0,1,.435-.132.732.732,0,0,1,.427.132l.018.009,3.8,2.2L360,79.446l.018.009v0l.01,0,0,.005.008,0,.011.007v0l.011.007,0,0,.007.006.008.005,0,0,.01.007v0l0,0,.008,0,0,.005.007,0,.008.007v0l.01.007,0,.005.008,0,.007.011.01.007,0,.005,0,0,.01.009h0l.007.009,0,.006.007,0,.007.01.008.009,0,0,.007.005.007.011h0l.008.009,0,.005,0,.006.007.009v0l.008.009,0,.007,0,0,.007.009v0l.008.007,0,.009,0,0,0,.011,0,.005,0,.005,0,.006,0,.006,0,.005,0,.005v.006l0,.006,0,.007v0l.007.007V79.8l0,.005v.005l0,.007,0,0,0,.01v0l0,.009v0l0,.009,0,0v.013l.007.009v0l0,.011h0l0,.013h0l0,.011v0l0,.011h0l0,.013v.011l0,.013,0,.013h0v.01l0,.013v.013l0,.011v.013l0,.013h0v.038l0,.013v.025h0v8.921a.781.781,0,0,1-.434.7l-3.82,2.2Z"/><path class="cls-1" d="M340.419,152.043l-1.829-1.056.286-.489h13.606l.283.489-1.826,1.056H340.419Zm13.117.279.286.493-6.8,11.785h-.565v-2.123l5.251-9.1,1.833-1.06ZM349.8,153.59H341.55l4.127,7.147,4.127-7.147Zm-4.087,12.548h1.706a.768.768,0,0,0,.707-.384l7.247-12.552v0a.773.773,0,0,0,0-.768l-.862-1.5-.007-.011-.022-.041h0l-.011-.018-.855-1.48a.768.768,0,0,0-.692-.435h-14.5v0a.772.772,0,0,0-.666.384l-.892,1.546-.01.018-.011.016,0,.007-.87,1.508a.764.764,0,0,0,0,.768l0,0,7.251,12.552a.768.768,0,0,0,.706.384h1.783Zm-6.062-12.756,5.251,9.1V164.6h-.565l-6.805-11.785.283-.493Z"/><path class="cls-1" d="M340.854,197.023h0l-1.091,1.093,7.649,7.649,1.094-1.093-5.983-5.983-.015-.015-.014-.012-1.638-1.64Zm7.649,9.835,1.094,1.092,7.645-7.649-1.09-1.092-6,6-.015.015-1.637,1.638Zm.547,2.733-2.189-2.187-8.744-8.743a.774.774,0,0,1,0-1.093l2.189-2.185v0l.015-.014.014-.013,8.715-8.714a.771.771,0,0,1,1.09,0l2.185,2.186h0l.011.015.014.014,8.715,8.713v0a.773.773,0,0,1,0,1.091l-2.142,2.142-.015.014-.01.015-.015.014-8.744,8.744a.771.771,0,0,1-1.09,0Zm.547-6.013-5.465-5.462,5.465-5.464,5.461,5.464-5.461,5.462Zm1.09-12.019v0l1.094-1.091,7.649,7.651-1.091,1.093-7.653-7.651Zm-1.637-.549,1.637-1.638-1.09-1.093-7.653,7.649h0l1.093,1.093,5.983-5.981.015-.017Z"/><rect class="cls-11" x="144.153" y="158.309" width="26.411" height="4.354"/><path class="cls-4" d="M170.563,163.913H144.152a1.25,1.25,0,0,1-1.25-1.25V158.31a1.25,1.25,0,0,1,1.25-1.25h26.411a1.25,1.25,0,0,1,1.25,1.25v4.354A1.25,1.25,0,0,1,170.563,163.913Zm-25.161-2.5h23.911V159.56H145.4Z"/><rect class="cls-11" x="144.153" y="149.404" width="19.332" height="4.352"/><path class="cls-4" d="M163.484,155.007H144.152a1.25,1.25,0,0,1-1.25-1.25V149.4a1.25,1.25,0,0,1,1.25-1.25h19.332a1.25,1.25,0,0,1,1.25,1.25v4.353A1.25,1.25,0,0,1,163.484,155.007Zm-18.082-2.5h16.832v-1.853H145.4Z"/><rect class="cls-11" x="73.447" y="120.601" width="20.103" height="4.352"/><path class="cls-4" d="M93.551,126.2h-20.1a1.25,1.25,0,0,1-1.25-1.25V120.6a1.25,1.25,0,0,1,1.25-1.25h20.1a1.25,1.25,0,0,1,1.25,1.25v4.352A1.25,1.25,0,0,1,93.551,126.2ZM74.7,123.7H92.3v-1.852H74.7Z"/><rect class="cls-11" x="73.447" y="111.695" width="29.973" height="4.352"/><path class="cls-4" d="M103.421,117.3H73.447a1.25,1.25,0,0,1-1.25-1.25V111.7a1.25,1.25,0,0,1,1.25-1.25h29.974a1.25,1.25,0,0,1,1.25,1.25v4.352A1.25,1.25,0,0,1,103.421,117.3ZM74.7,114.8h27.474v-1.852H74.7Z"/><rect class="cls-11" x="174.96" y="65.506" width="22.831" height="4.354"/><path class="cls-4" d="M197.791,71.11H174.96a1.25,1.25,0,0,1-1.25-1.25V65.506a1.25,1.25,0,0,1,1.25-1.25h22.831a1.25,1.25,0,0,1,1.25,1.25V69.86A1.25,1.25,0,0,1,197.791,71.11Zm-21.581-2.5h20.331V66.756H176.21Z"/><rect class="cls-11" x="174.96" y="56.602" width="17.266" height="4.351"/><path class="cls-4" d="M192.226,62.2H174.96a1.25,1.25,0,0,1-1.25-1.25V56.6a1.25,1.25,0,0,1,1.25-1.25h17.266a1.25,1.25,0,0,1,1.25,1.25v4.352A1.25,1.25,0,0,1,192.226,62.2ZM176.21,59.7h14.766V57.852H176.21Z"/><path class="cls-2" d="M154.4,122.509a11.13,11.13,0,1,0-11.131-11.131A11.15,11.15,0,0,0,154.4,122.509Z"/><path class="cls-8" d="M154.4,123.759a12.38,12.38,0,1,1,12.378-12.381A12.394,12.394,0,0,1,154.4,123.759Zm0-22.26a9.88,9.88,0,1,0,9.878,9.879A9.891,9.891,0,0,0,154.4,101.5Z"/><rect class="cls-8" x="153.153" y="100.249" width="2.5" height="2.62"/><rect class="cls-8" x="153.153" y="119.89" width="2.5" height="2.619"/><rect class="cls-8" x="143.272" y="110.128" width="2.619" height="2.5"/><rect class="cls-8" x="162.911" y="110.128" width="2.62" height="2.5"/><rect class="cls-8" x="146.207" y="103.123" width="2.5" height="2.622" transform="translate(-30.637 134.973) rotate(-45.038)"/><rect class="cls-8" x="160.096" y="117.012" width="2.5" height="2.621" transform="translate(-36.385 148.901) rotate(-45.045)"/><rect class="cls-8" x="160.035" y="103.184" width="2.622" height="2.5" transform="translate(-26.6 144.625) rotate(-44.984)"/><rect class="cls-8" x="146.146" y="117.072" width="2.621" height="2.5" transform="translate(-40.5 138.716) rotate(-44.937)"/><rect class="cls-8" x="153.153" y="104.585" width="2.5" height="9.98"/><rect class="cls-8" x="152.673" y="107.322" width="2.5" height="7.158" transform="translate(-33.338 141.314) rotate(-44.997)"/><path class="cls-2" d="M218.532,122.511A11.132,11.132,0,1,0,207.4,111.378,11.155,11.155,0,0,0,218.532,122.511Z"/><path class="cls-10" d="M218.532,123.762a12.383,12.383,0,1,1,12.381-12.384A12.4,12.4,0,0,1,218.532,123.762Zm0-22.265a9.883,9.883,0,1,0,9.881,9.881A9.892,9.892,0,0,0,218.532,101.5Z"/><path class="cls-10" d="M218.532,117.943a4.128,4.128,0,0,1-4.131-4.131h2.5a1.627,1.627,0,0,0,.479,1.156,1.68,1.68,0,0,0,2.31,0,1.631,1.631,0,0,0-1.157-2.784,3.554,3.554,0,0,1-2.51-6.071,3.64,3.64,0,0,1,5.021,0,3.541,3.541,0,0,1,1.042,2.516h-2.5a1.05,1.05,0,0,0-.31-.748,1.082,1.082,0,0,0-1.489,0,1.054,1.054,0,0,0,.745,1.8,4.131,4.131,0,1,1,0,8.261Z"/><rect class="cls-10" x="217.282" y="103.817" width="2.5" height="2.506"/><rect class="cls-10" x="217.282" y="116.693" width="2.5" height="2.506"/><path class="cls-7" d="M52.489,106.8a1,1,0,0,1-.451-.107l-6.559-3.316a1,1,0,0,1-.549-.893V93.206a1,1,0,0,1,1.451-.892l6.559,3.319a1,1,0,0,1,.549.892V105.8a1,1,0,0,1-1,1Zm-5.559-4.931,4.559,2.3V97.14l-4.559-2.307Z"/><path class="cls-7" d="M52.489,106.8a1,1,0,0,1-1-1V96.525a1,1,0,0,1,.549-.892L58.6,92.314a1,1,0,0,1,1.451.892v9.274a1,1,0,0,1-.549.893l-6.558,3.316A1,1,0,0,1,52.489,106.8Zm1-9.656v7.029l4.558-2.3V94.833Zm5.558,5.34h0Z"/><path class="cls-7" d="M52.489,97.525a1,1,0,0,1-.451-.108L45.479,94.1a1,1,0,0,1,0-1.785L52.038,89a1,1,0,0,1,.9,0L59.5,92.314a1,1,0,0,1,0,1.784L52.94,97.417A1,1,0,0,1,52.489,97.525Zm-4.344-4.319,4.344,2.2,4.343-2.2-4.343-2.2Z"/><path class="cls-6" d="M133.166,67.753a.993.993,0,0,1-.451-.108l-6.555-3.317a1,1,0,0,1-.549-.892V54.163a1,1,0,0,1,1.451-.892l6.555,3.317a1,1,0,0,1,.549.892v9.272a1,1,0,0,1-1,1Zm-5.555-4.932,4.555,2.305V58.1l-4.555-2.305Z"/><path class="cls-6" d="M133.166,67.753a1,1,0,0,1-1-1V57.48a1,1,0,0,1,.549-.893l6.559-3.317a1,1,0,0,1,1.451.893v9.272a1,1,0,0,1-.549.893l-6.559,3.317A1,1,0,0,1,133.166,67.753Zm1-9.658v7.031l4.559-2.306V55.79Zm5.559,5.34h0Z"/><path class="cls-6" d="M133.166,58.48a1,1,0,0,1-.451-.108l-6.555-3.317a1,1,0,0,1,0-1.784l6.555-3.318a1,1,0,0,1,.9,0l6.559,3.318a1,1,0,0,1,0,1.785l-6.559,3.317A1,1,0,0,1,133.166,58.48Zm-4.34-4.317,4.34,2.2,4.343-2.2-4.343-2.2Z"/><path class="cls-9" d="M246.483,56.207a.993.993,0,0,1-.451-.108l-6.555-3.317a1,1,0,0,1-.549-.892V42.617a1,1,0,0,1,1.451-.892l6.555,3.317a1,1,0,0,1,.549.892v9.273a1,1,0,0,1-1,1Zm-5.555-4.932,4.555,2.305V46.548l-4.555-2.3Z"/><path class="cls-9" d="M246.483,56.207a1,1,0,0,1-1-1V45.934a1,1,0,0,1,.549-.893l6.559-3.317a1,1,0,0,1,1.451.893v9.272a1,1,0,0,1-.549.893L246.935,56.1A1,1,0,0,1,246.483,56.207Zm1-9.658V53.58l4.559-2.306V44.243Zm5.559,5.341h0Z"/><path class="cls-9" d="M246.483,46.934a1,1,0,0,1-.451-.108l-6.555-3.317a1,1,0,0,1,0-1.784l6.555-3.317a1,1,0,0,1,.9,0l6.559,3.317a1,1,0,0,1,0,1.785l-6.559,3.317A1,1,0,0,1,246.483,46.934Zm-4.34-4.317,4.34,2.2,4.343-2.2-4.343-2.2Z"/><path class="cls-8" d="M322.226,98.89a.993.993,0,0,1-.451-.108l-6.556-3.317a1,1,0,0,1-.549-.892V85.3a1,1,0,0,1,1.452-.892l6.556,3.319a1,1,0,0,1,.548.892V97.89a1,1,0,0,1-1,1Zm-5.556-4.932,4.556,2.305V89.233l-4.556-2.307Z"/><path class="cls-8" d="M322.226,98.89a1,1,0,0,1-1-1V88.619a1,1,0,0,1,.549-.892l6.558-3.319a1,1,0,0,1,1.451.892v9.273a1,1,0,0,1-.549.892l-6.558,3.317A.993.993,0,0,1,322.226,98.89Zm1-9.656v7.03l4.558-2.306V86.926Zm5.558,5.339h0Z"/><path class="cls-8" d="M322.226,89.619a1,1,0,0,1-.452-.108l-6.556-3.319a1,1,0,0,1,0-1.784l6.556-3.317a1,1,0,0,1,.9,0l6.558,3.317a1,1,0,0,1,0,1.785l-6.558,3.319A1,1,0,0,1,322.226,89.619ZM317.885,85.3l4.341,2.2,4.343-2.2-4.343-2.2Z"/><path class="cls-7" d="M274.7,162.455a1,1,0,0,1-.451-.107l-6.558-3.318a1,1,0,0,1-.549-.893v-9.272a1,1,0,0,1,1.451-.893l6.558,3.317a1,1,0,0,1,.549.893v9.273a1,1,0,0,1-1,1Zm-5.558-4.933,4.558,2.306V152.8l-4.558-2.306Z"/><path class="cls-7" d="M274.7,162.455a1,1,0,0,1-1-1v-9.273a1,1,0,0,1,.549-.893l6.556-3.317a1,1,0,0,1,1.451.893v9.272a1,1,0,0,1-.549.893l-6.556,3.318A1,1,0,0,1,274.7,162.455Zm1-9.659v7.032l4.556-2.306v-7.031Zm5.556,5.341h0Z"/><path class="cls-7" d="M274.7,153.182a1,1,0,0,1-.451-.107l-6.558-3.317a1,1,0,0,1,0-1.785l6.558-3.316a1,1,0,0,1,.9,0l6.556,3.316a1,1,0,0,1,0,1.785l-6.556,3.317A1,1,0,0,1,274.7,153.182Zm-4.342-4.317,4.342,2.2,4.341-2.2-4.341-2.2Z"/><path class="cls-6" d="M185.638,199.583a1,1,0,0,1-.451-.107l-6.559-3.317a1,1,0,0,1-.549-.893v-9.274a1,1,0,0,1,1.451-.893l6.559,3.318a1,1,0,0,1,.549.893v9.273a1,1,0,0,1-1,1Zm-5.559-4.933,4.559,2.307v-7.032l-4.559-2.307Z"/><path class="cls-6" d="M185.638,199.583a1,1,0,0,1-1-1V189.31a1,1,0,0,1,.549-.893l6.556-3.318a1,1,0,0,1,1.451.893v9.274a1,1,0,0,1-.549.893l-6.556,3.317A1,1,0,0,1,185.638,199.583Zm1-9.659v7.032l4.556-2.3v-7.033Zm5.556,5.342h0Z"/><path class="cls-6" d="M185.638,190.31a1,1,0,0,1-.451-.107l-6.559-3.318a1,1,0,0,1,0-1.785l6.559-3.315a1,1,0,0,1,.9,0l6.556,3.315a1,1,0,0,1,0,1.785l-6.556,3.318A1,1,0,0,1,185.638,190.31Zm-4.343-4.318,4.343,2.2,4.341-2.2-4.341-2.2Z"/><path class="cls-10" d="M90.134,162.54a1,1,0,0,1-.451-.107l-6.556-3.317a1,1,0,0,1-.549-.893V148.95a1,1,0,0,1,1.451-.893l6.556,3.317a1,1,0,0,1,.549.893v9.272a1,1,0,0,1-1,1Zm-5.556-4.932,4.556,2.3v-7.031l-4.556-2.3Z"/><path class="cls-10" d="M90.134,162.54a1,1,0,0,1-1-1v-9.272a1,1,0,0,1,.549-.893l6.558-3.317a1,1,0,0,1,1.451.893v9.272a1,1,0,0,1-.549.893l-6.558,3.317A1,1,0,0,1,90.134,162.54Zm1-9.657v7.03l4.558-2.306v-7.03Zm5.558,5.34h0Z"/><path class="cls-10" d="M90.134,153.268a1,1,0,0,1-.451-.107l-6.556-3.317a1,1,0,0,1,0-1.785l6.556-3.317a1,1,0,0,1,.9,0l6.558,3.317a1,1,0,0,1,0,1.785l-6.558,3.317A1,1,0,0,1,90.134,153.268Zm-4.341-4.317,4.341,2.2,4.343-2.2-4.343-2.2Z"/><path class="cls-2" d="M239.643,176.443h0a3.57,3.57,0,0,1-3.562-3.56v0a3.572,3.572,0,0,1,3.562-3.561h0a3.572,3.572,0,0,1,3.561,3.561v0A3.57,3.57,0,0,1,239.643,176.443Z"/><path class="cls-4" d="M239.643,177.692a4.812,4.812,0,1,1,4.812-4.812A4.816,4.816,0,0,1,239.643,177.692Zm0-7.123a2.312,2.312,0,1,0,2.312,2.313A2.315,2.315,0,0,0,239.643,170.569Z"/><path class="cls-2" d="M245.121,87.773h0a3.57,3.57,0,0,1-3.562-3.56v0a3.57,3.57,0,0,1,3.562-3.56h0a3.57,3.57,0,0,1,3.561,3.56v0A3.57,3.57,0,0,1,245.121,87.773Z"/><path class="cls-4" d="M245.121,89.023a4.811,4.811,0,1,1,4.812-4.812A4.817,4.817,0,0,1,245.121,89.023Zm0-7.122a2.311,2.311,0,1,0,2.312,2.312A2.314,2.314,0,0,0,245.121,81.9Z"/><path class="cls-2" d="M129.253,94.659h0a3.57,3.57,0,0,1-3.562-3.56v0a3.571,3.571,0,0,1,3.562-3.562h0a3.571,3.571,0,0,1,3.562,3.562v0A3.57,3.57,0,0,1,129.253,94.659Z"/><path class="cls-4" d="M129.253,95.909a4.812,4.812,0,1,1,4.812-4.812A4.816,4.816,0,0,1,129.253,95.909Zm0-7.124a2.312,2.312,0,1,0,2.312,2.314A2.314,2.314,0,0,0,129.253,88.785Z"/><path class="cls-11" d="M128.665,167.245h0a3.558,3.558,0,0,1,3.558,3.558v.008a3.558,3.558,0,0,1-3.558,3.558h0a3.561,3.561,0,0,1-3.561-3.561v0A3.561,3.561,0,0,1,128.665,167.245Z"/><path class="cls-4" d="M128.666,175.619h0a4.812,4.812,0,1,1,4.815-4.814A4.816,4.816,0,0,1,128.662,175.619Zm0-7.124a2.312,2.312,0,0,0,0,4.624h0a2.312,2.312,0,0,0,0-4.624Z"/><path class="cls-2" d="M66.653,53.62h0a3.57,3.57,0,0,1-3.561-3.56v0A3.571,3.571,0,0,1,66.653,46.5h0a3.571,3.571,0,0,1,3.562,3.562v0A3.57,3.57,0,0,1,66.653,53.62Z"/><path class="cls-4" d="M66.653,54.87a4.812,4.812,0,1,1,4.813-4.812A4.816,4.816,0,0,1,66.653,54.87Zm0-7.124a2.312,2.312,0,1,0,2.313,2.314A2.314,2.314,0,0,0,66.653,47.746Z"/><path class="cls-11" d="M62.135,132.416h0a3.562,3.562,0,0,1,3.562,3.562v0a3.56,3.56,0,0,1-3.56,3.56h0a3.56,3.56,0,0,1-3.56-3.56v0A3.562,3.562,0,0,1,62.135,132.416Z"/><path class="cls-4" d="M62.135,140.79h0a4.812,4.812,0,1,1,4.816-4.813A4.815,4.815,0,0,1,62.131,140.79Zm0-7.124a2.312,2.312,0,0,0,0,4.624h0a2.312,2.312,0,1,0,0-4.624Z"/><path class="cls-2" d="M307.927,152.613h0a3.57,3.57,0,0,1-3.558-3.562v0a3.569,3.569,0,0,1,3.558-3.56h0a3.573,3.573,0,0,1,3.562,3.56v0A3.574,3.574,0,0,1,307.927,152.613Z"/><path class="cls-4" d="M307.927,153.863h0a4.812,4.812,0,1,1,4.815-4.813A4.816,4.816,0,0,1,307.924,153.863Zm0-7.124a2.312,2.312,0,0,0,0,4.624h0a2.312,2.312,0,1,0,0-4.624Z"/><path class="cls-2" d="M215.014,58.381h0a3.57,3.57,0,0,0,3.562-3.56v0a3.572,3.572,0,0,0-3.562-3.562h0a3.572,3.572,0,0,0-3.562,3.562v0A3.57,3.57,0,0,0,215.014,58.381Z"/><path class="cls-4" d="M215.014,59.631a4.812,4.812,0,1,1,4.812-4.812A4.817,4.817,0,0,1,215.014,59.631Zm0-7.124a2.312,2.312,0,1,0,2.312,2.314A2.315,2.315,0,0,0,215.014,52.507Z"/><path class="cls-2" d="M221.424,167.723a1.781,1.781,0,0,0,1.783-1.781v-1.783h-3.565v1.783A1.781,1.781,0,0,0,221.424,167.723Z"/><path class="cls-4" d="M221.424,168.974v-2.5a.532.532,0,0,0,.532-.531v-.533h-.532v-2.5h1.782a1.25,1.25,0,0,1,1.25,1.25v1.783A3.035,3.035,0,0,1,221.424,168.974Z"/><path class="cls-2" d="M221.424,167.723H204.379a1.782,1.782,0,0,1-1.783-1.781V144.027h17.049v21.915A1.78,1.78,0,0,0,221.424,167.723Z"/><path class="cls-4" d="M221.424,168.974H204.379a3.035,3.035,0,0,1-3.033-3.031V144.027a1.25,1.25,0,0,1,1.25-1.25h17.049a1.25,1.25,0,0,1,1.25,1.25v21.915a.531.531,0,0,0,.529.531,1.25,1.25,0,0,1,0,2.5Zm-17.578-23.7v20.665a.533.533,0,0,0,.533.531h14.063a2.978,2.978,0,0,1-.047-.531V145.277Z"/><rect class="cls-4" x="206.161" y="148.122" width="8.106" height="2.5"/><rect class="cls-4" x="206.161" y="151.686" width="9.918" height="2.5"/><rect class="cls-4" x="206.161" y="155.25" width="6.453" height="2.5"/><rect class="cls-4" x="206.161" y="158.813" width="9.918" height="2.5"/><path class="cls-2" d="M84.053,79.725a1.783,1.783,0,0,1-1.783-1.783V76.161h3.562v1.781A1.782,1.782,0,0,1,84.053,79.725Z"/><path class="cls-4" d="M84.054,80.975a3.037,3.037,0,0,1-3.033-3.033V76.161a1.25,1.25,0,0,1,1.25-1.25H84.05v2.5h-.529v.531a.534.534,0,0,0,.533.533Z"/><path class="cls-2" d="M84.053,79.725H101.1a1.782,1.782,0,0,0,1.779-1.783V56.027H85.832V77.942A1.782,1.782,0,0,1,84.053,79.725Z"/><path class="cls-4" d="M101.1,80.975H84.054a1.25,1.25,0,0,1,0-2.5.532.532,0,0,0,.528-.533V56.027a1.25,1.25,0,0,1,1.25-1.25h17.045a1.25,1.25,0,0,1,1.25,1.25V77.942A3.035,3.035,0,0,1,101.1,80.975Zm-14.062-2.5H101.1a.532.532,0,0,0,.529-.533V57.277H87.082V77.942A3,3,0,0,1,87.035,78.475Z"/><rect class="cls-4" x="89.395" y="60.122" width="9.921" height="2.5"/><rect class="cls-4" x="89.395" y="63.686" width="7.747" height="2.5"/><rect class="cls-4" x="89.395" y="67.25" width="8.964" height="2.5"/><rect class="cls-4" x="89.395" y="72.594" width="4.961" height="2.5"/><path class="cls-2" d="M295.937,72.511a1.783,1.783,0,0,0,1.783-1.783V68.947h-3.566v1.781A1.783,1.783,0,0,0,295.937,72.511Z"/><path class="cls-4" d="M295.937,73.761v-2.5a.534.534,0,0,0,.533-.533V70.2h-.533V67.7h1.783a1.25,1.25,0,0,1,1.25,1.25v1.781A3.037,3.037,0,0,1,295.937,73.761Z"/><path class="cls-2" d="M295.937,72.511H278.892a1.785,1.785,0,0,1-1.783-1.783V48.813h17.048V70.728A1.782,1.782,0,0,0,295.937,72.511Z"/><path class="cls-4" d="M295.937,73.761H278.893a3.037,3.037,0,0,1-3.033-3.033V48.813a1.25,1.25,0,0,1,1.25-1.25h17.048a1.25,1.25,0,0,1,1.25,1.25V70.728a.532.532,0,0,0,.529.533,1.25,1.25,0,0,1,0,2.5Zm-17.577-23.7V70.728a.534.534,0,0,0,.533.533h14.062a3,3,0,0,1-.047-.533V50.063Z"/><rect class="cls-4" x="280.675" y="52.908" width="4.96" height="2.5"/><rect class="cls-4" x="280.675" y="58.254" width="9.918" height="2.5"/><rect class="cls-4" x="280.675" y="61.818" width="6.432" height="2.5"/><rect class="cls-4" x="280.675" y="65.381" width="9.918" height="2.5"/><rect class="cls-11" x="275.704" y="112.978" width="26.411" height="4.354"/><path class="cls-4" d="M302.115,118.581H275.7a1.25,1.25,0,0,1-1.25-1.25v-4.354a1.25,1.25,0,0,1,1.25-1.25h26.411a1.25,1.25,0,0,1,1.25,1.25v4.354A1.25,1.25,0,0,1,302.115,118.581Zm-25.161-2.5h23.911v-1.854H276.954Z"/><rect class="cls-11" x="275.704" y="104.073" width="19.331" height="4.351"/><path class="cls-4" d="M295.034,109.674H275.7a1.25,1.25,0,0,1-1.25-1.25v-4.351a1.25,1.25,0,0,1,1.25-1.25h19.33a1.25,1.25,0,0,1,1.25,1.25v4.351A1.25,1.25,0,0,1,295.034,109.674Zm-18.08-2.5h16.83v-1.851h-16.83Z"/><rect class="cls-11" x="275.704" y="121.884" width="13.207" height="4.352"/><path class="cls-4" d="M288.911,127.486H275.7a1.25,1.25,0,0,1-1.25-1.25v-4.353a1.25,1.25,0,0,1,1.25-1.25h13.207a1.25,1.25,0,0,1,1.25,1.25v4.353A1.25,1.25,0,0,1,288.911,127.486Zm-11.957-2.5h10.707v-1.853H276.954Z"/><path class="cls-2" d="M255.31,128.952h0a3.571,3.571,0,0,1-3.562-3.562h0a3.571,3.571,0,0,1,3.562-3.562h0a3.57,3.57,0,0,1,3.559,3.562h0A3.57,3.57,0,0,1,255.31,128.952Z"/><path class="cls-4" d="M255.311,130.2h0a4.812,4.812,0,1,1,4.812-4.812A4.818,4.818,0,0,1,255.307,130.2Zm0-7.124a2.312,2.312,0,1,0,0,4.624h0a2.312,2.312,0,0,0,0-4.624Z"/><path class="cls-2" d="M116.212,133.874h0a3.571,3.571,0,0,1-3.562-3.562h0a3.571,3.571,0,0,1,3.562-3.562h0a3.571,3.571,0,0,1,3.562,3.562h0A3.571,3.571,0,0,1,116.212,133.874Z"/><path class="cls-4" d="M116.212,135.124a4.812,4.812,0,1,1,4.812-4.812A4.818,4.818,0,0,1,116.212,135.124Zm0-7.123a2.312,2.312,0,1,0,2.312,2.312A2.315,2.315,0,0,0,116.212,128Z"/><rect class="cls-11" x="174.96" y="47.697" width="24.918" height="4.352"/><path class="cls-4" d="M199.878,53.3H174.96a1.25,1.25,0,0,1-1.25-1.25V47.7a1.25,1.25,0,0,1,1.25-1.25h24.918a1.25,1.25,0,0,1,1.25,1.25v4.352A1.25,1.25,0,0,1,199.878,53.3ZM176.21,50.8h22.418V48.947H176.21Z"/><path class="cls-12" d="M191.674,130.479l-.506-2.449c7.663-1.58,9.074-3.5,9.194-9.379l-10.818-3.071.682-2.4,12.646,3.589v.944C202.871,125.92,200.464,128.665,191.674,130.479Z"/><path class="cls-12" d="M186.468,113.121a7.876,7.876,0,0,1-7.854-7.412,5.112,5.112,0,0,1-1.245-3.584,3.952,3.952,0,0,1,1.248-2.452c.008-.1.017-.212.029-.354l.024-.272,2.49.21-.024.283a6.475,6.475,0,0,0-.035.711,1.25,1.25,0,0,1-.472.978c-.714.568-.759,1.007-.773,1.151a3.145,3.145,0,0,0,.955,2.077,1.25,1.25,0,0,1,.29.8,5.366,5.366,0,0,0,10.732,0,1.25,1.25,0,0,1,.29-.8,3.148,3.148,0,0,0,.955-2.076,1.771,1.771,0,0,0-.773-1.151,1.251,1.251,0,0,1-.472-.978l0-.548c.01-1.368.025-3.435-.687-4.146a8.518,8.518,0,0,0-4.683-1.533c-2.32,0-4.992,1.011-5.172,1.716.278.251,1.666.982,8.249.664l.551-.025.086,2.5-.515.023c-4.082.2-8.474.191-10.129-1.385a2.311,2.311,0,0,1-.752-1.7c0-3.21,5.275-4.29,7.682-4.29,1.755,0,4.973.787,6.45,2.265,1.444,1.445,1.434,3.913,1.419,5.9a3.944,3.944,0,0,1,1.229,2.434,5.108,5.108,0,0,1-1.245,3.583A7.876,7.876,0,0,1,186.468,113.121Z"/><path class="cls-12" d="M187.917,108.626h-2.895a1.25,1.25,0,0,1,0-2.5h2.895a1.25,1.25,0,1,1,0,2.5Z"/><polygon class="cls-2" points="188.895 118.014 186.468 120.547 184.04 118.014 186.468 115.478 188.895 118.014"/><path class="cls-12" d="M186.468,122.354l-4.158-4.338,4.158-4.346,4.158,4.346Zm-.7-4.34.7.727.7-.727-.7-.729Z"/><polygon class="cls-2" points="189.069 130.599 186.468 120.261 183.866 130.599 186.468 132.845 189.069 130.599"/><path class="cls-12" d="M186.468,134.1a1.252,1.252,0,0,1-.817-.3l-2.6-2.247a1.251,1.251,0,0,1-.395-1.251l2.6-10.338a1.25,1.25,0,0,1,2.424,0l2.6,10.338a1.251,1.251,0,0,1-.395,1.251l-2.6,2.247A1.252,1.252,0,0,1,186.468,134.1Zm-1.2-3.939,1.2,1.038,1.2-1.038-1.2-4.773Z"/><path class="cls-12" d="M181.262,130.479c-8.793-1.814-11.2-4.56-11.2-12.771v-.944l12.649-3.589.682,2.4-10.822,3.071c.12,5.884,1.532,7.8,9.2,9.379Z"/></svg>