<svg id="Layer_1" data-name="Layer 1" xmlns="http://www.w3.org/2000/svg" viewBox="0 0 370 226"><defs><style>.cls-1{fill:#f6f4ef;}.cls-1,.cls-10,.cls-13,.cls-2{fill-rule:evenodd;}.cls-2,.cls-6{fill:#fff;}.cls-13,.cls-3{fill:#f5fcff;}.cls-4{fill:#e6e6e6;}.cls-10,.cls-5{fill:#fafafa;}.cls-7{fill:#127ef8;}.cls-8{fill:#66db82;}.cls-9{fill:#ff7088;}.cls-11{fill:#ab65f4;}.cls-12{fill:#fbae7a;}.cls-14{fill:#5acaef;}</style></defs><title>offer-02-370x226</title><path class="cls-1" d="M256,195.955l-1.828-1.056.283-.489h13.608l.284.489-1.83,1.056H256Zm13.117.279.284.492L262.6,208.513h-.565v-2.124l5.252-9.1,1.833-1.06Zm-3.732,1.268H257.13l4.127,7.149,4.127-7.149ZM261.3,210.051H263a.774.774,0,0,0,.708-.382l7.247-12.554,0,0a.766.766,0,0,0,0-.768l-.864-1.5-.005-.011-.022-.042h0l-.009-.016L269.2,193.3a.772.772,0,0,0-.694-.435h-14.5v0a.771.771,0,0,0-.667.384l-.893,1.545-.009.018-.011.017,0,.007-.87,1.508a.766.766,0,0,0,0,.768v0l7.247,12.554a.772.772,0,0,0,.708.382h1.705l.018,0h.04l.02,0Zm-6.064-12.757,5.252,9.1v2.124h-.565l-6.8-11.786.284-.492Z"/><path class="cls-1" d="M341.222,38.952,339.394,37.9l.282-.491h13.608l.284.491-1.828,1.054H341.222Zm13.117.279.284.493-6.805,11.785h-.565V49.385l5.253-9.093,1.833-1.062ZM350.607,40.5h-8.254l4.127,7.149,4.127-7.149ZM346.52,53.047h1.7a.77.77,0,0,0,.707-.382l7.249-12.554h0a.773.773,0,0,0,0-.77l-.864-1.5-.006-.011-.022-.042h0l-.009-.017-.855-1.482a.77.77,0,0,0-.694-.433h-14.5v0a.771.771,0,0,0-.667.384l-.893,1.545-.009.018-.009.016,0,.007-.87,1.507a.769.769,0,0,0,0,.77h0l7.247,12.554a.774.774,0,0,0,.709.382h1.7l.018,0h.04l.02,0Zm-6.062-12.755,5.251,9.093v2.124h-.565l-6.8-11.785.283-.493Z"/><path class="cls-1" d="M310.823,7.717h-1.546V18.533h1.546V7.717ZM309.277,20.08v1.545H320.1V20.08H309.277ZM307.732,22.4V19.329h0V6.943a.774.774,0,0,1,.772-.773H323.96a.774.774,0,0,1,.773.773V22.4a.774.774,0,0,1-.773.773H308.5a.774.774,0,0,1-.772-.773Zm4.636-3.866H320.1V10.808h-7.727v7.725Zm9.273-7.725V21.626h1.547V10.808Zm-9.273-1.545h10.82V7.717h-10.82Z"/><path class="cls-1" d="M30.986,58.723l-1.828-1.054.284-.491H43.051l.282.491-1.828,1.054H30.986ZM44.105,59l.284.493-6.8,11.785h-.565V69.157l5.251-9.1L44.105,59ZM40.373,60.27H32.119l4.127,7.149,4.127-7.149ZM36.284,72.819H37.99a.77.77,0,0,0,.707-.382l7.249-12.554h0a.774.774,0,0,0,0-.77l-.866-1.5,0-.011-.023-.042h0l-.01-.016-.855-1.482a.77.77,0,0,0-.694-.433H29v0a.773.773,0,0,0-.669.384l-.891,1.545-.011.018-.009.016,0,.007-.87,1.507a.774.774,0,0,0,0,.77h0l7.249,12.554a.77.77,0,0,0,.707.382h1.7l.02,0h.04l.018,0ZM30.221,60.062l5.251,9.1V71.28h-.565L28.1,59.5,28.386,59Z"/><path class="cls-1" d="M16.72,27.88h-2.41l1.562,2.7,1.563,2.709L18.643,31.2a5.369,5.369,0,0,1-.442-.395l0-.006A5.22,5.22,0,0,1,16.72,27.88Zm3.256,4.094-1.2,2.086h6.25l-1.2-2.086a5.228,5.228,0,0,1-3.843,0Zm5.176-.772,1.207,2.089,1.564-2.709,1.562-2.7H27.075A5.23,5.23,0,0,1,25.6,30.8l-.006.006a5.015,5.015,0,0,1-.442.395Zm1.923-4.87h2.409l-1.562-2.7-1.564-2.707L25.152,23.01a5.017,5.017,0,0,1,.442.395l.006,0a5.241,5.241,0,0,1,1.475,2.924Zm-3.256-4.094,1.2-2.087h-6.25l1.2,2.087a5.228,5.228,0,0,1,3.843,0Zm-5.176.772-1.207-2.089-1.563,2.707-1.562,2.7h2.41A5.233,5.233,0,0,1,18.2,23.409l0,0a5.371,5.371,0,0,1,.442-.395ZM24.509,24.5a3.7,3.7,0,0,1,0,5.216l0,0a3.7,3.7,0,0,1-5.216,0l0,0a3.7,3.7,0,0,1,0-5.216l0,0a3.7,3.7,0,0,1,5.216,0l0,0ZM12.343,27.554l-.011-.017a.782.782,0,0,1-.132-.431.771.771,0,0,1,.132-.433l.011-.015,2.2-3.8,2.223-3.849.007-.014v0l.007-.011,0-.005,0-.006.007-.009v0l.007-.011,0,0,.006-.007.005-.007,0,0,.009-.011,0,0,0,0,0-.007.005-.006,0,0,.007-.011h0l.007-.009.006-.005,0-.005.009-.01.009-.009,0,0,.005-.006.009-.009h0l.009-.009,0-.005.006,0,.011-.007.009-.009,0,0,.006,0,.009-.009h0l.009-.007.006,0,0-.005.011-.007h0l.007-.007.007,0,0,0,.011-.005,0,0,.007-.005.007-.006,0,0,.011-.005.005,0,.007,0,.009-.006h0l.013-.005.005-.005.006,0,.011,0,0,0,.009,0,.009,0,0,0,.013-.005,0,0,.009,0,.009-.005h0l.013,0,.005,0,.006,0,.011-.005.013,0,.007,0,.005,0,.011,0h0l.01,0,.007,0,.006,0,.011,0h0l.011,0,.007,0h0l.013,0h0l.009,0,.007,0h.005l.011,0h0l.009,0,.009,0h.017l0,0H17.4l.013,0h.025v0h8.923a.775.775,0,0,1,.531.21l0,0a.734.734,0,0,1,.163.221l2.2,3.816,2.2,3.8.009.015a.771.771,0,0,1,0,.864l-.009.017-2.2,3.8L27.042,35.19l-.007.011-.005.013,0,.005,0,0,0,.007,0,.006,0,.007,0,0-.006.009,0,0L27,35.263l0,0-.005.009,0,0-.006.009h0l-.007.011h0l-.007.009-.009.011-.007.009h0l-.007.011h0l-.009.009h0l-.009.009v0l-.007.007v0l-.009.007h0l-.009.009,0,0-.007.007h0l-.007.009h0l-.009.009h0l-.009.007h0l-.009.009h0l-.009.007-.009.009-.011.007h0l-.007.007h0l-.009.007h0l-.009.007h0l-.009.006,0,0-.007.005,0,0-.007,0,0,0-.007,0-.005,0-.006,0-.011.006v0l-.011.005-.007,0,0,0-.011.005h0l-.011.006-.007,0h0l-.011.005,0,0-.009,0-.009.006h0l-.011,0-.007,0-.005,0-.011.006-.012,0-.006,0-.006,0-.013,0h0l-.011,0-.005,0h-.006l-.013,0h0l-.011,0-.007,0h0l-.013,0h0l-.01,0h-.011l-.013,0h0l-.009,0h-.011l-.014,0H26.4l-.013,0h-.025v0H17.436a.776.776,0,0,1-.7-.434l-2.2-3.817Z"/><path class="cls-1" d="M95.647,33.475l0,.007.009.018.01.017.892,1.545a.774.774,0,0,0,.669.384v0h14.5a.768.768,0,0,0,.694-.435l.855-1.48.009-.018h0l.024-.042.006-.009.864-1.5a.773.773,0,0,0,0-.77h0l-7.248-12.553a.768.768,0,0,0-.707-.385h-3.488a.769.769,0,0,0-.709.385L94.778,31.2h0a.774.774,0,0,0,0,.77l.87,1.505Zm16.69-1.395L110.5,31.018l-5.251-9.1V19.8h.565l6.805,11.787-.285.493ZM108.6,30.811h-8.254l4.127-7.149,4.127,7.149Zm-10.151.207-.471.274-1.364.788-.283-.493L103.141,19.8h.563v2.123L98.5,30.944l-.043.074ZM97.39,33.413l1.828-1.056h10.519l1.828,1.056-.283.489H97.675Z"/><path class="cls-1" d="M55.824,10.608h0L54.731,11.7,62.38,19.35l1.093-1.093-5.981-5.983-.014-.014-.016-.013-1.638-1.64Zm7.651,9.834,1.093,1.093,7.649-7.649-1.092-1.092-6,6-.014.015-1.638,1.638Zm.545,2.734L61.833,20.99l-8.742-8.743a.771.771,0,0,1,0-1.093l2.185-2.185v0l.014-.014.014-.013L64.02.225a.774.774,0,0,1,1.092,0L67.3,2.41h0l.015.017.013.014,8.715,8.713v0a.772.772,0,0,1,0,1.091L73.9,14.39l-.013.014-.014.015-.013.014-8.744,8.744a.774.774,0,0,1-1.092,0Zm.547-6.013L59.1,11.7l5.463-5.464L70.03,11.7l-5.462,5.462ZM65.661,5.144l0,0,1.093-1.091L74.4,11.7,73.31,12.8,65.661,5.144ZM64.02,4.6l1.639-1.638L64.567,1.865,56.918,9.514h0l1.094,1.093,5.983-5.98.014-.016Z"/><path class="cls-1" d="M182.506,2.05h-1.545V12.868h1.545V2.05Zm-1.545,12.365V15.96h10.818V14.415H180.961Zm-1.547,2.319V13.662h0v-.02h0V1.278A.775.775,0,0,1,180.187.5h15.456a.775.775,0,0,1,.773.773V16.734a.774.774,0,0,1-.773.772H180.187a.774.774,0,0,1-.774-.772Zm4.638-3.866h7.727V5.143h-7.727v7.725Zm9.273-7.725V15.96h1.545V5.143ZM184.051,3.6H194.87V2.05H184.051Z"/><path class="cls-1" d="M269.443,10.668h-2.41l1.562,2.7,1.563,2.709,1.207-2.089a5.378,5.378,0,0,1-.442-.395l0,0a5.225,5.225,0,0,1-1.477-2.924Zm3.256,4.094-1.2,2.086h6.25l-1.2-2.086a5.222,5.222,0,0,1-3.843,0Zm5.176-.772,1.207,2.089,1.564-2.709,1.562-2.7H279.8a5.226,5.226,0,0,1-1.475,2.924l0,0a5.315,5.315,0,0,1-.444.395Zm1.923-4.87h2.409l-1.562-2.705-1.564-2.707L277.875,5.8a5.316,5.316,0,0,1,.444.395l0,0A5.23,5.23,0,0,1,279.8,9.121Zm-3.256-4.095,1.2-2.085H271.5l1.2,2.085a5.229,5.229,0,0,1,3.843,0Zm-5.176.772-1.207-2.089-1.563,2.707-1.562,2.705h2.411A5.217,5.217,0,0,1,270.919,6.2l0,0a5.379,5.379,0,0,1,.442-.395Zm5.867,1.487a3.7,3.7,0,0,1,0,5.216l0,0a3.7,3.7,0,0,1-5.216,0l0,0a3.7,3.7,0,0,1,0-5.216l0,0a3.7,3.7,0,0,1,5.216,0l0,0Zm-12.166,3.056-.009-.016a.763.763,0,0,1,0-.864l.009-.015,2.2-3.8L269.484,1.8l.007-.014v0l.007-.011,0,0,0-.007.007-.009v0l.007-.011,0,0,0-.007.006-.007,0,0,.007-.011,0,0,0,0,0-.007.005-.006,0,0,.009-.011h0l.007-.009,0-.005,0-.005.009-.009.009-.009,0,0,.005-.006.009-.009h0l.009-.007.005-.006,0-.006.011-.007.009-.009,0,0,.005,0,.009-.009h0l.007-.007.007,0,0,0,.011-.009h0l.007-.007.007,0,0,0,.011-.005,0,0,.007-.006.007-.006,0,0,.009-.005.006,0,.007,0,.011,0v0l.011-.005.005,0,.006,0,.011-.006,0,0,.011,0,.007,0,0,0,.013,0,0,0,.007,0,.009-.005h0l.011,0,.005,0,.006,0,.013-.005.011,0,.006,0,.007,0,.011,0h0l.01,0,.007,0,.006,0,.01,0h0l.011,0,.007,0h0l.013,0h0l.009,0,.007,0h.005l.011,0h.006l.007,0h.013l.013,0,0,0h.023l.011,0h.025v0h8.923a.773.773,0,0,1,.531.21l0,.006a.7.7,0,0,1,.163.219l2.2,3.816,2.194,3.8.011.015a.771.771,0,0,1,0,.864l-.011.016-2.194,3.8-2.216,3.835-.007.011-.006.013,0,.005,0,.006,0,.007,0,0,0,.007,0,0-.006.009,0,0-.006.007,0,0-.005.009,0,0-.006.009h0l-.007.011h0l-.007.009-.007.011-.009.009h0l-.007.011h0l-.009.009v0l-.007.007,0,0-.007.007v0l-.009.01h0l-.009.007,0,0-.007.007h0l-.007.009v0l-.011.007h0l-.009.007h0l-.009.009h0l-.009.009-.009.007-.011.007h0l-.007.009h0l-.009.006h0l-.009.007,0,0-.009,0,0,0-.007,0,0,0-.007,0,0,0-.007,0-.006,0-.005.005-.011,0v0l-.011.005-.006,0-.007,0-.009.005h0l-.011.006-.007,0,0,0-.011,0,0,0-.01,0-.009.006h0l-.011,0-.005,0-.007,0-.011.006-.013,0-.005,0-.006,0-.013,0h0l-.009,0-.009,0h0l-.013,0h0l-.013,0-.007,0h0l-.013,0h0l-.01,0-.007,0h-.006l-.011,0h0l-.009,0h-.011l-.014,0h-.013l-.007,0h-.042v0h-8.923a.772.772,0,0,1-.694-.435l-2.2-3.817Z"/><path class="cls-1" d="M222.787,20.117l-1.828-1.054.283-.492h13.61l.283.492-1.828,1.054H222.787ZM235.9,20.4l.286.491-6.807,11.785-.565,0V30.553l5.252-9.1L235.9,20.4Zm-3.73,1.267h-8.255l4.127,7.149,4.127-7.149Zm-4.09,12.548h1.705a.767.767,0,0,0,.708-.382l7.247-12.551v0a.766.766,0,0,0,0-.768l-.864-1.5L236.875,19l-.022-.042h0l-.009-.018-.853-1.482a.779.779,0,0,0-.7-.433H220.8v0a.771.771,0,0,0-.669.384l-.891,1.545-.011.017-.009.018,0,.007-.87,1.507a.766.766,0,0,0,0,.768l0,0,7.247,12.551a.77.77,0,0,0,.709.382h1.705l.02,0h.04l.018,0Zm-6.062-12.755,5.25,9.1v2.123l-.565,0L219.9,20.888l.285-.491Z"/><path class="cls-1" d="M144.621,20.129v2.409l2.7-1.563,2.709-1.564-2.089-1.207a5.513,5.513,0,0,1-.395.444l-.006,0a5.235,5.235,0,0,1-2.924,1.477Zm4.1-3.257,2.085,1.2V11.826l-2.085,1.2a5.23,5.23,0,0,1,0,3.843Zm-.772-5.176,2.089-1.2-2.709-1.565-2.7-1.562v2.41a5.233,5.233,0,0,1,2.924,1.477l.006,0a5.888,5.888,0,0,1,.395.442Zm-4.87-1.921V7.364l-2.7,1.562-2.707,1.565,2.087,1.2a5,5,0,0,1,.4-.442l0,0a5.219,5.219,0,0,1,2.924-1.475Zm-4.1,3.254-2.086-1.2v6.251l2.086-1.2a5.254,5.254,0,0,1,0-3.843Zm.772,5.176-2.087,1.207,2.707,1.564,2.7,1.563V20.127a5.229,5.229,0,0,1-2.924-1.475l0,0a4.731,4.731,0,0,1-.4-.444Zm1.489-5.865a3.7,3.7,0,0,1,5.216,0l0,0a3.7,3.7,0,0,1,0,5.216l0,0a3.693,3.693,0,0,1-5.216,0l0,0a3.7,3.7,0,0,1,0-5.216l0,0Zm3.055,12.166-.015.009a.771.771,0,0,1-.864,0l-.015-.009-3.8-2.2-3.848-2.221-.016-.009v0l-.011-.005-.006,0-.005,0-.011-.006v0l-.013-.007,0,0-.007-.006-.007-.006,0,0-.011-.009h0l0,0-.007-.005-.006-.006-.005,0-.009-.007v0L135.616,20l0-.006-.006,0-.009-.009-.009-.007-.006-.005-.005,0-.006-.009h0l-.009-.011,0,0-.006,0-.007-.011-.009-.009-.006-.005,0,0-.009-.01h0l-.009-.01,0-.005-.005-.005-.007-.009v0l-.007-.009,0-.007,0,0-.005-.009,0,0-.005-.007-.006-.009,0,0-.005-.011,0,0,0-.007-.006-.011h0l-.005-.011,0-.005,0-.006-.006-.011,0,0-.006-.011,0-.007,0,0-.005-.009,0-.006,0-.009,0-.009v0l0-.011,0-.006,0-.007,0-.01,0-.011,0-.007v-.005l0-.013h0l0-.011,0-.007,0-.006,0-.013h0l0-.013v-.011l0-.011,0,0v-.009l0-.009v0l0-.013,0,0V19.5l0-.009v-.016l0,0V19.45l0-.013v-.026h0V10.491a.77.77,0,0,1,.435-.7l3.816-2.2,3.8-2.2.015-.009a.775.775,0,0,1,.433-.132.752.752,0,0,1,.431.132l.015.009,3.8,2.2,3.849,2.221.016.009,0,0,.009,0,.005.006.006,0,.011.005,0,0,.009.007.006,0,.007.005.007,0,0,0,.011.007,0,0h0l.007.007.006,0,.005,0,.009.007v0l.011.007,0,.006.005,0,.01.011.01.007,0,.006,0,0,.009.009h0l.009.009,0,.006.006,0,.007.011.009.007,0,.005.005.005.007.011h0l.007.009.006.006,0,.005.007.009v0l.007.009.006.007,0,0,.005.011,0,0,.005.009.006.009,0,0,.005.011,0,.005,0,.006,0,.005,0,.006,0,.005,0,.006,0,.005,0,.006,0,.005,0,.006.006.007v.005l.005.005v.006l0,.007,0,0,0,.011v0l.005.009v0l0,.009,0,0,0,.009v0l.005.011v0l0,.011h0l0,.013h0l0,.01v0l0,.01v0l0,.01,0,.013,0,.013,0,.013h0l0,.011,0,.013v.013l0,.011v0l0,.011,0,.013h0v.013l0,.013v.013l0,.013v.026h0v8.921a.779.779,0,0,1-.435.7l-3.818,2.2Z"/><path class="cls-1" d="M16.447,92.59H14.9v10.818h1.545V92.59ZM14.9,104.955V106.5H25.72v-1.545H14.9Zm-1.545,2.319V104.2h0V91.818a.774.774,0,0,1,.772-.774H29.584a.774.774,0,0,1,.774.774v15.456a.774.774,0,0,1-.774.773H14.128a.774.774,0,0,1-.772-.773Zm4.636-3.866H25.72V95.683H17.992v7.725Zm9.273-7.725V106.5h1.547V95.683Zm-9.273-1.547h10.82V92.59H17.992Z"/><path class="cls-1" d="M336.9,82.644h-2.41l1.562,2.7,1.564,2.708,1.207-2.089a5.34,5.34,0,0,1-.442-.395l0,0a5.229,5.229,0,0,1-1.477-2.924Zm3.256,4.094-1.2,2.087H345.2L344,86.738a5.224,5.224,0,0,1-3.843,0Zm5.176-.772,1.207,2.089,1.564-2.708,1.562-2.7h-2.41a5.237,5.237,0,0,1-1.475,2.924l-.005,0a5.028,5.028,0,0,1-.442.395Zm1.922-4.87h2.41L348.1,78.391l-1.564-2.707-1.207,2.089a5.028,5.028,0,0,1,.442.395l.005,0a5.247,5.247,0,0,1,1.475,2.924ZM344,77l1.2-2.085h-6.253l1.2,2.085A5.252,5.252,0,0,1,344,77Zm-5.176.772-1.207-2.089-1.564,2.707L334.491,81.1h2.41a5.239,5.239,0,0,1,1.477-2.924l0,0a5.34,5.34,0,0,1,.442-.395Zm5.866,1.487a3.7,3.7,0,0,1,0,5.216l0,.006a3.7,3.7,0,0,1-5.216,0l0-.006a3.7,3.7,0,0,1,0-5.216l0,0a3.7,3.7,0,0,1,5.216,0l0,0Zm-12.166,3.057-.011-.016a.781.781,0,0,1-.132-.432.765.765,0,0,1,.132-.431l.011-.016,2.2-3.8,2.223-3.848.005-.015,0,0,.007-.011,0,0,0-.007.007-.009v0l.007-.011,0,0,.006-.007.005-.007,0,0,.009-.009v0l0,0,0-.007.005-.005,0,0,.007-.011h0l.007-.009.005-.006,0,0,.009-.011.009-.009,0,0,.005-.006.009-.009h0l.009-.007,0-.006.006-.005.009-.007.011-.009,0,0,.005,0,.009-.009h0l.007-.007.007,0,0,0,.011-.007v0l.009-.005.007-.005,0,0,.011-.007,0,0,.007-.005.009-.005h0l.011-.007.005,0,.007,0,.009-.005v0l.013-.006.005,0,.006,0,.009-.006,0,0,.009,0,.009,0h0l.013-.006,0,0,.009,0,.009,0h0l.013-.005.006,0,.005,0,.013,0,.011-.006.006,0,.007,0,.01,0h0l.011,0,.007,0h0l.013,0,0,0,.011,0,.007,0h0l.013,0h0l.011,0,.007,0h.005l.011,0h0l.009,0h.013l.013,0h.013l.009,0h0l.013,0h.026v0h8.922a.767.767,0,0,1,.529.21l0,.006a.7.7,0,0,1,.161.219l2.205,3.816,2.194,3.8.011.016a.783.783,0,0,1,.132.431.771.771,0,0,1-.132.432l-.011.016-2.194,3.8-2.216,3.836-.007.011-.006.011,0,.005,0,.006,0,.007,0,0,0,.007,0,0-.006.009,0,0-.005.007,0,0-.006.009,0,0-.006.009,0,0-.007.009h0l-.007.01-.009.009-.007.009v0l-.007.009h0l-.009.009v0l-.009.007v0l-.007.009h0l-.009.009h0l-.007.007,0,0-.007.009h0l-.007.007,0,0-.009.007h0l-.009.009h0l-.009.007h0l-.009.009-.01.007-.01.009h0l-.007.007h0l-.009.006,0,0-.009.005,0,0-.009.005,0,0-.009.006,0,0-.009,0,0,0-.007,0-.006,0-.007.005-.009.006h0l-.011.006-.007,0-.006,0-.009.005,0,0-.009,0-.007,0,0,0-.011.005,0,0-.009,0-.009.006h0l-.011,0-.007,0-.006,0-.012,0-.011,0-.005,0-.005,0-.013,0h0l-.011,0-.007,0h0l-.013,0h0l-.013,0h-.011l-.013,0,0,0h-.011l-.007,0h-.005l-.011,0h0l-.009,0h-.011l-.014,0h-.013l-.009,0h-.04v0h-8.922a.777.777,0,0,1-.7-.435l-2.2-3.816Z"/><path class="cls-1" d="M321.523,160.955l0,.007.01.018.011.016.891,1.545a.769.769,0,0,0,.669.386v0H337.6a.776.776,0,0,0,.7-.433l.853-1.482.009-.018h0l.022-.042.006-.009.864-1.5a.774.774,0,0,0,0-.77h0L332.8,146.125a.772.772,0,0,0-.708-.384h-3.488a.773.773,0,0,0-.709.384l-7.247,12.554h0a.769.769,0,0,0,0,.77l.87,1.506Zm16.688-1.4-1.834-1.06-5.252-9.1v-2.121h.565l6.8,11.785-.284.492Zm-3.732-1.268h-8.254l4.127-7.149,4.127,7.149Zm-10.149.208-.473.271-1.362.788-.284-.492,6.8-11.785h.565V149.4l-5.207,9.021-.043.076Zm-1.064,2.393,1.828-1.054h10.519l1.828,1.054-.284.489H323.549Z"/><path class="cls-1" d="M115.667,203.34h-2.409l1.562,2.7,1.566,2.709,1.207-2.089a5.193,5.193,0,0,1-.444-.395l0,0a5.252,5.252,0,0,1-1.478-2.925Zm3.258,4.095-1.2,2.085h6.25l-1.2-2.085a5.218,5.218,0,0,1-3.841,0Zm5.174-.772,1.207,2.089,1.565-2.709,1.562-2.7h-2.41a5.245,5.245,0,0,1-1.477,2.925l0,0a5,5,0,0,1-.444.395Zm1.922-4.87h2.412l-1.562-2.705-1.565-2.706L124.1,198.47a5,5,0,0,1,.444.395l0,0a5.22,5.22,0,0,1,1.475,2.925Zm-3.256-4.095,1.2-2.087h-6.25l1.2,2.087a5.218,5.218,0,0,1,3.841,0Zm-5.174.772-1.207-2.089-1.566,2.706-1.562,2.705h2.411a5.227,5.227,0,0,1,1.477-2.925l0,0a5.193,5.193,0,0,1,.444-.395Zm5.865,1.488a3.694,3.694,0,0,1,0,5.216l0,0a3.7,3.7,0,0,1-5.216,0l0,0a3.7,3.7,0,0,1,0-5.216l0,0a3.7,3.7,0,0,1,5.216,0l0,0Zm-12.166,3.056-.009-.016a.767.767,0,0,1-.132-.431.777.777,0,0,1,.132-.433l.009-.015,2.2-3.8,2.223-3.848.007-.015,0,0,.006-.011,0-.005,0-.005.007-.01v0l.007-.011,0,0,.005-.008.006-.007,0,0,.009-.011v0l0,0,.005-.007,0-.006,0,0,.009-.01h0l.007-.01.006-.005,0-.005.009-.01.007-.009.005,0,0-.005.009-.01h0l.011-.009,0,0,0-.006.011-.007.009-.009.005,0,.006,0,.009-.009h0l.009-.007.006,0,.006,0,.009-.007,0,0,.01-.007.007,0,0,0,.011-.005,0,0,.007-.005.009-.006,0,0,.011-.005.006,0,.005,0,.011-.005h0l.011-.006.007,0,0,0,.011-.005,0,0,.011,0,.009,0,0,0,.011-.005,0,0,.009,0,.009-.005h0l.011,0,.005,0,.007,0,.011-.005.01,0,.007,0,.006,0,.013,0h0l.011,0,.007,0,.006,0,.011,0h0l.009,0,.009,0h0l.013,0h0l.011,0,.007,0h0l.013,0h0l.009,0,.009,0h.014l0,0h.022l.013,0h.025v0h8.921a.772.772,0,0,1,.531.21l0,0a.727.727,0,0,1,.163.221l2.2,3.816,2.2,3.8.009.015a.774.774,0,0,1,.132.433.751.751,0,0,1-.132.431l-.009.016-2.2,3.8-2.214,3.837-.007.009-.006.013,0,.005,0,.005,0,.005,0,.006,0,.007,0,0-.006.009,0,0-.005.01v0l-.007.009v0l-.007.009h0l-.007.01h0l-.007.01-.009.01-.007.01h0l-.009.01h0l-.007.01h0l-.009.009,0,0-.007.007v0l-.007.009h0l-.009.007v0l-.009.008h0l-.009.009v0l-.01.008h0l-.009.007h0l-.009.009h0l-.011.01-.009.007-.009.007h0l-.009.008h0l-.011.007h0l-.007.007,0,0-.007,0,0,0-.009.007,0,0-.007,0,0,0-.007,0,0,0-.007,0-.011.005v0l-.011.005-.005,0-.006,0-.011.005h0l-.011.005-.007,0h0l-.009.008-.006,0-.007,0-.011.005h0l-.011,0-.005,0-.007,0-.011.006-.011,0-.007,0-.005,0-.013,0h0l-.011,0-.007,0h-.006l-.011,0h0l-.011,0-.009,0h0l-.011,0h0l-.009,0h-.013l-.011,0h0l-.009,0h-.013l-.012,0h-.026l-.013,0h-.025v0h-8.921a.776.776,0,0,1-.7-.434l-2.2-3.817Z"/><path class="cls-1" d="M300.918,201.518h-1.545v10.818h1.545V201.518Zm-1.545,12.365v1.545h10.816v-1.545H299.373Zm-1.547,2.317v-3.072h0v-.019h0V200.744a.774.774,0,0,1,.773-.773h15.456a.774.774,0,0,1,.774.773V216.2a.776.776,0,0,1-.774.773H298.6a.776.776,0,0,1-.773-.773Zm4.638-3.865h7.725v-7.727h-7.725v7.727Zm9.273-7.727v10.819h1.545V204.609Zm-9.273-1.545h10.818v-1.546H302.464Z"/><path class="cls-1" d="M337.358,120.714h0l-1.093,1.092,7.649,7.649,1.093-1.093-5.981-5.982-.014-.015-.015-.013-1.639-1.639Zm7.651,9.836,1.092,1.092,7.649-7.649-1.092-1.094-6,6-.013.014-1.639,1.64Zm.545,2.732-2.187-2.187-8.742-8.743a.772.772,0,0,1,0-1.093l2.185-2.185v0l.016-.013.015-.014,8.713-8.715a.776.776,0,0,1,1.094,0l2.185,2.187h0l.013.014.014.014,8.713,8.715h0v0a.77.77,0,0,1,0,1.089l-2.143,2.141-.013.015-.013.014-.015.014-8.742,8.744a.776.776,0,0,1-1.094,0Zm.547-6.013-5.462-5.463,5.462-5.462,5.464,5.462-5.464,5.463ZM347.2,115.25v0l1.093-1.09,7.649,7.651-1.092,1.093L347.2,115.25Zm-1.641-.547,1.639-1.639-1.093-1.091-7.649,7.648,0,0,1.094,1.091,5.983-5.98.014-.015Z"/><path class="cls-2" d="M183.486,185.869H48.551a4.474,4.474,0,0,1-4.453-4.451V34.281a4.466,4.466,0,0,1,4.453-4.454H318.293a4.47,4.47,0,0,1,4.451,4.454V181.418a4.469,4.469,0,0,1-4.451,4.451Z"/><rect class="cls-3" x="39.201" y="34.285" width="278.646" height="156.036"/><path class="cls-4" d="M318.293,187.119H276.918a1.25,1.25,0,0,1,0-2.5h41.375a3.2,3.2,0,0,0,3.2-3.2V34.281a3.206,3.206,0,0,0-3.2-3.2H268.525a1.25,1.25,0,0,1,0-2.5h49.768a5.709,5.709,0,0,1,5.7,5.7V181.418A5.708,5.708,0,0,1,318.293,187.119Zm-228.238,0h-41.5a5.709,5.709,0,0,1-5.7-5.7V34.281a5.71,5.71,0,0,1,5.7-5.7H242.12a1.25,1.25,0,0,1,0,2.5H48.551a3.207,3.207,0,0,0-3.2,3.2V181.418a3.245,3.245,0,0,0,3.2,3.2h41.5a1.25,1.25,0,1,1,0,2.5Z"/><rect class="cls-5" x="36.554" y="180.927" width="292.579" height="8.707" rx="2.671" ry="2.671"/><path class="cls-4" d="M326.462,190.885H39.225a3.925,3.925,0,0,1-3.921-3.921V183.6a3.925,3.925,0,0,1,3.921-3.92H326.462a3.925,3.925,0,0,1,3.921,3.92v3.366A3.925,3.925,0,0,1,326.462,190.885ZM39.225,182.178A1.422,1.422,0,0,0,37.8,183.6v3.366a1.423,1.423,0,0,0,1.421,1.421H326.462a1.423,1.423,0,0,0,1.421-1.421V183.6a1.422,1.422,0,0,0-1.421-1.42Z"/><path class="cls-2" d="M82.395,44.083h0A26.793,26.793,0,0,1,109.11,70.8h0A26.8,26.8,0,0,1,82.395,97.513h0A26.794,26.794,0,0,1,55.68,70.8h0A26.792,26.792,0,0,1,82.395,44.083Z"/><path class="cls-4" d="M82.395,98.763A27.965,27.965,0,1,1,110.36,70.8,28,28,0,0,1,82.395,98.763Zm0-53.43A25.465,25.465,0,1,0,107.86,70.8,25.492,25.492,0,0,0,82.395,45.333Z"/><path class="cls-2" d="M138.769,75h0A22.326,22.326,0,0,1,161.03,97.259h0a22.327,22.327,0,0,1-22.261,22.263h0a22.327,22.327,0,0,1-22.263-22.263h0A22.327,22.327,0,0,1,138.769,75Z"/><path class="cls-4" d="M138.769,120.771a23.512,23.512,0,1,1,23.511-23.513A23.539,23.539,0,0,1,138.769,120.771Zm0-44.525a21.012,21.012,0,1,0,21.011,21.012A21.036,21.036,0,0,0,138.769,76.247Z"/><polygon class="cls-2" points="171.926 192.997 280.482 192.997 280.482 113.393 141.68 113.393 141.68 153.195 171.926 153.195 171.926 192.997"/><rect class="cls-3" x="136.781" y="118.293" width="138.802" height="79.603"/><rect class="cls-6" x="150.589" y="129.58" width="56.928" height="9.95"/><rect class="cls-6" x="214.644" y="129.58" width="56.929" height="9.95"/><path class="cls-4" d="M179.053,137.217a1.25,1.25,0,0,1-1.25-1.25V129.58a1.25,1.25,0,0,1,2.5,0v6.387A1.25,1.25,0,0,1,179.053,137.217Z"/><path class="cls-4" d="M243.109,137.217a1.25,1.25,0,0,1-1.25-1.25V129.58a1.25,1.25,0,0,1,2.5,0v6.387A1.25,1.25,0,0,1,243.109,137.217Z"/><rect class="cls-6" x="183.486" y="153.195" width="8.452" height="32.675"/><path class="cls-4" d="M191.938,185.978h-8.452a.109.109,0,0,1-.108-.108V153.194a.109.109,0,0,1,.108-.108h8.452a.109.109,0,0,1,.108.108v32.675A.109.109,0,0,1,191.938,185.978Zm-8.344-.217h8.235V153.3h-8.235Z"/><rect class="cls-6" x="199.066" y="153.195" width="8.451" height="32.675"/><path class="cls-4" d="M207.517,187.119h-8.451a1.25,1.25,0,0,1-1.25-1.25V153.194a1.25,1.25,0,0,1,1.25-1.25h8.451a1.25,1.25,0,0,1,1.25,1.25v32.675A1.25,1.25,0,0,1,207.517,187.119Zm-7.2-2.5h5.951V154.444h-5.951Z"/><rect class="cls-6" x="214.644" y="153.195" width="8.452" height="32.675"/><path class="cls-4" d="M223.1,187.119h-8.452a1.25,1.25,0,0,1-1.25-1.25V153.194a1.25,1.25,0,0,1,1.25-1.25H223.1a1.25,1.25,0,0,1,1.25,1.25v32.675A1.25,1.25,0,0,1,223.1,187.119Zm-7.2-2.5h5.952V154.444h-5.952Z"/><rect class="cls-6" x="230.224" y="153.195" width="8.451" height="32.675"/><path class="cls-4" d="M238.676,187.119h-8.452a1.25,1.25,0,0,1-1.25-1.25V153.194a1.25,1.25,0,0,1,1.25-1.25h8.452a1.25,1.25,0,0,1,1.25,1.25v32.675A1.25,1.25,0,0,1,238.676,187.119Zm-7.2-2.5h5.952V154.444h-5.952Z"/><rect class="cls-6" x="245.803" y="153.195" width="8.452" height="32.675"/><path class="cls-4" d="M254.255,187.119H245.8a1.25,1.25,0,0,1-1.25-1.25V153.194a1.25,1.25,0,0,1,1.25-1.25h8.452a1.25,1.25,0,0,1,1.25,1.25v32.675A1.25,1.25,0,0,1,254.255,187.119Zm-7.2-2.5H253V154.444h-5.952Z"/><path class="cls-4" d="M188.376,170.781h-4.89a1.25,1.25,0,0,1,0-2.5h4.89a1.25,1.25,0,0,1,0,2.5Z"/><path class="cls-4" d="M219.532,170.781h-4.888a1.25,1.25,0,1,1,0-2.5h4.888a1.25,1.25,0,0,1,0,2.5Z"/><path class="cls-4" d="M203.956,170.781h-4.891a1.25,1.25,0,1,1,0-2.5h4.891a1.25,1.25,0,0,1,0,2.5Z"/><path class="cls-4" d="M250.69,170.781H245.8a1.25,1.25,0,1,1,0-2.5h4.888a1.25,1.25,0,0,1,0,2.5Z"/><path class="cls-4" d="M235.112,170.781h-4.889a1.25,1.25,0,0,1,0-2.5h4.889a1.25,1.25,0,0,1,0,2.5Z"/><path class="cls-2" d="M181.9,83.263h0a17.863,17.863,0,0,1-17.81-17.811h0a17.861,17.861,0,0,1,17.81-17.81h0a17.862,17.862,0,0,1,17.811,17.81h0A17.864,17.864,0,0,1,181.9,83.263Z"/><path class="cls-4" d="M181.9,84.514a19.061,19.061,0,1,1,19.062-19.062A19.082,19.082,0,0,1,181.9,84.514Zm0-35.621a16.561,16.561,0,1,0,16.562,16.56A16.578,16.578,0,0,0,181.9,48.893Z"/><rect class="cls-6" x="261.382" y="153.195" width="8.452" height="22.727"/><path class="cls-4" d="M269.834,177.172h-8.451a1.25,1.25,0,0,1-1.25-1.25V153.194a1.25,1.25,0,0,1,1.25-1.25h8.451a1.25,1.25,0,0,1,1.25,1.25v22.728A1.25,1.25,0,0,1,269.834,177.172Zm-7.2-2.5h5.951V154.444h-5.951Z"/><path class="cls-4" d="M266.271,170.781h-4.888a1.25,1.25,0,0,1,0-2.5h4.888a1.25,1.25,0,0,1,0,2.5Z"/><path class="cls-4" d="M191.938,187.119h-8.452a1.25,1.25,0,0,1-1.25-1.25V153.194a1.25,1.25,0,0,1,1.25-1.25h8.452a1.25,1.25,0,0,1,1.25,1.25v32.675A1.25,1.25,0,0,1,191.938,187.119Zm-7.2-2.5h5.952V154.444h-5.952Z"/><path class="cls-4" d="M207.517,186.109h-8.451a.24.24,0,0,1-.24-.24V153.194a.24.24,0,0,1,.24-.24h8.451a.24.24,0,0,1,.24.24v32.675A.24.24,0,0,1,207.517,186.109Zm-8.211-.48h7.971V153.435h-7.971Z"/><path class="cls-4" d="M223.1,186.109h-8.452a.24.24,0,0,1-.24-.24V153.194a.24.24,0,0,1,.24-.24H223.1a.24.24,0,0,1,.24.24v32.675A.24.24,0,0,1,223.1,186.109Zm-8.212-.48h7.972V153.435h-7.972Z"/><path class="cls-4" d="M238.676,186.109h-8.452a.24.24,0,0,1-.24-.24V153.194a.24.24,0,0,1,.24-.24h8.452a.24.24,0,0,1,.24.24v32.675A.24.24,0,0,1,238.676,186.109Zm-8.212-.48h7.972V153.435h-7.972Z"/><path class="cls-4" d="M254.255,186.109H245.8a.24.24,0,0,1-.24-.24V153.194a.24.24,0,0,1,.24-.24h8.452a.24.24,0,0,1,.24.24v32.675A.24.24,0,0,1,254.255,186.109Zm-8.212-.48h7.972V153.435h-7.972Z"/><path class="cls-4" d="M269.834,176.162h-8.451a.24.24,0,0,1-.24-.24V153.194a.24.24,0,0,1,.24-.24h8.451a.24.24,0,0,1,.24.24v22.728A.24.24,0,0,1,269.834,176.162Zm-8.211-.48h7.971V153.435h-7.971Z"/><rect class="cls-6" x="104.307" y="153.195" width="67.618" height="39.802"/><path class="cls-4" d="M171.926,193.237H104.308a.24.24,0,0,1-.24-.24v-39.8a.24.24,0,0,1,.24-.24h67.618a.24.24,0,0,1,.24.24V193A.24.24,0,0,1,171.926,193.237Zm-67.378-.48h67.138V153.435H104.548Z"/><rect class="cls-3" x="99.409" y="158.094" width="67.618" height="39.802"/><path class="cls-4" d="M171.926,194.247H104.308a1.25,1.25,0,0,1-1.25-1.25v-39.8a1.25,1.25,0,0,1,1.25-1.25h67.618a1.25,1.25,0,0,1,1.25,1.25V193A1.25,1.25,0,0,1,171.926,194.247Zm-66.368-2.5h65.118v-37.3H105.558Z"/><path class="cls-2" d="M138.118,174.8a5.568,5.568,0,1,0-5.568-5.568A5.577,5.577,0,0,0,138.118,174.8Z"/><path class="cls-2" d="M118.519,174.8a5.568,5.568,0,1,0-5.567-5.568A5.579,5.579,0,0,0,118.519,174.8Z"/><path class="cls-2" d="M157.718,174.8a5.568,5.568,0,1,0-5.569-5.568A5.578,5.578,0,0,0,157.718,174.8Z"/><path class="cls-7" d="M138.116,194.247a1.25,1.25,0,0,1-1.25-1.25v-9.95a1.25,1.25,0,0,1,2.5,0V193A1.25,1.25,0,0,1,138.116,194.247Z"/><polygon class="cls-2" points="225.234 117.751 221.5 64.416 210.911 64.416 207.177 117.751 225.234 117.751"/><polygon class="cls-2" points="263.555 116.859 257.318 24.481 243.944 24.481 237.708 116.859 263.555 116.859"/><path class="cls-2" d="M215.268,51.648h0a5.8,5.8,0,0,1-5.789-5.789h0a5.806,5.806,0,0,1,5.789-5.788h0a5.8,5.8,0,0,1,5.788,5.788h0A5.8,5.8,0,0,1,215.268,51.648Z"/><path class="cls-8" d="M215.269,52.648a6.794,6.794,0,0,1-4.323-1.563,1,1,0,1,1,1.275-1.54,4.792,4.792,0,0,0,3.048,1.1,1,1,0,0,1,0,2Zm2.3-.478a1,1,0,0,1-.4-1.917,4.835,4.835,0,0,0,2.368-2.224,1,1,0,0,1,1.779.913,6.848,6.848,0,0,1-3.349,3.145A1,1,0,0,1,217.565,52.171Zm-8.014-6.216a1.012,1.012,0,0,1-.157-.012,1,1,0,0,1-.831-1.145,6.806,6.806,0,0,1,2.22-4.025,1,1,0,0,1,1.324,1.5,4.8,4.8,0,0,0-1.569,2.839A1,1,0,0,1,209.552,45.955Zm10.6-2.193a1,1,0,0,1-.844-.462,4.842,4.842,0,0,0-2.564-1.995,1,1,0,0,1,.623-1.9A6.849,6.849,0,0,1,221,42.224a1,1,0,0,1-.842,1.538Z"/><path class="cls-9" d="M263.111,105.734h-20.1a1.25,1.25,0,0,1,0-2.5h20.1a1.25,1.25,0,0,1,0,2.5Z"/><path class="cls-9" d="M225.19,105.734H212.57a1.25,1.25,0,0,1,0-2.5h12.62a1.25,1.25,0,0,1,0,2.5Z"/><path class="cls-4" d="M229.445,111.081a1.25,1.25,0,0,1-1.246-1.163l-3.41-48.708h-8.258l-3.409,48.708a1.237,1.237,0,0,1-1.334,1.159,1.249,1.249,0,0,1-1.16-1.334l3.49-49.87a1.25,1.25,0,0,1,1.247-1.163h10.59a1.25,1.25,0,0,1,1.247,1.163l3.491,49.87a1.249,1.249,0,0,1-1.16,1.334C229.5,111.08,229.475,111.081,229.445,111.081Z"/><path class="cls-4" d="M280.481,194.247H177.271a1.25,1.25,0,0,1,0-2.5H279.231v-77.1H142.93v33.208a1.25,1.25,0,0,1-2.5,0V113.393a1.25,1.25,0,0,1,1.25-1.25h138.8a1.25,1.25,0,0,1,1.25,1.25V193A1.25,1.25,0,0,1,280.481,194.247Z"/><polygon class="cls-10" points="78.101 54.77 86.114 56.915 94.129 59.064 96.276 67.077 98.425 75.092 92.556 80.959 86.69 86.825 78.675 84.678 70.66 82.531 68.513 74.516 66.366 66.503 72.234 60.637 78.101 54.77"/><path class="cls-11" d="M86.69,88.075a1.261,1.261,0,0,1-.323-.042l-16.03-4.293a1.249,1.249,0,0,1-.884-.884L65.159,66.826a1.248,1.248,0,0,1,.323-1.207L77.217,53.886a1.246,1.246,0,0,1,1.207-.324l16.028,4.294a1.249,1.249,0,0,1,.884.884l4.3,16.029a1.25,1.25,0,0,1-.323,1.208L87.574,87.708A1.248,1.248,0,0,1,86.69,88.075Zm-15.01-6.564,14.636,3.92L97.03,74.719,93.108,60.084l-14.634-3.92L67.761,66.876Z"/><circle class="cls-6" cx="82.395" cy="70.797" r="6.237" transform="translate(-15.516 23.738) rotate(-15)"/><path class="cls-11" d="M82.4,78.285a7.486,7.486,0,1,1,1.934-.255h0A7.488,7.488,0,0,1,82.4,78.285Zm1.609-1.462h0ZM82.393,65.81a4.988,4.988,0,1,0,4.819,3.7A4.982,4.982,0,0,0,82.393,65.81Z"/><path class="cls-6" d="M82.392,83.163a12.431,12.431,0,0,1-7.6-2.611,1.25,1.25,0,0,1,1.537-1.973,9.881,9.881,0,1,0,8.627-17.341,1.25,1.25,0,1,1,.648-2.414,12.382,12.382,0,0,1-3.208,24.339Zm-11.025-9.6a1.25,1.25,0,0,1-1.236-1.079,12.371,12.371,0,0,1,6.076-12.421,1.25,1.25,0,1,1,1.25,2.165,9.9,9.9,0,0,0-4.85,9.914,1.25,1.25,0,0,1-1.067,1.409A1.3,1.3,0,0,1,71.366,73.561Z"/><path class="cls-10" d="M147.972,91.458a31.389,31.389,0,0,1-4.508,7.794c-.7.9,1.129.9,5,2.692a5.955,5.955,0,0,1-.505,2.5c-3.6,1.074-8.551-.718-9.517-.02a26.061,26.061,0,0,1-8.349,3.9c-1.855-.453-2.81-2.341-3.031-4.319A34.759,34.759,0,0,0,130.3,100.8c-.306-1.651-1.143-3.732-1.085-6.454.015-.659,2.227-.844,2.379-.832.33,1.81,1.053,4.443,1.388,3.984a28.357,28.357,0,0,0,5.486-12.577C142.689,82.616,149.819,86.441,147.972,91.458Z"/><path class="cls-12" d="M138.44,105.676a1.25,1.25,0,0,1-.77-2.236c.014-.011,1.376-1.074,2.7-2.267a1.25,1.25,0,1,1,1.674,1.856c-1.392,1.255-2.777,2.336-2.835,2.382A1.244,1.244,0,0,1,138.44,105.676Z"/><path class="cls-6" d="M130.179,105.7a1.25,1.25,0,0,1-.8-2.21c.085-.071,8.532-7.206,10.659-16.585a1.25,1.25,0,1,1,2.438.553c-2.316,10.221-11.124,17.643-11.5,17.954A1.246,1.246,0,0,1,130.179,105.7Z"/><path class="cls-4" d="M134.438,107.249a.5.5,0,0,1-.243-.937c1.456-.809,1.638-1.881,1.849-3.122a5.519,5.519,0,0,1,1.521-3.409,3.746,3.746,0,0,1,2.184-.731,8.565,8.565,0,0,0,4.52-1.7.5.5,0,0,1,.607.794,9.547,9.547,0,0,1-4.993,1.9,3.166,3.166,0,0,0-1.624.461,4.578,4.578,0,0,0-1.229,2.855,4.592,4.592,0,0,1-2.348,3.829A.5.5,0,0,1,134.438,107.249Z"/><path class="cls-4" d="M141.206,96.689a2.092,2.092,0,0,1-.939-.2,1.821,1.821,0,0,1-.938-1.754A2.548,2.548,0,0,0,138.5,92.6a2.631,2.631,0,0,0-2.022-.2.5.5,0,1,1-.309-.951,3.588,3.588,0,0,1,2.909.337,3.464,3.464,0,0,1,1.251,2.929c.016.7.294.837.385.882,1.047.521,4.184-1.158,6.074-2.518a.5.5,0,1,1,.584.812C146.646,94.414,143.358,96.689,141.206,96.689Z"/><path class="cls-4" d="M132.728,104a2.784,2.784,0,0,1-1.71-.636c-.894-.7-1.554-1.952-1.112-2.851a.5.5,0,0,1,.9.44c-.157.32.177,1.114.828,1.621a1.587,1.587,0,0,0,2.141,0c.074-.063.074-.187.037-.582a3.846,3.846,0,0,1,.478-2.519c1.128-1.959.883-2.569.781-2.71-.188-.259-.757-.236-1-.185a.5.5,0,0,1-.212-.977,2.078,2.078,0,0,1,2.021.57c.553.754.317,2-.72,3.8a2.855,2.855,0,0,0-.35,1.925,1.5,1.5,0,0,1-.385,1.44A2.6,2.6,0,0,1,132.728,104Z"/><path class="cls-4" d="M82.391,80.663a9.819,9.819,0,0,1-4.921-1.322A9.845,9.845,0,0,1,79.845,61.3a.5.5,0,1,1,.258.966A8.848,8.848,0,1,0,87.832,77.8a.5.5,0,1,1,.615.788,9.916,9.916,0,0,1-6.057,2.078ZM91.657,72.6a.464.464,0,0,1-.069,0,.5.5,0,0,1-.427-.564,8.837,8.837,0,0,0-4.342-8.879.5.5,0,0,1,.5-.866,9.859,9.859,0,0,1,4.832,9.883A.5.5,0,0,1,91.657,72.6Z"/><path class="cls-13" d="M174.647,73.7l3.029,1.748a2.678,2.678,0,0,0,3.649-.977l3.749-6.493c.736-1.274.679-2.69-.592-3.426l.078-.134c1.08.2,1.839-.515,2.413-1.511l1.078-1.864c.73-1.266.679-2.69-.592-3.426l1.3-2.259-2.259-1.3-1.3,2.261c-1.274-.736-2.529-.073-3.263,1.2l-1.076,1.864c-.578,1-.812,2.011-.1,2.846l-.078.134c-1.272-.733-2.527-.072-3.261,1.2l-3.75,6.493A2.68,2.68,0,0,0,174.647,73.7Z"/><path class="cls-14" d="M179,77.053a3.889,3.889,0,0,1-1.955-.526l-3.028-1.748h0a3.927,3.927,0,0,1-1.437-5.355l3.752-6.495a4.28,4.28,0,0,1,2.034-1.882,3.287,3.287,0,0,1,.7-.2,4.8,4.8,0,0,1,.7-2.1l1.075-1.864A4.287,4.287,0,0,1,182.888,55a3.192,3.192,0,0,1,1.741-.206l.791-1.371a1.251,1.251,0,0,1,1.708-.458l2.259,1.3a1.25,1.25,0,0,1,.458,1.707l-.792,1.372a3.735,3.735,0,0,1,.08,4.313l-1.079,1.866a4.8,4.8,0,0,1-1.464,1.656,4.016,4.016,0,0,1-.435,3.414l-3.747,6.493A3.93,3.93,0,0,1,179,77.053Zm-3.733-4.438,3.029,1.748a1.424,1.424,0,0,0,1.942-.521l3.747-6.492c.266-.459.6-1.293-.136-1.719a1.251,1.251,0,0,1-.453-1.712l.078-.134a1.243,1.243,0,0,1,1.3-.6c.159.03.529.1,1.107-.905l1.079-1.866c.265-.458.6-1.292-.136-1.718a1.251,1.251,0,0,1-.457-1.707l.68-1.177-.094-.054-.68,1.178a1.251,1.251,0,0,1-1.708.458.759.759,0,0,0-.732-.08,1.888,1.888,0,0,0-.822.821L181.942,60c-.58,1-.336,1.29-.232,1.412a1.25,1.25,0,0,1,.127,1.44l-.078.134a1.251,1.251,0,0,1-1.7.453.757.757,0,0,0-.731-.08,1.894,1.894,0,0,0-.821.821l-3.752,6.494a1.424,1.424,0,0,0,.521,1.941Z"/><path class="cls-6" d="M177.072,72.534a1.25,1.25,0,0,1-1.082-1.875l3.116-5.4a1.25,1.25,0,0,1,2.166,1.25l-3.116,5.4A1.25,1.25,0,0,1,177.072,72.534Z"/><path class="cls-4" d="M176.36,71.116a.5.5,0,0,1-.433-.75l3.116-5.4a.5.5,0,1,1,.865.5l-3.116,5.4A.5.5,0,0,1,176.36,71.116Z"/><path class="cls-6" d="M183.581,63.039a1.25,1.25,0,0,1-1.081-1.875l1.561-2.7a1.25,1.25,0,1,1,2.164,1.251l-1.561,2.7A1.248,1.248,0,0,1,183.581,63.039Z"/><path class="cls-4" d="M182.872,61.62a.5.5,0,0,1-.433-.75l1.558-2.7a.5.5,0,1,1,.865.5l-1.558,2.7A.5.5,0,0,1,182.872,61.62Z"/><path class="cls-14" d="M187.457,58.864a1.243,1.243,0,0,1-.623-.167l-2.26-1.3a1.25,1.25,0,1,1,1.248-2.166l2.26,1.3a1.25,1.25,0,0,1-.625,2.333Z"/><path class="cls-1" d="M347.527,199.083v2.41l2.7-1.564,2.709-1.563-2.089-1.207a5.42,5.42,0,0,1-.4.444l-.005,0a5.234,5.234,0,0,1-2.924,1.476Zm4.1-3.258,2.085,1.2v-6.25l-2.085,1.2a5.223,5.223,0,0,1,0,3.841Zm-.772-5.176,2.089-1.2-2.709-1.565-2.7-1.562v2.41a5.229,5.229,0,0,1,2.924,1.476l.005,0a5.876,5.876,0,0,1,.4.442Zm-4.87-1.92v-2.412l-2.7,1.562-2.707,1.565,2.089,1.2a5.2,5.2,0,0,1,.395-.442l0,0a5.216,5.216,0,0,1,2.924-1.474Zm-4.1,3.255-2.086-1.2v6.25l2.086-1.2a5.247,5.247,0,0,1,0-3.841Zm.773,5.174-2.089,1.207,2.707,1.563,2.7,1.564v-2.411a5.232,5.232,0,0,1-2.924-1.475l0,0a4.838,4.838,0,0,1-.395-.444Zm1.489-5.864a3.7,3.7,0,0,1,5.214,0l0,0a3.7,3.7,0,0,1,0,5.214l0,0a3.692,3.692,0,0,1-5.214,0l-.005,0a3.7,3.7,0,0,1,0-5.214l.005,0ZM347.2,203.46l-.015.009a.771.771,0,0,1-.864,0l-.015-.009-3.8-2.2-3.848-2.221-.014-.009,0,0-.011-.006-.006,0-.005,0-.011-.005v0L338.6,199l0,0-.007-.005-.007-.005,0,0-.011-.01h0l0,0-.007,0-.006-.007,0,0-.011-.008v0l-.009-.007-.005-.005-.006,0-.009-.01-.009-.007,0-.006-.005,0-.007-.009h0l-.009-.009,0-.006-.006,0-.007-.01-.009-.01-.006-.005,0,0-.009-.011h0l-.009-.009,0-.005,0-.006-.009-.009v0l-.007-.009,0-.008,0,0-.006-.01,0,0-.005-.007-.006-.009,0,0-.005-.011,0,0,0-.008-.006-.01h0l-.005-.01,0-.006,0-.005-.005-.01v0l-.006-.01,0-.007,0,0-.005-.01,0-.005,0-.008,0-.01v0l0-.011,0-.005,0-.007-.005-.011,0-.01,0-.007,0-.006,0-.012h0l0-.011,0-.007,0-.005,0-.013h0l0-.013v-.011l0-.01,0,0v-.009l0-.01v0l0-.01v0l0-.01,0-.011v-.016l0,0v-.06h0v-8.921a.768.768,0,0,1,.435-.7l3.816-2.2,3.8-2.2.015-.009a.775.775,0,0,1,.433-.132.752.752,0,0,1,.431.132l.015.009,3.8,2.2,3.849,2.221.016.01,0,0,.009,0,.005.005.006,0,.011.006,0,0,.009.007.006,0,.007.006.007.005,0,0,.009.007,0,0,0,0,.007.006.006,0,.005,0,.009.007v0l.011.008,0,.005.005,0,.011.009.009.008,0,.005,0,0,.009.01h0l.007.009.005.005,0,0,.007.011.009.007,0,.006.006.005.007.01h0l.007.01.006.005,0,.005.007.01v0l.007.009.006.007,0,0,.005.011,0,0,.005.01.006.009,0,0,.005.011,0,.006,0,.005,0,.005,0,.006,0,.005,0,.005,0,.005,0,.005,0,.008,0,0,0,.007v.006l.005.005v.005l.005.007v0l0,.011,0,0,0,.01,0,0,0,.009,0,0,0,.009v0l0,.01v0l0,.011h0l.005.012h0l0,.011v0l0,.009v0l0,.011,0,.012,0,.013,0,.013h0l0,.01,0,.013v.012l0,.013h0l0,.01v.013h0v.013l0,.012v.013l0,.012v.025h0v8.921a.776.776,0,0,1-.435.7l-3.818,2.2Z"/><path class="cls-1" d="M209.066,211.52h-2.41l1.562,2.7,1.564,2.707,1.207-2.087a5.888,5.888,0,0,1-.442-.4l0,0a5.219,5.219,0,0,1-1.476-2.924Zm3.256,4.1-1.2,2.085h6.25l-1.2-2.085a5.246,5.246,0,0,1-3.842,0Zm5.176-.772,1.207,2.087,1.564-2.707,1.562-2.7h-2.41a5.217,5.217,0,0,1-1.475,2.924l-.006,0a5.573,5.573,0,0,1-.442.4Zm1.922-4.87h2.41l-1.562-2.706-1.564-2.708L217.5,206.65a4.965,4.965,0,0,1,.442.4l.006,0a5.235,5.235,0,0,1,1.475,2.926Zm-3.256-4.1,1.2-2.085h-6.25l1.2,2.085a5.245,5.245,0,0,1,3.842,0Zm-5.176.772-1.207-2.089-1.564,2.708-1.562,2.706h2.41a5.237,5.237,0,0,1,1.476-2.926l0,0a5.213,5.213,0,0,1,.442-.4Zm5.866,1.489a3.7,3.7,0,0,1,0,5.216l0,0a3.7,3.7,0,0,1-5.216,0l0,0a3.7,3.7,0,0,1,0-5.216l0,0a3.7,3.7,0,0,1,5.216,0l0,0Zm-12.166,3.054-.01-.016a.778.778,0,0,1-.132-.431.768.768,0,0,1,.132-.432l.01-.014,2.2-3.805,2.223-3.849.007-.014v0l.007-.011,0,0,0-.007.007-.01h0l.007-.012,0,0,.006-.008.005-.007,0,0,.009-.01,0,0,0,0,0-.007.005-.005,0,0,.007-.01h0l.009-.01,0-.005,0,0,.009-.009.009-.011,0,0,.006-.005.009-.008h0l.009-.009,0-.005.006,0,.009-.01.011-.009,0,0,.005,0,.009-.007h0l.007-.009.007,0,0,0,.011-.007,0,0,.007-.005.007-.006,0,0,.011-.007,0,0,.007-.005.007-.005h0l.009-.008.006,0,.007,0,.011-.005v0l.01-.006.006,0,.006,0,.01-.005,0,0,.011,0,.007,0h0l.013-.005,0,0,.009,0,.01,0h0l.011-.006.005,0,.006,0,.013,0,.011-.005.005,0h.007l.011-.005h0l.011,0,.007,0h.005l.011,0,0,0,.01,0,.007,0h0l.013,0,0,0,.009,0,.007,0h.006l.011,0h.013l.009,0h0l.013,0h.012l.01,0h.04v0H218.7a.775.775,0,0,1,.531.212l0,0a.739.739,0,0,1,.163.219l2.2,3.816L223.8,210.3l.01.014a.77.77,0,0,1,0,.863l-.01.016L221.6,215l-2.216,3.835-.007.01-.005.011,0,.007,0,0,0,.007,0,0,0,.007,0,0-.005.01,0,0-.006.007,0,0-.006.009,0,0-.005.007,0,0-.007.01v0l-.007.009-.007.01-.009.008v0l-.007.009v0l-.009.008v0l-.007.009h0l-.007.01h0l-.009.009h0l-.009.009h0l-.007.01h0l-.007.007,0,0-.009.008h0l-.009.009h0l-.009.007h0l-.009.01-.009.009-.011.007h0l-.007.008h0l-.009.005,0,0-.009.005,0,0-.009.005,0,0-.009.005,0,0-.007,0,0,0-.007,0-.006,0-.007,0-.009.005h0l-.011.006-.007,0-.006,0-.009.005,0,0-.009.005-.007,0,0,0-.011.006,0,0-.009,0-.01.005h0l-.01,0-.006,0-.007,0-.011,0-.013,0-.005,0-.006,0-.013,0h0l-.011,0-.007,0h0l-.013,0v0l-.013,0h-.011l-.013,0,0,0h-.011l-.007,0h-.006l-.011,0,0,0h-.009l-.009,0h-.029l-.007,0h0l-.013,0H218.7v0h-8.923a.773.773,0,0,1-.694-.433l-2.2-3.817Z"/><path class="cls-1" d="M157.618,212.736l0,0-1.091,1.09,7.649,7.651,1.093-1.093-5.981-5.983-.014-.013-.015-.015-1.639-1.639Zm7.651,9.835,1.092,1.093,7.649-7.649-1.093-1.094-6,6-.015.014-1.638,1.64Zm.545,2.734-2.187-2.187-8.742-8.744a.772.772,0,0,1,0-1.093l2.185-2.185v0l.014-.013.015-.015,8.714-8.714a.774.774,0,0,1,1.093,0l2.187,2.187h0l.014.015.013.014,8.715,8.715,0,0,0,0a.769.769,0,0,1,0,1.088l-2.141,2.142-.013.015-.014.014-.013.017-8.744,8.744a.774.774,0,0,1-1.093,0Zm.547-6.013-5.462-5.465,5.462-5.462,5.463,5.462-5.463,5.465Zm1.094-12.022h0l1.093-1.09,7.651,7.648-1.093,1.093-7.649-7.651Zm-1.641-.547,1.64-1.639-1.093-1.091-7.649,7.648,0,0,1.094,1.093,5.983-5.983.015-.015Z"/><path class="cls-1" d="M30.549,197.684H29.006V208.5h1.543V197.684Zm-1.543,12.365v1.545H39.822v-1.545H29.006Zm-1.548,2.317V209.3h0v-.02h0V196.91a.774.774,0,0,1,.774-.772H43.688a.772.772,0,0,1,.772.772v15.456a.774.774,0,0,1-.772.773H28.232a.776.776,0,0,1-.774-.773ZM32.1,208.5h7.725v-7.728H32.1V208.5Zm9.273-7.728v10.819h1.545V200.775ZM32.1,199.23H42.915v-1.546H32.1Z"/><path class="cls-2" d="M321.885,99.266H295.517A10.112,10.112,0,1,1,299.3,79.779a12.117,12.117,0,0,1,21.12,3.441,8.09,8.09,0,1,1,1.465,16.046Z"/><path class="cls-11" d="M318.322,103.83h-4a1,1,0,0,1,0-2h4a.8.8,0,0,0,.964-.066,7.081,7.081,0,0,0,3.212-1.306,1,1,0,1,1,1.184,1.612,9.1,9.1,0,0,1-4.122,1.675,1.256,1.256,0,0,0-1.237.084Zm-10,0h-4a1,1,0,0,1,0-2h4a1,1,0,0,1,0,2Zm-10,0h-4a1,1,0,0,1,0-2h4a1,1,0,0,1,0,2Zm-9.921-.648a.986.986,0,0,1-.354-.065,11.06,11.06,0,0,1-3.7-2.317,1,1,0,1,1,1.373-1.454,9.088,9.088,0,0,0,3.034,1.9,1,1,0,0,1-.354,1.936Zm37.854-5.854a1.018,1.018,0,0,1-.2-.02,1,1,0,0,1-.783-1.178,7.082,7.082,0,0,0,.139-1.393,7.009,7.009,0,0,0-.311-2.068,1,1,0,0,1,1.912-.589,9.065,9.065,0,0,1,.221,4.444A1,1,0,0,1,326.256,97.329Zm-44.164-1.385a1,1,0,0,1-.975-.778,11.074,11.074,0,0,1-.105-4.367,1,1,0,1,1,1.969.35,9.067,9.067,0,0,0,.088,3.574,1,1,0,0,1-.977,1.222Zm40.333-7.17a1,1,0,0,1-.509-.14,7.063,7.063,0,0,0-3.324-.979,1,1,0,0,1,.074-2,9.078,9.078,0,0,1,4.27,1.258,1,1,0,0,1-.511,1.86Zm-37.741-2.065a1,1,0,0,1-.72-1.694,11.121,11.121,0,0,1,3.582-2.491,1,1,0,1,1,.8,1.833A9.149,9.149,0,0,0,285.4,86.4,1,1,0,0,1,284.684,86.708Zm11.053-2.365a1,1,0,0,1-.377-.074,9.05,9.05,0,0,0-1.726-.507A1,1,0,0,1,294,81.8a11.06,11.06,0,0,1,1.407.362,13.22,13.22,0,0,1,.979-1.024,1,1,0,1,1,1.369,1.458,11.238,11.238,0,0,0-1.229,1.359A1,1,0,0,1,295.736,84.343Zm19.094-.237a1,1,0,0,1-.779-.373,11.255,11.255,0,0,0-2.727-2.437,1,1,0,1,1,1.072-1.687,13.214,13.214,0,0,1,3.211,2.87,1,1,0,0,1-.777,1.627Zm-12.571-4.139A1,1,0,0,1,302,78a13.023,13.023,0,0,1,3.366-.442,5.781,5.781,0,0,1,.925.032,1,1,0,1,1-.139,2c-.258-.018-.519-.027-.78-.027h0a11.048,11.048,0,0,0-2.85.374A1,1,0,0,1,302.259,79.968Z"/><path class="cls-4" d="M267.808,111.081a1.25,1.25,0,0,1-1.246-1.166l-5.956-87.746H249.567l-5.956,87.746a1.235,1.235,0,0,1-1.332,1.163,1.25,1.25,0,0,1-1.162-1.332l6.035-88.911a1.25,1.25,0,0,1,1.247-1.166h13.374a1.25,1.25,0,0,1,1.247,1.166l6.035,88.911a1.25,1.25,0,0,1-1.162,1.332Z"/><path class="cls-12" d="M130.091,109.575a1.247,1.247,0,0,1-.3-.036c-2.172-.531-3.659-2.547-3.977-5.395a1.252,1.252,0,0,1,.442-1.1,32.579,32.579,0,0,0,2.684-2.616c-.062-.266-.135-.544-.209-.833a18.656,18.656,0,0,1-.77-5.279,1.622,1.622,0,0,1,.558-1.171c.969-.87,3.163-.865,3.176-.88a1.25,1.25,0,0,1,1.125,1.021c.11.6.241,1.184.371,1.692a25.411,25.411,0,0,0,4.035-10.231,1.248,1.248,0,0,1,.64-.927,8.57,8.57,0,0,1,9.344,1.336,5.96,5.96,0,0,1,1.935,6.726,32,32,0,0,1-4.1,7.345l.44.162c.858.313,2.035.742,3.5,1.419a1.249,1.249,0,0,1,.709.938,7.024,7.024,0,0,1-.619,3.251,1.25,1.25,0,0,1-.764.645c-2.341.7-5.087.333-7.093.065a14.046,14.046,0,0,0-2.156-.193,27.5,27.5,0,0,1-8.671,4.022A1.247,1.247,0,0,1,130.091,109.575Zm-1.687-5.086a3.36,3.36,0,0,0,1.717,2.537,24.944,24.944,0,0,0,7.589-3.614c.808-.584,2.015-.425,3.842-.181a17.8,17.8,0,0,0,5.462.161c.061-.208.118-.442.159-.656-1.022-.444-1.878-.755-2.537-1-1.4-.51-2.244-.818-2.507-1.732a1.659,1.659,0,0,1,.351-1.525,30.521,30.521,0,0,0,4.318-7.45l0-.007a3.52,3.52,0,0,0-1.221-3.976,6.377,6.377,0,0,0-5.979-1.275,29.768,29.768,0,0,1-5.608,12.457,1.334,1.334,0,0,1-1.4.532c-.467-.107-1.222-.281-2-3.864l-.129.031a17.615,17.615,0,0,0,.688,4.041c.147.572.283,1.1.374,1.6a1.247,1.247,0,0,1-.3,1.063A39.836,39.836,0,0,1,128.4,104.489Zm10.769.95h0Z"/><path class="cls-12" d="M146.578,92.929a12.362,12.362,0,0,1-6.862-2.256,5.889,5.889,0,0,1-2.477-5.985,1.25,1.25,0,1,1,2.457.462,3.344,3.344,0,0,0,1.416,3.443c2.192,1.734,5.648,2.036,6.3,1.746a1.275,1.275,0,0,1,1.661.6,1.227,1.227,0,0,1-.546,1.64A4.523,4.523,0,0,1,146.578,92.929Z"/><path class="cls-2" d="M183.421,120.514h0a10.715,10.715,0,0,1-10.685-10.686h0a10.716,10.716,0,0,1,10.685-10.685h0a10.717,10.717,0,0,1,10.688,10.685h0A10.716,10.716,0,0,1,183.421,120.514Z"/><path class="cls-9" d="M183.421,121.765a11.936,11.936,0,1,1,11.938-11.936A11.949,11.949,0,0,1,183.421,121.765Zm0-21.372a9.436,9.436,0,1,0,9.438,9.436A9.446,9.446,0,0,0,183.421,100.393Z"/><path class="cls-9" d="M186.726,115.627a1.249,1.249,0,0,1-.6-.154l-2.7-1.484-2.7,1.484a1.25,1.25,0,0,1-1.83-1.331l.578-3.023-2.245-2.105a1.25,1.25,0,0,1,.7-2.152l3.057-.385,1.312-2.787a1.249,1.249,0,0,1,2.262,0l1.312,2.787,3.057.385a1.25,1.25,0,0,1,.7,2.152l-2.247,2.105.58,3.023a1.25,1.25,0,0,1-1.228,1.485Zm-5.85-6.619.807.756a1.247,1.247,0,0,1,.373,1.147L181.848,112l.973-.535a1.257,1.257,0,0,1,1.205,0L185,112l-.209-1.088a1.248,1.248,0,0,1,.373-1.147l.808-.757-1.1-.138a1.249,1.249,0,0,1-.975-.708l-.473-1-.473,1a1.249,1.249,0,0,1-.975.708Z"/><path class="cls-4" d="M138.116,172.484a1.25,1.25,0,0,1-1.25-1.25v-7.573a1.25,1.25,0,1,1,2.5,0v7.573A1.25,1.25,0,0,1,138.116,172.484Z"/><path class="cls-8" d="M138.118,176.048a6.818,6.818,0,1,1,6.817-6.817A6.826,6.826,0,0,1,138.118,176.048Zm0-11.137a4.318,4.318,0,1,0,4.317,4.319A4.323,4.323,0,0,0,138.118,164.911Z"/><path class="cls-4" d="M164.8,137.217a1.25,1.25,0,0,1-1.25-1.25V129.58a1.25,1.25,0,0,1,2.5,0v6.387A1.25,1.25,0,0,1,164.8,137.217Z"/><path class="cls-4" d="M228.856,137.217a1.25,1.25,0,0,1-1.25-1.25V129.58a1.25,1.25,0,0,1,2.5,0v6.387A1.25,1.25,0,0,1,228.856,137.217Z"/><path class="cls-4" d="M193.308,137.217a1.25,1.25,0,0,1-1.25-1.25V129.58a1.25,1.25,0,0,1,2.5,0v6.387A1.25,1.25,0,0,1,193.308,137.217Z"/><path class="cls-4" d="M257.362,137.217a1.25,1.25,0,0,1-1.25-1.25V129.58a1.25,1.25,0,0,1,2.5,0v6.387A1.25,1.25,0,0,1,257.362,137.217Z"/><path class="cls-7" d="M207.517,140.78H150.589a1.25,1.25,0,0,1-1.25-1.25v-9.95a1.25,1.25,0,0,1,1.25-1.25h56.928a1.25,1.25,0,0,1,1.25,1.25v9.95A1.25,1.25,0,0,1,207.517,140.78Zm-55.678-2.5h54.428v-7.45H151.839Z"/><path class="cls-7" d="M271.573,140.78H214.645a1.25,1.25,0,0,1-1.25-1.25v-9.95a1.25,1.25,0,0,1,1.25-1.25h56.929a1.25,1.25,0,0,1,1.25,1.25v9.95A1.25,1.25,0,0,1,271.573,140.78Zm-55.679-2.5h54.429v-7.45H215.895Z"/><rect class="cls-6" x="62.016" y="158.028" width="22.198" height="4.352"/><path class="cls-4" d="M84.214,163.63h-22.2a1.25,1.25,0,0,1-1.25-1.25v-4.352a1.25,1.25,0,0,1,1.25-1.25h22.2a1.25,1.25,0,0,1,1.25,1.25v4.352A1.25,1.25,0,0,1,84.214,163.63Zm-20.947-2.5h19.7v-1.852h-19.7Z"/><rect class="cls-6" x="62.016" y="166.934" width="17.963" height="4.351"/><path class="cls-4" d="M79.979,172.535H62.017a1.25,1.25,0,0,1-1.25-1.25v-4.352a1.25,1.25,0,0,1,1.25-1.25H79.979a1.25,1.25,0,0,1,1.25,1.25v4.352A1.25,1.25,0,0,1,79.979,172.535Zm-16.713-2.5H78.729v-1.852H63.267Z"/><rect class="cls-6" x="288.375" y="160.016" width="22.198" height="4.352"/><path class="cls-4" d="M310.573,165.618h-22.2a1.25,1.25,0,0,1-1.25-1.25v-4.353a1.25,1.25,0,0,1,1.25-1.25h22.2a1.25,1.25,0,0,1,1.25,1.25v4.353A1.25,1.25,0,0,1,310.573,165.618Zm-20.948-2.5h19.7v-1.853h-19.7Z"/><rect class="cls-6" x="288.375" y="151.109" width="10.755" height="4.354"/><path class="cls-4" d="M299.13,156.713H288.375a1.25,1.25,0,0,1-1.25-1.25v-4.354a1.25,1.25,0,0,1,1.25-1.25H299.13a1.25,1.25,0,0,1,1.25,1.25v4.354A1.25,1.25,0,0,1,299.13,156.713Zm-9.5-2.5h8.255v-1.854h-8.255Z"/><rect class="cls-6" x="278.516" y="59.234" width="27.01" height="4.351"/><path class="cls-4" d="M305.525,64.835h-27.01a1.25,1.25,0,0,1-1.25-1.25V59.234a1.25,1.25,0,0,1,1.25-1.25h27.01a1.25,1.25,0,0,1,1.25,1.25v4.351A1.25,1.25,0,0,1,305.525,64.835Zm-25.76-2.5h24.51V60.484h-24.51Z"/><rect class="cls-6" x="278.518" y="50.33" width="17.949" height="4.351"/><path class="cls-4" d="M296.467,55.931H278.518a1.25,1.25,0,0,1-1.25-1.25V50.33a1.25,1.25,0,0,1,1.25-1.25h17.949a1.25,1.25,0,0,1,1.25,1.25v4.352A1.25,1.25,0,0,1,296.467,55.931Zm-16.7-2.5h15.449V51.58H279.768Z"/><rect class="cls-6" x="121.711" y="51.404" width="15.894" height="4.351"/><path class="cls-4" d="M137.605,57.005H121.711a1.25,1.25,0,0,1-1.25-1.25V51.4a1.25,1.25,0,0,1,1.25-1.25h15.895a1.25,1.25,0,0,1,1.25,1.25v4.352A1.25,1.25,0,0,1,137.605,57.005Zm-14.645-2.5h13.395V52.654H122.961Z"/><rect class="cls-6" x="121.713" y="42.497" width="28.939" height="4.354"/><path class="cls-4" d="M150.652,48.1H121.713a1.25,1.25,0,0,1-1.25-1.25V42.5a1.25,1.25,0,0,1,1.25-1.25h28.939a1.25,1.25,0,0,1,1.25,1.25v4.354A1.25,1.25,0,0,1,150.652,48.1Zm-27.689-2.5H149.4V43.747H122.963Z"/><path class="cls-4" d="M118.519,172.484a1.25,1.25,0,0,1-1.25-1.25v-7.573a1.25,1.25,0,0,1,2.5,0v7.573A1.25,1.25,0,0,1,118.519,172.484Z"/><path class="cls-4" d="M157.716,172.484a1.25,1.25,0,0,1-1.25-1.25v-7.573a1.25,1.25,0,0,1,2.5,0v7.573A1.25,1.25,0,0,1,157.716,172.484Z"/><path class="cls-8" d="M118.519,176.048a6.818,6.818,0,1,1,6.819-6.817A6.826,6.826,0,0,1,118.519,176.048Zm0-11.137a4.318,4.318,0,1,0,4.319,4.319A4.323,4.323,0,0,0,118.519,164.911Z"/><path class="cls-8" d="M157.718,176.048a6.818,6.818,0,1,1,6.817-6.817A6.827,6.827,0,0,1,157.718,176.048Zm0-11.137a4.318,4.318,0,1,0,4.317,4.319A4.324,4.324,0,0,0,157.718,164.911Z"/><rect class="cls-6" x="121.711" y="60.309" width="24.243" height="4.351"/><path class="cls-4" d="M145.954,65.91H121.711a1.25,1.25,0,0,1-1.25-1.25V60.309a1.25,1.25,0,0,1,1.25-1.25h24.243a1.25,1.25,0,0,1,1.25,1.25V64.66A1.25,1.25,0,0,1,145.954,65.91Zm-22.993-2.5H144.7V61.559H122.961Z"/><rect class="cls-6" x="109.087" y="134.619" width="17.393" height="4.352"/><path class="cls-4" d="M126.479,140.221H109.087a1.25,1.25,0,0,1-1.25-1.25v-4.352a1.25,1.25,0,0,1,1.25-1.25h17.393a1.25,1.25,0,0,1,1.25,1.25v4.352A1.25,1.25,0,0,1,126.479,140.221Zm-16.143-2.5h14.893v-1.852H110.337Z"/><rect class="cls-6" x="109.087" y="125.714" width="10.754" height="4.351"/><path class="cls-4" d="M119.842,131.315H109.087a1.25,1.25,0,0,1-1.25-1.25v-4.351a1.25,1.25,0,0,1,1.25-1.25h10.755a1.25,1.25,0,0,1,1.25,1.25v4.351A1.25,1.25,0,0,1,119.842,131.315Zm-9.5-2.5h8.255v-1.851h-8.255Z"/><path class="cls-1" d="M74.186,217.876l-1.828,1.054.283.489H86.248l.283-.489L84.7,217.876H74.186Zm13.117-.281.284-.492-6.8-11.784-.565,0v2.124l5.252,9.1,1.833,1.06Zm-3.732-1.267H75.316l4.127-7.149,4.127,7.149Zm-4.087-12.55h1.705a.767.767,0,0,1,.706.384l7.249,12.551,0,0a.77.77,0,0,1,0,.768l-.864,1.5-.005.011-.022.042h0l-.009.018-.855,1.482a.773.773,0,0,1-.694.433H72.2v0a.769.769,0,0,1-.667-.384l-.893-1.545-.009-.017L70.616,219l0-.007-.87-1.508a.766.766,0,0,1,0-.768v0l7.247-12.551a.769.769,0,0,1,.708-.384h1.783Zm-6.064,12.757,5.251-9.1v-2.124l-.564,0L71.3,217.1l.283.492Z"/><path class="cls-1" d="M23.467,171.171v2.411l2.705-1.563,2.709-1.564-2.09-1.207a5.3,5.3,0,0,1-.395.445l0,0a5.22,5.22,0,0,1-2.924,1.475Zm4.1-3.256,2.085,1.2v-6.25l-2.085,1.2a5.246,5.246,0,0,1,0,3.842Zm-.773-5.176,2.09-1.2-2.709-1.566-2.705-1.562v2.41a5.228,5.228,0,0,1,2.924,1.476l0,0a5.262,5.262,0,0,1,.395.442Zm-4.868-1.92v-2.411l-2.705,1.562-2.709,1.566,2.089,1.2a5.578,5.578,0,0,1,.395-.442l0,0a5.22,5.22,0,0,1,2.926-1.475Zm-4.1,3.254-2.085-1.2v6.25l2.085-1.2a5.251,5.251,0,0,1,0-3.842Zm.772,5.176-2.089,1.207,2.709,1.564,2.705,1.563v-2.411A5.237,5.237,0,0,1,19,169.7l0,0a5.614,5.614,0,0,1-.395-.445Zm1.489-5.864a3.7,3.7,0,0,1,5.216,0l0,0a3.7,3.7,0,0,1,0,5.216l0,0a3.694,3.694,0,0,1-5.216,0l0,0a3.7,3.7,0,0,1,0-5.216l0,0Zm3.055,12.166-.016.009a.769.769,0,0,1-.862,0l-.015-.009-3.8-2.2L14.6,171.133l-.017-.009v0l-.011-.006-.006,0-.007,0-.009-.005,0,0-.011-.007,0,0-.007-.005-.007-.005,0,0-.009-.01h0l0,0-.007-.005-.005-.005-.006,0-.009-.008v0l-.011-.007,0-.005-.006,0-.009-.01-.011-.007,0-.005-.005,0L14.418,171h0l-.009-.011,0,0-.005,0-.007-.01-.009-.01-.005-.005,0,0-.007-.011h0l-.009-.009,0-.005,0-.005-.007-.01v0l-.007-.01,0-.007,0,0-.007-.009v0l-.007-.008-.006-.009v0l-.007-.011,0,0,0-.007-.005-.011h0l-.005-.01,0-.006,0-.005,0-.01,0,0-.006-.011,0-.007v0l-.006-.011,0,0,0-.009,0-.01v0l-.006-.011,0-.005,0-.007,0-.01,0-.011,0-.007v-.006l0-.012h0l0-.011,0-.007v-.005l0-.013h0l0-.012,0-.008v0l0-.01,0,0,0-.009,0-.009v-.017l0,0v-.011l0-.009v0l0-.015v-.023l0-.012v-.026h0v-8.92a.771.771,0,0,1,.433-.7l3.817-2.2,3.8-2.2.015-.009a.77.77,0,0,1,.431-.132.751.751,0,0,1,.431.132l.016.009,3.8,2.2,3.848,2.221.016.01v0l.011,0,0,.006.007,0,.011.007h0l.011.007,0,0,.007.006.007,0,0,0,.011.007,0,0h0l.007.006.005.005.006,0,.009.007v0l.011.008,0,.005,0,0,.01.011.009.007.006.005,0,0,.009.01h0l.009.009,0,.005,0,0,.009.011.009.007,0,.006,0,.005.009.009v0l.007.01,0,.005,0,.005.007.01,0,0,.005.009.006.008,0,0,.007.011,0,0,.005.01.006.009v0l.007.01,0,.005,0,.007,0,.005,0,.006,0,.005,0,.005,0,.005,0,.006,0,.005,0,.005,0,.007,0,.006,0,.005,0,.005,0,.008,0,0,0,.011v0l.005.009v0l0,.009h0l0,.011v0l.006.01v0l0,.011h0l0,.012h0l0,.011v0l0,.009v0l0,.011,0,.013,0,.012,0,.013h0l0,.011,0,.013,0,.012,0,.011v0l0,.01,0,.013h0v.025l0,.013,0,.012v.026h0v8.92a.776.776,0,0,1-.434.7l-3.816,2.2Z"/><path class="cls-2" d="M302.005,136.71h0a7.5,7.5,0,0,1-7.477-7.475v0a7.5,7.5,0,0,1,7.477-7.475h0a7.5,7.5,0,0,1,7.477,7.475v0A7.5,7.5,0,0,1,302.005,136.71Z"/><path class="cls-12" d="M302,137.71a8.448,8.448,0,0,1-4.321-1.19,1,1,0,0,1,1.023-1.719,6.444,6.444,0,0,0,3.3.909,1,1,0,0,1,0,2Zm2.89-.583a1,1,0,0,1-.39-1.921,6.557,6.557,0,0,0,2.7-2.117,1,1,0,1,1,1.6,1.2,8.559,8.559,0,0,1-3.521,2.764A1,1,0,0,1,304.895,137.127Zm-10.166-5.169a1,1,0,0,1-.972-.769,8.468,8.468,0,0,1,.156-4.478,1,1,0,0,1,1.908.6,6.486,6.486,0,0,0-.119,3.419,1,1,0,0,1-.974,1.231Zm14.652-2.943a1,1,0,0,1-.985-.837,6.453,6.453,0,0,0-1.437-3.1,1,1,0,0,1,1.529-1.289,8.454,8.454,0,0,1,1.881,4.067,1,1,0,0,1-.823,1.149A.946.946,0,0,1,309.381,129.015Zm-10.731-5.457a1,1,0,0,1-.453-1.893,8.354,8.354,0,0,1,3.8-.907c.157.012.395.007.591.02a1,1,0,0,1,.93,1.066,1.015,1.015,0,0,1-1.066.93c-.148-.011-.3-.016-.448-.016h0a6.348,6.348,0,0,0-2.9.692A1,1,0,0,1,298.649,123.558Z"/><path class="cls-2" d="M39.835,142.781H80.246a15.5,15.5,0,0,0,0-31,15.355,15.355,0,0,0-5.8,1.132,18.573,18.573,0,0,0-32.371,5.272,12.4,12.4,0,1,0-2.244,24.593Z"/><path class="cls-9" d="M76.682,147.343h-.411a1,1,0,0,1,0-2h.411a14.455,14.455,0,0,0,3.325-.387,1,1,0,1,1,.461,1.945A16.438,16.438,0,0,1,76.682,147.343Zm-6.411,0h-4a1,1,0,0,1,0-2h4a1,1,0,0,1,0,2Zm-10,0h-4a1,1,0,0,1,0-2h4a1,1,0,0,1,0,2Zm-10,0h-4a1,1,0,0,1,0-2h4a1,1,0,0,1,0,2Zm-10,0h-4a1,1,0,0,1,0-2h4a1,1,0,0,1,0,2Zm-6.391-.232a1.022,1.022,0,0,1-.194-.019,13.28,13.28,0,0,1-4.033-1.507,1,1,0,0,1,.994-1.736,11.251,11.251,0,0,0,3.426,1.28,1,1,0,0,1-.192,1.981Zm51.782-2.653a1,1,0,0,1-.583-1.813,14.713,14.713,0,0,0,2.737-2.541,1,1,0,1,1,1.535,1.281,16.69,16.69,0,0,1-3.108,2.887A1,1,0,0,1,85.662,144.457Zm-59.821-2.831a1,1,0,0,1-.842-.459,13.337,13.337,0,0,1-1.719-3.947,1,1,0,1,1,1.939-.49,11.3,11.3,0,0,0,1.461,3.355,1,1,0,0,1-.84,1.541Zm65.614-5.107a1,1,0,0,1-.953-1.3,14.384,14.384,0,0,0,.661-3.67,1,1,0,0,1,2,.1,16.446,16.446,0,0,1-.753,4.18A1,1,0,0,1,91.455,136.519ZM24.22,132.035a1,1,0,0,1-.973-1.236,13.328,13.328,0,0,1,1.68-3.963,1,1,0,1,1,1.691,1.066,11.334,11.334,0,0,0-1.428,3.369A1,1,0,0,1,24.22,132.035ZM91.3,126.7a1,1,0,0,1-.942-.665,14.5,14.5,0,0,0-1.692-3.325,1,1,0,1,1,1.65-1.129,16.494,16.494,0,0,1,1.927,3.784A1,1,0,0,1,91.3,126.7Zm-61.252-2.461a1,1,0,0,1-.506-1.863,13.3,13.3,0,0,1,4.018-1.547,1,1,0,0,1,.406,1.959,11.279,11.279,0,0,0-3.414,1.314A.993.993,0,0,1,30.044,124.235Zm8.9-2.616a1,1,0,0,1-.923-1.386,19.723,19.723,0,0,1,2.028-3.685,1,1,0,0,1,1.639,1.146A17.69,17.69,0,0,0,39.868,121,1,1,0,0,1,38.945,121.619Zm46.3-2.672a1,1,0,0,1-.555-.169,14.512,14.512,0,0,0-3.343-1.656,1,1,0,0,1,.65-1.891,16.462,16.462,0,0,1,3.8,1.885,1,1,0,0,1-.557,1.831Zm-13.395-1.822a1,1,0,0,1-.314-1.949,16.309,16.309,0,0,1,4.172-.8,1,1,0,0,1,.119,2,14.373,14.373,0,0,0-3.662.7A1.008,1.008,0,0,1,71.853,117.125Zm-4.471-3.15a1,1,0,0,1-.607-.206,17.664,17.664,0,0,0-3.228-1.964,1,1,0,1,1,.852-1.81,19.751,19.751,0,0,1,3.593,2.186,1,1,0,0,1-.609,1.794Zm-22.35-.138a1,1,0,0,1-.6-1.8,19.738,19.738,0,0,1,3.621-2.139,1,1,0,0,1,.828,1.821,17.747,17.747,0,0,0-3.254,1.922A1,1,0,0,1,45.032,113.837Zm13.2-3.569a1,1,0,0,1-.114-.006,17.666,17.666,0,0,0-3.778-.023,1,1,0,1,1-.2-1.989,19.547,19.547,0,0,1,4.208.025,1,1,0,0,1-.112,1.994Z"/><path class="cls-7" d="M147.273,194.247a1.25,1.25,0,0,1-1.25-1.25v-8.7H130.212V193a1.25,1.25,0,0,1-2.5,0v-9.95a1.25,1.25,0,0,1,1.25-1.25h18.312a1.25,1.25,0,0,1,1.25,1.25V193A1.25,1.25,0,0,1,147.273,194.247Z"/><path class="cls-7" d="M269.834,194.247a1.25,1.25,0,0,1-1.25-1.25v-8.7h-5.951V193a1.25,1.25,0,1,1-2.5,0v-9.95a1.25,1.25,0,0,1,1.25-1.25h8.451a1.25,1.25,0,0,1,1.25,1.25V193A1.25,1.25,0,0,1,269.834,194.247Z"/></svg>