<svg id="Layer_1" data-name="Layer 1" xmlns="http://www.w3.org/2000/svg" viewBox="0 0 370 221"><defs><style>.cls-1{fill:#f6f4ef;}.cls-1,.cls-12,.cls-4{fill-rule:evenodd;}.cls-2,.cls-4{fill:#fff;}.cls-3{fill:#f5fcff;}.cls-5{fill:#e6e6e6;}.cls-6{fill:#127ef8;}.cls-7{fill:#f6f8f9;}.cls-8{fill:#fbae7a;}.cls-9{fill:#5acaef;}.cls-10{fill:#66db82;}.cls-11{fill:#ab65f4;}.cls-12{fill:#dfdfde;}.cls-13{fill:#fafafa;}.cls-14{fill:#ff7088;}</style></defs><title>offer-01-370x221</title><path class="cls-1" d="M354.948,90.22l-1.825-1.054.283-.491h13.6l.283.491-1.833,1.054H354.948Zm13.109.281.283.491-6.8,11.778-.565,0v-2.122l5.251-9.089,1.832-1.059Zm-3.729,1.266h-8.25l4.129,7.145,4.121-7.145Zm-4.085,12.542h1.7a.775.775,0,0,0,.71-.384L369.9,91.38v0a.766.766,0,0,0,0-.768l-.862-1.5-.007-.011-.022-.042h0l-.015-.018-.847-1.481a.782.782,0,0,0-.7-.433H352.964v0a.78.78,0,0,0-.673.384l-.891,1.545-.007.018-.008.016-.007.007-.869,1.506a.783.783,0,0,0,0,.768v0l7.242,12.544a.775.775,0,0,0,.71.384h1.782Zm-6.062-12.749,5.251,9.089v2.122l-.565,0-6.8-11.778.283-.491Z"/><path class="cls-1" d="M29.926,162.238v2.408l2.7-1.564,2.709-1.561-2.086-1.206c-.127.156-.261.3-.4.442l0,0a5.215,5.215,0,0,1-2.923,1.478Zm4.092-3.256,2.086,1.2v-6.247l-2.086,1.206a5.216,5.216,0,0,1,0,3.838Zm-.768-5.175,2.086-1.206-2.709-1.561-2.7-1.561v2.408a5.235,5.235,0,0,1,2.923,1.474l0,0c.137.141.271.286.4.441Zm-4.867-1.919V149.48l-2.7,1.561L22.973,152.6l2.086,1.206a5.12,5.12,0,0,1,.395-.441l0,0a5.241,5.241,0,0,1,2.926-1.474Zm-4.1,3.256-2.082-1.206v6.247l2.082-1.2a5.222,5.222,0,0,1,0-3.838Zm.772,5.171-2.086,1.206,2.705,1.561,2.7,1.564v-2.411a5.2,5.2,0,0,1-2.926-1.474l0,0a5.126,5.126,0,0,1-.395-.442Zm1.488-5.863a3.694,3.694,0,0,1,5.211,0l.007,0a3.7,3.7,0,0,1,0,5.211l-.007,0a3.693,3.693,0,0,1-5.211,0l0,0a3.694,3.694,0,0,1,0-5.211l0,0Zm3.053,12.16-.015.007a.772.772,0,0,1-.434.134.759.759,0,0,1-.428-.134l-.014-.007-3.8-2.194-3.846-2.224-.014-.007h0l-.015-.007,0,0-.007,0-.011,0v0L21,162.158h0l-.007-.007-.007,0v0l-.015-.007h0v0l-.007,0-.007-.007h-.007l-.007-.007v0l-.011-.007,0,0-.007,0-.007-.011-.011-.007,0,0-.007,0-.007-.011h0l-.007-.011,0,0,0,0-.007-.011-.01-.007,0-.007-.007,0L20.83,162h0l-.007-.007,0-.007,0,0-.007-.011h0l-.007-.011,0-.007,0,0-.007-.007v0l-.007-.007-.007-.011h0l-.007-.011v0l0-.007,0-.011h0l0-.011,0-.007,0,0,0-.011,0,0,0-.011,0-.007v0l-.007-.011v0l0-.007,0-.011h0l-.007-.011v-.015l-.007-.011v-.011l-.007-.007v-.018h0l-.007-.011v-.011l0-.014h0v-.022l0-.011,0,0v-.037h0v-.011l0-.011h0v-.076h0V152.6a.77.77,0,0,1,.431-.692l3.817-2.2,3.8-2.194.014-.011a.756.756,0,0,1,.428-.131.768.768,0,0,1,.434.131l.015.011,3.8,2.194,3.846,2.22.014.007h0l.011.007,0,0,.007,0,.011.007h0l.011.007,0,0,.007,0,.011.007h0l.011.007,0,0h0l.007,0,.007.007,0,0,.011.007h0l.007.007.007.007h0l.014.011.007.007.007,0v.007l.011.007h0l.011.011v0l.007,0,.007.011.007.007.007.007v0l.011.011h0l.007.011,0,0,0,0,.007.011,0,0,0,.007,0,.007,0,0,.007.011h0l0,.011,0,.007v0l.007.011.007,0v.007l0,0,0,.007,0,0,0,0v.007l0,.007,0,0v.007l.007.007v0l0,.007,0,0v.007l0,0,0,.007v0l.007.011v.011h0l.007.011v0l0,.011h0l0,.011h0l0,.015h0l0,.011h0v.011h0l.007.011v.014l0,.011,0,.014h0v.011l0,.011,0,.014v.011h0v.011l0,.015h0v.025l0,.011v.036h0v8.919a.77.77,0,0,1-.435.7l-3.809,2.2Z"/><path class="cls-1" d="M321.843,66.758h-1.549V77.569h1.549V66.758Zm-1.549,12.357v1.543h10.812V79.115H320.293Zm-1.543,2.316V78.362h0V65.984a.776.776,0,0,1,.775-.773h15.441a.776.776,0,0,1,.775.773V81.431a.776.776,0,0,1-.775.773H319.525a.776.776,0,0,1-.775-.773Zm4.635-3.862h7.721V69.847h-7.721v7.722Zm9.264-7.722V80.658H334.2V69.847ZM323.385,68.3H334.2V66.758H323.385Z"/><path class="cls-1" d="M29.593,44.895l-1.829-1.054.282-.491h13.6l.283.491L40.1,44.895H29.593Zm13.109.281.282.491-6.8,11.778-.565,0V55.324l5.251-9.09L42.7,45.175Zm-3.73,1.265H30.723l4.125,7.145,4.124-7.145Zm-4.085,12.54h1.7a.777.777,0,0,0,.71-.382l7.242-12.546h0a.777.777,0,0,0,0-.77l-.865-1.5,0-.009-.022-.043h0l-.011-.017-.851-1.481a.774.774,0,0,0-.7-.433H27.605v0a.78.78,0,0,0-.67.384l-.891,1.543-.007.018-.011.018,0,.007-.869,1.5a.77.77,0,0,0,0,.77h0L32.4,58.6a.777.777,0,0,0,.71.382h1.7l.022,0h.036l.022,0ZM28.825,46.234l5.251,9.09v2.122l-.565,0-6.8-11.778.283-.491Z"/><path class="cls-1" d="M27.909,14.394H25.5l1.561,2.7L28.622,19.8l1.21-2.087a4.936,4.936,0,0,1-.442-.4l-.007,0a5.265,5.265,0,0,1-1.474-2.922Zm3.255,4.094-1.2,2.084h6.244L35,18.488a5.241,5.241,0,0,1-3.839,0Zm5.171-.771L37.542,19.8,39.1,17.1l1.564-2.7H38.255a5.216,5.216,0,0,1-1.47,2.922l-.007,0a4.936,4.936,0,0,1-.442.4Zm1.92-4.867h2.411l-1.564-2.7L37.542,7.441,36.336,9.527a4.672,4.672,0,0,1,.442.4l.007,0a5.214,5.214,0,0,1,1.47,2.922ZM35,8.756l1.2-2.084H29.962l1.2,2.084a5.247,5.247,0,0,1,3.839,0Zm-5.171.772-1.21-2.086-1.561,2.705L25.5,12.85h2.411a5.235,5.235,0,0,1,1.47-2.922l.007,0a4.672,4.672,0,0,1,.442-.4Zm5.859,1.488a3.687,3.687,0,0,1,0,5.213v0a3.7,3.7,0,0,1-5.214,0v0a3.687,3.687,0,0,1,0-5.213v0a3.7,3.7,0,0,1,5.214,0v0ZM23.535,14.068l-.011-.015a.793.793,0,0,1-.131-.431.765.765,0,0,1,.131-.433l.011-.014,2.194-3.8,2.22-3.848.007-.014h0l.007-.013.007,0V5.491l.007-.011h0l.007-.013,0,0,0-.007L28,5.452V5.446l.007-.009,0,0,0,0V5.426l.007-.005,0-.006.011-.009h0l.007-.011,0-.005,0,0,.007-.009.007-.009.007-.005,0-.006.011-.007h0l.007-.009,0-.006,0,0,.014-.009.007-.007,0-.005,0,0,.011-.009h0l.007-.009.007,0v0l.015-.007v0l.007-.006.007,0,0,0,.011-.007,0,0,.007,0,.007-.007h0l.007-.006.007,0,.007,0,.011-.006h0l.011-.005.007-.006,0,0,.011-.005h0L28.3,5.2l.011,0v0l.015-.006v0l.007,0,.011,0h0l.011,0,0,0,.007,0,.014,0,.007,0,.007,0h.007l.011,0h0l.007,0,.007,0,.007,0,.011,0,0,0,.007,0,.007,0h.007l.014,0v0H28.5l.011,0h0l.011,0h.011l.011,0h.018v0h.011l.011,0h.036v0h8.919a.78.78,0,0,1,.532.21v0a.777.777,0,0,1,.163.219l2.2,3.815,2.194,3.8.011.014a.779.779,0,0,1,0,.863l-.011.015-2.194,3.8L38.226,21.7l-.007.011-.007.011v.007l-.007,0v.007l-.007.006v.007l0,0,0,.007,0,0,0,.007,0,0,0,.011,0,0,0,.007,0,0-.007.009v0l-.007.009-.011.011,0,.007v0l-.011.009v0l-.007.009h0l-.007.009h0l-.007.009v0l-.011.007h0l-.011.009h0l-.007.009h0l-.007.009h0l-.015.007h0l-.007.009h0l-.007.009h0l-.011.007-.007.009-.011.007h0l-.007.007h0l-.007.005,0,0-.011.007h0l-.007.005,0,0L37.954,22l0,0L37.944,22l0,0-.007.005,0,0-.007,0-.011.005v0l-.011.006-.007,0,0,0-.011.006v0l-.015.005-.007,0h0l-.015.005v0l-.01,0-.011.005h0l-.01.006,0,0-.007,0-.014,0-.011,0,0,0h-.007l-.014,0h0l-.007,0-.007,0h-.007l-.014,0v0l-.011,0-.007,0h0l-.014,0v0l-.007,0h-.014l-.015,0v0h-.011l-.011,0h0l-.014,0h-.022l-.014,0h-.025v0H28.622a.773.773,0,0,1-.692-.433l-2.2-3.815Z"/><path class="cls-1" d="M122.884,16.875v.007l.011.018.011.018.891,1.542a.766.766,0,0,0,.666.386v0h14.484a.771.771,0,0,0,.7-.433l.854-1.481.007-.016h0l.022-.044,0-.009.866-1.5a.766.766,0,0,0,0-.768l0,0L134.153,2.055a.76.76,0,0,0-.7-.384h-3.488a.765.765,0,0,0-.706.384L122.015,14.6v0a.756.756,0,0,0,0,.768l.869,1.5Zm16.676-1.394-1.832-1.059L132.48,5.331V3.21h.565l6.8,11.778-.286.493Zm-3.73-1.268h-8.249l4.124-7.145,4.124,7.145Zm-10.143.208-.471.271-1.366.788-.282-.493,6.8-11.778h.561v2.12l-5.2,9.015-.044.076Zm-1.065,2.391,1.829-1.053h10.512l1.825,1.053-.282.491H124.9Z"/><path class="cls-1" d="M77.755,22.7v0l-1.094,1.09L84.31,31.44,85.4,30.346l-5.982-5.979-.014-.013-.015-.014L77.755,22.7Zm7.648,9.83L86.5,33.623l7.641-7.644-1.09-1.092-5.993,5.991-.015.015L85.4,32.532Zm.543,2.732-2.184-2.185L75.025,24.34a.773.773,0,0,1,0-1.092l2.187-2.186h0l.015-.014.014-.014,8.705-8.709a.776.776,0,0,1,1.093,0l2.188,2.186h0l.014.014.011.014,8.709,8.709v0a.773.773,0,0,1,0,1.088l-2.14,2.14-.015.014-.014.016-.011.014L87.04,35.264a.776.776,0,0,1-1.093,0Zm.551-6.009-5.461-5.461L86.5,18.334l5.457,5.459L86.5,29.254Zm1.093-12.013h0l1.09-1.09L96.326,23.8l-1.094,1.09-7.641-7.646Zm-1.644-.547,1.637-1.639L86.5,13.965,78.849,21.61h0L79.943,22.7l5.978-5.979.011-.014Z"/><path class="cls-1" d="M216.53,1.546h-1.543V12.357h1.543V1.546ZM214.986,13.9v1.543h10.806V13.9H214.986Zm-1.549,2.316V13.15h0V.773A.775.775,0,0,1,214.212,0H229.66a.773.773,0,0,1,.767.773V16.219a.773.773,0,0,1-.767.773H214.212a.775.775,0,0,1-.775-.773Zm4.635-3.862h7.721V4.635h-7.721v7.722Zm9.271-7.722V15.446h1.542V4.635Zm-9.271-1.544h10.813V1.546H218.072Z"/><path class="cls-1" d="M304.084,12.828h-2.4l1.557,2.7,1.565,2.707,1.2-2.087c-.152-.125-.3-.255-.442-.395v-.006a5.2,5.2,0,0,1-1.478-2.922Zm3.252,4.094-1.2,2.084h6.25l-1.2-2.084a5.261,5.261,0,0,1-3.846,0Zm5.179-.771,1.2,2.087,1.564-2.707,1.557-2.7h-2.4a5.194,5.194,0,0,1-1.477,2.922v.006c-.145.139-.29.27-.442.395Zm1.919-4.867h2.4l-1.557-2.7-1.564-2.707-1.2,2.087c.152.123.3.255.442.4v0a5.254,5.254,0,0,1,1.477,2.924ZM311.182,7.19l1.2-2.084h-6.25l1.2,2.084a5.261,5.261,0,0,1,3.846,0ZM306,7.961l-1.2-2.087-1.565,2.707-1.557,2.7h2.4a5.254,5.254,0,0,1,1.478-2.924v0c.144-.141.29-.274.442-.4ZM311.87,9.45a3.7,3.7,0,0,1,0,5.213l-.007,0a3.69,3.69,0,0,1-5.207,0l-.008,0a3.705,3.705,0,0,1,0-5.213l.008,0a3.69,3.69,0,0,1,5.207,0l.007,0ZM299.71,12.5l-.008-.014a.747.747,0,0,1,0-.864l.008-.014,2.194-3.8,2.224-3.846.008-.017h0l.007-.013v0l.007-.006.007-.01h0l.008-.013v0l.007-.007V3.884l.008,0,.007-.009v0l.007-.007.007-.006V3.849l.008-.009h0l.007-.011.008-.006v0l.014-.009.007-.009V3.8l.008,0,.007-.009h0l.015-.009V3.769l.007,0,.007-.009.015-.007V3.744l.007,0,.008-.009h0l.014-.009v0l.008-.005.007-.007h.007l.008-.007.007,0v0l.015-.006v0l.007-.006.007,0v0l.015-.005.007,0,.008,0,.007-.006h0l.015-.005V3.646l.007,0,.014-.005h0l.008-.006.007,0,.008,0,.007-.006.007,0,.007,0,.008,0h0l.015,0,.007,0,.007,0,.007,0,.015,0,.007,0h.008l.007-.006h0l.015,0,.007,0,.007,0,.008,0v0l.014,0,.008,0h0l.014,0,.008,0h.007l.007,0h.008l.007,0h.015l.007,0h.015l.007,0h.007l.008,0h.044v0h8.915a.77.77,0,0,1,.529.21l.007,0a.679.679,0,0,1,.159.221l2.2,3.813,2.195,3.8.007.014a.747.747,0,0,1,0,.864l-.007.014-2.195,3.8L314.4,20.136l-.008.011v.011l-.007.007v0l-.007.007v.006l-.008.007v0l-.007.007v0l-.007.007v0l-.008.011v0l-.007.007v0l-.007.009v0l-.008.009-.007.011-.007.007v0l-.008.009v0l-.007.007v0l-.015.009h0l-.007.009v0l-.007.007h0l-.008.009h0l-.007.009h-.007l-.007.009h0l-.008.007h0l-.007.009h0l-.015.009h0l-.007.007-.007.009-.015.007h0l-.008.007h0l-.014.007h0l-.007.007h0l-.015.006v0l-.007.005v0l-.008.005-.007,0-.007.006-.008,0v0l-.014.006v0l-.008,0-.007,0-.007,0-.008,0-.007,0-.007.006-.008,0h-.007l-.007.005-.008,0-.007,0L314,20.5h0l-.015.006-.007,0-.008,0-.007,0-.015,0-.007,0h0l-.014,0h0l-.015,0-.008,0h0l-.014,0v0l-.015,0-.007,0h0l-.015,0v0h-.014l-.008,0h0l-.014,0-.008,0H313.8l-.007,0h0l-.015,0h-.029l-.008,0h-.029v0H304.8a.775.775,0,0,1-.7-.433L301.9,16.3Z"/><path class="cls-1" d="M259.8,19.6l-1.825-1.056.283-.489h13.6l.282.489L270.319,19.6H259.8Zm13.116.279.283.492-6.8,11.778h-.565V30.029l5.244-9.089,1.839-1.059Zm-3.729,1.267h-8.25l4.121,7.145,4.129-7.145ZM265.1,33.689h1.7a.757.757,0,0,0,.7-.382l7.25-12.546-.007,0a.766.766,0,0,0,.007-.768l-.869-1.5v-.011l-.022-.042h-.007l-.008-.017L273,16.945a.771.771,0,0,0-.7-.432H257.819v0a.776.776,0,0,0-.666.384l-.891,1.545-.008.018-.014.017v.007l-.869,1.506a.764.764,0,0,0,0,.768v0l7.242,12.546a.769.769,0,0,0,.71.382h1.7l.015,0h.043l.022,0ZM259.043,20.94l5.243,9.089v2.122h-.558l-6.8-11.778.283-.492Z"/><path class="cls-1" d="M175.783,21.394V23.8l2.7-1.561,2.708-1.562-2.09-1.206a5.71,5.71,0,0,1-.394.444l0,0a5.238,5.238,0,0,1-2.923,1.475Zm4.092-3.255,2.086,1.2V13.1l-2.086,1.2a5.218,5.218,0,0,1,0,3.841Zm-.772-5.173,2.09-1.206L178.485,10.2l-2.7-1.561v2.408a5.235,5.235,0,0,1,2.923,1.476l0,0a5.374,5.374,0,0,1,.394.442Zm-4.866-1.92V8.637l-2.7,1.561-2.7,1.562,2.086,1.206a4.8,4.8,0,0,1,.394-.442l0,0a5.222,5.222,0,0,1,2.923-1.474ZM170.145,14.3l-2.083-1.2v6.247l2.083-1.2a5.229,5.229,0,0,1,0-3.841Zm.772,5.173-2.086,1.206,2.7,1.562,2.7,1.561V21.392a5.224,5.224,0,0,1-2.923-1.474l0,0a5.067,5.067,0,0,1-.394-.444Zm1.488-5.861a3.693,3.693,0,0,1,5.211,0l.007,0a3.705,3.705,0,0,1,0,5.213l-.007,0a3.694,3.694,0,0,1-5.211,0l0,0a3.7,3.7,0,0,1,0-5.213l0,0Zm3.053,12.158-.015.009a.782.782,0,0,1-.435.132.758.758,0,0,1-.427-.132l-.018-.009-3.8-2.194-3.846-2.222-.015-.007,0,0-.01-.006,0,0-.008,0-.011-.005v0l-.011-.007,0,0-.007-.006-.007-.005,0,0-.01-.009h0v0l-.008-.006-.007-.005-.007,0-.007-.007v0l-.011-.007,0-.005-.008,0-.007-.009-.01-.007,0-.006-.008,0-.007-.011h0l-.007-.009-.008,0,0,0-.007-.011-.007-.009,0-.006-.007-.005-.007-.009h0l-.008-.009,0-.005,0-.006-.007-.009v0l-.008-.009-.007-.007v0l-.007-.009v0l-.008-.007-.007-.009v0l-.007-.011v0l-.008-.007v-.011h0l0-.011-.007-.006v-.005l-.008-.011v0l0-.011,0-.007v0l-.007-.011v0l0-.009,0-.009v0l-.007-.011v-.013l-.007-.01v-.013l-.008-.005v-.018h0l-.007-.011v-.007l0-.006,0-.013h0v-.024l-.007-.011v-.038l0,0,0-.011v-.087h-.007V11.76a.778.778,0,0,1,.434-.693l3.817-2.2,3.8-2.194.018-.009a.758.758,0,0,1,.427-.132.768.768,0,0,1,.435.132l.015.009,3.8,2.194,3.845,2.22.015.009h0l.01.006,0,.006.007,0,.007.007h0l.011.009,0,0,.007,0,.008.007,0,0,.01.007v0l0,0,.008,0,.007.005v0l.011.007v0l.011.007.007.005v0l.015.011.007.007,0,0,0,.005.007.009h0l.011.009v.005l.007,0,.007.01.008.007.007.006v.005l.01.009v0l.008.009,0,.005,0,0,.008.011,0,0,0,.009,0,.007,0,0,.007.01,0,0,0,.009,0,.009v0l.007.011,0,0,0,.007,0,.006,0,.005V11.4l.007,0v.007l0,.005,0,.006v.005l.007.007v.005l0,.006,0,0v.011l.008.009v0l0,.009,0,0v.009h0l.007.011v0l0,.01v0l0,.011h0l0,.013h0l0,.011v.013l.007.011v.013l0,.013,0,.013h0v.011l0,.013,0,.013v.037h0V11.7l0,.013,0,.013v.036h0v8.918a.77.77,0,0,1-.434.7l-3.809,2.2Z"/><rect class="cls-2" x="45.215" y="29.31" width="278.474" height="160.391"/><rect class="cls-3" x="40.319" y="33.759" width="278.474" height="155.942"/><path class="cls-4" d="M345.41,62.367a15.575,15.575,0,1,0-15.579-15.575A15.6,15.6,0,0,0,345.41,62.367Z"/><path class="cls-4" d="M213.227,160.459a8.9,8.9,0,1,0-8.9-8.9A8.91,8.91,0,0,0,213.227,160.459Z"/><path class="cls-4" d="M134.685,126.448a17.8,17.8,0,1,0-17.8-17.8A17.834,17.834,0,0,0,134.685,126.448Z"/><path class="cls-4" d="M231.551,82.257a11.124,11.124,0,1,0-11.125-11.125A11.146,11.146,0,0,0,231.551,82.257Z"/><path class="cls-5" d="M113.2,153.095a1,1,0,0,1-.266-1.964l21.485-5.929a1,1,0,0,1,.532,1.928l-21.485,5.929A1.007,1.007,0,0,1,113.2,153.095Z"/><path class="cls-5" d="M151.267,169.314a1,1,0,0,1-.265-1.964l21.488-5.925a1,1,0,1,1,.531,1.928l-21.488,5.925A1,1,0,0,1,151.267,169.314Z"/><path class="cls-5" d="M157.365,167.63a1,1,0,0,1-.4-.083l-37.517-16.371a1,1,0,0,1,.8-1.834l37.517,16.371a1,1,0,0,1-.4,1.917Z"/><path class="cls-5" d="M251.519,72.132H231.551a1,1,0,0,1,0-2h19.968a1,1,0,0,1,0,2Z"/><path class="cls-5" d="M251.519,147.166H231.551a1,1,0,0,1,0-2h19.968a1,1,0,0,1,0,2Z"/><path class="cls-5" d="M244.5,147.166a1,1,0,0,1-1-1V71.134a1,1,0,0,1,2,0v75.032A1,1,0,0,1,244.5,147.166Z"/><path class="cls-5" d="M134.689,72.132a1,1,0,0,1-1-1l0-21.052a1,1,0,1,1,2,0l0,21.052A1,1,0,0,1,134.689,72.132Z"/><path class="cls-5" d="M194.034,55.76a1,1,0,0,1-1-1V33.71a1,1,0,0,1,2,0V54.76A1,1,0,0,1,194.034,55.76Z"/><path class="cls-6" d="M231.551,147.166a1,1,0,0,1-1-1v-3.032a1,1,0,0,1,2,0v3.032A1,1,0,0,1,231.551,147.166Zm0-10.032a1,1,0,0,1-1-1v-5a1,1,0,0,1,2,0v5A1,1,0,0,1,231.551,137.134Zm0-12a1,1,0,0,1-1-1v-5a1,1,0,0,1,2,0v5A1,1,0,0,1,231.551,125.134Zm0-12a1,1,0,0,1-1-1v-5a1,1,0,0,1,2,0v5A1,1,0,0,1,231.551,113.134Zm0-12a1,1,0,0,1-1-1v-5a1,1,0,0,1,2,0v5A1,1,0,0,1,231.551,101.134Zm0-12a1,1,0,0,1-1-1v-5a1,1,0,0,1,2,0v5A1,1,0,0,1,231.551,89.134Zm0-12a1,1,0,0,1-1-1v-5a1,1,0,0,1,2,0v5A1,1,0,0,1,231.551,77.134Z"/><path class="cls-6" d="M172.2,163.538a1,1,0,0,1-1-1V159.5a1,1,0,0,1,2,0v3.033A1,1,0,0,1,172.2,163.538Zm0-10.033a1,1,0,0,1-1-1v-5a1,1,0,0,1,2,0v5A1,1,0,0,1,172.2,153.5Zm0-12a1,1,0,0,1-1-1v-5a1,1,0,0,1,2,0v5A1,1,0,0,1,172.2,141.5Zm0-12a1,1,0,0,1-1-1v-5a1,1,0,1,1,2,0v5A1,1,0,0,1,172.2,129.5Zm0-12a1,1,0,0,1-1-1v-5a1,1,0,1,1,2,0v5A1,1,0,0,1,172.2,117.5Zm0-12a1,1,0,0,1-1-1v-5a1,1,0,0,1,2,0v5A1,1,0,0,1,172.2,105.505Zm0-12a1,1,0,0,1-1-1v-5a1,1,0,0,1,2,0v5A1,1,0,0,1,172.2,93.505Z"/><path class="cls-6" d="M172.2,163.538a1,1,0,0,1-.266-1.964l1.51-.417a1,1,0,1,1,.532,1.928l-1.51.417A1.007,1.007,0,0,1,172.2,163.538Zm8.258-2.278a1,1,0,0,1-.265-1.964l4.82-1.329a1,1,0,1,1,.531,1.928l-4.82,1.329A1,1,0,0,1,180.458,161.26Zm11.568-3.19a1,1,0,0,1-.265-1.964l4.819-1.33a1,1,0,0,1,.531,1.928l-4.819,1.33A1,1,0,0,1,192.026,158.069Zm11.567-3.191a1,1,0,0,1-.265-1.964l4.82-1.33a1,1,0,0,1,.531,1.928l-4.82,1.33A1,1,0,0,1,203.594,154.878Zm11.568-3.191a1,1,0,0,1-.265-1.964l4.819-1.329a1,1,0,1,1,.531,1.928l-4.819,1.329A1,1,0,0,1,215.162,151.687Zm11.567-3.19a1,1,0,0,1-.265-1.964l4.82-1.33a1,1,0,0,1,.531,1.928L227,148.46A1,1,0,0,1,226.729,148.5Z"/><path class="cls-6" d="M172.2,88.506a1,1,0,0,1-.265-1.964l1.51-.417a1,1,0,1,1,.531,1.928l-1.51.417A.985.985,0,0,1,172.2,88.506Zm8.258-2.278a1,1,0,0,1-.266-1.964l4.82-1.33a1,1,0,1,1,.532,1.928l-4.82,1.33A.991.991,0,0,1,180.459,86.228Zm11.567-3.191a1,1,0,0,1-.265-1.964l4.819-1.33a1,1,0,1,1,.531,1.928L192.293,83A.983.983,0,0,1,192.026,83.036Zm11.567-3.191a1,1,0,0,1-.265-1.964l4.82-1.33a1,1,0,1,1,.531,1.928l-4.82,1.33A1,1,0,0,1,203.594,79.845Zm11.568-3.191a1,1,0,0,1-.265-1.964l4.819-1.33a1,1,0,1,1,.531,1.928l-4.819,1.33A.983.983,0,0,1,215.162,76.654Zm11.567-3.191a1,1,0,0,1-.265-1.964l4.82-1.33a1,1,0,1,1,.531,1.928L227,73.426A.983.983,0,0,1,226.729,73.462Z"/><path class="cls-6" d="M134.685,72.133a1,1,0,0,1-.266-1.964l1.509-.417a1,1,0,1,1,.532,1.928l-1.509.417A1.008,1.008,0,0,1,134.685,72.133Zm8.257-2.278a1,1,0,0,1-.266-1.964l4.82-1.33a1,1,0,1,1,.532,1.928l-4.82,1.33A.991.991,0,0,1,142.942,69.854Zm11.568-3.191a1,1,0,0,1-.266-1.964l4.82-1.33A1,1,0,1,1,159.6,65.3l-4.82,1.33A.991.991,0,0,1,154.51,66.663Zm11.568-3.191a1,1,0,0,1-.266-1.964l4.82-1.33a1,1,0,1,1,.532,1.928l-4.82,1.33A.991.991,0,0,1,166.078,63.472Zm11.568-3.191a1,1,0,0,1-.266-1.964l4.82-1.33a1,1,0,1,1,.532,1.928l-4.82,1.33A.991.991,0,0,1,177.646,60.28Zm11.567-3.191a1,1,0,0,1-.265-1.964l4.82-1.33a1,1,0,1,1,.531,1.928l-4.82,1.33A.983.983,0,0,1,189.213,57.089Z"/><path class="cls-6" d="M134.685,147.166a1,1,0,0,1-.265-1.964l1.509-.416a1,1,0,1,1,.531,1.928l-1.509.416A1,1,0,0,1,134.685,147.166Zm8.257-2.277a1,1,0,0,1-.266-1.964l4.82-1.33a1,1,0,0,1,.532,1.928l-4.82,1.33A1.007,1.007,0,0,1,142.942,144.889ZM154.51,141.7a1,1,0,0,1-.265-1.964l4.82-1.329a1,1,0,1,1,.531,1.928l-4.82,1.329A1,1,0,0,1,154.51,141.7Zm11.568-3.19a1,1,0,0,1-.266-1.964l4.82-1.33a1,1,0,0,1,.532,1.928l-4.82,1.33A1.007,1.007,0,0,1,166.078,138.507Zm11.568-3.191a1,1,0,0,1-.265-1.964l4.82-1.329a1,1,0,1,1,.531,1.928l-4.82,1.329A1,1,0,0,1,177.646,135.315Zm11.567-3.191a1,1,0,0,1-.265-1.964l4.82-1.329a1,1,0,0,1,.531,1.928l-4.82,1.329A1.007,1.007,0,0,1,189.213,132.124Z"/><path class="cls-6" d="M134.686,141.634a1,1,0,0,1-1-1v-3a1,1,0,0,1,2,0v3A1,1,0,0,1,134.686,141.634Zm0-9.5a1,1,0,0,1-1-1v-3a1,1,0,0,1,2,0v3A1,1,0,0,1,134.686,132.134Zm0-9.5a1,1,0,0,1-1-1v-3a1,1,0,0,1,2,0v3A1,1,0,0,1,134.686,122.634Zm0-9.5a1,1,0,0,1-1-1v-3a1,1,0,0,1,2,0v3A1,1,0,0,1,134.686,113.134Zm0-9.5a1,1,0,0,1-1-1v-3a1,1,0,0,1,2,0v3A1,1,0,0,1,134.686,103.634Zm0-9.5a1,1,0,0,1-1-1v-3a1,1,0,0,1,2,0v3A1,1,0,0,1,134.686,94.134Zm0-9.5a1,1,0,0,1-1-1v-3a1,1,0,0,1,2,0v3A1,1,0,0,1,134.686,84.634Zm0-9.5a1,1,0,0,1-1-1v-3a1,1,0,0,1,2,0v3A1,1,0,0,1,134.686,75.134Z"/><path class="cls-6" d="M194.034,130.795a1,1,0,0,1-1-1v-3.033a1,1,0,0,1,2,0v3.033A1,1,0,0,1,194.034,130.795Zm0-10.033a1,1,0,0,1-1-1v-5a1,1,0,0,1,2,0v5A1,1,0,0,1,194.034,120.762Zm0-12a1,1,0,0,1-1-1v-5a1,1,0,0,1,2,0v5A1,1,0,0,1,194.034,108.762Zm0-12a1,1,0,0,1-1-1v-5a1,1,0,1,1,2,0v5A1,1,0,0,1,194.034,96.762Zm0-12a1,1,0,0,1-1-1v-5a1,1,0,1,1,2,0v5A1,1,0,0,1,194.034,84.762Zm0-12a1,1,0,0,1-1-1v-5a1,1,0,1,1,2,0v5A1,1,0,0,1,194.034,72.762Zm0-12a1,1,0,0,1-1-1v-5a1,1,0,1,1,2,0v5A1,1,0,0,1,194.034,60.762Z"/><path class="cls-6" d="M172.2,88.506a1,1,0,0,1-.4-.084l-4.521-1.973a1,1,0,1,1,.8-1.833l4.521,1.973a1,1,0,0,1-.4,1.917Zm-10.937-4.773a1,1,0,0,1-.4-.084l-4.583-2a1,1,0,1,1,.8-1.833l4.583,2a1,1,0,0,1-.4,1.917Zm-11-4.8a1,1,0,0,1-.4-.084l-4.583-2a1,1,0,0,1,.8-1.833l4.583,2a1,1,0,0,1-.4,1.917Zm-11-4.8a1,1,0,0,1-.4-.084l-4.583-2a1,1,0,1,1,.8-1.833l4.583,2a1,1,0,0,1-.4,1.917Z"/><path class="cls-6" d="M172.2,163.538a1,1,0,0,1-.4-.083l-4.521-1.973a1,1,0,0,1,.8-1.834l4.521,1.973a1,1,0,0,1-.4,1.917Zm-10.937-4.772a1,1,0,0,1-.4-.083l-4.583-2a1,1,0,0,1,.8-1.834l4.583,2a1,1,0,0,1-.4,1.917Zm-11-4.8a1,1,0,0,1-.4-.083l-4.583-2a1,1,0,0,1,.8-1.834l4.583,2a1,1,0,0,1-.4,1.917Zm-11-4.8a1,1,0,0,1-.4-.083l-4.583-2a1,1,0,0,1,.8-1.834l4.583,2a1,1,0,0,1-.4,1.917Z"/><path class="cls-6" d="M231.55,72.133a1,1,0,0,1-.4-.084l-4.521-1.973a1,1,0,1,1,.8-1.833l4.521,1.973a1,1,0,0,1-.4,1.917ZM220.612,67.36a1,1,0,0,1-.4-.084l-4.582-2a1,1,0,0,1,.8-1.833l4.582,2a1,1,0,0,1-.4,1.917Zm-11-4.8a1,1,0,0,1-.4-.084l-4.583-2a1,1,0,1,1,.8-1.833l4.583,2a1,1,0,0,1-.4,1.917Zm-11-4.8a1,1,0,0,1-.4-.084l-4.583-2a1,1,0,1,1,.8-1.833l4.583,2a1,1,0,0,1-.4,1.917Z"/><path class="cls-6" d="M231.55,147.166a1,1,0,0,1-.4-.083l-4.521-1.973a1,1,0,0,1,.8-1.834l4.521,1.973a1,1,0,0,1-.4,1.917Zm-10.937-4.772a.988.988,0,0,1-.4-.084l-4.582-2a1,1,0,0,1,.8-1.832l4.582,2a1,1,0,0,1-.4,1.916Zm-11-4.8a1,1,0,0,1-.4-.083l-4.583-2a1,1,0,0,1,.8-1.834l4.583,2a1,1,0,0,1-.4,1.917Zm-11-4.8a1,1,0,0,1-.4-.083l-4.583-2a1,1,0,1,1,.8-1.834l4.583,2a1,1,0,0,1-.4,1.917Z"/><path class="cls-5" d="M134.685,58.1a1,1,0,0,1-.266-1.964l59.349-16.372a1,1,0,1,1,.531,1.928L134.952,58.063A.991.991,0,0,1,134.685,58.1Z"/><rect class="cls-2" x="63.683" y="64.522" width="44.458" height="4.351"/><path class="cls-5" d="M108.141,69.873H63.683a1,1,0,0,1-1-1V64.521a1,1,0,0,1,1-1h44.458a1,1,0,0,1,1,1v4.351A1,1,0,0,1,108.141,69.873Zm-43.458-2h42.458V65.521H64.683Z"/><path class="cls-7" d="M68.132,41.41H81.464a4.447,4.447,0,0,1,4.447,4.447v7.525a4.451,4.451,0,0,1-4.451,4.451H68.13a4.447,4.447,0,0,1-4.447-4.447V45.859A4.449,4.449,0,0,1,68.132,41.41Z"/><path class="cls-5" d="M81.464,58.833H68.13a5.454,5.454,0,0,1-5.447-5.449V45.861a5.455,5.455,0,0,1,5.447-5.45H81.464a5.455,5.455,0,0,1,5.447,5.45v7.523A5.454,5.454,0,0,1,81.464,58.833ZM68.13,42.411a3.453,3.453,0,0,0-3.447,3.45v7.523a3.452,3.452,0,0,0,3.447,3.449H81.464a3.452,3.452,0,0,0,3.447-3.449V45.861a3.453,3.453,0,0,0-3.447-3.45Z"/><rect class="cls-2" x="63.683" y="73.423" width="22.228" height="4.351"/><path class="cls-5" d="M85.911,78.773H63.683a1,1,0,0,1-1-1V73.423a1,1,0,0,1,1-1H85.911a1,1,0,0,1,1,1v4.351A1,1,0,0,1,85.911,78.773Zm-21.228-2H84.911V74.423H64.683Z"/><rect class="cls-2" x="63.683" y="82.322" width="32.939" height="4.351"/><path class="cls-5" d="M96.623,87.673H63.683a1,1,0,0,1-1-1V82.322a1,1,0,0,1,1-1H96.623a1,1,0,0,1,1,1v4.351A1,1,0,0,1,96.623,87.673Zm-31.939-2H95.623V83.322H64.683Z"/><rect class="cls-2" x="63.683" y="91.223" width="27" height="4.351"/><path class="cls-5" d="M90.684,96.574h-27a1,1,0,0,1-1-1V91.223a1,1,0,0,1,1-1h27a1,1,0,0,1,1,1v4.351A1,1,0,0,1,90.684,96.574Zm-26-2h25V92.223h-25Z"/><rect class="cls-2" x="266.749" y="40.351" width="40.71" height="4.349"/><path class="cls-5" d="M307.459,45.7h-40.71a1,1,0,0,1-1-1v-4.35a1,1,0,0,1,1-1h40.71a1,1,0,0,1,1,1V44.7A1,1,0,0,1,307.459,45.7Zm-39.71-2h38.71v-2.35h-38.71Z"/><rect class="cls-2" x="266.749" y="49.251" width="32.939" height="4.351"/><path class="cls-5" d="M299.688,54.6H266.749a1,1,0,0,1-1-1V49.251a1,1,0,0,1,1-1h32.939a1,1,0,0,1,1,1V53.6A1,1,0,0,1,299.688,54.6Zm-31.939-2h30.939V50.251H267.749Z"/><rect class="cls-2" x="266.749" y="58.152" width="44.462" height="4.349"/><path class="cls-5" d="M311.211,63.5H266.749a1,1,0,0,1-1-1V58.152a1,1,0,0,1,1-1h44.462a1,1,0,0,1,1,1V62.5A1,1,0,0,1,311.211,63.5Zm-43.462-2h42.462V59.152H267.749Z"/><circle class="cls-2" cx="253.857" cy="108.649" r="2.42"/><path class="cls-8" d="M253.857,112.069a3.421,3.421,0,1,1,3.419-3.419A3.423,3.423,0,0,1,253.857,112.069Zm0-4.842a1.421,1.421,0,1,0,1.419,1.423A1.423,1.423,0,0,0,253.857,107.228Z"/><circle class="cls-2" cx="131.591" cy="163.121" r="2.423"/><path class="cls-9" d="M131.589,166.544a3.423,3.423,0,1,1,3.426-3.423A3.425,3.425,0,0,1,131.589,166.544Zm0-4.846a1.423,1.423,0,1,0,1.426,1.423A1.423,1.423,0,0,0,131.589,161.7Z"/><circle class="cls-2" cx="164.361" cy="39.56" r="2.421"/><path class="cls-10" d="M164.361,42.981a3.422,3.422,0,1,1,3.419-3.421A3.426,3.426,0,0,1,164.361,42.981Zm0-4.843a1.422,1.422,0,1,0,1.419,1.422A1.424,1.424,0,0,0,164.361,38.138Z"/><rect class="cls-2" x="77.067" y="143.063" width="32.939" height="4.349"/><path class="cls-5" d="M110.006,148.412H77.067a1,1,0,0,1-1-1v-4.35a1,1,0,0,1,1-1h32.939a1,1,0,0,1,1,1v4.35A1,1,0,0,1,110.006,148.412Zm-31.939-2h30.939v-2.35H78.067Z"/><rect class="cls-2" x="77.067" y="151.964" width="12.37" height="4.349"/><path class="cls-5" d="M89.438,157.313H77.067a1,1,0,0,1-1-1v-4.35a1,1,0,0,1,1-1h12.37a1,1,0,0,1,1,1v4.35A1,1,0,0,1,89.438,157.313Zm-11.37-2h10.37v-2.35H78.067Z"/><rect class="cls-2" x="77.067" y="160.861" width="23.043" height="4.353"/><path class="cls-5" d="M100.11,166.214H77.067a1,1,0,0,1-1-1v-4.353a1,1,0,0,1,1-1H100.11a1,1,0,0,1,1,1v4.353A1,1,0,0,1,100.11,166.214Zm-22.042-2H99.11v-2.353H78.067Z"/><path class="cls-5" d="M347.621,57.582a16.468,16.468,0,0,1-1.959-.117,1,1,0,1,1,.238-1.985,14.524,14.524,0,0,0,1.722.1h.011a14.486,14.486,0,0,0,4.6-.745,1,1,0,0,1,.635,1.9,16.48,16.48,0,0,1-5.231.849Zm-8.371-2.457a1,1,0,0,1-.539-.158,16.7,16.7,0,0,1-3.947-3.528,1,1,0,0,1,1.553-1.262,14.649,14.649,0,0,0,3.475,3.106,1,1,0,0,1-.541,1.842Zm19.223-1.955a1,1,0,0,1-.7-1.717,14.683,14.683,0,0,0,2.786-3.736,1,1,0,0,1,1.773.926,16.7,16.7,0,0,1-3.165,4.244A1,1,0,0,1,358.473,53.171Zm-26-7.587a1,1,0,0,1-.972-.769,16.527,16.527,0,0,1-.443-3.808c0-.49.021-.987.064-1.476a1,1,0,1,1,1.992.179q-.057.64-.057,1.3a14.54,14.54,0,0,0,.389,3.348,1,1,0,0,1-.742,1.2A1.018,1.018,0,0,1,332.47,45.584ZM363.2,42.467h-.033a1,1,0,0,1-.967-1.031c0-.145.006-.29.007-.435a14.479,14.479,0,0,0-.614-4.18,1,1,0,0,1,1.916-.576,16.541,16.541,0,0,1,.7,4.762c0,.169,0,.331-.009.492A1,1,0,0,1,363.2,42.467Zm-28.932-8.444a1,1,0,0,1-.856-1.515,16.693,16.693,0,0,1,3.411-4.049,1,1,0,0,1,1.307,1.515,14.675,14.675,0,0,0-3,3.564A1,1,0,0,1,334.266,34.023Zm24.847-2.52a1,1,0,0,1-.737-.325,14.654,14.654,0,0,0-3.652-2.9,1,1,0,0,1,.979-1.745,16.671,16.671,0,0,1,4.148,3.29,1,1,0,0,1-.737,1.675ZM343.6,26.963A1,1,0,0,1,343.343,25a17.23,17.23,0,0,1,4.315-.564q.479,0,.955.029a1,1,0,0,1,.938,1.057.984.984,0,0,1-1.058.939c-.284-.017-.574-.036-.858-.025a14.538,14.538,0,0,0-3.773.5A1,1,0,0,1,343.6,26.963Z"/><polygon class="cls-4" points="345.822 43.009 353.218 35.611 355.44 37.836 345.822 47.46 340.477 42.117 342.701 39.893 345.822 43.009"/><path class="cls-10" d="M345.822,48.46a1,1,0,0,1-.707-.293l-5.345-5.343a1,1,0,0,1,0-1.414l2.224-2.223a1,1,0,0,1,1.413,0l2.414,2.41,6.689-6.691a1,1,0,0,1,.707-.293h0a1,1,0,0,1,.707.293l2.223,2.225a1,1,0,0,1,0,1.414l-9.618,9.624A1,1,0,0,1,345.822,48.46Zm-3.931-6.343,3.931,3.929,8.2-8.209-.809-.811-6.688,6.69a1,1,0,0,1-1.413,0l-2.414-2.41Z"/><path class="cls-4" d="M15.572,102.239A15.575,15.575,0,1,0,0,86.664,15.606,15.606,0,0,0,15.572,102.239Z"/><path class="cls-5" d="M17.786,101.014a16.679,16.679,0,0,1-1.961-.117,1,1,0,0,1-.875-1.112,1.011,1.011,0,0,1,1.112-.875,14.556,14.556,0,0,0,1.725.1,15.074,15.074,0,0,0,4.608-.745,1,1,0,1,1,.634,1.9,16.486,16.486,0,0,1-5.23.847ZM9.414,98.555a.993.993,0,0,1-.539-.159,16.688,16.688,0,0,1-3.946-3.53,1,1,0,0,1,1.553-1.261,14.7,14.7,0,0,0,3.473,3.108,1,1,0,0,1-.541,1.841ZM28.639,96.6a1,1,0,0,1-.7-1.717,14.659,14.659,0,0,0,2.787-3.735,1,1,0,0,1,1.772.926,16.645,16.645,0,0,1-3.166,4.244A1,1,0,0,1,28.639,96.6Zm-26-7.595a1,1,0,0,1-.972-.771,16.588,16.588,0,0,1-.441-3.8q0-.748.066-1.481a1,1,0,0,1,1.992.178q-.058.645-.058,1.3a14.6,14.6,0,0,0,.387,3.342,1,1,0,0,1-.744,1.2A.983.983,0,0,1,2.637,89.01ZM33.367,85.9h-.029a1,1,0,0,1-.971-1.028c0-.145.006-.29.006-.436a14.5,14.5,0,0,0-.613-4.182,1,1,0,1,1,1.915-.576,16.5,16.5,0,0,1,.7,4.758c0,.164,0,.329-.007.492A1,1,0,0,1,33.367,85.9ZM4.437,77.449a1,1,0,0,1-.856-1.515,16.679,16.679,0,0,1,3.412-4.048A1,1,0,0,1,8.3,73.4a14.672,14.672,0,0,0-3,3.563A1,1,0,0,1,4.437,77.449Zm24.848-2.512a1,1,0,0,1-.738-.325,14.682,14.682,0,0,0-3.65-2.9,1,1,0,1,1,.979-1.744,16.684,16.684,0,0,1,4.147,3.291,1,1,0,0,1-.737,1.675Zm-15.51-4.545a1,1,0,0,1-.259-1.966,16.636,16.636,0,0,1,5.27-.533,1,1,0,1,1-.117,2,14.7,14.7,0,0,0-4.634.468A1,1,0,0,1,13.775,70.392Z"/><path class="cls-4" d="M16,77.721l3.357.9,3.357.9.9,3.357.9,3.358L22.054,88.7,19.6,91.156l-3.36-.9-3.361-.9L11.979,86l-.9-3.359L13.54,80.18,16,77.721Zm2.339,8.733a2.086,2.086,0,1,0-2.557-1.476A2.086,2.086,0,0,0,18.338,86.454Z"/><path class="cls-9" d="M19.6,92.156a1,1,0,0,1-.259-.034l-6.721-1.8a1,1,0,0,1-.708-.708l-1.8-6.715a1,1,0,0,1,.259-.965l4.918-4.917a1,1,0,0,1,.966-.259l6.713,1.8a1,1,0,0,1,.707.707l1.8,6.716a1,1,0,0,1-.259.967l-4.917,4.917A1,1,0,0,1,19.6,92.156Zm-5.9-3.618,5.6,1.5,4.1-4.1-1.5-5.6-5.6-1.5-4.1,4.1ZM17.8,87.525a3.086,3.086,0,0,1-.8-6.068,3.087,3.087,0,0,1,1.6,5.963h0A3.1,3.1,0,0,1,17.8,87.525Zm.539-1.071h0Zm-.538-3.1a1.073,1.073,0,0,0-.282.038,1.086,1.086,0,1,0,1.22,1.592,1.087,1.087,0,0,0-.938-1.629Z"/><rect class="cls-2" x="260.766" y="143.063" width="23.046" height="4.349"/><path class="cls-5" d="M283.813,148.412H260.767a1,1,0,0,1-1-1v-4.35a1,1,0,0,1,1-1h23.046a1,1,0,0,1,1,1v4.35A1,1,0,0,1,283.813,148.412Zm-22.046-2h21.046v-2.35H261.767Z"/><rect class="cls-2" x="260.766" y="151.964" width="34.076" height="4.349"/><path class="cls-5" d="M294.843,157.313H260.767a1,1,0,0,1-1-1v-4.35a1,1,0,0,1,1-1h34.076a1,1,0,0,1,1,1v4.35A1,1,0,0,1,294.843,157.313Zm-33.076-2h32.076v-2.35H261.767Z"/><rect class="cls-2" x="260.766" y="160.861" width="27.124" height="4.353"/><path class="cls-5" d="M287.89,166.214H260.767a1,1,0,0,1-1-1v-4.353a1,1,0,0,1,1-1H287.89a1,1,0,0,1,1,1v4.353A1,1,0,0,1,287.89,166.214Zm-26.123-2H286.89v-2.353H261.767Z"/><circle class="cls-2" cx="74.799" cy="49.622" r="3.56"/><path class="cls-11" d="M74.8,54.183a4.561,4.561,0,1,1,4.555-4.562A4.568,4.568,0,0,1,74.8,54.183Zm0-7.121a2.561,2.561,0,1,0,2.555,2.56A2.565,2.565,0,0,0,74.8,47.062Z"/><path class="cls-12" d="M285.3,96.55l29.759,18.1a2.98,2.98,0,1,1-1.593,2.756l-29.043-15.894a6.016,6.016,0,0,1-.76.914,5.91,5.91,0,0,1-.913.755l15.9,29.05a2.981,2.981,0,1,1-2.759,1.59l-18.1-29.761a6.2,6.2,0,1,1,5.874-10.4A6.1,6.1,0,0,1,285.3,96.55Zm-15.319-3.576,4.23-4.228-6.627-6.629-4.23,4.228,6.626,6.629Zm11.327,6.835.015-.018.022-.031.022-.022.022-.03.022-.022.022-.029.014-.025.023-.027.021-.027.015-.025.022-.031.015-.022.022-.034.014-.02.022-.036.008-.018.022-.04.014-.016.022-.042.008-.014.022-.043v-.013l.029-.047v-.009l.022-.051.007-.007.022-.054v0l.022-.058h0l.022-.06h0l.022-.058v0l.022-.056v-.007l.015-.053v-.009l.014-.051v-.013l.015-.047v-.016l.015-.045v-.016l.007-.045.007-.018.008-.042v-.024l.007-.038v-.025l.007-.036V98.3l.008-.033v-.061l.007-.033V97.9l-.007-.045v-.017l-.008-.049v-.013l-.007-.051v-.011l-.007-.052v-.009l-.008-.056v-.006l-.014-.058v0l-.015-.06v0l-.015-.06v0l-.014-.056v-.007l-.015-.053v-.009l-.015-.05-.007-.011-.015-.049-.007-.013-.015-.045-.007-.016-.014-.044-.008-.018-.015-.04-.014-.02-.015-.038-.007-.022-.022-.035-.007-.025-.015-.031-.015-.027-.036-.058-.015-.027-.015-.03-.014-.026-.022-.033-.015-.02-.022-.037-.015-.018-.022-.038-.014-.014-.03-.04-.007-.013-.029-.041-.015-.011-.029-.041-.007-.009-.037-.043-.007-.007-.037-.045-.007,0-.043-.045v0l-.051-.047-.13-.125a2.686,2.686,0,0,0-3.789,3.792l.123.132.051.045v0l.043.042.007.005.043.04.008.005.043.037.007.007.043.034.015.007.036.031.015.011.037.027.021.011.037.026.015.013.036.022.023.014.036.02.022.014.029.018.03.016.029.014.029.016.029.014.03.015.022.013.036.016.022.011.037.016.022.009.043.016.015.007.044.016.014.005.051.018.007,0,.05.016.007,0,.058.017.007,0,.051.014.007,0,.058.015h0l.065.014.057.013h0l.065.011v0l.058.009.007,0,.051.005.015,0,.05.005.015,0,.044,0,.022,0,.043,0,.022,0,.036,0,.022,0h.13l.037,0h.029l.029,0,.037,0,.029,0,.037,0,.022,0,.043-.005.022,0,.044,0,.014,0,.043-.007.022,0,.044-.009.015,0,.05-.011.015,0,.05-.013.007,0,.051-.014.007,0,.058-.014.007,0,.058-.016h0l.057-.02.058-.022v0l.057-.022.008,0,.05-.022.007,0,.051-.022.007-.005.05-.022.015-.007.043-.022.015-.007.036-.022.022-.009.037-.023.022-.011.036-.022.015-.013.037-.022.022-.014.029-.02.029-.018.03-.018.021-.02.03-.02.029-.022.022-.016.029-.026.022-.016.03-.027.022-.016.13-.125Z"/><path class="cls-4" d="M236,60.455h9.524a2.676,2.676,0,0,0,2.665-2.669v-7.04a2.676,2.676,0,0,0-2.665-2.669h-13.97a2.679,2.679,0,0,0-2.672,2.669v7.04a2.679,2.679,0,0,0,2.672,2.669v3.558Z"/><path class="cls-5" d="M231.551,65.013a1,1,0,0,1-1-1v-2.7a3.676,3.676,0,0,1-2.673-3.531v-7.04a3.675,3.675,0,0,1,3.673-3.668h13.97a3.671,3.671,0,0,1,3.666,3.668v7.04a3.672,3.672,0,0,1-3.666,3.669h-9.173l-4.172,3.338A1,1,0,0,1,231.551,65.013Zm0-15.935a1.672,1.672,0,0,0-1.673,1.668v7.04a1.672,1.672,0,0,0,1.673,1.669,1,1,0,0,1,1,1v1.477l2.821-2.257a1,1,0,0,1,.625-.219h9.523a1.669,1.669,0,0,0,1.666-1.669v-7.04a1.669,1.669,0,0,0-1.666-1.668Z"/><path class="cls-5" d="M243.957,53.081H232.883a1,1,0,0,1,0-2h11.074a1,1,0,0,1,0,2Z"/><path class="cls-5" d="M238.424,56.642h-5.541a1,1,0,0,1,0-2h5.541a1,1,0,0,1,0,2Z"/><path class="cls-4" d="M119.284,112.213h-9.521a2.678,2.678,0,0,1-2.668-2.669V102.5a2.677,2.677,0,0,1,2.668-2.669h13.968A2.679,2.679,0,0,1,126.4,102.5v7.04a2.679,2.679,0,0,1-2.672,2.669v3.56Z"/><path class="cls-5" d="M123.731,116.773a1,1,0,0,1-.625-.22l-4.173-3.34h-9.169a3.673,3.673,0,0,1-3.668-3.669V102.5a3.673,3.673,0,0,1,3.668-3.669h13.968A3.675,3.675,0,0,1,127.4,102.5v7.04a3.675,3.675,0,0,1-2.672,3.531v2.7a1,1,0,0,1-1,1Zm-13.968-15.937A1.67,1.67,0,0,0,108.1,102.5v7.04a1.671,1.671,0,0,0,1.668,1.669h9.521a1,1,0,0,1,.625.22l2.822,2.259v-1.479a1,1,0,0,1,1-1,1.673,1.673,0,0,0,1.672-1.669V102.5a1.672,1.672,0,0,0-1.672-1.669Z"/><path class="cls-5" d="M122.4,104.839H111.321a1,1,0,0,1,0-2H122.4a1,1,0,0,1,0,2Z"/><path class="cls-5" d="M119.509,108.4h-8.188a1,1,0,0,1,0-2h8.188a1,1,0,0,1,0,2Z"/><path class="cls-4" d="M221.237,159.572h9.517a2.677,2.677,0,0,1,2.672,2.669v7.04a2.679,2.679,0,0,1-2.672,2.669H216.783a2.677,2.677,0,0,1-2.665-2.669v-7.04a2.678,2.678,0,0,1,2.665-2.669v-3.559Z"/><path class="cls-5" d="M230.754,172.95H216.782a3.67,3.67,0,0,1-3.664-3.669v-7.04a3.676,3.676,0,0,1,2.664-3.53v-2.7a1,1,0,0,1,1.624-.781l4.181,3.341h9.167a3.674,3.674,0,0,1,3.672,3.669v7.04A3.674,3.674,0,0,1,230.754,172.95Zm-12.972-14.858v1.48a1,1,0,0,1-1,1,1.668,1.668,0,0,0-1.664,1.669v7.04a1.668,1.668,0,0,0,1.664,1.669h13.972a1.673,1.673,0,0,0,1.672-1.669v-7.04a1.673,1.673,0,0,0-1.672-1.669h-9.518a1,1,0,0,1-.624-.219Z"/><path class="cls-5" d="M229.2,165.022H218.122a1,1,0,1,1,0-2H229.2a1,1,0,0,1,0,2Z"/><path class="cls-5" d="M227.77,168.582h-9.647a1,1,0,0,1,0-2h9.647a1,1,0,0,1,0,2Z"/><path class="cls-1" d="M13.855,115.458H12.309v10.809h1.546V115.458Zm-1.546,12.356v1.546h10.81v-1.546H12.309Zm-1.546,2.318v-3.067h0v-.022h0V114.687a.776.776,0,0,1,.775-.775H26.986a.772.772,0,0,1,.768.775v15.445a.769.769,0,0,1-.768.772H11.537a.773.773,0,0,1-.775-.772Zm4.635-3.864h7.721v-7.721H15.4v7.721Zm9.267-7.721V129.36h1.546V118.547ZM15.4,117H26.211v-1.542H15.4Z"/><path class="cls-1" d="M336.494,144.167h-2.411l1.564,2.705,1.565,2.705,1.2-2.086c-.152-.127-.3-.257-.442-.395v-.007a5.2,5.2,0,0,1-1.478-2.922Zm3.252,4.1-1.2,2.082h6.244l-1.2-2.082a5.265,5.265,0,0,1-3.839,0Zm5.172-.771,1.209,2.086,1.564-2.705,1.557-2.705h-2.4a5.237,5.237,0,0,1-1.477,2.922l-.007.007a5.325,5.325,0,0,1-.442.395Zm1.919-4.867h2.411l-1.557-2.705-1.564-2.705-1.209,2.086a4.3,4.3,0,0,1,.442.4h.007a5.206,5.206,0,0,1,1.47,2.926Zm-3.252-4.1,1.2-2.082h-6.244l1.2,2.082a5.265,5.265,0,0,1,3.839,0Zm-5.171.771-1.2-2.086-1.565,2.705-1.564,2.705h2.411a5.216,5.216,0,0,1,1.478-2.926h0a5.047,5.047,0,0,1,.442-.4Zm5.859,1.488a3.69,3.69,0,0,1,0,5.214v0a3.7,3.7,0,0,1-5.215,0v0a3.69,3.69,0,0,1,0-5.214v0a3.7,3.7,0,0,1,5.215,0v0Zm-12.153,3.053-.015-.014a.777.777,0,0,1,0-.862l.015-.014,2.194-3.8,2.217-3.846.007-.014h.008v-.015l.007,0v0l.007-.011h0l.008-.015h.007v-.007l.007-.007v-.007l.015-.007v0h0l.007-.007v-.007l.007,0,.008-.011h0l.007-.011.008,0v0l.007-.011.014-.007v-.007l.008,0,.007-.007h0l.008-.011.007,0v0l.014-.011.008-.007.007,0,.007,0,.008-.007h0l.007-.011.007,0,.008,0,.007-.007h0l.007-.007.008,0,.007,0,.007,0,.008,0,.007-.007.007,0h0l.015-.007v0l.007,0,.015,0h0l.007-.007.008,0,.007,0,.007,0h0l.015-.007h.007v0l.015,0v0l.014,0,.008,0h0l.015,0v0h.007l.014,0,.015,0v0h.008l.014,0h0l.007,0,.008,0h.007l.015,0h0l.014,0h.008l.014,0h.015l.007,0h0l.015,0h.037v0h.065v0h8.915a.77.77,0,0,1,.529.21v0a.9.9,0,0,1,.166.221l2.2,3.813,2.195,3.8.007.014a.792.792,0,0,1,.131.431.739.739,0,0,1-.131.431l-.007.014-2.195,3.8-2.216,3.831-.008.011-.007.011v.007l-.007,0v.011l-.008.011h0l-.007.011h0l-.007.007v0l-.008.011h0l-.007.007v0l-.007.007v0l-.008.007-.007.011-.007.007v0l-.015.007v0l-.007.007h0l-.007.011h0l-.008.007v0l-.007.007h0l-.015.007h0l-.007.011h0l-.007.007h0l-.008.007h-.007l-.008.011h0l-.007.007h0l-.014.007-.008.011-.007.007h0l-.015.007h0l-.007,0v0l-.007.007h-.008l-.007,0v0l-.007,0-.008,0-.007,0v0l-.007,0-.008,0-.007,0-.007,0v0l-.015,0-.007,0h0l-.015.007h0l-.015.007-.007,0h0l-.007,0-.008,0h-.007l-.015.007h0l-.007,0-.007,0h-.007l-.015,0-.008,0-.007,0h-.007l-.015,0h0l-.007,0-.008,0h-.007l-.007,0h-.007l-.008,0h-.014l-.008,0h-.007l-.007,0h-.022l-.008,0H346.2l-.014,0h-.058v0h-8.915a.766.766,0,0,1-.7-.435l-2.2-3.813Z"/><path class="cls-5" d="M319.235,186.5H49.662a5.705,5.705,0,0,1-5.7-5.7V33.755a5.7,5.7,0,0,1,5.7-5.7H319.235a5.708,5.708,0,0,1,5.7,5.7V180.8A5.709,5.709,0,0,1,319.235,186.5ZM49.662,30.557a3.2,3.2,0,0,0-3.2,3.2V180.8a3.2,3.2,0,0,0,3.2,3.2H319.235a3.207,3.207,0,0,0,3.2-3.2V33.755a3.205,3.205,0,0,0-3.2-3.2Z"/><path class="cls-1" d="M312.876,203.049v.007l.015.018.007.018.891,1.542a.776.776,0,0,0,.666.388H328.94a.768.768,0,0,0,.7-.432l.855-1.481.007-.018h.007l.022-.043v-.007l.869-1.5a.79.79,0,0,0,0-.771h0l-7.242-12.544a.771.771,0,0,0-.71-.384h-3.484a.77.77,0,0,0-.709.384l-7.243,12.544h0a.773.773,0,0,0,0,.771l.869,1.5Zm16.68-1.394-1.833-1.061-5.251-9.089v-2.119h.565l6.8,11.776-.282.493Zm-3.73-1.267h-8.249l4.121-7.145,4.128,7.145Zm-10.147.206-.471.275-1.361.786-.283-.493,6.8-11.776h.565V191.5l-5.207,9.017-.043.072Zm-1.065,2.394,1.833-1.053h10.509l1.825,1.053-.283.489H314.9Z"/><path class="cls-1" d="M278.808,216.23v2.408l2.7-1.561,2.709-1.564-2.093-1.206c-.124.156-.254.3-.391.445l-.007,0a5.249,5.249,0,0,1-2.919,1.474Zm4.092-3.255,2.085,1.206v-6.247l-2.085,1.2a5.271,5.271,0,0,1,0,3.839Zm-.775-5.171,2.093-1.207-2.709-1.564-2.7-1.561v2.408a5.232,5.232,0,0,1,2.919,1.478l.007,0a5.18,5.18,0,0,1,.391.442Zm-4.867-1.92v-2.411l-2.7,1.561-2.709,1.564,2.093,1.207a5.019,5.019,0,0,1,.392-.442l.007,0a5.2,5.2,0,0,1,2.919-1.475Zm-4.092,3.252-2.085-1.2v6.247l2.085-1.206a5.271,5.271,0,0,1,0-3.839Zm.775,5.172-2.093,1.206,2.709,1.564,2.7,1.561V216.23a5.246,5.246,0,0,1-2.919-1.474l-.007,0a5.786,5.786,0,0,1-.392-.445Zm1.485-5.859a3.7,3.7,0,0,1,5.214,0h0a3.69,3.69,0,0,1,0,5.214v0a3.7,3.7,0,0,1-5.214,0v0a3.688,3.688,0,0,1,0-5.214Zm3.056,12.156-.022.01a.734.734,0,0,1-.427.131.778.778,0,0,1-.435-.131l-.014-.01-3.8-2.195-3.838-2.22-.023-.007v0l-.007,0-.007,0-.007,0-.008-.007h0l-.015-.007v0l-.007,0-.007-.007h-.007l-.008-.01h-.007l-.007-.008-.008,0v0l-.007-.007h0l-.015-.008v-.007l-.007,0-.007-.008-.015-.007v-.007l-.007,0-.008-.011h0l-.007-.007-.007,0-.008,0-.007-.011-.007-.01-.008,0v-.007l-.007-.007h0l-.007-.011-.008,0v-.007l-.007-.008v0l-.007-.007-.007-.007v0l-.008-.01v0l-.007-.008-.008-.007v0l-.007-.01v0l-.007-.007-.007-.01h0l-.008-.011v-.01l-.007-.011h0l-.008-.01v-.011l-.007-.01v0l-.007-.01v-.011l-.007-.011v0l-.008-.008v-.011l-.007-.015v-.01l-.008-.011h0v-.017l-.007-.008v-.01h0v-.015l-.007-.007v-.025l-.007-.011v-.054h0v-.022l-.008-.015v-.025h0V206.6a.771.771,0,0,1,.435-.7l3.809-2.2,3.8-2.194.014-.007a.781.781,0,0,1,.435-.134.713.713,0,0,1,.427.134l.022.007,3.8,2.194,3.845,2.22.022.01h0l.008,0,.007,0,.007,0,.008.007h0l.014.011h0l.008.007.007,0,.007,0,.008.008h.007l.007.007v0l.008,0,.007.008v0l.014.007v0l.008,0,.007.007.015.01v0l.007,0,.007.01h0l.008.007.007.008v0l.015.01.007.008v0l.007.007.008.008v0l.007.007.007.007v0l.008.011h0l.007.007.007.011h0l.008.01v0l.007.007.007.01h0l.008.011v0l.007.007v.008l.007,0v.01l.008.008v0l.007.007v0l.007.008v.014l.008.011h0l.007.01v.015l.007.01h0v.011h0l.008.01v0l.007.011h0v.01h0l.007.011h0v.025l.008.011v.025h.007v.036l.007.011v.025h0v.04l.008.011v.025h0v8.916a.783.783,0,0,1-.435.7l-3.816,2.2Z"/><path class="cls-1" d="M101.529,194.235H99.121l1.561,2.7,1.562,2.709,1.209-2.09a4.542,4.542,0,0,1-.442-.395l-.007,0a5.246,5.246,0,0,1-1.475-2.923Zm3.256,4.092-1.2,2.086h6.243l-1.2-2.086a5.217,5.217,0,0,1-3.838,0Zm5.171-.772,1.206,2.09,1.561-2.709,1.564-2.7h-2.408a5.24,5.24,0,0,1-1.474,2.923l-.007,0a4.542,4.542,0,0,1-.442.395Zm1.919-4.867h2.412l-1.564-2.7-1.561-2.705-1.206,2.086a5.121,5.121,0,0,1,.442.394l.007,0a5.213,5.213,0,0,1,1.47,2.923Zm-3.252-4.092,1.2-2.082h-6.243l1.2,2.082a5.216,5.216,0,0,1,3.838,0Zm-5.171.772-1.209-2.086-1.562,2.705-1.561,2.7h2.412a5.213,5.213,0,0,1,1.47-2.923l.007,0a5.121,5.121,0,0,1,.442-.394Zm5.859,1.488a3.684,3.684,0,0,1,0,5.211v.007a3.706,3.706,0,0,1-5.214,0v-.007a3.684,3.684,0,0,1,0-5.211v0a3.7,3.7,0,0,1,5.214,0v0Zm-12.156,3.053-.011-.015a.8.8,0,0,1-.13-.431.782.782,0,0,1,.13-.435l.011-.015,2.195-3.8,2.219-3.846.008-.014v0l.007-.011.007,0v-.007l.007-.007v0l.008-.011,0,0,0-.007.008-.007v0l.007-.011h0l0,0v-.007l.007,0,0,0,.011-.011h0l.007-.011,0,0,0,0,.007-.011.007-.011.008,0,0,0,.01-.011h0l.008-.007.007,0v-.007l.015-.007.007-.007,0,0,0,0,.011-.011h0l.007-.007.008,0v0l.014-.007h0l.008-.007.007,0,0,0,.011-.007h0l.007-.007.011,0v0l.01,0,0,0,.007,0,.011,0v0l.011,0,.007,0,0,0,.01,0v0l.015,0,.008,0h0l.014,0v0l.007,0,.011,0h0l.011,0,0,0h.007l.015-.007.007,0h.007l.008,0,.014,0h.008l.007,0h.007l.011,0h0l.007,0,.008,0h.022l.01,0h.011l.01,0h.025l.015,0h.022l.014,0h8.941a.778.778,0,0,1,.532.21v0a.742.742,0,0,1,.163.22l2.2,3.813,2.195,3.8.01.015a.8.8,0,0,1,.131.435.792.792,0,0,1-.131.431l-.01.015-2.195,3.8-2.212,3.835-.007.011-.008.011v.007l-.007,0v.007l0,0,0,.007,0,0,0,.007,0,0,0,.007v0l-.007.007,0,0,0,.007h0l-.01.011h0l-.007.011-.008.011-.007.007v0l-.011.007h0l-.007.011h0l-.007.007v0l-.008.007h0l-.01.011h0l-.011.007h0l-.007.011h0l-.007.007h0l-.015.007h0l-.007.007h0l-.008.011h0l-.01.007-.007.007-.011.011h0l-.011,0h0l-.007.007,0,0-.011,0v0l-.008,0,0,0-.007,0,0,0-.007,0,0,0-.007,0h0l-.008.007-.01,0h0l-.011.007-.007,0h0l-.011.007h0l-.014,0-.008,0v0l-.014,0v0h-.011l-.011.007h0l-.011,0h0l-.007,0-.015,0-.01,0,0,0h-.007l-.015,0h0l-.007,0-.007,0h-.008l-.014,0h0l-.011,0h-.01l-.011,0h-.011l-.011,0h-.018l-.01,0h-.04l-.007,0h-.04v0h-8.919a.772.772,0,0,1-.692-.434l-2.2-3.817Z"/><path class="cls-1" d="M55.941,208.133v0l-1.093,1.09,7.648,7.644,1.093-1.094L57.607,209.8l-.014-.01-.015-.015-1.637-1.641Zm7.648,9.832,1.09,1.09,7.644-7.644-1.093-1.09-5.989,5.989-.015.014-1.636,1.641Zm.543,2.731-2.187-2.184-8.734-8.738a.769.769,0,0,1,0-1.093l2.184-2.184v0l.018-.011.014-.014,8.705-8.709a.776.776,0,0,1,1.094,0l2.184,2.184h0l.01.014.015.014,8.709,8.709v0h0a.776.776,0,0,1,0,1.09L74,211.914l-.015.015-.014.015-.015.014L65.226,220.7a.777.777,0,0,1-1.094,0Zm.547-6.008-5.457-5.461,5.457-5.461,5.461,5.461-5.461,5.461Zm1.093-12.016h0l1.09-1.09,7.648,7.645-1.094,1.094-7.644-7.648Zm-1.641-.547,1.637-1.637-1.09-1.09-7.645,7.641v0l1.094,1.09,5.975-5.978.015-.015Z"/><path class="cls-1" d="M11.016,200.855l0,.007.011.018.007.018.891,1.542a.779.779,0,0,0,.67.384v0H27.084a.772.772,0,0,0,.7-.435l.851-1.481.014-.014h0l.022-.043,0-.011.866-1.5a.773.773,0,0,0,0-.768h0l-7.243-12.548a.776.776,0,0,0-.709-.384H18.1a.776.776,0,0,0-.709.384L10.147,198.58h0a.773.773,0,0,0,0,.768l.869,1.507ZM27.7,199.46,25.863,198.4l-5.251-9.09v-2.122h.565l6.8,11.78-.282.492Zm-3.73-1.267h-8.25l4.125-7.145,4.125,7.145Zm-10.147.206-.471.272-1.362.789-.282-.492,6.8-11.78h.565v2.122l-5.207,9.013-.044.076Zm-1.061,2.394,1.829-1.054H25.1l1.829,1.054-.283.489H13.04Z"/><path class="cls-13" d="M40.341,180.311H327.405a2.665,2.665,0,0,1,2.665,2.665v3.367a2.669,2.669,0,0,1-2.669,2.669H40.345a2.669,2.669,0,0,1-2.669-2.669v-3.368a2.665,2.665,0,0,1,2.665-2.665Z"/><path class="cls-5" d="M327.405,190.263H40.341a3.921,3.921,0,0,1-3.915-3.919V182.98a3.921,3.921,0,0,1,3.915-3.919H327.405a3.921,3.921,0,0,1,3.915,3.919v3.363A3.921,3.921,0,0,1,327.405,190.263Zm-287.064-8.7a1.419,1.419,0,0,0-1.415,1.419v3.363a1.419,1.419,0,0,0,1.415,1.419H327.405a1.419,1.419,0,0,0,1.415-1.419V182.98a1.436,1.436,0,0,0-1.415-1.419Z"/><path class="cls-4" d="M195.229,205.479A15.575,15.575,0,1,0,179.657,189.9,15.606,15.606,0,0,0,195.229,205.479Z"/><path class="cls-5" d="M192.563,209.147a16.923,16.923,0,0,1-1.972-.117,1,1,0,1,1,.236-1.986,14.687,14.687,0,0,0,6.332-.642,1,1,0,1,1,.635,1.9A16.467,16.467,0,0,1,192.563,209.147Zm-8.384-2.457a1,1,0,0,1-.54-.158A16.741,16.741,0,0,1,179.694,203a1,1,0,1,1,1.552-1.262,14.7,14.7,0,0,0,3.475,3.107,1,1,0,0,1-.542,1.842Zm19.223-1.953a1,1,0,0,1-.7-1.718,14.673,14.673,0,0,0,2.786-3.734,1,1,0,0,1,1.773.926,16.7,16.7,0,0,1-3.167,4.244A1,1,0,0,1,203.4,204.737Zm-26-7.589a1,1,0,0,1-.972-.77,16.547,16.547,0,0,1-.442-3.806c0-.5.023-.99.066-1.477a1,1,0,1,1,1.992.176q-.057.645-.059,1.3a14.535,14.535,0,0,0,.388,3.343,1,1,0,0,1-.743,1.2A1.041,1.041,0,0,1,177.4,197.148Zm30.732-3.114H208.1a1,1,0,0,1-.967-1.031c0-.141.006-.281,0-.423a14.515,14.515,0,0,0-.613-4.19,1,1,0,1,1,1.914-.576,16.484,16.484,0,0,1,.7,4.761c0,.161,0,.327-.007.493A1,1,0,0,1,208.131,194.034ZM179.2,185.587a1,1,0,0,1-.856-1.515,16.657,16.657,0,0,1,3.412-4.05,1,1,0,0,1,1.306,1.516,14.661,14.661,0,0,0-3,3.563A1,1,0,0,1,179.2,185.587Zm24.849-2.518a1,1,0,0,1-.737-.324,14.7,14.7,0,0,0-3.652-2.9,1,1,0,0,1,.98-1.744,16.732,16.732,0,0,1,4.146,3.29,1,1,0,0,1-.737,1.676Zm-15.511-4.542a1,1,0,0,1-.258-1.966,16.786,16.786,0,0,1,5.268-.534,1,1,0,0,1,.94,1.056,1.01,1.01,0,0,1-1.056.94,14.747,14.747,0,0,0-4.635.47A.994.994,0,0,1,188.534,178.527Z"/><polygon class="cls-4" points="192.448 191.352 193.781 183.787 186.444 194.688 191.782 194.688 190.449 202.249 197.786 191.352 192.448 191.352"/><path class="cls-8" d="M190.449,203.249a1,1,0,0,1-.984-1.174l1.125-6.388h-4.146a1,1,0,0,1-.83-1.559l7.338-10.9a1,1,0,0,1,1.813.732l-1.126,6.392h4.146a1,1,0,0,1,.829,1.559l-7.337,10.9A1,1,0,0,1,190.449,203.249Zm-2.127-9.562h3.459a1,1,0,0,1,.984,1.174l-.514,2.921,3.655-5.43h-3.459a1,1,0,0,1-.984-1.174l.515-2.923Z"/><path class="cls-1" d="M147.733,200.351l-1.829-1.057.283-.489h13.6l.282.489-1.829,1.057H147.733Zm13.109.279.283.492-6.8,11.776h-.565v-2.122l5.251-9.089,1.832-1.057Zm-3.73,1.267h-8.249l4.124,7.145,4.124-7.145Zm-4.084,12.541h1.7a.778.778,0,0,0,.71-.384l7.243-12.544h0a.784.784,0,0,0,0-.772l-.866-1.5,0-.011-.022-.04h0l-.015-.018-.851-1.481a.77.77,0,0,0-.7-.431H145.745a.778.778,0,0,0-.67.384l-.891,1.546-.008.018-.01.014,0,.007-.869,1.506a.78.78,0,0,0,0,.772h0l7.242,12.544a.778.778,0,0,0,.71.384h1.782Zm-6.062-12.751,5.25,9.089V212.9h-.565l-6.8-11.776.282-.492Z"/><path class="cls-1" d="M231.608,195.879h-1.542v10.809h1.542V195.879Zm-1.542,12.356v1.546h10.813v-1.546H230.066Zm-1.542,2.317v-3.071h0v-.018h0V195.1a.769.769,0,0,1,.767-.771h15.448a.775.775,0,0,1,.775.771v15.448a.773.773,0,0,1-.775.772H229.291a.767.767,0,0,1-.767-.772Zm4.628-3.864h7.728v-7.72h-7.728v7.72Zm9.27-7.72v10.813h1.542V198.968Zm-9.27-1.546h10.812v-1.542H233.151Z"/><path class="cls-1" d="M346.713,174.633h0l-1.094,1.09,7.648,7.644,1.093-1.09-5.983-5.979-.014-.014-.015-.014-1.637-1.637Zm7.648,9.828,1.094,1.093,7.641-7.648L362,176.817l-5.99,5.993-.014.015-1.637,1.637Zm.543,2.73-2.187-2.184-8.734-8.738a.769.769,0,0,1,0-1.094l2.187-2.184h0l.015-.014.014-.014,8.705-8.709a.777.777,0,0,1,1.094,0l2.18,2.187h.007l.007.014.015.014,8.712,8.709h0a.771.771,0,0,1-.007,1.09l-2.137,2.14-.015.014-.014.015-.015.014L356,187.192a.777.777,0,0,1-1.094,0Zm.551-6.008-5.461-5.461,5.461-5.458,5.454,5.458-5.454,5.461Zm1.087-12.012v0l1.093-1.09,7.648,7.648-1.094,1.09-7.648-7.644Zm-1.637-.55,1.637-1.637-1.087-1.09-7.648,7.644h0l1.093,1.09,5.975-5.975.015-.015Z"/><path class="cls-12" d="M30.933,151.508l12.1-45.161,45.157,12.1L30.933,151.508Zm12.059-15.061,26.131-15.086L48.51,115.838Z"/><path class="cls-4" d="M34.938,152.4l12.1-45.162,45.161,12.1L34.938,152.4Zm12.055-15.061,26.135-15.09-20.613-5.522Z"/><path class="cls-14" d="M34.938,153.4a1,1,0,0,1-.966-1.259l12.1-45.162a1,1,0,0,1,1.225-.707l45.161,12.1A1,1,0,0,1,92.7,120.2L35.438,153.265A1,1,0,0,1,34.938,153.4Zm12.805-44.937L36.529,150.325l53.078-30.648Zm-.75,29.877a1,1,0,0,1-.966-1.259l5.522-20.612a1,1,0,0,1,1.225-.707l20.612,5.522a1,1,0,0,1,.241,1.832L47.493,138.2A1,1,0,0,1,46.993,138.338Zm6.229-20.388-4.639,17.314,21.953-12.676Z"/><rect class="cls-14" x="57.395" y="135.074" width="2" height="3.509" transform="translate(-60.642 47.597) rotate(-30.033)"/><rect class="cls-14" x="53.1" y="137.554" width="2" height="3.509" transform="translate(-62.46 45.78) rotate(-30.033)"/><rect class="cls-14" x="48.805" y="140.032" width="2" height="3.509" transform="translate(-64.276 43.963) rotate(-30.033)"/><rect class="cls-14" x="44.509" y="142.517" width="1.999" height="3.504" transform="translate(-66.066 42.114) rotate(-30.016)"/><rect class="cls-14" x="40.213" y="144.994" width="2" height="3.507" transform="translate(-67.81 40.224) rotate(-29.977)"/><rect class="cls-14" x="83.165" y="120.196" width="2" height="3.508" transform="translate(-49.681 58.384) rotate(-29.984)"/><rect class="cls-14" x="78.87" y="122.676" width="2" height="3.508" transform="translate(-51.486 56.551) rotate(-29.976)"/><rect class="cls-14" x="74.576" y="125.156" width="2" height="3.508" transform="translate(-53.3 54.737) rotate(-29.976)"/><rect class="cls-14" x="70.281" y="127.637" width="1.999" height="3.504" transform="translate(-55.166 53.011) rotate(-30.016)"/><rect class="cls-14" x="65.986" y="130.118" width="1.999" height="3.504" transform="translate(-56.983 51.195) rotate(-30.016)"/><rect class="cls-14" x="61.691" y="132.595" width="2" height="3.508" transform="translate(-58.73 49.28) rotate(-29.969)"/><path class="cls-5" d="M308.012,144.3h-.043a4.934,4.934,0,0,1-3.4-1.332,1,1,0,0,1,1.412-1.416,3.02,3.02,0,0,0,2.074.75,1,1,0,0,1-.041,2Zm6.258-1.555a1,1,0,0,1-.4-1.915q.87-.384,1.791-.858.406-.209.82-.436a1,1,0,0,1,.959,1.756c-.292.159-.579.312-.864.458-.649.334-1.284.639-1.9.91A1,1,0,0,1,314.27,142.742Zm8.176-4.807a1,1,0,0,1-.582-1.813q1.172-.836,2.371-1.771a1,1,0,0,1,1.229,1.578q-1.23.959-2.437,1.819A.993.993,0,0,1,322.445,137.936Zm7.366-5.99a1,1,0,0,1-.674-1.739q1.081-.984,2.158-2.035a1,1,0,0,1,1.4,1.432q-1.1,1.074-2.207,2.082A1,1,0,0,1,329.812,131.945Zm-22.053-1.532a1,1,0,0,1-.861-1.506c.5-.85,1.042-1.722,1.619-2.591a1,1,0,0,1,1.666,1.105c-.556.839-1.081,1.679-1.561,2.5A1,1,0,0,1,307.759,130.413Zm28.729-5.222a1,1,0,0,1-.747-1.665q1-1.126,1.935-2.248a1,1,0,0,1,1.539,1.277q-.954,1.147-1.979,2.3A1,1,0,0,1,336.488,125.191ZM313.2,122.636a1,1,0,0,1-.777-1.629q.936-1.157,1.95-2.326a1,1,0,0,1,1.51,1.311q-.99,1.141-1.9,2.273A1,1,0,0,1,313.2,122.636Zm29.176-4.893a1,1,0,0,1-.822-1.567c.571-.828,1.113-1.659,1.611-2.469a1,1,0,1,1,1.7,1.047c-.516.84-1.077,1.7-1.668,2.557A1,1,0,0,1,342.376,117.743Zm-22.811-2.155a1,1,0,0,1-.705-1.709q1.088-1.084,2.182-2.105a1,1,0,0,1,1.365,1.461q-1.069,1-2.137,2.063A1,1,0,0,1,319.565,115.588Zm27.41-6.135a1,1,0,0,1-.931-1.366,17.684,17.684,0,0,0,.842-2.706,1,1,0,1,1,1.955.419,19.486,19.486,0,0,1-.936,3.018A1,1,0,0,1,346.976,109.453Zm-20.343-.208a1,1,0,0,1-.626-1.78q1.216-.974,2.408-1.854a1,1,0,1,1,1.188,1.608q-1.16.858-2.346,1.807A1,1,0,0,1,326.633,109.246Zm7.8-5.412a1,1,0,0,1-.5-1.866q.933-.54,1.83-1c.3-.153.593-.3.884-.441a1,1,0,0,1,.869,1.8q-.413.2-.836.417-.855.441-1.745.956A1,1,0,0,1,334.433,103.833Zm11.743-3a.992.992,0,0,1-.433-.1,4.657,4.657,0,0,0-2.408-.292,1,1,0,0,1-.191-1.991,6.529,6.529,0,0,1,3.467.482,1,1,0,0,1-.435,1.9Z"/><polygon class="cls-4" points="282.117 98.789 284.595 94.496 321.582 116.994 320.098 119.572 282.117 98.789"/><path class="cls-11" d="M320.1,120.571a.99.99,0,0,1-.479-.123l-37.98-20.781a1,1,0,0,1-.386-1.377L283.729,94a1,1,0,0,1,1.386-.354l36.987,22.5a1,1,0,0,1,.347,1.354l-1.484,2.577A1,1,0,0,1,320.1,120.571ZM283.5,98.4l36.225,19.821.509-.884L284.949,95.883Z"/><polygon class="cls-4" points="278.41 100.687 282.704 98.207 303.483 136.183 300.904 137.671 278.41 100.687"/><path class="cls-11" d="M300.905,138.671a1,1,0,0,1-.855-.48l-22.5-36.984a1,1,0,0,1,.354-1.385l4.295-2.48a1,1,0,0,1,1.377.386L304.359,135.7a1,1,0,0,1-.377,1.347l-2.578,1.488A.994.994,0,0,1,300.905,138.671Zm-21.11-37.629,21.456,35.275.885-.511L282.318,99.584Z"/><circle class="cls-2" cx="281.958" cy="98.045" r="6.196" transform="translate(13.271 228.124) rotate(-45.007)"/><path class="cls-11" d="M281.958,105.242a7.2,7.2,0,0,1,0-14.394h0a7.2,7.2,0,0,1,5.089,12.284h0a7.147,7.147,0,0,1-5.089,2.11Zm0-12.394a5.2,5.2,0,1,0,3.674,8.871h0a5.2,5.2,0,0,0-3.674-8.87Z"/><circle class="cls-2" cx="281.958" cy="98.045" r="2.684" transform="translate(13.219 228.015) rotate(-44.984)"/><path class="cls-11" d="M281.956,101.73h-.007a3.686,3.686,0,0,1,0-7.372h.007a3.686,3.686,0,0,1,0,7.372Zm0-5.372h0a1.686,1.686,0,0,0,0,3.372h0a1.675,1.675,0,0,0,1.193-.495h0a1.686,1.686,0,0,0-1.194-2.876Z"/><circle class="cls-2" cx="301.203" cy="135.21" r="2.981" transform="translate(-27.251 168.725) rotate(-30.002)"/><path class="cls-11" d="M301.21,139.194a4.018,4.018,0,0,1-1.043-.139,3.986,3.986,0,0,1-.958-7.295,3.993,3.993,0,0,1,5.444,1.46,3.982,3.982,0,0,1-1.459,5.438h0A3.958,3.958,0,0,1,301.21,139.194Zm1.483-1.4h0Zm-1.5-4.565a1.982,1.982,0,1,0,1.924,2.489,1.956,1.956,0,0,0-.2-1.5A1.99,1.99,0,0,0,301.2,133.229Z"/><circle class="cls-2" cx="319.123" cy="117.292" r="2.982" transform="translate(58.028 335.068) rotate(-60.012)"/><path class="cls-11" d="M319.114,121.272a3.979,3.979,0,0,1-3.438-5.971,3.981,3.981,0,1,1,3.438,5.971Zm.016-5.961a1.989,1.989,0,0,0-1.724.992,1.958,1.958,0,0,0-.2,1.5,1.982,1.982,0,1,0,2.9-2.231A1.959,1.959,0,0,0,319.13,115.312Z"/><path class="cls-11" d="M305.273,143.256a1,1,0,0,1-.867-.5l-2.579-4.462a1,1,0,0,1,1.732-1l2.579,4.462a1,1,0,0,1-.865,1.5Z"/><path class="cls-11" d="M326.165,122.357a.994.994,0,0,1-.5-.134l-4.461-2.575a1,1,0,0,1,1-1.732l4.461,2.575a1,1,0,0,1-.5,1.866Z"/><rect class="cls-2" x="268.466" y="82.858" width="5.978" height="9.376" transform="translate(17.697 217.771) rotate(-45.041)"/><path class="cls-11" d="M272.659,93.974a1,1,0,0,1-.707-.292l-6.634-6.629a1,1,0,0,1,0-1.415l4.229-4.228a1,1,0,0,1,.707-.293h0a1,1,0,0,1,.707.293l6.626,6.629a1,1,0,0,1,0,1.414l-4.222,4.228a1,1,0,0,1-.707.293Zm-5.219-7.629,5.218,5.214,2.81-2.813-5.213-5.215Z"/><path class="cls-11" d="M277.576,94.664a1,1,0,0,1-.707-.293l-6.119-6.12a1,1,0,0,1,1.414-1.414l6.119,6.12a1,1,0,0,1-.707,1.707Z"/></svg>