<svg id="Layer_1" data-name="Layer 1" xmlns="http://www.w3.org/2000/svg" viewBox="0 0 174 130"><defs><style>.cls-1{fill:#fafafa;}.cls-1,.cls-10,.cls-11,.cls-2{fill-rule:evenodd;}.cls-2,.cls-8{fill:#fff;}.cls-3{fill:#ab65f4;}.cls-4{fill:#ff7088;}.cls-5{fill:#fbae7a;}.cls-6{fill:#5acaef;}.cls-10,.cls-7{fill:#f5fcff;}.cls-9{fill:#127ef8;}.cls-11{fill:#f6f4ef;}.cls-12{fill:#66db82;}.cls-13{fill:#e6e6e6;}</style></defs><title>advantage-02-174x130</title><path class="cls-1" d="M87.21,125.078A62.539,62.539,0,1,0,24.673,62.541,62.659,62.659,0,0,0,87.21,125.078Z"/><path class="cls-2" d="M127.2,2.708h0a4.012,4.012,0,0,1,4,4v0a4.012,4.012,0,0,1-4,4h0a4.012,4.012,0,0,1-4-4v0A4.013,4.013,0,0,1,127.2,2.708Z"/><path class="cls-3" d="M127.2,11.712a5,5,0,1,1,5-5A5.007,5.007,0,0,1,127.2,11.712Zm0-8a3,3,0,1,0,3,3.006A3.006,3.006,0,0,0,127.2,3.708Z"/><path class="cls-2" d="M60.709,123.173h0a4.012,4.012,0,0,0,4-4h0a4.011,4.011,0,0,0-4-4h0a4.012,4.012,0,0,0-4,4h0A4.012,4.012,0,0,0,60.709,123.173Z"/><path class="cls-4" d="M60.714,124.173h0a5,5,0,1,1,5-5A5.008,5.008,0,0,1,60.709,124.173Zm0-8a3,3,0,1,0,0,6h0a3,3,0,0,0,0-6Z"/><path class="cls-2" d="M60.461,2.553h0a2.509,2.509,0,0,1,2.5,2.5h0a2.509,2.509,0,0,1-2.5,2.5h0a2.506,2.506,0,0,1-2.5-2.5h0A2.506,2.506,0,0,1,60.461,2.553Z"/><path class="cls-5" d="M60.465,8.553a3.5,3.5,0,1,1,0-7h0a3.5,3.5,0,0,1,0,7Zm0-5a1.5,1.5,0,1,0,1.5,1.5,1.5,1.5,0,0,0-1.5-1.5Z"/><path class="cls-6" d="M63.692,39.7a1,1,0,0,1-.258-1.966l47.037-12.621a1,1,0,1,1,.518,1.932L63.952,39.665A.99.99,0,0,1,63.692,39.7Z"/><rect class="cls-7" x="84.222" y="21.184" width="5.981" height="65.371"/><path class="cls-6" d="M90.2,87.555H84.221a1,1,0,0,1-1-1V21.184a1,1,0,0,1,1-1H90.2a1,1,0,0,1,1,1V86.555A1,1,0,0,1,90.2,87.555Zm-4.981-2H89.2V22.184H85.221Z"/><path class="cls-6" d="M54.689,70.578a1.012,1.012,0,0,1-.265-.036,1,1,0,0,1-.7-1.228l9-32.979a1,1,0,0,1,1.93,0l9.006,32.979a1,1,0,1,1-1.93.527L63.693,40.4,55.653,69.84A1,1,0,0,1,54.689,70.578Z"/><path class="cls-6" d="M101.726,57.948a1.012,1.012,0,0,1-.265-.036,1,1,0,0,1-.7-1.228l9-32.979a1,1,0,0,1,1.93,0L120.7,56.684a1,1,0,0,1-1.93.527l-8.041-29.445L102.69,57.21A1,1,0,0,1,101.726,57.948Z"/><circle class="cls-8" cx="63.694" cy="38.702" r="2.501"/><path class="cls-9" d="M63.693,42.2a3.5,3.5,0,1,1,3.5-3.5A3.5,3.5,0,0,1,63.693,42.2Zm0-5a1.5,1.5,0,1,0,1.5,1.5A1.5,1.5,0,0,0,63.693,37.2Z"/><circle class="cls-8" cx="110.727" cy="26.078" r="2.5"/><path class="cls-9" d="M110.726,29.577a3.5,3.5,0,1,1,3.5-3.5A3.5,3.5,0,0,1,110.726,29.577Zm0-5a1.5,1.5,0,1,0,1.5,1.5A1.5,1.5,0,0,0,110.726,24.578Z"/><path class="cls-2" d="M87.21,26.082a4.9,4.9,0,1,0-4.894-4.895A4.906,4.906,0,0,0,87.21,26.082Z"/><path class="cls-9" d="M87.21,27.082a5.9,5.9,0,1,1,5.9-5.895A5.9,5.9,0,0,1,87.21,27.082Zm0-9.792a3.9,3.9,0,1,0,3.9,3.9A3.9,3.9,0,0,0,87.21,17.29Z"/><path class="cls-6" d="M95.215,87.555H79.206a1,1,0,0,1,0-2H95.215a1,1,0,0,1,0,2Z"/><polygon class="cls-10" points="74.182 90.398 100.235 90.398 102.222 95.243 72.203 95.243 74.182 90.398"/><path class="cls-9" d="M102.221,96.243H72.2a1,1,0,0,1-.926-1.378l1.979-4.845a1,1,0,0,1,.926-.622h26.053a1,1,0,0,1,.925.621l1.987,4.845a1,1,0,0,1-.925,1.379Zm-28.53-2H100.73L99.563,91.4H74.853Z"/><path class="cls-11" d="M22.394,54.211A17.511,17.511,0,1,0,4.882,36.7,17.544,17.544,0,0,0,22.394,54.211Z"/><path class="cls-12" d="M26.4,51.205A18.511,18.511,0,1,1,44.906,32.7,18.532,18.532,0,0,1,26.4,51.205Zm0-35.022A16.511,16.511,0,1,0,42.906,32.7,16.533,16.533,0,0,0,26.4,16.183Z"/><polygon class="cls-2" points="24.36 34.945 32.678 26.631 35.178 29.131 24.36 39.949 18.355 33.943 20.855 31.443 24.36 34.945"/><path class="cls-12" d="M24.359,40.949h0a1,1,0,0,1-.707-.293l-6-6.006a1,1,0,0,1,0-1.414l2.5-2.5a1,1,0,0,1,1.414,0l2.8,2.8,7.611-7.607a1,1,0,0,1,1.414,0l2.5,2.5a1,1,0,0,1,0,1.414L25.066,40.656A1,1,0,0,1,24.359,40.949Zm-4.59-7.006,4.59,4.591,9.4-9.4-1.086-1.086-7.611,7.608a1,1,0,0,1-1.414,0l-2.8-2.8Z"/><path class="cls-11" d="M146.6,108.142A17.511,17.511,0,1,0,129.093,90.63,17.544,17.544,0,0,0,146.6,108.142Z"/><path class="cls-5" d="M150.606,105.135a18.511,18.511,0,1,1,18.512-18.507A18.531,18.531,0,0,1,150.606,105.135Zm0-35.022a16.511,16.511,0,1,0,16.512,16.516A16.532,16.532,0,0,0,150.606,70.112Z"/><polygon class="cls-2" points="150.607 77.671 153.159 83.101 159.112 83.851 154.735 87.951 155.863 93.843 150.607 90.951 145.35 93.843 146.478 87.951 142.102 83.851 148.054 83.101 150.607 77.671"/><path class="cls-5" d="M145.35,94.843a1,1,0,0,1-.982-1.188l1.023-5.351-3.974-3.723a1,1,0,0,1,.559-1.722l5.406-.681,2.318-4.933a1,1,0,0,1,1.811,0l2.318,4.933,5.406.681a1,1,0,0,1,.559,1.722L155.82,88.3l1.025,5.351a1,1,0,0,1-1.465,1.064l-4.774-2.626-4.773,2.626A1,1,0,0,1,145.35,94.843Zm-1.012-10.265,2.822,2.644a1,1,0,0,1,.3.918l-.728,3.8,3.392-1.866a1,1,0,0,1,.965,0l3.392,1.866-.729-3.8a1,1,0,0,1,.3-.918l2.822-2.644-3.839-.484a1,1,0,0,1-.78-.567l-1.647-3.505-1.647,3.505a1,1,0,0,1-.78.567Z"/><rect class="cls-8" x="134.964" y="32.869" width="32.93" height="4.89"/><path class="cls-13" d="M167.893,38.759h-32.93a1,1,0,0,1-1-1v-4.89a1,1,0,0,1,1-1h32.93a1,1,0,0,1,1,1v4.89A1,1,0,0,1,167.893,38.759Zm-31.93-2h30.93v-2.89h-30.93Z"/><rect class="cls-8" x="134.964" y="42.876" width="26.484" height="4.89"/><path class="cls-13" d="M161.448,48.766H134.964a1,1,0,0,1-1-1v-4.89a1,1,0,0,1,1-1h26.484a1,1,0,0,1,1,1v4.89A1,1,0,0,1,161.448,48.766Zm-25.484-2h24.484v-2.89H135.964Z"/><rect class="cls-8" x="16.408" y="89.111" width="30.726" height="4.894"/><path class="cls-13" d="M47.135,95H16.409a1,1,0,0,1-1-1V89.111a1,1,0,0,1,1-1H47.135a1,1,0,0,1,1,1V94A1,1,0,0,1,47.135,95ZM17.409,93H46.135V90.111H17.409Z"/><rect class="cls-8" x="16.408" y="99.119" width="24.648" height="4.894"/><path class="cls-13" d="M41.056,105.013H16.409a1,1,0,0,1-1-1V99.119a1,1,0,0,1,1-1H41.056a1,1,0,0,1,1,1v4.894A1,1,0,0,1,41.056,105.013Zm-23.647-2H40.056v-2.894H17.409Z"/><rect class="cls-8" x="93.859" y="123.205" width="27.837" height="4.895"/><path class="cls-13" d="M121.7,129.1H93.859a1,1,0,0,1-1-1v-4.895a1,1,0,0,1,1-1H121.7a1,1,0,0,1,1,1V128.1A1,1,0,0,1,121.7,129.1Zm-26.836-2H120.7v-2.895H94.859Z"/><rect class="cls-8" x="93.859" y="113.202" width="18.603" height="4.89"/><path class="cls-13" d="M112.461,119.092h-18.6a1,1,0,0,1-1-1V113.2a1,1,0,0,1,1-1h18.6a1,1,0,0,1,1,1v4.89A1,1,0,0,1,112.461,119.092Zm-17.6-2h16.6V114.2h-16.6Z"/><path class="cls-2" d="M11.279,69.959h0a2.512,2.512,0,0,0-2.5,2.5h0a2.511,2.511,0,0,0,2.5,2.5h0a2.509,2.509,0,0,0,2.5-2.5h0A2.509,2.509,0,0,0,11.279,69.959Z"/><path class="cls-3" d="M11.278,75.967a3.5,3.5,0,0,1,0-7.008h0a3.5,3.5,0,0,1,0,7.008Zm0-5.008a1.5,1.5,0,1,0,1.5,1.5,1.5,1.5,0,0,0-1.5-1.5Z"/><polygon class="cls-2" points="68.697 67.468 63.694 62.468 58.69 67.468 68.697 67.468"/><path class="cls-6" d="M68.7,68.468H58.689a1,1,0,0,1-.707-1.708l5-5a1,1,0,0,1,1.414,0l5,5a1,1,0,0,1-.707,1.708Zm-7.592-2h5.176l-2.588-2.586Z"/><path class="cls-2" d="M75.2,67.468a11.506,11.506,0,1,1-23.012,0Z"/><path class="cls-9" d="M63.693,79.974a12.52,12.52,0,0,1-12.5-12.506,1,1,0,0,1,1-1H75.2a1,1,0,0,1,1,1A12.52,12.52,0,0,1,63.693,79.974ZM53.235,68.468a10.506,10.506,0,0,0,20.917,0Z"/><polygon class="cls-2" points="115.731 54.838 110.731 49.839 105.727 54.838 115.731 54.838"/><path class="cls-6" d="M115.73,55.838h-10a1,1,0,0,1-.707-1.708l5-5a1,1,0,0,1,1.414,0l5,5a1,1,0,0,1-.707,1.707Zm-7.588-2h5.174l-2.586-2.585Z"/><path class="cls-2" d="M122.233,54.838a11.5,11.5,0,1,1-23.008,0Z"/><path class="cls-9" d="M110.726,67.344a12.518,12.518,0,0,1-12.5-12.506,1,1,0,0,1,1-1h23.007a1,1,0,0,1,1,1A12.52,12.52,0,0,1,110.726,67.344ZM100.272,55.838a10.5,10.5,0,0,0,20.913,0Z"/><path class="cls-6" d="M63.693,75.088a7.592,7.592,0,0,1-5.387-2.229,1,1,0,1,1,1.41-1.418,5.626,5.626,0,0,0,7.952,0,1,1,0,0,1,1.414,1.414A7.571,7.571,0,0,1,63.693,75.088Z"/><path class="cls-6" d="M110.73,62.458a7.575,7.575,0,0,1-5.388-2.23,1,1,0,1,1,1.412-1.415,5.622,5.622,0,0,0,7.947,0,1,1,0,0,1,1.414,1.415A7.572,7.572,0,0,1,110.73,62.458Z"/></svg>