<svg id="Layer_1" data-name="Layer 1" xmlns="http://www.w3.org/2000/svg" viewBox="0 0 174 134"><defs><style>.cls-1{fill:#fafafa;}.cls-1,.cls-3,.cls-4,.cls-5{fill-rule:evenodd;}.cls-2{fill:#127ef8;}.cls-10,.cls-3{fill:#fff;}.cls-4{fill:#f5fcff;}.cls-5{fill:#f6f4ef;}.cls-6{fill:#ff7088;}.cls-7{fill:#fbae7a;}.cls-8{fill:#66db82;}.cls-9{fill:#ab65f4;}.cls-11{fill:#5acaef;}.cls-12{fill:#e6e6e6;}</style></defs><title>advantage-06-174x134</title><path class="cls-1" d="M88.09,129.975A62.537,62.537,0,1,0,25.549,67.438,62.661,62.661,0,0,0,88.09,129.975Z"/><path class="cls-2" d="M121.641,62.014h-2a31.553,31.553,0,0,0-63.106,0h-2a33.553,33.553,0,0,1,67.106,0Z"/><path class="cls-3" d="M117.1,62.014h4.642a4.383,4.383,0,0,1,4.368,4.373V76.4a4.387,4.387,0,0,1-4.368,4.365H117.1Z"/><path class="cls-2" d="M121.74,81.768H117.1a1,1,0,0,1-1-1V62.014a1,1,0,0,1,1-1h4.642a5.377,5.377,0,0,1,5.368,5.373V76.4A5.373,5.373,0,0,1,121.74,81.768Zm-3.642-2h3.642a3.37,3.37,0,0,0,3.368-3.365V66.387a3.374,3.374,0,0,0-3.368-3.373H118.1Z"/><path class="cls-3" d="M59.081,62.014H54.436a4.385,4.385,0,0,0-4.364,4.373V76.4a4.38,4.38,0,0,0,4.364,4.365h4.645Z"/><path class="cls-2" d="M59.081,81.768H54.436A5.371,5.371,0,0,1,49.071,76.4V66.387a5.375,5.375,0,0,1,5.364-5.373h4.646a1,1,0,0,1,1,1V80.768A1,1,0,0,1,59.081,81.768ZM54.436,63.014a3.372,3.372,0,0,0-3.364,3.373V76.4a3.368,3.368,0,0,0,3.364,3.365h3.646V63.014Z"/><path class="cls-3" d="M112.5,62.014V76.965c0,13.973-14.437,27.408-24.412,27.416-9.975-.008-24.412-13.436-24.412-27.416V62.014C63.678,48.041,74.112,36.6,88.09,36.6S112.5,48.041,112.5,62.014Z"/><path class="cls-4" d="M107.714,63.684V75.694c0,11.237-11.607,22.034-19.624,22.034s-19.624-10.8-19.624-22.034V63.684c0-11.237,8.391-20.431,19.624-20.431S107.714,52.446,107.714,63.684Z"/><path class="cls-2" d="M64.354,62.925a1,1,0,0,1,0-2c5.57,0,9.266-3.542,10.137-9.718a1,1,0,1,1,1.98.279C75.46,58.649,70.931,62.925,64.354,62.925Z"/><path class="cls-5" d="M145.542,116.441h16.053a4.509,4.509,0,0,0,4.5-4.5V100.065a4.512,4.512,0,0,0-4.5-4.5H138.038a4.516,4.516,0,0,0-4.5,4.5v11.881a4.513,4.513,0,0,0,4.5,4.5v6Z"/><path class="cls-5" d="M23.957,49.132H7.9a4.515,4.515,0,0,1-4.5-4.5V32.757a4.518,4.518,0,0,1,4.5-4.5H31.46a4.517,4.517,0,0,1,4.5,4.5V44.629a4.514,4.514,0,0,1-4.5,4.5v6Z"/><path class="cls-6" d="M34.962,52.632a1,1,0,0,1-.625-.219l-7.229-5.79H11.4a5.505,5.505,0,0,1-5.5-5.5V29.256a5.509,5.509,0,0,1,5.5-5.5H34.962a5.507,5.507,0,0,1,5.5,5.5V41.128a5.506,5.506,0,0,1-4.5,5.4v5.1a1,1,0,0,1-1,1ZM11.4,25.753a3.507,3.507,0,0,0-3.5,3.5V41.128a3.5,3.5,0,0,0,3.5,3.5H27.458a1,1,0,0,1,.625.219l5.879,4.708V45.623a1,1,0,0,1,1-1,3.5,3.5,0,0,0,3.5-3.5V29.256a3.5,3.5,0,0,0-3.5-3.5Z"/><path class="cls-6" d="M29.815,39.123H14.03a1,1,0,1,1,0-2H29.815a1,1,0,0,1,0,2Z"/><path class="cls-6" d="M25.39,33.113H14.03a1,1,0,0,1,0-2H25.39a1,1,0,1,1,0,2Z"/><path class="cls-7" d="M141.543,119.94a1,1,0,0,1-1-1v-5.092a5.512,5.512,0,0,1-4.5-5.412V96.564a5.505,5.505,0,0,1,5.5-5.5H165.1a5.5,5.5,0,0,1,5.5,5.5v11.872a5.507,5.507,0,0,1-5.5,5.5H149.394l-7.226,5.782A1,1,0,0,1,141.543,119.94Zm0-26.871a3.5,3.5,0,0,0-3.5,3.5v11.872a3.507,3.507,0,0,0,3.5,3.5,1,1,0,0,1,1,1v3.92l5.875-4.7a1,1,0,0,1,.625-.219H165.1a3.5,3.5,0,0,0,3.5-3.5V96.564a3.5,3.5,0,0,0-3.5-3.5Z"/><path class="cls-7" d="M152.455,106.578h-8.66a1,1,0,0,1,0-2h8.66a1,1,0,0,1,0,2Z"/><path class="cls-7" d="M160.068,100.569H143.795a1,1,0,1,1,0-2h16.273a1,1,0,1,1,0,2Z"/><path class="cls-2" d="M88.09,93.877A13.039,13.039,0,0,1,82.022,92.3a1,1,0,0,1,.924-1.773,10.463,10.463,0,0,0,10.289,0,1,1,0,0,1,.924,1.773A13.039,13.039,0,0,1,88.09,93.877Z"/><path class="cls-5" d="M136.283,45.256a12.507,12.507,0,1,0-12.508-12.507A12.532,12.532,0,0,0,136.283,45.256Z"/><path class="cls-8" d="M139.284,43.252a13.508,13.508,0,1,1,13.507-13.508A13.523,13.523,0,0,1,139.284,43.252Zm0-25.016a11.508,11.508,0,1,0,11.507,11.508A11.521,11.521,0,0,0,139.284,18.236Z"/><path class="cls-8" d="M140.284,36.771h-2v-2.15h2Zm0-4.471h-2v-2.63a1,1,0,0,1,1-1,2,2,0,0,0,1.419-3.41,2.043,2.043,0,0,0-2.832-.007,2,2,0,0,0-.588,1.42h-2a4,4,0,0,1,1.177-2.837,4,4,0,1,1,3.824,6.709Z"/><path class="cls-5" d="M29.425,119.348a12.507,12.507,0,1,0-12.508-12.507A12.531,12.531,0,0,0,29.425,119.348Z"/><path class="cls-9" d="M32.425,117.344a13.508,13.508,0,1,1,13.508-13.508A13.523,13.523,0,0,1,32.425,117.344Zm0-25.016a11.508,11.508,0,1,0,11.508,11.508A11.521,11.521,0,0,0,32.425,92.328Z"/><path class="cls-9" d="M33.425,110.961h-2V109.1h2Zm0-3.852h-2V96.833h2Z"/><path class="cls-2" d="M89.075,83.64a.992.992,0,0,1-.329-.056l-3.64-1.27a1,1,0,0,1-.615-1.274l2.654-7.605a1,1,0,0,1,1.889.659l-2.325,6.661,2.7.94a1,1,0,0,1-.329,1.945Z"/><path class="cls-3" d="M109.151,128.688h0a4.01,4.01,0,0,1-4-4h0a4.012,4.012,0,0,1,4-4.006h0a4.013,4.013,0,0,1,4,4.006h0A4.011,4.011,0,0,1,109.151,128.688Z"/><path class="cls-6" d="M109.151,129.688a5,5,0,1,1,5-5A5.006,5.006,0,0,1,109.151,129.688Zm0-8a3,3,0,1,0,3,3.006A3.007,3.007,0,0,0,109.151,121.684Z"/><rect class="cls-10" x="15.708" y="68.089" width="5.004" height="5.008" rx="2.5" ry="2.5"/><path class="cls-8" d="M18.212,74.1h0a3.5,3.5,0,1,1,3.5-3.508A3.5,3.5,0,0,1,18.208,74.1Zm0-5.008a1.5,1.5,0,0,0,0,3.008h0a1.5,1.5,0,0,0,0-3.008Z"/><path class="cls-2" d="M98.225,64.894a36.257,36.257,0,0,1-8.259-.9c-7.47-1.758-12.652-5.878-15.4-12.248A1,1,0,0,1,76.4,50.95c1.163,2.692,8.121,15.874,30.841,11a1,1,0,0,1,.42,1.955A46.256,46.256,0,0,1,98.225,64.894Z"/><path class="cls-2" d="M107.452,59.92a1,1,0,0,1-.972-.768c-1.487-6.243-4.788-10.94-9.545-13.585a18.2,18.2,0,0,0-13.721-1.731,1,1,0,0,1-.633-1.9c3.719-1.238,9.9-1.139,15.326,1.88,5.26,2.925,8.9,8.067,10.518,14.87a1,1,0,0,1-.974,1.232Z"/><path class="cls-11" d="M55.074,77.395a1,1,0,0,1-1-1V66.387a1,1,0,0,1,2,0V76.395A1,1,0,0,1,55.074,77.395Z"/><path class="cls-11" d="M121.1,77.395a1,1,0,0,1-1-1V66.387a1,1,0,0,1,2,0V76.395A1,1,0,0,1,121.1,77.395Z"/><path class="cls-3" d="M64.928,20.958h0a4.013,4.013,0,0,0,4-4.007h0a4.011,4.011,0,0,0-4-4h0a4.012,4.012,0,0,0-4,4h0A4.014,4.014,0,0,0,64.928,20.958Z"/><path class="cls-9" d="M64.928,21.958a5,5,0,1,1,5-5.007A5.01,5.01,0,0,1,64.928,21.958Zm0-8a3,3,0,1,0,3,3A3,3,0,0,0,64.928,13.953Z"/><path class="cls-11" d="M88.091,105.381c-10.862-.008-25.413-14.059-25.413-28.416V62.014C62.678,47.2,73.84,35.6,88.09,35.6S113.5,47.2,113.5,62.014V76.965C113.5,91.322,98.951,105.373,88.091,105.381Zm0-67.78c-13.128,0-23.412,10.724-23.412,24.413V76.965c0,14.06,14.593,26.409,23.413,26.416S111.5,91.025,111.5,76.965V62.014C111.5,48.324,101.218,37.6,88.09,37.6Z"/><rect class="cls-10" x="89.938" y="1" width="27.836" height="4.894"/><path class="cls-12" d="M117.774,6.894H89.939a1,1,0,0,1-1-1V1a1,1,0,0,1,1-1h27.836a1,1,0,0,1,1,1V5.894A1,1,0,0,1,117.774,6.894Zm-26.836-2h25.836V2H90.939Z"/><rect class="cls-10" x="89.938" y="11.008" width="18.602" height="4.894"/><path class="cls-12" d="M108.54,16.9h-18.6a1,1,0,0,1-1-1V11.008a1,1,0,0,1,1-1h18.6a1,1,0,0,1,1,1V15.9A1,1,0,0,1,108.54,16.9Zm-17.6-2h16.6V12.008h-16.6Z"/><path class="cls-3" d="M157.133,69.938h0a2.506,2.506,0,0,0,2.5-2.5h0a2.506,2.506,0,0,0-2.5-2.5h0a2.506,2.506,0,0,0-2.5,2.5h0A2.506,2.506,0,0,0,157.133,69.938Z"/><path class="cls-11" d="M157.133,70.938a3.5,3.5,0,1,1,3.5-3.5A3.5,3.5,0,0,1,157.133,70.938Zm0-5a1.5,1.5,0,1,0,1.5,1.5A1.5,1.5,0,0,0,157.133,65.938Z"/><rect class="cls-10" x="58.751" y="127.865" width="25.17" height="4.894"/><path class="cls-12" d="M83.921,133.759H58.751a1,1,0,0,1-1-1v-4.894a1,1,0,0,1,1-1h25.17a1,1,0,0,1,1,1v4.894A1,1,0,0,1,83.921,133.759Zm-24.17-2h23.17v-2.894H59.751Z"/><rect class="cls-10" x="58.751" y="117.866" width="17.353" height="4.886"/><path class="cls-12" d="M76.1,123.752H58.751a1,1,0,0,1-1-1v-4.886a1,1,0,0,1,1-1H76.1a1,1,0,0,1,1,1v4.886A1,1,0,0,1,76.1,123.752Zm-16.353-2H75.1v-2.886H59.751Z"/></svg>