<svg id="Layer_1" data-name="Layer 1" xmlns="http://www.w3.org/2000/svg" viewBox="0 0 186 141"><defs><style>.cls-1{fill:#4f359c;}.cls-1,.cls-3,.cls-6,.cls-7{fill-rule:evenodd;}.cls-2{fill:#127ef8;}.cls-3{fill:#ff7088;}.cls-4{fill:#fbae7a;}.cls-5{fill:#5acaef;}.cls-6{fill:#f6f4ef;}.cls-7{fill:#e6e6e6;}</style></defs><title>work-01-186x141</title><path class="cls-1" d="M73.127,21.806V34.514h39.745V21.806h19.085a5.281,5.281,0,0,1,5.263,5.263V46.32h13.158a5.278,5.278,0,0,1,5.265,5.262V63.393h10.526a5.277,5.277,0,0,1,5.265,5.262v56.479a5.281,5.281,0,0,1-5.265,5.266H155.641a5.279,5.279,0,0,1-5.265,5.263H137.219a5.282,5.282,0,0,1-5.263,5.263H54.044a5.279,5.279,0,0,1-5.262-5.263H35.623a5.278,5.278,0,0,1-5.264-5.263H19.83a5.281,5.281,0,0,1-5.263-5.266V68.654a5.277,5.277,0,0,1,5.263-5.262H30.359V51.582a5.277,5.277,0,0,1,5.264-5.262H48.781V27.068a5.277,5.277,0,0,1,5.262-5.263Z"/><path class="cls-2" d="M19.83,57.394H59.048a5.266,5.266,0,0,1,5.266,5.266v56.475a5.263,5.263,0,0,1-5.263,5.263H19.83a5.263,5.263,0,0,1-5.263-5.263V62.656A5.263,5.263,0,0,1,19.83,57.394Z"/><path class="cls-3" d="M166.168,57.394H126.952a5.279,5.279,0,0,0-5.267,5.263v56.479a5.279,5.279,0,0,0,5.267,5.263h39.215a5.278,5.278,0,0,0,5.265-5.263V62.656A5.278,5.278,0,0,0,166.168,57.394Z"/><path class="cls-4" d="M94.575,40.321h55.8a5.264,5.264,0,0,1,5.264,5.264V124.4a5.267,5.267,0,0,1-5.267,5.267h-55.8a5.265,5.265,0,0,1-5.265-5.265V45.584A5.263,5.263,0,0,1,94.575,40.321Z"/><path class="cls-5" d="M35.622,40.321h55.8a5.265,5.265,0,0,1,5.265,5.265V124.4a5.267,5.267,0,0,1-5.267,5.267h-55.8a5.264,5.264,0,0,1-5.264-5.264V45.584A5.263,5.263,0,0,1,35.622,40.321Z"/><path class="cls-6" d="M54.044,15.807H73.127V28.516h39.745V15.807h19.085a5.281,5.281,0,0,1,5.263,5.263V129.664a5.282,5.282,0,0,1-5.263,5.262H54.044a5.278,5.278,0,0,1-5.262-5.262V21.069A5.278,5.278,0,0,1,54.044,15.807Z"/><path class="cls-7" d="M107.607,10.541h-7.157a7.9,7.9,0,1,0-14.9,0H78.393V23.774h29.213V10.541Zm-14.575,0h-.065a2.648,2.648,0,1,1,.065,0Z"/><polygon class="cls-2" points="69.521 58.461 60.175 49.113 63.708 45.576 69.521 51.389 79.125 41.787 82.66 45.322 69.521 58.461"/><rect class="cls-5" x="93.652" y="43.035" width="31.32" height="5"/><rect class="cls-5" x="93.652" y="53.562" width="23.635" height="5"/><rect class="cls-5" x="61.941" y="111.464" width="22.674" height="5"/><rect class="cls-5" x="61.941" y="100.941" width="13.455" height="5"/><rect class="cls-5" x="61.938" y="90.412" width="20.045" height="5"/><path class="cls-4" d="M124.092,76.99H61.938a2.5,2.5,0,0,1,0-5h62.154a2.5,2.5,0,1,1,0,5Z"/><path class="cls-2" d="M124.973,116.466H93.652V90.412h31.32Zm-26.32-5h21.32V95.412H98.652Z"/></svg>