<svg id="Layer_1" data-name="Layer 1" xmlns="http://www.w3.org/2000/svg" viewBox="0 0 186 137"><defs><style>.cls-1{fill:#4f359c;}.cls-1,.cls-10,.cls-2,.cls-5,.cls-7,.cls-9{fill-rule:evenodd;}.cls-2{fill:#f6f4ef;}.cls-3{fill:#127ef8;}.cls-4,.cls-7{fill:#5acaef;}.cls-5,.cls-8{fill:#fff;}.cls-6,.cls-9{fill:#fbae7a;}.cls-10{fill:#ff7088;}</style></defs><title>work-03-186x137</title><path class="cls-1" d="M176.2,47.963a9.994,9.994,0,1,0-9.992-9.991A10.013,10.013,0,0,0,176.2,47.963Z"/><path class="cls-1" d="M154.717,73.454a22.487,22.487,0,1,0-22.485-22.489A22.532,22.532,0,0,0,154.717,73.454Z"/><path class="cls-1" d="M22.288,73.454A22.487,22.487,0,1,0-.2,50.965,22.531,22.531,0,0,0,22.288,73.454Z"/><path class="cls-1" d="M88.251,136.432c35.881,0,64.966-24.088,64.966-59.969S124.131,6.5,88.251,6.5,23.289,40.586,23.289,76.463,52.374,136.432,88.251,136.432Z"/><path class="cls-2" d="M88.251,129.929A64.964,64.964,0,1,0,23.289,64.967,65.089,65.089,0,0,0,88.251,129.929Z"/><path class="cls-3" d="M99.976,108.7l-1.01-4.9c17.7-3.649,20.856-8.081,21.093-21.82L95.308,74.96l1.365-4.811,28.4,8.056v1.89C125.074,98.7,119.914,104.585,99.976,108.7Z"/><path class="cls-3" d="M88.251,69.382A17.507,17.507,0,0,1,70.792,52.81c-1.5-1.917-3.129-4.6-2.821-7.621a8.442,8.442,0,0,1,2.813-5.277c.022-.85.069-1.715.139-2.55l4.982.413c-.09,1.081-.137,2.218-.137,3.288a2.5,2.5,0,0,1-.944,1.957A4.255,4.255,0,0,0,72.945,45.7c-.115,1.132.639,2.678,2.241,4.6a2.5,2.5,0,0,1,.582,1.6,12.484,12.484,0,1,0,24.969,0,2.5,2.5,0,0,1,.582-1.6c1.6-1.918,2.356-3.465,2.241-4.6a4.255,4.255,0,0,0-1.879-2.676,2.5,2.5,0,0,1-.944-1.957l.006-1.227c.023-3.356.06-8.429-1.653-10.141-1.923-1.923-7.564-3.571-10.835-3.571-4.866,0-10.736,1.954-11.872,3.778,2.385.986,10.831,2.039,20.095,1.72l.172,5c-.2.005-20.071.642-24.26-3.4a3.7,3.7,0,0,1-1.2-2.705c0-7.021,11.721-9.385,17.067-9.385,3.914,0,11.087,1.75,14.371,5.035,3.191,3.19,3.15,9.024,3.117,13.712v.061a8.431,8.431,0,0,1,2.792,5.257c.308,3.026-1.32,5.7-2.821,7.621A17.509,17.509,0,0,1,88.251,69.382Z"/><path class="cls-4" d="M91.533,59.2H84.977a2.5,2.5,0,0,1,0-5h6.557a2.5,2.5,0,0,1,0,5Z"/><polygon class="cls-5" points="93.749 83.791 88.251 89.533 82.756 83.791 88.251 78.049 93.749 83.791"/><path class="cls-6" d="M88.25,93.149,79.3,83.791l8.953-9.358,8.96,9.358Zm-2.033-9.358,2.035,2.126,2.036-2.126-2.036-2.126Z"/><polygon class="cls-5" points="94.139 112.295 88.251 88.879 82.362 112.295 88.251 117.383 94.139 112.295"/><path class="cls-6" d="M88.251,119.883a2.5,2.5,0,0,1-1.635-.608l-5.889-5.088a2.5,2.5,0,0,1-.79-2.5l5.889-23.417a2.5,2.5,0,0,1,4.85,0l5.889,23.417a2.5,2.5,0,0,1-.79,2.5l-5.889,5.088A2.5,2.5,0,0,1,88.251,119.883Zm-3.089-8.473,3.089,2.669,3.089-2.669L88.251,99.129Z"/><path class="cls-3" d="M76.525,108.7c-19.937-4.112-25.1-9.992-25.1-28.6v-1.89l28.4-8.056,1.365,4.811L56.443,81.98c.236,13.739,3.4,18.17,21.092,21.82Z"/><path class="cls-7" d="M22.288,67.455A22.487,22.487,0,1,0-.2,44.966,22.531,22.531,0,0,0,22.288,67.455Z"/><path class="cls-8" d="M20.427,56.1,9.19,44.868l3.535-3.536,7.7,7.7Q26.637,42.814,32.855,36.6l3.535,3.536q-7.1,7.1-14.2,14.2Z"/><path class="cls-9" d="M154.717,67.455a22.487,22.487,0,1,0-22.485-22.489A22.531,22.531,0,0,0,154.717,67.455Z"/><path class="cls-5" d="M154.717,59.18c4.416,0,10.432-1.619,12.493-6.747-.9-3.127-2.749-4.282-5.8-5.295a9.842,9.842,0,0,1-13.379,0c-3.051,1.013-4.9,2.168-5.8,5.295,2.061,5.128,8.076,6.747,12.493,6.747Zm0-13.213c4.156,0,5.673-3.367,5.673-7.527s-1.517-7.528-5.673-7.528-5.673,3.367-5.673,7.528S150.557,45.967,154.717,45.967Z"/><path class="cls-10" d="M176.2,43.966a9.994,9.994,0,1,0-9.992-10A10.014,10.014,0,0,0,176.2,43.966Z"/><rect class="cls-8" x="174.703" y="28.317" width="3" height="11.31" transform="translate(27.553 134.494) rotate(-44.981)"/><rect class="cls-8" x="170.548" y="32.472" width="11.31" height="3" transform="translate(27.587 134.544) rotate(-45)"/></svg>