<svg id="Layer_1" data-name="Layer 1" xmlns="http://www.w3.org/2000/svg" viewBox="0 0 186 139"><defs><style>.cls-1,.cls-2{fill:#4f359c;}.cls-10,.cls-11,.cls-12,.cls-13,.cls-2,.cls-3,.cls-4,.cls-9{fill-rule:evenodd;}.cls-3{fill:#f6f4ef;}.cls-4,.cls-8{fill:#e6e6e6;}.cls-5{fill:#127ef8;}.cls-11,.cls-6{fill:#5acaef;}.cls-7,.cls-9{fill:#fbae7a;}.cls-10{fill:#66db82;}.cls-12{fill:#ab65f4;}.cls-13{fill:#ff7088;}</style></defs><title>work-02-186x139</title><circle class="cls-1" cx="164.683" cy="115.329" r="13.992"/><circle class="cls-1" cx="159.792" cy="54.535" r="13.994"/><circle class="cls-1" cx="93" cy="18.992" r="13.993"/><circle class="cls-1" cx="26.209" cy="54.535" r="13.994"/><circle class="cls-1" cx="21.318" cy="115.329" r="13.993"/><path class="cls-2" d="M74.51,81.685h9.059v6.031H102.43V81.685h9.06a2.506,2.506,0,0,1,2.5,2.5v51.542a2.507,2.507,0,0,1-2.5,2.5H74.51a2.506,2.506,0,0,1-2.5-2.5V84.186A2.508,2.508,0,0,1,74.51,81.685Z"/><path class="cls-3" d="M74.51,76.687h9.059v6.031H102.43V76.687h9.06a2.505,2.505,0,0,1,2.5,2.5V130.73a2.507,2.507,0,0,1-2.5,2.5H74.51a2.508,2.508,0,0,1-2.5-2.5V79.184A2.5,2.5,0,0,1,74.51,76.687Z"/><path class="cls-4" d="M99.933,74.19h-3.4a3.751,3.751,0,1,0-7.288-1.252,3.707,3.707,0,0,0,.216,1.252h-3.4v6.279H99.933V74.19Zm-6.917,0h-.031a1.273,1.273,0,0,1-.87-.365,1.252,1.252,0,1,1,1.771,0A1.277,1.277,0,0,1,93.016,74.19Z"/><polygon class="cls-5" points="81.856 97.378 77.198 92.716 79.321 90.597 81.856 93.134 86.191 88.795 88.314 90.916 81.856 97.378"/><rect class="cls-6" x="92.997" y="89.299" width="15.492" height="3"/><rect class="cls-6" x="92.997" y="94.293" width="11.844" height="3"/><rect class="cls-6" x="78.26" y="121.777" width="10.761" height="3"/><rect class="cls-6" x="78.258" y="116.781" width="6.387" height="3"/><rect class="cls-6" x="78.258" y="111.783" width="9.512" height="3"/><rect class="cls-7" x="78.258" y="103.04" width="29.5" height="3"/><path class="cls-5" d="M108.489,124.779H93v-13h15.492Zm-12.492-3h9.492v-7H96Z"/><path class="cls-8" d="M50.3,116.829a1.494,1.494,0,0,1-1.062-.44l-1-1q-2-2-4-4a1.5,1.5,0,0,1,0-2.122l5-5a1.5,1.5,0,0,1,2.123,2.12l-3.936,3.937q1.469,1.468,2.937,2.938l1,1a1.5,1.5,0,0,1-1.062,2.56Z"/><path class="cls-8" d="M62.019,111.831H45.307a1.5,1.5,0,0,1,0-3H62.019a1.5,1.5,0,1,1,0,3Z"/><path class="cls-8" d="M135.7,116.829a1.5,1.5,0,0,1-1.061-2.561l3.934-3.937-3.934-3.937a1.5,1.5,0,0,1,2.121-2.121l4.994,5a1.5,1.5,0,0,1,0,2.12l-4.993,5A1.5,1.5,0,0,1,135.7,116.829Z"/><path class="cls-8" d="M140.69,111.831H123.98a1.5,1.5,0,0,1,0-3h16.71a1.5,1.5,0,0,1,0,3Z"/><path class="cls-8" d="M50.2,72.1h0a1.5,1.5,0,0,1-1.5-1.5l0-7.067a1.5,1.5,0,0,1,1.5-1.5h7.065a1.5,1.5,0,0,1,0,3H51.7l0,5.57A1.5,1.5,0,0,1,50.2,72.1Z"/><path class="cls-8" d="M62.015,76.854a1.5,1.5,0,0,1-1.061-.439L49.139,64.6a1.5,1.5,0,0,1,2.121-2.121L63.075,74.293a1.5,1.5,0,0,1-1.061,2.561Z"/><path class="cls-8" d="M98,46.479a1.5,1.5,0,0,1-1.061-.439L93,42.1l-3.934,3.934a1.5,1.5,0,0,1-2.123-2.12l5-5a1.5,1.5,0,0,1,2.12,0l5,5A1.5,1.5,0,0,1,98,46.479Z"/><path class="cls-8" d="M93,58.2a1.5,1.5,0,0,1-1.5-1.5V39.984a1.5,1.5,0,0,1,3,0V56.7A1.5,1.5,0,0,1,93,58.2Z"/><path class="cls-9" d="M164.684,124.32a13.991,13.991,0,1,0-13.993-13.993A14.016,14.016,0,0,0,164.684,124.32Z"/><path class="cls-3" d="M164.684,110.961c-2.5,0-3.4-2.02-3.4-4.518s.906-4.519,3.4-4.519,3.4,2.021,3.4,4.519-.911,4.518-3.4,4.518Zm0,7.927c-2.651,0-6.259-.972-7.5-4.051.545-1.875,1.651-2.567,3.481-3.176a5.912,5.912,0,0,0,8.031,0c1.826.609,2.937,1.3,3.481,3.176C170.939,117.916,167.331,118.888,164.684,118.888Z"/><path class="cls-10" d="M21.319,124.32A13.991,13.991,0,1,0,7.326,110.327,14.019,14.019,0,0,0,21.319,124.32Z"/><path class="cls-3" d="M21.317,118.888c2.649,0,6.259-.972,7.5-4.051-.543-1.875-1.651-2.567-3.481-3.176a5.91,5.91,0,0,1-8.03,0c-1.83.609-2.936,1.3-3.481,3.176,1.238,3.079,4.846,4.051,7.5,4.051Zm0-7.927c2.495,0,3.4-2.02,3.4-4.518s-.909-4.519-3.4-4.519-3.4,2.021-3.4,4.519S18.822,110.961,21.317,110.961Z"/><path class="cls-11" d="M26.211,63.531A13.994,13.994,0,1,0,12.218,49.537,14.02,14.02,0,0,0,26.211,63.531Z"/><path class="cls-3" d="M26.21,58.094c2.649,0,6.259-.972,7.5-4.047-.543-1.879-1.651-2.569-3.483-3.176a5.915,5.915,0,0,1-8.028,0c-1.83.607-2.937,1.3-3.482,3.176,1.236,3.075,4.846,4.047,7.5,4.047Zm0-7.926c2.5,0,3.4-2.021,3.4-4.518s-.909-4.514-3.4-4.514-3.4,2.02-3.4,4.514S23.714,50.168,26.21,50.168Z"/><path class="cls-12" d="M93,27.983A13.992,13.992,0,1,0,79.008,13.99,14.019,14.019,0,0,0,93,27.983Z"/><path class="cls-3" d="M93,22.551c2.651,0,6.259-.973,7.5-4.051-.545-1.875-1.65-2.566-3.485-3.176a5.9,5.9,0,0,1-8.025,0c-1.832.609-2.938,1.3-3.483,3.176,1.238,3.078,4.847,4.051,7.495,4.051Zm0-7.931c2.5,0,3.4-2.017,3.4-4.514S95.495,5.588,93,5.588s-3.4,2.021-3.4,4.519S90.5,14.62,93,14.62Z"/><path class="cls-8" d="M135.8,72.1a1.5,1.5,0,0,1-1.5-1.5V65.035h-5.567a1.5,1.5,0,0,1,0-3H135.8a1.5,1.5,0,0,1,1.5,1.5V70.6A1.5,1.5,0,0,1,135.8,72.1Z"/><path class="cls-8" d="M123.984,76.854a1.5,1.5,0,0,1-1.061-2.561l11.817-11.818a1.5,1.5,0,1,1,2.121,2.121L125.045,76.414A1.5,1.5,0,0,1,123.984,76.854Z"/><path class="cls-13" d="M159.791,63.531A13.994,13.994,0,1,0,145.8,49.537,14.022,14.022,0,0,0,159.791,63.531Z"/><path class="cls-3" d="M159.791,58.094c-2.651,0-6.258-.972-7.5-4.047.545-1.879,1.651-2.569,3.485-3.176a5.916,5.916,0,0,0,8.028,0c1.83.607,2.936,1.3,3.48,3.176-1.24,3.075-4.848,4.047-7.5,4.047Zm0-7.926c-2.5,0-3.4-2.021-3.4-4.518s.907-4.514,3.4-4.514,3.4,2.02,3.4,4.514S162.285,50.168,159.791,50.168Z"/></svg>