<svg id="SOCIAL" xmlns="http://www.w3.org/2000/svg" viewBox="0 0 16 16"><defs><style>.cls-1{fill:#bbb;fill-rule:evenodd;}</style></defs><title>icon-м</title><path id="instagram" class="cls-1" d="M14,16H2a2,2,0,0,1-2-2V2A2,2,0,0,1,2,0H14a2,2,0,0,1,2,2V14A2,2,0,0,1,14,16ZM8,4.9A3.1,3.1,0,0,0,5.189,6.7h0c-.005.011-.009.023-.014.034-.029.066-.055.133-.08.2-.012.032-.025.064-.036.1-.023.069-.042.141-.06.212-.008.033-.018.066-.026.1-.016.075-.028.153-.038.23,0,.031-.011.062-.014.093a3.1,3.1,0,1,0,6.163,0c0-.032-.01-.062-.014-.093-.011-.077-.022-.154-.038-.23-.007-.034-.017-.067-.026-.1-.018-.072-.037-.143-.06-.212-.011-.033-.024-.065-.036-.1-.025-.068-.051-.135-.08-.2-.005-.011-.009-.023-.014-.034h0A3.1,3.1,0,0,0,8,4.9Zm6.2-2.3a.8.8,0,0,0-.8-.8H11.8a.8.8,0,0,0-.8.8V4.2a.8.8,0,0,0,.8.8h1.6a.8.8,0,0,0,.8-.8Zm0,4.1H12.725a4.9,4.9,0,1,1-9.45,0H1.8v6.7a.8.8,0,0,0,.8.8H13.4a.8.8,0,0,0,.8-.8Z"/></svg>