<svg id="Layer_1" data-name="Layer 1" xmlns="http://www.w3.org/2000/svg" viewBox="0 0 88 8"><title>icon-Artboard 1</title><path d="M0,7.867V.133H4.475V1.79H1.768V3.425H4.144V5.083H1.768V7.867Z"/><path d="M4.492,7.867,7.708.133h1.58L12.5,7.867h-1.89L9.973,6.243H6.912L6.271,7.867ZM8.448,2.4,7.575,4.586H9.31Z"/><path d="M19.236,7.1a2.481,2.481,0,0,1-1.05.652A4.317,4.317,0,0,1,16.717,8a4.021,4.021,0,0,1-2.928-1.094A3.887,3.887,0,0,1,12.662,4a4.031,4.031,0,0,1,1.061-2.873A3.9,3.9,0,0,1,16.706,0,3.5,3.5,0,0,1,19.07.807l-.784,1.326a2.981,2.981,0,0,0-1.58-.475,2.115,2.115,0,0,0-1.558.619A2.329,2.329,0,0,0,14.54,4a2.325,2.325,0,0,0,.652,1.691,2.29,2.29,0,0,0,1.691.652,2.724,2.724,0,0,0,1.68-.564Z"/><path d="M19.84,1.79V.133h6.409V1.79H23.928V7.867H22.16V1.79Z"/><path d="M27.909,1.149A4.03,4.03,0,0,1,30.881,0a4.093,4.093,0,0,1,2.95,1.094A3.812,3.812,0,0,1,34.992,4a3.806,3.806,0,0,1-1.171,2.873A4.052,4.052,0,0,1,30.881,8,4.137,4.137,0,0,1,27.92,6.906,3.844,3.844,0,0,1,26.771,4,3.864,3.864,0,0,1,27.909,1.149ZM29.3,5.669a2.293,2.293,0,0,0,3.226.022A2.477,2.477,0,0,0,33.114,4a2.283,2.283,0,0,0-.641-1.691,2.167,2.167,0,0,0-1.591-.652,2.14,2.14,0,0,0-1.6.652A2.32,2.32,0,0,0,28.649,4,2.328,2.328,0,0,0,29.3,5.669Z"/><path d="M38.2,7.867H36.437V.133c.166,0,.63,0,1.392-.011S39.011.11,39.066.11c2,0,2.862.939,2.862,2.475a2.288,2.288,0,0,1-1.3,2.232l2.254,3.05H40.735L38.857,5.16H38.2Zm0-6.077V3.5h.641c.807,0,1.2-.3,1.2-.895,0-.564-.354-.84-1.072-.84C38.945,1.768,38.691,1.779,38.2,1.79Z"/><path d="M49.7.133l-2.74,4.586V7.867H45.191V4.718L42.473.133H44.5l1.657,2.928L47.788.133Z"/><path d="M50.618,7.867V.133h4.365v.884H51.557v2.74h3.094v.884H51.557V7.867Z"/><path d="M56.315,7.867V.133h.939V7.867Z"/><path d="M65.834,7.867h-.751L60.253,1.79V7.867h-.884V.133h.751l4.829,6.1V.133h.884Z"/><path d="M67.863,7.867V.133H68c.166,0,.475,0,.939-.011S69.752.1,69.973.1c3.094,0,4.343,1.768,4.343,3.8a3.814,3.814,0,0,1-1.16,2.862A4.47,4.47,0,0,1,69.885,7.89c-.166,0-.464,0-.906-.011s-.762-.011-.994-.011ZM68.8,1.017V6.983c.674.011,1.05.022,1.116.022a3.518,3.518,0,0,0,2.508-.851A2.988,2.988,0,0,0,73.321,3.9a2.727,2.727,0,0,0-.873-2.11,3.537,3.537,0,0,0-2.5-.807C69.575.983,69.1,1.017,68.8,1.017Z"/><path d="M75.824,7.867V.133h4.365v.884H76.763v2.5h3.094V4.4H76.763V6.983H80.3v.884Z"/><path d="M82.689,7.867H81.75V.133c.166,0,.53,0,1.116-.011s.906-.011.961-.011c1.834,0,2.752.762,2.752,2.3a2.144,2.144,0,0,1-.5,1.436A2.231,2.231,0,0,1,84.9,4.6l2.575,3.271H86.325L83.949,4.773h-1.26Zm0-6.851V3.89h1.138a1.944,1.944,0,0,0,1.227-.4,1.294,1.294,0,0,0,.53-1.072c0-.95-.608-1.425-1.812-1.425C83.54.994,83.175,1.005,82.689,1.017Z"/></svg>