<svg id="Layer_1" data-name="Layer 1" xmlns="http://www.w3.org/2000/svg" viewBox="0 0 174 140"><defs><style>.cls-1{fill:#fafafa;}.cls-1,.cls-10,.cls-2,.cls-4{fill-rule:evenodd;}.cls-2{fill:#f6f4ef;}.cls-3{fill:#ab65f4;}.cls-4,.cls-5{fill:#fff;}.cls-6{fill:#e6e6e6;}.cls-7{fill:#ff7088;}.cls-8{fill:#66db82;}.cls-9{fill:#5acaef;}.cls-10{fill:#f5fcff;}.cls-11{fill:#127ef8;}.cls-12{fill:#fbae7a;}</style></defs><title>advantage-03-174x140</title><path class="cls-1" d="M91.338,134.126A62.539,62.539,0,1,0,28.8,71.589,62.661,62.661,0,0,0,91.338,134.126Z"/><path class="cls-2" d="M149.657,53.948a17.509,17.509,0,1,0-17.508-17.512A17.545,17.545,0,0,0,149.657,53.948Z"/><path class="cls-3" d="M153.663,50.945a18.511,18.511,0,1,1,18.51-18.511A18.531,18.531,0,0,1,153.663,50.945Zm0-35.022a16.511,16.511,0,1,0,16.51,16.512A16.53,16.53,0,0,0,153.663,15.923Z"/><path class="cls-4" d="M153.663,43.359c-3.347,0-7.911-1.23-9.475-5.114.685-2.369,2.085-3.249,4.4-4.015a7.469,7.469,0,0,0,10.146,0c2.313.766,3.709,1.646,4.4,4.015C161.569,42.128,157.01,43.359,153.663,43.359Z"/><path class="cls-3" d="M153.663,44.359c-3.911,0-8.7-1.508-10.4-5.741a1.007,1.007,0,0,1-.033-.651c.8-2.779,2.527-3.854,5.049-4.687a1,1,0,0,1,.993.216,6.468,6.468,0,0,0,8.786,0,1,1,0,0,1,.994-.216c2.516.833,4.236,1.907,5.042,4.685a1,1,0,0,1-.032.652C162.356,42.85,157.572,44.359,153.663,44.359Zm-8.408-6.17c1.451,3.067,5.256,4.17,8.408,4.17s6.951-1.1,8.4-4.17a4.345,4.345,0,0,0-3.113-2.826,8.472,8.472,0,0,1-10.579,0A4.339,4.339,0,0,0,145.255,38.188Z"/><path class="cls-4" d="M153.663,31.372c-2.569,0-3.5-2.077-3.5-4.646s.932-4.645,3.5-4.645,3.5,2.076,3.5,4.645S156.228,31.372,153.663,31.372Z"/><path class="cls-3" d="M153.663,32.372c-2.819,0-4.5-2.11-4.5-5.646s1.683-5.646,4.5-5.646,4.5,2.11,4.5,5.646S156.482,32.372,153.663,32.372Zm0-9.291c-.619,0-2.5,0-2.5,3.646s1.883,3.646,2.5,3.646c1.659,0,2.5-1.227,2.5-3.646C156.164,23.081,154.281,23.081,153.663,23.081Z"/><rect class="cls-5" x="141.139" y="93.754" width="29.636" height="4.89"/><path class="cls-6" d="M170.776,99.644H141.14a1,1,0,0,1-1-1v-4.89a1,1,0,0,1,1-1h29.636a1,1,0,0,1,1,1v4.89A1,1,0,0,1,170.776,99.644Zm-28.636-2h27.636v-2.89H142.14Z"/><rect class="cls-5" x="141.139" y="103.762" width="11.058" height="4.89"/><path class="cls-6" d="M152.2,109.652H141.14a1,1,0,0,1-1-1v-4.89a1,1,0,0,1,1-1H152.2a1,1,0,0,1,1,1v4.89A1,1,0,0,1,152.2,109.652Zm-10.058-2H151.2v-2.89H142.14Z"/><rect class="cls-5" x="141.139" y="113.77" width="24.347" height="4.886"/><path class="cls-6" d="M165.486,119.656H141.14a1,1,0,0,1-1-1v-4.887a1,1,0,0,1,1-1h24.346a1,1,0,0,1,1,1v4.887A1,1,0,0,1,165.486,119.656Zm-23.346-2h22.346v-2.887H142.14Z"/><rect class="cls-5" x="15.161" y="26.584" width="21.343" height="4.89"/><path class="cls-6" d="M36.5,32.474H15.16a1,1,0,0,1-1-1v-4.89a1,1,0,0,1,1-1H36.5a1,1,0,0,1,1,1v4.89A1,1,0,0,1,36.5,32.474Zm-20.343-2H35.5v-2.89H16.16Z"/><rect class="cls-5" x="15.161" y="36.591" width="31.896" height="4.886"/><path class="cls-6" d="M47.057,42.477H15.16a1,1,0,0,1-1-1V36.591a1,1,0,0,1,1-1h31.9a1,1,0,0,1,1,1v4.886A1,1,0,0,1,47.057,42.477Zm-30.9-2h29.9V37.591H16.16Z"/><rect class="cls-5" x="15.161" y="46.595" width="17.435" height="4.89"/><path class="cls-6" d="M32.595,52.485H15.16a1,1,0,0,1-1-1v-4.89a1,1,0,0,1,1-1H32.595a1,1,0,0,1,1,1v4.89A1,1,0,0,1,32.595,52.485Zm-16.435-2H31.595v-2.89H16.16Z"/><path class="cls-4" d="M115.213,130.646h0a4.015,4.015,0,0,1-4-4h0a4.015,4.015,0,0,1,4-4h0a4.015,4.015,0,0,1,4,4h0A4.015,4.015,0,0,1,115.213,130.646Z"/><path class="cls-7" d="M115.213,131.646h0a5,5,0,1,1,5.007-5A5.008,5.008,0,0,1,115.208,131.646Zm0-8.006a3,3,0,1,0,0,6.006h0a3,3,0,0,0,0-6.006Z"/><path class="cls-4" d="M155.613,77.4h0a4.013,4.013,0,0,1-4-4.007h0a4.012,4.012,0,0,1,4-4h0a4.011,4.011,0,0,1,4,4h0A4.013,4.013,0,0,1,155.613,77.4Z"/><path class="cls-8" d="M155.614,78.4a5,5,0,1,1,5-5.007A5.01,5.01,0,0,1,155.614,78.4Zm0-8a3,3,0,1,0,3,3A3,3,0,0,0,155.614,70.391Z"/><path class="cls-4" d="M66.49,121.481h0a2.505,2.505,0,0,1-2.5-2.5h0a2.505,2.505,0,0,1,2.5-2.5h0a2.509,2.509,0,0,1,2.5,2.5h0A2.509,2.509,0,0,1,66.49,121.481Z"/><path class="cls-3" d="M66.489,122.481h0a3.5,3.5,0,1,1,3.5-3.5A3.5,3.5,0,0,1,66.486,122.481Zm0-5a1.5,1.5,0,1,0,0,3h0a1.5,1.5,0,0,0,0-3Z"/><path class="cls-2" d="M19.339,114.453A17.509,17.509,0,1,0,1.827,96.946,17.543,17.543,0,0,0,19.339,114.453Z"/><path class="cls-7" d="M23.34,111.451A18.509,18.509,0,1,1,41.852,92.94,18.532,18.532,0,0,1,23.34,111.451Zm0-35.019A16.509,16.509,0,1,0,39.852,92.94,16.527,16.527,0,0,0,23.34,76.433Z"/><path class="cls-4" d="M23.341,103.867c-3.347,0-7.91-1.229-9.474-5.117.687-2.374,2.088-3.245,4.4-4.015a7.459,7.459,0,0,0,10.146,0c2.312.77,3.713,1.641,4.4,4.015C31.252,102.638,26.687,103.867,23.341,103.867Z"/><path class="cls-7" d="M23.34,104.867c-3.911,0-8.7-1.509-10.4-5.744a1.008,1.008,0,0,1-.033-.652c.8-2.771,2.525-3.847,5.046-4.685a1,1,0,0,1,1,.215,6.459,6.459,0,0,0,8.788,0,1,1,0,0,1,1-.215c2.521.838,4.243,1.915,5.046,4.685a1.007,1.007,0,0,1-.033.651C32.04,103.359,27.253,104.867,23.34,104.867Zm-8.407-6.173c1.451,3.069,5.256,4.173,8.407,4.173s6.959-1.1,8.408-4.173a4.357,4.357,0,0,0-3.119-2.825,8.458,8.458,0,0,1-10.577,0A4.356,4.356,0,0,0,14.933,98.694Z"/><path class="cls-4" d="M23.341,91.881c-2.564,0-3.5-2.084-3.5-4.649s.936-4.646,3.5-4.646,3.5,2.081,3.5,4.646S25.91,91.881,23.341,91.881Z"/><path class="cls-7" d="M23.34,92.881c-2.817,0-4.5-2.112-4.5-5.649s1.683-5.646,4.5-5.646,4.5,2.11,4.5,5.646S26.159,92.881,23.34,92.881Zm0-9.295c-1.659,0-2.5,1.227-2.5,3.646s.841,3.649,2.5,3.649c.619,0,2.5,0,2.5-3.649S23.959,83.586,23.34,83.586Z"/><path class="cls-6" d="M139.271,17.291a1,1,0,0,1-.779-.373q-.223-.275-.456-.549a1,1,0,0,1-.238-.717,1,1,0,0,1-.691-.311q-.316-.332-.648-.657a1,1,0,0,1-.3-.7.959.959,0,0,1-.716-.251q-.346-.308-.706-.61a1,1,0,0,1-.353-.676.988.988,0,0,1-.734-.2q-.369-.283-.749-.562a1,1,0,0,1-.4-.653,1,1,0,0,1-.748-.152q-.388-.262-.785-.518a1,1,0,0,1-.436-.63,1,1,0,0,1-.761-.112q-.4-.24-.81-.473a.992.992,0,0,1-.47-.607,1,1,0,0,1-.768-.073q-.412-.22-.833-.432a1,1,0,0,1-.5-.584.992.992,0,0,1-.767-.035q-.426-.2-.857-.394a1,1,0,0,1-.527-.562,1,1,0,0,1-.77,0q-.434-.18-.874-.355a1,1,0,0,1-.551-.538,1,1,0,0,1-.772.033c-.293-.108-.59-.214-.887-.318a1,1,0,0,1-.573-.514.992.992,0,0,1-.77.065c-.3-.1-.6-.19-.9-.282a.993.993,0,0,1-.594-.491.989.989,0,0,1-.766.1q-.453-.126-.91-.245a1,1,0,0,1-.614-.467.989.989,0,0,1-.762.126c-.3-.072-.612-.141-.92-.208a1,1,0,0,1-.633-.443.99.99,0,0,1-.755.156c-.31-.06-.619-.117-.931-.173a1,1,0,0,1-.65-.419,1,1,0,0,1-.751.188q-.467-.072-.936-.136a1,1,0,0,1-.667-.393.993.993,0,0,1-.744.218c-.312-.036-.625-.068-.938-.1a1,1,0,0,1-.681-.365,1,1,0,0,1-.731.247q-.472-.034-.943-.06a1,1,0,0,1-.694-.336,1.007,1.007,0,0,1-.723.276c-.313-.01-.627-.017-.941-.021a1,1,0,0,1-.707-.307,1,1,0,0,1-.707.306q-.472.006-.943.02a.97.97,0,0,1-.719-.275,1,1,0,0,1-.694.336c-.314.017-.627.037-.94.061A1,1,0,0,1,96.42,1.9a1,1,0,0,1-.677.366q-.469.047-.936.1a.989.989,0,0,1-.74-.209,1,1,0,0,1-.659.4q-.464.069-.929.146a.99.99,0,0,1-.749-.173.993.993,0,0,1-.638.428q-.461.092-.921.193a.993.993,0,0,1-.755-.136,1,1,0,0,1-.617.459q-.454.114-.907.238a1,1,0,0,1-.762-.1,1,1,0,0,1-.591.491q-.448.138-.894.286a1,1,0,0,1-.765-.055,1,1,0,0,1-.563.521q-.439.162-.876.334a1,1,0,0,1-.766-.013,1,1,0,0,1-.53.55q-.429.188-.856.384a1,1,0,0,1-.765.031,1,1,0,0,1-.5.583q-.419.211-.831.433a1,1,0,0,1-.761.076,1,1,0,0,1-.463.61q-.4.237-.8.483a.991.991,0,0,1-.754.122,1,1,0,0,1-.426.638q-.39.26-.772.531a1,1,0,0,1-.747.168,1,1,0,0,1-.385.664c-.248.188-.492.381-.735.577a.972.972,0,0,1-.734.216.993.993,0,0,1-.341.684q-.352.306-.7.623a1,1,0,0,1-1.348-1.479q.365-.332.734-.653a.979.979,0,0,1,.763-.24,1,1,0,0,1,.369-.708q.385-.311.778-.611a1.009,1.009,0,0,1,.777-.19,1,1,0,0,1,.415-.686q.4-.285.813-.559a1,1,0,0,1,.785-.142,1,1,0,0,1,.457-.658c.28-.172.561-.341.844-.507a.99.99,0,0,1,.793-.094,1,1,0,0,1,.5-.628q.434-.233.874-.455a1,1,0,0,1,.8-.046,1,1,0,0,1,.531-.6q.447-.207.9-.4a1,1,0,0,1,.8,0,1,1,0,0,1,.563-.564q.457-.181.919-.351a1,1,0,0,1,.795.045,1,1,0,0,1,.594-.532q.466-.155.935-.3a1,1,0,0,1,.793.088,1,1,0,0,1,.622-.5q.473-.13.95-.25a.992.992,0,0,1,.783.129,1,1,0,0,1,.646-.466c.318-.069.639-.136.958-.2a1,1,0,0,1,.778.168,1,1,0,0,1,.667-.433c.321-.055.645-.105.968-.153a1,1,0,0,1,.768.206,1,1,0,0,1,.687-.4c.323-.039.648-.075.973-.108A1,1,0,0,1,96.3.518,1,1,0,0,1,97,.15q.488-.036.978-.063a1.026,1.026,0,0,1,.744.274,1,1,0,0,1,.72-.337c.326-.009.652-.017.977-.021a.871.871,0,0,1,.733.307,1.046,1.046,0,0,1,.733-.306c.326,0,.653.012.979.022a1,1,0,0,1,.717.337,1.034,1.034,0,0,1,.745-.275c.326.018.652.039.977.062a1,1,0,0,1,.705.367,1.013,1.013,0,0,1,.756-.245c.325.032.65.065.974.1a1,1,0,0,1,.688.4,1,1,0,0,1,.766-.215q.486.066.971.141a1,1,0,0,1,.673.423.987.987,0,0,1,.773-.184c.321.057.643.116.962.179a1,1,0,0,1,.655.447.99.99,0,0,1,.777-.152q.479.1.953.216a.994.994,0,0,1,.636.473.987.987,0,0,1,.783-.121c.316.082.63.167.943.253a1,1,0,0,1,.617.5.987.987,0,0,1,.789-.089q.469.142.933.292a1,1,0,0,1,.6.522,1,1,0,0,1,.792-.057q.463.162.92.33a1,1,0,0,1,.573.546,1,1,0,0,1,.795-.024c.3.121.606.243.905.368a1,1,0,0,1,.552.572,1,1,0,0,1,.794.01q.447.2.889.408a1,1,0,0,1,.526.6,1,1,0,0,1,.793.047q.439.223.872.452a1,1,0,0,1,.494.621,1,1,0,0,1,.792.086q.429.244.849.5a1,1,0,0,1,.463.646,1,1,0,0,1,.788.128c.276.178.548.358.818.54a1,1,0,0,1,.43.676,1,1,0,0,1,.78.175q.4.293.786.591a1,1,0,0,1,.387.7.994.994,0,0,1,.769.227q.381.32.747.646a1,1,0,0,1,.336.731.979.979,0,0,1,.751.284q.359.352.7.709a1,1,0,0,1,.273.756,1,1,0,0,1,.727.35q.253.3.493.594a1,1,0,0,1-.777,1.627Z"/><path class="cls-6" d="M77.9,139.172h-.163a1,1,0,0,1-.731-.318,1.142,1.142,0,0,1-.738.294q-.489-.016-.978-.039a1,1,0,0,1-.712-.35.984.984,0,0,1-.752.26c-.324-.024-.648-.053-.972-.082a1,1,0,0,1-.7-.383.966.966,0,0,1-.764.226c-.324-.039-.648-.081-.971-.127a1,1,0,0,1-.676-.413.978.978,0,0,1-.771.191c-.324-.054-.647-.111-.968-.172a1,1,0,0,1-.655-.442,1,1,0,0,1-.778.154c-.319-.068-.638-.14-.953-.214a1,1,0,0,1-.64-.476,1.007,1.007,0,0,1-.786.119c-.314-.083-.627-.17-.939-.257a1,1,0,0,1-.619-.5,1,1,0,0,1-.79.083q-.469-.146-.933-.3a1,1,0,0,1-.59-.53.992.992,0,0,1-.795.045c-.306-.112-.611-.227-.914-.344a1,1,0,0,1-.566-.556.99.99,0,0,1-.795.009q-.453-.189-.9-.386a1,1,0,0,1-.539-.583.986.986,0,0,1-.8-.028q-.442-.209-.88-.427a1,1,0,0,1-.511-.606.989.989,0,0,1-.792-.063q-.434-.23-.858-.466a1,1,0,0,1-.485-.632,1.008,1.008,0,0,1-.789-.1c-.281-.168-.562-.337-.84-.51a1,1,0,0,1-.454-.655,1,1,0,0,1-.786-.137q-.412-.27-.815-.548a1,1,0,0,1-.424-.677,1,1,0,0,1-.777-.175q-.4-.29-.79-.588a1,1,0,0,1-.389-.693,1,1,0,0,1-.769-.209q-.385-.308-.761-.622a1,1,0,0,1-.358-.716,1,1,0,0,1-.76-.248c-.243-.216-.483-.435-.723-.653a1,1,0,0,1-.324-.731.98.98,0,0,1-.743-.286q-.35-.343-.692-.692a1,1,0,0,1-.284-.74,1,1,0,0,1-.729-.321q-.334-.36-.659-.728a1,1,0,0,1-.247-.755,1,1,0,0,1-.713-.357c-.209-.251-.414-.5-.618-.757a1,1,0,0,1-.21-.774,1,1,0,0,1-.694-.393q-.3-.4-.585-.8a1,1,0,0,1-.167-.78,1,1,0,0,1-.672-.431q-.274-.409-.539-.824a1,1,0,0,1-.125-.789,1,1,0,0,1-.649-.466q-.252-.423-.493-.851a1,1,0,1,1,1.742-.984c.153.271.31.543.47.812a1,1,0,0,1,.108.763,1,1,0,0,1,.633.439q.253.4.516.787a1,1,0,0,1,.149.755,1,1,0,0,1,.654.405q.272.381.556.757a1,1,0,0,1,.19.749,1,1,0,0,1,.675.367q.294.368.6.729a1,1,0,0,1,.228.732,1,1,0,0,1,.693.335q.311.352.63.7a1,1,0,0,1,.265.72,1,1,0,0,1,.709.3c.219.224.441.444.665.665a1,1,0,0,1,.3.707.977.977,0,0,1,.718.262q.347.319.7.634a1,1,0,0,1,.334.694,1.013,1.013,0,0,1,.735.227q.362.3.729.6a1,1,0,0,1,.37.679,1,1,0,0,1,.75.194q.374.284.755.563a1,1,0,0,1,.4.66,1,1,0,0,1,.754.158q.39.267.784.526a1,1,0,0,1,.432.641,1,1,0,0,1,.764.122q.4.248.807.488a1,1,0,0,1,.459.617,1.01,1.01,0,0,1,.764.086c.272.151.549.3.826.45a1,1,0,0,1,.488.594,1.013,1.013,0,0,1,.77.051c.28.141.563.277.847.413a1,1,0,0,1,.514.57,1,1,0,0,1,.771.016c.286.127.574.25.864.372a1,1,0,0,1,.54.545,1,1,0,0,1,.769-.02q.439.17.883.332a.991.991,0,0,1,.563.521,1,1,0,0,1,.769-.055c.3.1.595.2.894.29a1,1,0,0,1,.59.5.993.993,0,0,1,.761-.092c.3.085.607.168.912.249a1,1,0,0,1,.611.469,1,1,0,0,1,.758-.126c.3.07.61.14.918.206a1,1,0,0,1,.632.438,1,1,0,0,1,.755-.159c.307.059.614.112.923.164a.994.994,0,0,1,.652.409.988.988,0,0,1,.747-.2c.311.044.621.084.934.123a1,1,0,0,1,.668.379.982.982,0,0,1,.733-.229c.313.029.626.056.94.08a1,1,0,0,1,.685.348.978.978,0,0,1,.725-.262c.313.016.626.028.94.037a1,1,0,0,1,.7.318,1,1,0,0,1,.708-.294H77.9q.39,0,.781-.006a.955.955,0,0,1,.715.286,1,1,0,0,1,.7-.326c.313-.013.626-.029.94-.048a1.034,1.034,0,0,1,.729.254,1,1,0,0,1,.683-.356c.313-.027.626-.057.939-.09a1.029,1.029,0,0,1,.738.223,1,1,0,0,1,.667-.386q.466-.062.933-.13a.978.978,0,0,1,.747.189.993.993,0,0,1,.649-.414q.463-.081.927-.17a1,1,0,0,1,.754.158.993.993,0,0,1,.631-.441c.308-.067.614-.137.922-.209a1,1,0,0,1,.759.126,1,1,0,0,1,.615-.469q.454-.119.91-.246a1.009,1.009,0,0,1,.764.1A1,1,0,0,1,94,134.72q.448-.138.9-.283a1,1,0,0,1,.769.065.994.994,0,0,1,.569-.514l.894-.321a1.007,1.007,0,0,1,.771.035,1,1,0,0,1,.551-.536q.438-.173.878-.354a1.007,1.007,0,0,1,.771,0,.992.992,0,0,1,.531-.557c.289-.128.577-.256.865-.387a1,1,0,0,1,.771-.024,1,1,0,0,1,.512-.576q.425-.2.849-.416a1.009,1.009,0,0,1,.771-.052.994.994,0,0,1,.491-.6q.417-.22.835-.446a1,1,0,1,1,.955,1.758q-.429.233-.858.458a1,1,0,0,1-.79.062,1,1,0,0,1-.51.605c-.292.146-.583.288-.876.43a1.007,1.007,0,0,1-.791.033,1,1,0,0,1-.531.585q-.444.2-.889.4a1,1,0,0,1-.793.006,1,1,0,0,1-.554.566c-.3.124-.6.244-.9.363a1,1,0,0,1-.8-.025,1,1,0,0,1-.575.546q-.458.167-.913.327a1,1,0,0,1-.8-.056,1,1,0,0,1-.6.523q-.466.149-.93.291a.991.991,0,0,1-.788-.088,1,1,0,0,1-.618.5c-.315.087-.629.173-.943.254a.991.991,0,0,1-.781-.12.993.993,0,0,1-.638.475c-.317.074-.634.146-.951.215a.992.992,0,0,1-.779-.152,1,1,0,0,1-.656.447q-.482.092-.962.176a1.011,1.011,0,0,1-.771-.186.993.993,0,0,1-.674.418q-.485.072-.968.135a1.015,1.015,0,0,1-.764-.22,1,1,0,0,1-.692.39c-.325.033-.65.064-.975.092a.981.981,0,0,1-.754-.252.994.994,0,0,1-.708.358q-.492.031-.981.05a.945.945,0,0,1-.74-.285,1,1,0,0,1-.726.327Q78.3,139.172,77.9,139.172Z"/><path class="cls-4" d="M91.338,111.441A39.851,39.851,0,1,0,51.486,71.589,39.931,39.931,0,0,0,91.338,111.441Z"/><path class="cls-9" d="M91.338,112.441a40.851,40.851,0,1,1,40.851-40.852A40.9,40.9,0,0,1,91.338,112.441Zm0-79.7a38.851,38.851,0,1,0,38.851,38.851A38.9,38.9,0,0,0,91.338,32.738Z"/><path class="cls-10" d="M91.338,103.107A31.519,31.519,0,1,0,59.821,71.589,31.576,31.576,0,0,0,91.338,103.107Z"/><path class="cls-9" d="M91.338,109.111a1,1,0,0,1-1-1V35.065a1,1,0,0,1,2,0v73.046A1,1,0,0,1,91.338,109.111Z"/><path class="cls-11" d="M131.189,72.589H51.49a1,1,0,0,1,0-2h79.7a1,1,0,0,1,0,2Z"/><path class="cls-9" d="M91.338,112.441c-12.172,0-22.074-18.327-22.074-40.852s9.9-40.851,22.074-40.851S113.41,49.064,113.41,71.589,103.509,112.441,91.338,112.441Zm0-79.7c-11.069,0-20.074,17.428-20.074,38.851s9,38.852,20.074,38.852S111.41,93.012,111.41,71.589,102.406,32.738,91.338,32.738Z"/><path class="cls-11" d="M91.338,53.633c-10.172,0-19.754-2.1-26.982-5.925a1,1,0,0,1,.936-1.769c6.944,3.672,16.2,5.694,26.047,5.694s19.1-2.022,26.044-5.693a1,1,0,0,1,.936,1.768C111.091,51.528,101.51,53.633,91.338,53.633Z"/><path class="cls-11" d="M117.849,97.36a1,1,0,0,1-.467-.116c-6.938-3.674-16.187-5.7-26.044-5.7s-19.106,2.023-26.047,5.7a1,1,0,1,1-.936-1.768c7.224-3.824,16.806-5.93,26.982-5.93s19.759,2.106,26.979,5.93a1,1,0,0,1-.469,1.884Z"/><path class="cls-4" d="M107.969,23.078h0a2.512,2.512,0,0,0,2.5-2.5v0a2.509,2.509,0,0,0-2.5-2.5h0a2.506,2.506,0,0,0-2.5,2.5v0A2.509,2.509,0,0,0,107.969,23.078Z"/><path class="cls-9" d="M107.969,24.078a3.5,3.5,0,1,1,3.5-3.5A3.5,3.5,0,0,1,107.969,24.078Zm0-5a1.5,1.5,0,1,0,1.5,1.5A1.5,1.5,0,0,0,107.969,19.074Z"/><path class="cls-4" d="M63.624,21.6h0a4.012,4.012,0,0,0,4-4h0a4.013,4.013,0,0,0-4-4h0a4.013,4.013,0,0,0-4,4h0A4.013,4.013,0,0,0,63.624,21.6Z"/><path class="cls-12" d="M63.623,22.6a5,5,0,1,1,5-5A5.008,5.008,0,0,1,63.623,22.6Zm0-8a3,3,0,1,0,3,3A3.006,3.006,0,0,0,63.623,14.6Z"/></svg>