<svg id="Layer_1" data-name="Layer 1" xmlns="http://www.w3.org/2000/svg" viewBox="0 0 174 128"><defs><style>.cls-1{fill:#fafafa;}.cls-1,.cls-10,.cls-2,.cls-4{fill-rule:evenodd;}.cls-2{fill:#f6f4ef;}.cls-3{fill:#fbae7a;}.cls-4,.cls-5{fill:#fff;}.cls-6{fill:#e6e6e6;}.cls-7{fill:#5acaef;}.cls-8{fill:#ff7088;}.cls-9{fill:#ab65f4;}.cls-10{fill:#f5fcff;}.cls-11{fill:#66db82;}.cls-12{fill:#127ef8;}</style></defs><title>advantage-04-174x128</title><path class="cls-1" d="M84.76,125.847A62.537,62.537,0,1,0,22.224,63.31,62.659,62.659,0,0,0,84.76,125.847Z"/><path class="cls-2" d="M36.339,23.735a11.726,11.726,0,1,1-23.451,0V14.013H19.61V9A5,5,0,1,1,29.618,9v5.008h6.722Z"/><path class="cls-3" d="M27.614,33.456A12.74,12.74,0,0,1,14.889,20.73V11.008a1,1,0,0,1,1-1H39.34a1,1,0,0,1,1,1V20.73A12.74,12.74,0,0,1,27.614,33.456ZM16.889,12.008V20.73a10.726,10.726,0,1,0,21.451,0V12.008Z"/><path class="cls-3" d="M32.623,12.008H22.614a1,1,0,0,1-1-1V6A6,6,0,0,1,33.623,6v5.008A1,1,0,0,1,32.623,12.008Zm-9.009-2h8.009V6a4,4,0,0,0-8.009,0Z"/><path class="cls-4" d="M27.619,24.867a2.638,2.638,0,1,0-2.642-2.639A2.64,2.64,0,0,0,27.619,24.867Z"/><path class="cls-3" d="M27.618,25.867a3.638,3.638,0,1,1,3.638-3.639A3.644,3.644,0,0,1,27.618,25.867Zm0-5.276a1.638,1.638,0,1,0,1.638,1.638A1.642,1.642,0,0,0,27.618,20.591Z"/><path class="cls-3" d="M27.614,20.591a1,1,0,0,1-1-1V15.584a1,1,0,0,1,2,0v4.007A1,1,0,0,1,27.614,20.591Z"/><rect class="cls-5" x="116.706" y="11.659" width="32.302" height="4.894"/><path class="cls-6" d="M149.007,17.553h-32.3a1,1,0,0,1-1-1V11.659a1,1,0,0,1,1-1h32.3a1,1,0,0,1,1,1v4.894A1,1,0,0,1,149.007,17.553Zm-31.3-2h30.3V12.659h-30.3Z"/><rect class="cls-5" x="116.706" y="1.651" width="24.261" height="4.895"/><path class="cls-6" d="M140.966,7.546h-24.26a1,1,0,0,1-1-1V1.651a1,1,0,0,1,1-1h24.26a1,1,0,0,1,1,1V6.546A1,1,0,0,1,140.966,7.546Zm-23.26-2h22.26V2.651h-22.26Z"/><rect class="cls-5" x="7.811" y="82.966" width="19.6" height="4.895"/><path class="cls-6" d="M27.41,88.86H7.811a1,1,0,0,1-1-1V82.966a1,1,0,0,1,1-1h19.6a1,1,0,0,1,1,1V87.86A1,1,0,0,1,27.41,88.86Zm-18.6-2h17.6V83.966H8.811Z"/><rect class="cls-5" x="7.811" y="92.974" width="31.932" height="4.886"/><path class="cls-6" d="M39.743,98.859H7.811a1,1,0,0,1-1-1V92.974a1,1,0,0,1,1-1H39.743a1,1,0,0,1,1,1v4.886A1,1,0,0,1,39.743,98.859Zm-30.933-2H38.743V93.974H8.811Z"/><path class="cls-4" d="M12.973,57.577h0a2.506,2.506,0,0,1-2.5-2.5h0a2.506,2.506,0,0,1,2.5-2.5h0a2.506,2.506,0,0,1,2.5,2.5h0A2.506,2.506,0,0,1,12.973,57.577Z"/><path class="cls-7" d="M12.973,58.577a3.5,3.5,0,1,1,3.5-3.5A3.5,3.5,0,0,1,12.973,58.577Zm0-5a1.5,1.5,0,1,0,1.5,1.5A1.5,1.5,0,0,0,12.973,53.577Z"/><path class="cls-2" d="M160.18,97.908H141.028a2,2,0,0,1-2-2V71.281H158.18V95.905A2,2,0,0,0,160.18,97.908Z"/><path class="cls-4" d="M164.186,93.9a2,2,0,0,0,2-2v-2h-4.006v2A2,2,0,0,0,164.186,93.9Z"/><path class="cls-8" d="M164.186,94.9a3.006,3.006,0,0,1-3-3v-2a1,1,0,0,1,1-1h4.007a1,1,0,0,1,1,1v2A3.007,3.007,0,0,1,164.186,94.9Zm-1-4.007v1a1,1,0,0,0,2.007,0v-1Z"/><path class="cls-8" d="M164.186,94.9v-2a1,1,0,0,0,1-1v-1h-1v-2h2a1,1,0,0,1,1,1v2A3.007,3.007,0,0,1,164.186,94.9Z"/><path class="cls-8" d="M164.186,94.9H145.034a3.006,3.006,0,0,1-3-3V67.274a1,1,0,0,1,1-1h19.151a1,1,0,0,1,1,1V91.9a1,1,0,0,0,1,1,1,1,0,0,1,0,2ZM144.031,68.274V91.9a1,1,0,0,0,1,1h16.32a3,3,0,0,1-.172-1V68.274Z"/><rect class="cls-8" x="147.038" y="73.782" width="11.143" height="2"/><rect class="cls-8" x="147.038" y="77.789" width="8.7" height="2"/><rect class="cls-8" x="147.038" y="81.795" width="10.063" height="2"/><polygon class="cls-4" points="150.384 93.902 154.634 93.902 154.634 102.159 152.509 101.157 150.384 102.159 150.384 93.902"/><path class="cls-8" d="M154.635,103.159a1,1,0,0,1-.427-.1l-1.7-.8-1.7.8a1,1,0,0,1-1.427-.9V93.9a1,1,0,0,1,1-1h4.25a1,1,0,0,1,1,1v8.257a1,1,0,0,1-1,1Zm-2.125-3a1,1,0,0,1,.427.1l.7.329V94.9h-2.25v5.68l.7-.329A1,1,0,0,1,152.51,100.157Z"/><circle class="cls-5" cx="152.509" cy="93.902" r="3.501"/><path class="cls-8" d="M152.51,98.4a4.5,4.5,0,1,1,4.5-4.5A4.507,4.507,0,0,1,152.51,98.4Zm0-7a2.5,2.5,0,1,0,2.5,2.5A2.506,2.506,0,0,0,152.51,91.4Z"/><path class="cls-4" d="M78.459,9h0A4.013,4.013,0,0,0,82.46,5h0a4.012,4.012,0,0,0-4-4h0a4.012,4.012,0,0,0-4,4h0A4.014,4.014,0,0,0,78.459,9Z"/><path class="cls-8" d="M78.459,10A5,5,0,1,1,83.46,5,5.01,5.01,0,0,1,78.459,10Zm0-8a3,3,0,1,0,3,3A3,3,0,0,0,78.459,2Z"/><rect class="cls-5" x="105.631" y="121.286" width="20.397" height="4.886"/><path class="cls-6" d="M126.028,127.172h-20.4a1,1,0,0,1-1-1v-4.886a1,1,0,0,1,1-1h20.4a1,1,0,0,1,1,1v4.886A1,1,0,0,1,126.028,127.172Zm-19.4-2h18.4v-2.886h-18.4Z"/><rect class="cls-5" x="105.631" y="111.278" width="31.602" height="4.887"/><path class="cls-6" d="M137.232,117.165h-31.6a1,1,0,0,1-1-1v-4.887a1,1,0,0,1,1-1h31.6a1,1,0,0,1,1,1v4.887A1,1,0,0,1,137.232,117.165Zm-30.6-2h29.6v-2.887h-29.6Z"/><path class="cls-4" d="M153.576,39.476h0a2.513,2.513,0,0,1,2.5,2.508h0a2.506,2.506,0,0,1-2.5,2.5h0a2.506,2.506,0,0,1-2.5-2.5h0A2.513,2.513,0,0,1,153.576,39.476Z"/><path class="cls-9" d="M153.576,45.483a3.5,3.5,0,1,1,3.5-3.5A3.5,3.5,0,0,1,153.576,45.483Zm0-5.008a1.5,1.5,0,1,0,1.5,1.508A1.506,1.506,0,0,0,153.576,40.476Z"/><path class="cls-10" d="M84.76,107.028C113.147,86,116.783,80.06,116.783,35.3c-15.875,0-22.389-5.691-32.022-11.7-9.633,6.01-16.146,11.7-32.018,11.7C52.743,80.06,55.764,85.661,84.76,107.028Z"/><path class="cls-4" d="M84.76,107.028C113.147,86,116.783,80.06,116.783,35.3c-15.875,0-22.389-5.691-32.022-11.7-9.633,6.01-16.146,11.7-32.018,11.7C52.743,80.06,55.764,85.661,84.76,107.028Z"/><path class="cls-10" d="M109.821,41.82c0,35.03-2.847,39.688-25.061,56.137C62.067,81.24,59.706,76.851,59.706,41.82c6.262-.5,17.608-4.349,25.055-10.358C92.211,37.472,103.554,41.323,109.821,41.82Z"/><path class="cls-4" d="M58.439,118.241h0a4.012,4.012,0,0,1-4-4h0a4.013,4.013,0,0,1,4-4.007h0a4.013,4.013,0,0,1,4,4.007h0A4.011,4.011,0,0,1,58.439,118.241Z"/><path class="cls-11" d="M58.439,119.241a5,5,0,1,1,5-5A5.006,5.006,0,0,1,58.439,119.241Zm0-8a3,3,0,1,0,3,3.007A3.008,3.008,0,0,0,58.439,111.236Z"/><polygon class="cls-4" points="81.601 65.044 95.453 51.192 99.618 55.362 81.601 73.374 71.598 63.374 75.763 59.205 81.601 65.044"/><path class="cls-12" d="M81.6,74.374a1,1,0,0,1-.707-.293l-10-10a1,1,0,0,1,0-1.414L75.057,58.5a1.029,1.029,0,0,1,1.414,0L81.6,63.63,94.745,50.485a1,1,0,0,1,.707-.293h0a1,1,0,0,1,.707.293l4.166,4.17a1,1,0,0,1,0,1.414L82.309,74.081A1,1,0,0,1,81.6,74.374Zm-8.59-11L81.6,71.96l16.6-16.6-2.752-2.755L82.309,65.751a1,1,0,0,1-.707.293h0a1,1,0,0,1-.707-.293L75.764,60.62Z"/><path class="cls-7" d="M84.76,99.454a1,1,0,0,1-.593-.195c-22.86-16.841-25.13-27.416-25.429-51.2a1,1,0,0,1,.987-1.013h.013a1,1,0,0,1,1,.987c.293,23.326,2.345,33.058,24.021,49.172,21.532-16.077,23.7-26.344,24.025-49.173a1,1,0,0,1,1-.986h.014a1,1,0,0,1,.986,1.014c-.329,23.259-2.721,34.4-25.43,51.194A1,1,0,0,1,84.76,99.454Z"/><path class="cls-7" d="M116.755,43.26a51.958,51.958,0,0,1-9.309-.855,57.749,57.749,0,0,1-8.834-2.345A55.472,55.472,0,0,1,90.7,36.567a44.221,44.221,0,0,1-5.94-3.831,43.74,43.74,0,0,1-5.94,3.832,55.243,55.243,0,0,1-7.91,3.492A57.683,57.683,0,0,1,62.075,42.4a51.972,51.972,0,0,1-9.308.855,1,1,0,0,1,0-2,49.976,49.976,0,0,0,8.949-.823,55.643,55.643,0,0,0,8.526-2.263,53.2,53.2,0,0,0,7.623-3.365,40.9,40.9,0,0,0,6.265-4.125,1,1,0,0,1,1.257,0,41.341,41.341,0,0,0,6.266,4.125,53.5,53.5,0,0,0,7.626,3.366,55.747,55.747,0,0,0,8.525,2.262,49.962,49.962,0,0,0,8.95.823,1,1,0,0,1,0,2Z"/><path class="cls-12" d="M84.76,108.028a1,1,0,0,1-.593-.195C54.471,85.95,51.743,79.849,51.743,35.3a1,1,0,0,1,1-1c13.57,0,20.232-4.3,27.946-9.289,1.147-.741,2.319-1.5,3.541-2.261a1,1,0,0,1,1.059,0c1.222.762,2.394,1.519,3.54,2.26,7.716,4.985,14.379,9.29,27.953,9.29a1,1,0,0,1,1,1c0,45.519-4.074,51.534-32.428,72.534A1,1,0,0,1,84.76,108.028ZM53.743,36.291c.037,42.86,2.551,48.468,31.016,69.494,27.3-20.257,30.97-25.859,31.022-69.494-13.492-.206-20.247-4.569-28.037-9.6-.972-.627-1.961-1.267-2.984-1.911-1.023.645-2.013,1.284-2.984,1.912C73.986,31.722,67.232,36.085,53.743,36.291Z"/></svg>